<svg xmlns="http://www.w3.org/2000/svg" viewBox="0 0 73.66 98.91"><defs><style>.cls-1{fill:#848484;fill-rule:evenodd;}</style></defs><g id="Calque_2" data-name="Calque 2"><g id="Calque_1-2" data-name="Calque 1"><path class="cls-1" d="M40.32,41.53a3.49,3.49,0,0,0-7,0v9.23H24.12a3.49,3.49,0,1,0-.48,7h9.7v9.22a3.49,3.49,0,0,0,7,0V57.65h9.23a3.49,3.49,0,1,0,.47-7H40.32Z"/><path class="cls-1" d="M73.58,24.46h0a3.19,3.19,0,0,0-.3-.85l-.11-.2a3.9,3.9,0,0,0-.54-.74L51,1.05a3.27,3.27,0,0,0-.74-.54l-.19-.2A3.71,3.71,0,0,0,49.22,0h0a2.58,2.58,0,0,0-.68,0h-45A3.49,3.49,0,0,0,0,3.51V95.42a3.49,3.49,0,0,0,3.49,3.49H70.17a3.49,3.49,0,0,0,3.49-3.49V25.13A3.83,3.83,0,0,0,73.58,24.46ZM52,11.91l9.73,9.7H52Zm14.67,80H7V7H45V25.13a3.49,3.49,0,0,0,3.49,3.49H66.68Z"/></g></g></svg>