<svg xmlns="http://www.w3.org/2000/svg" viewBox="0 0 94.05 97.73"><defs><style>.cls-1{fill:#848484;}</style></defs><g id="Calque_2" data-name="Calque 2"><g id="Calque_1-2" data-name="Calque 1"><path class="cls-1" d="M77.59,34.86v20.9a3.27,3.27,0,0,0,6.54,0V34.86a3.27,3.27,0,0,0-6.54,0Z"/><path class="cls-1" d="M69.88,48.58H90.77a3.27,3.27,0,0,0,0-6.54H69.88a3.27,3.27,0,1,0,0,6.54Z"/><path class="cls-1" d="M60.3,24.79a22.93,22.93,0,0,1-.19,2.87c0-.29.08-.57.12-.87a22,22,0,0,1-1.5,5.51l.33-.79a22,22,0,0,1-2,3.66c-.18.27-.38.54-.58.82s-.52.61.17-.21l-.36.44c-.43.52-.88,1-1.35,1.48s-1,.91-1.47,1.34c-.08.08-.32.35-.44.36.14,0,.71-.55.2-.16-.27.19-.53.39-.82.57a21.86,21.86,0,0,1-3.65,2l.79-.33A22.4,22.4,0,0,1,44.05,43l.87-.12a22.14,22.14,0,0,1-5.75,0l.88.12a22.28,22.28,0,0,1-5.51-1.51l.78.33a21.86,21.86,0,0,1-3.65-2l-.82-.57c-.2-.15-.61-.53.21.16L30.61,39c-.51-.43-1-.87-1.47-1.34a18.83,18.83,0,0,1-1.34-1.48c-.08-.08-.35-.32-.36-.44,0,.14.54.72.16.21-.2-.28-.39-.54-.58-.82a22.3,22.3,0,0,1-2-3.66l.32.79a22,22,0,0,1-1.5-5.51c0,.3.08.58.12.87a22.06,22.06,0,0,1,0-5.74c0,.29-.08.57-.12.87a22,22,0,0,1,1.5-5.51l-.32.79a21.9,21.9,0,0,1,2-3.66l.58-.82c.14-.19.52-.61-.16.21l.36-.45c.42-.51.87-1,1.34-1.47s1-.92,1.47-1.34c.09-.08.33-.35.45-.36-.14,0-.72.54-.21.16l.82-.58a23,23,0,0,1,3.65-2l-.78.33A21.86,21.86,0,0,1,40.05,6.6l-.88.12a22.14,22.14,0,0,1,5.75,0l-.87-.12a22,22,0,0,1,5.51,1.51l-.79-.33a22.14,22.14,0,0,1,3.65,2l.82.58c.2.14.61.53-.2-.16l.44.36A18.68,18.68,0,0,1,55,11.88q.7.7,1.35,1.47c.07.09.35.33.36.45,0-.14-.55-.72-.17-.21.2.28.4.54.58.82a23.13,23.13,0,0,1,2,3.66l-.33-.79a22,22,0,0,1,1.5,5.51c0-.3-.07-.58-.12-.87a23.05,23.05,0,0,1,.19,2.87,3.27,3.27,0,1,0,6.54,0,24.6,24.6,0,0,0-4.45-14.15,25.43,25.43,0,0,0-12-9.21A24.89,24.89,0,0,0,23.07,8.85,25.5,25.5,0,0,0,17.3,23.13,24.79,24.79,0,0,0,31.61,47.3a26.61,26.61,0,0,0,7.86,2.15,24.45,24.45,0,0,0,7.63-.37A24.87,24.87,0,0,0,66.47,29a26.61,26.61,0,0,0,.37-4.18,3.27,3.27,0,0,0-6.54,0Z"/><path class="cls-1" d="M77.54,68.38v16a24.35,24.35,0,0,1-.06,2.83c0-.29.07-.58.12-.87A9.21,9.21,0,0,1,77,88.43l.33-.79a11,11,0,0,1-.73,1.4s-.22.36-.24.34.6-.71.2-.27c-.17.2-.33.39-.52.58s-.34.33-.52.48-.59.34.22-.16c-.12.07-.23.16-.35.24A8.09,8.09,0,0,1,74,91l.79-.33a9.21,9.21,0,0,1-2.12.56c.29,0,.58-.08.87-.12a22.82,22.82,0,0,1-2.48.06H11.65a10.14,10.14,0,0,1-1.1-.06l.88.12a9.08,9.08,0,0,1-2.12-.56l.78.33a10.84,10.84,0,0,1-1.39-.73A2.38,2.38,0,0,1,8.35,90s.72.6.27.2c-.19-.17-.39-.33-.58-.52s-.32-.34-.48-.52-.33-.59.17.21c-.08-.12-.17-.22-.24-.34a6.91,6.91,0,0,1-.73-1.4l.32.79a9.19,9.19,0,0,1-.55-2.12c0,.29.07.58.12.87a22,22,0,0,1-.07-2.69V69.59a39.86,39.86,0,0,1,.23-4.75c0,.3-.07.58-.12.88A26.86,26.86,0,0,1,8.54,59l-.33.79A26.7,26.7,0,0,1,10,56.25c.35-.57.71-1.12,1.1-1.66.16-.23.88-1.09.15-.23.21-.24.39-.5.6-.74a26.38,26.38,0,0,1,2.66-2.73l.72-.62c.12-.1.25-.19.37-.3l.25-.2-.41.32a11.69,11.69,0,0,1,1.69-1.19,3.27,3.27,0,0,0-3.29-5.65A29.74,29.74,0,0,0,0,67.88c-.09,4.5,0,9,0,13.52C0,83,0,84.55,0,86.13a11.72,11.72,0,0,0,8.8,11.26,16.37,16.37,0,0,0,3.94.34H72.33a11.63,11.63,0,0,0,9-4,12,12,0,0,0,2.82-7.41c0-.47,0-1,0-1.42V68.39a3.3,3.3,0,0,0-6.59,0Z"/></g></g></svg>