<svg xmlns="http://www.w3.org/2000/svg" viewBox="0 0 97.94 89.92"><defs><style>.cls-1{fill:#848484;}</style></defs><g id="Calque_2" data-name="Calque 2"><g id="Calque_1-2" data-name="Calque 1"><path class="cls-1" d="M46.74,2.25V84.19c0,1.11,0,2.22,0,3.33v.15L49,85.44H8c-1.89,0-3.81-.07-5.69,0H2.23l2.23,2.23V5.73c0-1.11,0-2.22,0-3.34V2.25L2.23,4.47h41c1.89,0,3.8.06,5.69,0H49a2.24,2.24,0,0,0,2.22-2.22A2.28,2.28,0,0,0,49,0H8C6.11,0,4.2,0,2.31,0H2.23A2.26,2.26,0,0,0,0,2.25V84.19c0,1.11,0,2.22,0,3.33v.15a2.25,2.25,0,0,0,2.22,2.22h41c1.89,0,3.8.06,5.69,0H49a2.25,2.25,0,0,0,2.22-2.22V5.73c0-1.11,0-2.22,0-3.34V2.25a2.23,2.23,0,1,0-4.45,0Z"/><path class="cls-1" d="M20.16,50.74V40.58a2.23,2.23,0,0,0-4.45,0V50.74A2.23,2.23,0,0,0,17.93,53a2.26,2.26,0,0,0,2.23-2.22Z"/><path class="cls-1" d="M35.49,50.74V40.58a2.23,2.23,0,0,0-2.22-2.22,2.26,2.26,0,0,0-2.22,2.22V50.74a2.22,2.22,0,1,0,4.44,0Z"/><path class="cls-1" d="M20.16,26.67V16.51a2.23,2.23,0,0,0-4.45,0V26.67a2.23,2.23,0,0,0,4.45,0Z"/><path class="cls-1" d="M35.49,26.67V16.51a2.22,2.22,0,1,0-4.44,0V26.67a2.22,2.22,0,1,0,4.44,0Z"/><path class="cls-1" d="M93.46,27v53.2c0,2.43-.1,4.89,0,7.33v.11l2.23-2.23h-41c-1.88,0-3.79-.07-5.67,0H49l2.22,2.23V34.46c0-2.43.1-4.89,0-7.33V27L49,29.25H90c1.89,0,3.78.05,5.66,0h.08a2.23,2.23,0,0,0,0-4.45h-41c-1.9,0-3.79-.06-5.67,0H49A2.26,2.26,0,0,0,46.74,27v53.2c0,2.44-.05,4.89,0,7.33v.11A2.26,2.26,0,0,0,49,89.88H90c1.89,0,3.78.06,5.66,0h.08a2.25,2.25,0,0,0,2.22-2.22V34.46c0-2.44.06-4.89,0-7.33V27a2.23,2.23,0,0,0-4.45,0Z"/><path class="cls-1" d="M66.88,50.74V40.58a2.23,2.23,0,0,0-4.45,0V50.74A2.23,2.23,0,0,0,64.65,53a2.26,2.26,0,0,0,2.23-2.22Z"/><path class="cls-1" d="M82.21,50.74V40.58A2.23,2.23,0,0,0,80,38.36a2.26,2.26,0,0,0-2.22,2.22V50.74a2.22,2.22,0,0,0,4.44,0Z"/><path class="cls-1" d="M33.54,85.44H17.72l2.22,2.23V64.9l-2.22,2.22H33.54L31.31,64.9V87.67a2.23,2.23,0,0,0,4.45,0V64.9a2.26,2.26,0,0,0-2.22-2.23H17.72a2.27,2.27,0,0,0-2.23,2.23V87.67a2.26,2.26,0,0,0,2.23,2.22H33.54a2.23,2.23,0,0,0,2.22-2.22A2.26,2.26,0,0,0,33.54,85.44Z"/><path class="cls-1" d="M80.15,85.44H64.33l2.22,2.23V64.9l-2.22,2.22H80.15L77.92,64.9V87.67a2.23,2.23,0,0,0,4.45,0V64.9a2.26,2.26,0,0,0-2.22-2.23H64.33A2.27,2.27,0,0,0,62.1,64.9V87.67a2.26,2.26,0,0,0,2.23,2.22H80.15a2.24,2.24,0,0,0,2.22-2.22A2.27,2.27,0,0,0,80.15,85.44Z"/></g></g></svg>