<svg xmlns="http://www.w3.org/2000/svg" viewBox="0 0 95.5 98.3"><defs><style>.cls-1{fill:#848484;}</style></defs><g id="Calque_2" data-name="Calque 2"><g id="Calque_1-2" data-name="Calque 1"><path class="cls-1" d="M39.88,75.87V71.56a2.22,2.22,0,0,0-1.11-2A27.51,27.51,0,0,1,35.66,68a17.37,17.37,0,0,1-1.46-1c-.22-.14-.43-.3-.65-.46l-.38-.28c.27.23.17.14,0,0A26.77,26.77,0,0,1,30.59,64c-.39-.39-.74-.81-1.1-1.24a5.86,5.86,0,0,1-.54-.67c.29.43.13.18.06.08l-.37-.51a26.27,26.27,0,0,1-1.82-3c-.25-.48-.48-1-.7-1.43-.06-.15-.14-.29-.19-.44.17.52.07.16,0,0-.13-.32-.25-.64-.37-1a26.34,26.34,0,0,1-.94-3.34,10.8,10.8,0,0,1-.3-1.7c0,.65,0-.23,0-.38,0-.33-.07-.67-.08-1a28.51,28.51,0,0,1,0-3.58c0-.28.05-.57.08-.85,0-.13,0-.26.05-.38.05-.54-.08.52,0,0s.18-1.11.29-1.66a23.76,23.76,0,0,1,.9-3.2c.08-.24.17-.47.26-.71s.11-.28.17-.42c.18-.47-.17.35,0,.06.24-.52.48-1,.73-1.55a25.53,25.53,0,0,1,1.67-2.8c.13-.2.28-.4.42-.61s.18-.23.26-.36.15-.31-.08.1a8.57,8.57,0,0,1,1.14-1.36,26.21,26.21,0,0,1,2.25-2.22,7.54,7.54,0,0,1,1.19-1c-.51.28-.11.09,0,0l.24-.17c.23-.17.48-.34.73-.5a25.5,25.5,0,0,1,2.81-1.65,7.06,7.06,0,0,1,1.48-.68c-.44.09-.28.11-.12.05l.41-.16c.28-.12.57-.22.85-.31a25.21,25.21,0,0,1,3.2-.87c.53-.12,1.06-.2,1.58-.29.34,0-.58.07-.05,0l.46-.06.93-.08a25,25,0,0,1,3.46,0c.26,0,.52,0,.78.07a2.29,2.29,0,0,1,.78.09,1.45,1.45,0,0,1-.3-.05l.31.05.46.07.9.16a26.51,26.51,0,0,1,3.2.88l.71.26A2.82,2.82,0,0,1,57,26l-.26-.11.27.12.27.12.87.42A25.36,25.36,0,0,1,61,28.14l.73.5c.16.11.5.27.59.44-.15-.29-.27-.21,0,0a3.15,3.15,0,0,0,.29.22c.23.19.45.37.68.58a25.82,25.82,0,0,1,2.29,2.27c.36.4.7.82,1,1.23.16.2.13,0-.08-.1a1.41,1.41,0,0,1,.27.36q.27.36.51.72a25.45,25.45,0,0,1,1.66,2.8c.23.44.44.89.64,1.34a.38.38,0,0,1,.06.13c.1.23.08.18-.06-.12a1.48,1.48,0,0,1,.17.41c.11.28.22.57.32.85a24.86,24.86,0,0,1,.9,3.2c.1.49.2,1,.27,1.51,0,.14,0,.65,0,0l0,.3c0,.34.07.68.09,1a25.41,25.41,0,0,1,0,3.49,12.45,12.45,0,0,1-.17,1.82c.14-.65,0,.25-.06.38l-.18,1a23.94,23.94,0,0,1-1,3.43c-.09.24-.18.5-.28.75s-.11.3-.18.45c.27-.54,0-.06,0,0-.24.53-.5,1.06-.77,1.58a25,25,0,0,1-1.83,3,4.91,4.91,0,0,1-.47.63c.41-.46-.14.16-.24.28-.4.49-.82,1-1.26,1.42a25.72,25.72,0,0,1-2.55,2.34,2.35,2.35,0,0,0-.25.19c.39-.41.08-.06,0,0s-.43.32-.64.46q-.75.52-1.53,1a25,25,0,0,1-3,1.55,2.24,2.24,0,0,0-1.11,2v4.35a2.25,2.25,0,0,0,4.5,0V71.47l-1.12,1.94a28.07,28.07,0,1,0-25.69-1.54,26.79,26.79,0,0,0,3.11,1.59l-1.11-1.95v4.32a2.27,2.27,0,0,0,2.25,2.25,2.22,2.22,0,0,0,2.21-2.21Z"/><path class="cls-1" d="M45.5,2.25v9a2.25,2.25,0,1,0,4.5,0V2.25a2.25,2.25,0,0,0-4.5,0Z"/><path class="cls-1" d="M38.05,88.15H57.46a2.27,2.27,0,0,0,2.25-2.25,2.3,2.3,0,0,0-2.25-2.25H38.05a2.25,2.25,0,0,0,0,4.5Z"/><path class="cls-1" d="M2.25,50h9a2.27,2.27,0,0,0,2.25-2.25,2.3,2.3,0,0,0-2.25-2.25H2.25a2.25,2.25,0,0,0,0,4.5Z"/><path class="cls-1" d="M84.3,50h9a2.27,2.27,0,0,0,2.25-2.25,2.3,2.3,0,0,0-2.25-2.25h-9a2.25,2.25,0,0,0,0,4.5Z"/><path class="cls-1" d="M14,17.18l6.32,6.33a2.25,2.25,0,0,0,3.18-3.19L17.17,14A2.25,2.25,0,0,0,14,17.18Z"/><path class="cls-1" d="M72,75.2l6.33,6.33a2.27,2.27,0,0,0,3.18,0,2.3,2.3,0,0,0,0-3.18L75.19,72A2.25,2.25,0,1,0,72,75.2Z"/><path class="cls-1" d="M78.34,14,72,20.32a2.25,2.25,0,1,0,3.18,3.19l6.33-6.33A2.25,2.25,0,1,0,78.34,14Z"/><path class="cls-1" d="M20.31,72,14,78.35a2.26,2.26,0,0,0,0,3.18,2.29,2.29,0,0,0,3.18,0l6.32-6.33a2.26,2.26,0,0,0,0-3.18,2.29,2.29,0,0,0-3.18,0Z"/><path class="cls-1" d="M42.21,98.3H53.29a2.27,2.27,0,0,0,2.25-2.25,2.3,2.3,0,0,0-2.25-2.25H42.21a2.25,2.25,0,1,0,0,4.5Z"/></g></g></svg>