<svg xmlns="http://www.w3.org/2000/svg" viewBox="0 0 98.85 94.13"><defs><style>.cls-1{fill:#848484;}</style></defs><g id="Calque_2" data-name="Calque 2"><g id="Calque_1-2" data-name="Calque 1"><path class="cls-1" d="M80.81,13.28h3.78a29.2,29.2,0,0,1,4.08.08l-.92-.13a8.59,8.59,0,0,1,1.94.54l-.83-.34a7.75,7.75,0,0,1,1.27.68,2.77,2.77,0,0,1,.31.22s-.7-.58-.35-.27a6.77,6.77,0,0,1,.56.51c.16.16.31.34.46.5s.29.55-.22-.29l.17.24a8.26,8.26,0,0,1,.73,1.34l-.34-.83A9.14,9.14,0,0,1,92,17.47c0-.31-.08-.61-.13-.93a19.41,19.41,0,0,1,.08,2.64V75.05c0,2.55,0,5.1,0,7.65a7.58,7.58,0,0,1-.08,1.17c0-.31.08-.62.13-.93a8.59,8.59,0,0,1-.54,1.94l.34-.83a7.75,7.75,0,0,1-.68,1.27,2.08,2.08,0,0,1-.22.31s.58-.7.27-.34c-.17.18-.33.38-.51.55s-.34.31-.5.46-.55.29.29-.22c-.08,0-.16.12-.24.18a8.21,8.21,0,0,1-1.34.72l.83-.34a8.59,8.59,0,0,1-1.94.54l.92-.13a22.06,22.06,0,0,1-2.93.08H20.43c-3,0-6,0-9,0a7.93,7.93,0,0,1-1.19-.08l.92.13a8.23,8.23,0,0,1-1.94-.54l.83.34a8.18,8.18,0,0,1-1.27-.68,1.89,1.89,0,0,1-.31-.22s.71.58.35.27a6.62,6.62,0,0,1-.56-.51c-.16-.16-.31-.33-.46-.5s-.29-.55.22.29a1.77,1.77,0,0,0-.17-.24,8.26,8.26,0,0,1-.73-1.34l.35.83a8.61,8.61,0,0,1-.55-1.94c.05.31.09.62.13.93A21.17,21.17,0,0,1,7,81.23V25.36c0-2.55,0-5.1,0-7.65a7.67,7.67,0,0,1,.08-1.17c0,.32-.08.62-.13.93a8.12,8.12,0,0,1,.55-1.94l-.35.83a9.65,9.65,0,0,1,.68-1.27s.2-.31.22-.31-.58.7-.26.34c.16-.18.32-.38.5-.55l.5-.46c.22-.2.55-.29-.29.22l.24-.17a8.26,8.26,0,0,1,1.34-.73l-.83.34a9.31,9.31,0,0,1,1.94-.54l-.92.13a30.21,30.21,0,0,1,3.81-.08h3.48A3.51,3.51,0,0,0,21,9.81a3.52,3.52,0,0,0-3.47-3.46H11.39A11.41,11.41,0,0,0,.33,15.16,39.17,39.17,0,0,0,0,22.74V81.25c0,.56,0,1.12,0,1.68a11.64,11.64,0,0,0,3,7.51A11.42,11.42,0,0,0,10.24,94a48.28,48.28,0,0,0,5.77.08H86.7a13.52,13.52,0,0,0,4.24-.52,11.48,11.48,0,0,0,7.9-10.81c0-2.15,0-4.3,0-6.44V18.52a12.78,12.78,0,0,0-.73-4.83,11.47,11.47,0,0,0-5.22-6,12.38,12.38,0,0,0-5.75-1.35H80.79a3.5,3.5,0,0,0-3.46,3.46,3.55,3.55,0,0,0,3.48,3.47Z"/><path class="cls-1" d="M39.49,13.28H59.82a3.47,3.47,0,0,0,0-6.93H39.49A3.51,3.51,0,0,0,36,9.81a3.53,3.53,0,0,0,3.47,3.47Z"/><path class="cls-1" d="M25.12,3.47V20.2a3.46,3.46,0,1,0,6.92,0V3.47a3.46,3.46,0,1,0-6.92,0Z"/><path class="cls-1" d="M3.64,40H95.3a3.46,3.46,0,1,0,0-6.92H7.36c-1.19,0-2.38,0-3.57,0H3.64a3.46,3.46,0,1,0,0,6.92Z"/><path class="cls-1" d="M23.33,23.84H33.72a3.47,3.47,0,0,0,0-6.93H23.33a3.47,3.47,0,1,0,0,6.93Z"/><path class="cls-1" d="M66.67,3.64V20.38a3.47,3.47,0,0,0,6.93,0V3.64a3.47,3.47,0,0,0-6.93,0Z"/><path class="cls-1" d="M64.88,23.84H75.27a3.47,3.47,0,1,0,0-6.93H64.88a3.47,3.47,0,0,0,0,6.93Z"/><path class="cls-1" d="M19.4,57.55h6.7a3.47,3.47,0,0,0,0-6.93H19.4a3.47,3.47,0,0,0,0,6.93Z"/><path class="cls-1" d="M45.84,57.55h6.69a3.47,3.47,0,0,0,0-6.93H45.84a3.47,3.47,0,1,0,0,6.93Z"/><path class="cls-1" d="M72.27,57.55H79a3.47,3.47,0,0,0,0-6.93h-6.7a3.47,3.47,0,0,0,0,6.93Z"/><path class="cls-1" d="M19.4,76.48h6.7a3.47,3.47,0,0,0,0-6.93H19.4a3.47,3.47,0,0,0,0,6.93Z"/><path class="cls-1" d="M45.84,76.48h6.69a3.47,3.47,0,0,0,0-6.93H45.84a3.47,3.47,0,1,0,0,6.93Z"/></g></g></svg>