<svg xmlns="http://www.w3.org/2000/svg" viewBox="0 0 98.67 98.74"><defs><style>.cls-1{fill:#848484;}</style></defs><g id="Calque_2" data-name="Calque 2"><g id="Calque_1-2" data-name="Calque 1"><path class="cls-1" d="M49.33,8a40.63,40.63,0,0,1,29.2,12.13,41.21,41.21,0,0,1,12.13,29.2,40.63,40.63,0,0,1-12.13,29.2A41.25,41.25,0,0,1,49.33,90.7a40.67,40.67,0,0,1-29.2-12.13A41.25,41.25,0,0,1,8,49.37a40.67,40.67,0,0,1,12.13-29.2A41.21,41.21,0,0,1,49.33,8m0-8A49.23,49.23,0,0,0,14.49,84.07a49.17,49.17,0,1,0,69.68-69.4A49,49,0,0,0,49.33,0Z"/><path class="cls-1" d="M46.51,67.28a4.17,4.17,0,0,1-2.82-1.13L29,51.48a4,4,0,1,1,5.64-5.64L46.51,57.69,71.9,32.3a4,4,0,0,1,5.64,5.64L49.33,66.15A4.43,4.43,0,0,1,46.51,67.28Z"/></g></g></svg>