<svg xmlns="http://www.w3.org/2000/svg" viewBox="0 0 99 99"><defs><style>.cls-1{fill:#848484;}</style></defs><g id="Calque_2" data-name="Calque 2"><g id="Calque_1-2" data-name="Calque 1"><path class="cls-1" d="M49.5,8.06A41.44,41.44,0,1,1,8.06,49.5,41.41,41.41,0,0,1,49.5,8.06M49.5,0A49.5,49.5,0,1,0,99,49.5,49.56,49.56,0,0,0,49.5,0Z"/><path class="cls-1" d="M49.22,57.14a3.74,3.74,0,0,1-2.12-.71A4,4,0,0,1,45.26,53V19.09a4,4,0,0,1,4-4,4,4,0,0,1,4,4V47L69,39.6A4.05,4.05,0,0,1,72.41,47L50.92,56.72A3.81,3.81,0,0,1,49.22,57.14Z"/></g></g></svg>