<svg xmlns="http://www.w3.org/2000/svg" viewBox="0 0 98.7 98.7"><defs><style>.cls-1{fill:#848484;}</style></defs><g id="Calque_2" data-name="Calque 2"><g id="Calque_1-2" data-name="Calque 1"><path class="cls-1" d="M92.78,98.7H5.92A5.82,5.82,0,0,1,0,92.78v-7.9A5.82,5.82,0,0,1,5.92,79H92.78a5.82,5.82,0,0,1,5.92,5.92v7.9A5.94,5.94,0,0,1,92.78,98.7Z"/><path class="cls-1" d="M92.78,59.22H5.92A5.82,5.82,0,0,1,0,53.3V45.4a5.82,5.82,0,0,1,5.92-5.92H92.78A5.82,5.82,0,0,1,98.7,45.4v7.9A5.82,5.82,0,0,1,92.78,59.22Z"/><path class="cls-1" d="M92.78,19.74H5.92A5.82,5.82,0,0,1,0,13.82V5.92A5.82,5.82,0,0,1,5.92,0H92.78A5.82,5.82,0,0,1,98.7,5.92v7.9A5.82,5.82,0,0,1,92.78,19.74Z"/></g></g></svg>