<svg xmlns="http://www.w3.org/2000/svg" viewBox="0 0 99.21 93.54"><defs><style>.cls-1{fill:#848484;}</style></defs><g id="Calque_2" data-name="Calque 2"><g id="Calque_1-2" data-name="Calque 1"><path class="cls-1" d="M82.1,18.36v55.4c0,2.4,0,4.78,0,7.17A9,9,0,0,1,82,82.21c0-.35.09-.68.14-1a9.84,9.84,0,0,1-.59,2.14l.38-.92a9.46,9.46,0,0,1-.77,1.48,2.75,2.75,0,0,0-.19.28c-.36.53.5-.59.24-.32s-.36.42-.56.61-.37.33-.55.51c-.47.43.64-.45.32-.24-.12.07-.23.16-.35.24a9.3,9.3,0,0,1-1.46.79l.92-.38A9.28,9.28,0,0,1,77.4,86l1-.14a20.47,20.47,0,0,1-2.47.09H28.59c-2.14,0-4.28,0-6.42,0a7.63,7.63,0,0,1-1.26-.09l1,.14a9.5,9.5,0,0,1-2.15-.58l.91.38A10,10,0,0,1,19.21,85c-.09-.06-.18-.13-.29-.19-.53-.36.59.51.31.24l-.62-.56c-.18-.18-.35-.37-.51-.55-.45-.47.44.64.23.32l-.25-.34a10.57,10.57,0,0,1-.8-1.48l.38.92a9.3,9.3,0,0,1-.59-2.14c.05.34.08.67.14,1a19.56,19.56,0,0,1-.09-2.65V26.15c0-2.56.07-5.14,0-7.7v-.12L13.3,22.15H77c2.93,0,5.87.06,8.8,0h.13a3.82,3.82,0,0,0,0-7.64H22.22c-2.93,0-5.87,0-8.8,0H13.3a3.87,3.87,0,0,0-3.82,3.82V80.92a12.58,12.58,0,0,0,4.2,9.38,13.06,13.06,0,0,0,8.54,3.24H77.08A12.55,12.55,0,0,0,89.71,80.92c0-1.53,0-3,0-4.57v-58a3.81,3.81,0,1,0-7.61,0Z"/><path class="cls-1" d="M63.94,12.6v5.75l3.82-3.82H31.47l3.82,3.82V15a26.47,26.47,0,0,1,.09-3.67c-.05.34-.09.67-.14,1a9.28,9.28,0,0,1,.58-2.14l-.38.92a9.57,9.57,0,0,1,.79-1.48c.06-.09.13-.18.19-.28.36-.54-.51.58-.24.32s.37-.42.56-.61.37-.34.55-.51c.47-.44-.64.44-.32.24l.34-.24a8.78,8.78,0,0,1,1.48-.79l-.92.38A9.84,9.84,0,0,1,40,7.61l-1,.14a23.48,23.48,0,0,1,2.78-.09H57a25.15,25.15,0,0,1,3.25.09l-1-.14a9.84,9.84,0,0,1,2.14.59l-.92-.38a8.78,8.78,0,0,1,1.48.79l.28.19c.53.35-.59-.51-.32-.24s.42.36.61.56.33.37.51.54c.43.47-.45-.63-.24-.32.07.12.16.23.24.35a9.57,9.57,0,0,1,.79,1.48l-.38-.92A9.28,9.28,0,0,1,64,12.39c-.05-.35-.09-.68-.14-1a5.82,5.82,0,0,1,.12,1.23,3.82,3.82,0,1,0,7.64,0,12.79,12.79,0,0,0-3.92-9.13A12.89,12.89,0,0,0,59,0c-2.42,0-4.85,0-7.27,0H41.64A23.61,23.61,0,0,0,38,.23a12.59,12.59,0,0,0-8.17,5.31C27.14,9.27,27.65,14,27.65,18.33a3.87,3.87,0,0,0,3.82,3.82H67.76a3.87,3.87,0,0,0,3.82-3.82V12.59a3.87,3.87,0,0,0-3.82-3.82A3.91,3.91,0,0,0,63.94,12.6Z"/><path class="cls-1" d="M95.39,14.54H3.82a3.82,3.82,0,0,0,0,7.64H91.67c1.19,0,2.38,0,3.57,0h.15a3.82,3.82,0,0,0,0-7.64Z"/><path class="cls-1" d="M46,36.42V71.7a3.82,3.82,0,0,0,7.64,0V36.42a3.82,3.82,0,0,0-7.64,0Z"/><path class="cls-1" d="M28.4,41.29V66.82a3.82,3.82,0,0,0,7.64,0V41.29a3.82,3.82,0,1,0-7.64,0Z"/><path class="cls-1" d="M63.49,41.29V66.82a3.82,3.82,0,0,0,7.64,0V41.29a3.82,3.82,0,1,0-7.64,0Z"/></g></g></svg>