<svg xmlns="http://www.w3.org/2000/svg" viewBox="0 0 73.89 99.21"><defs><style>.cls-1{fill:#848484;fill-rule:evenodd;}</style></defs><g id="Calque_2" data-name="Calque 2"><g id="Calque_1-2" data-name="Calque 1"><path class="cls-1" d="M48.45,42.93a3.48,3.48,0,0,0-4.93,0h0L36.94,49.5l-6.57-6.57a3.5,3.5,0,0,0-4.93,4.93L32,54.43,25.44,61a3.5,3.5,0,0,0,4.48,5.38,2.74,2.74,0,0,0,.45-.45l6.57-6.57,6.58,6.57a3.5,3.5,0,1,0,5.37-4.48,3.73,3.73,0,0,0-.44-.45l-6.58-6.57,6.58-6.57a3.49,3.49,0,0,0,0-4.93Z"/><path class="cls-1" d="M73.81,24.52h0a3.58,3.58,0,0,0-.3-.85l-.1-.2a3.6,3.6,0,0,0-.54-.74L51.18,1a3.55,3.55,0,0,0-.74-.55L50.22.31A3.71,3.71,0,0,0,49.37,0h0a2.58,2.58,0,0,0-.68,0H3.5A3.5,3.5,0,0,0,0,3.52V95.71a3.5,3.5,0,0,0,3.5,3.5H70.39a3.5,3.5,0,0,0,3.5-3.5V25.21A4.06,4.06,0,0,0,73.81,24.52ZM52.19,12,62,21.68H52.19ZM66.9,92.21H7V7H45.16V25.21a3.5,3.5,0,0,0,3.5,3.5H66.89Z"/></g></g></svg>