<svg xmlns="http://www.w3.org/2000/svg" viewBox="0 0 98.7 69.23"><defs><style>.cls-1{fill:#848484;}</style></defs><g id="Calque_2" data-name="Calque 2"><g id="Calque_1-2" data-name="Calque 1"><path class="cls-1" d="M84.6,8a6.14,6.14,0,0,1,6.06,6.2V42.58a6.14,6.14,0,0,1-6.06,6.21,8,8,0,0,0-8,8V58L60.07,49.63a8.3,8.3,0,0,0-3.67-.84H14.1A6.14,6.14,0,0,1,8,42.58V14.24A6.14,6.14,0,0,1,14.1,8H84.6m0-8H14.1A14.18,14.18,0,0,0,0,14.24V42.58A14.17,14.17,0,0,0,14.1,56.82H56.54L80.51,69a4.15,4.15,0,0,0,1.27.28,2.86,2.86,0,0,0,2.82-3V56.82h0A14.17,14.17,0,0,0,98.7,42.58V14.24A14.17,14.17,0,0,0,84.6,0Z"/></g></g></svg>