<svg xmlns="http://www.w3.org/2000/svg" viewBox="0 0 98.85 98.87"><defs><style>.cls-1{fill:#848484;}</style></defs><g id="Calque_2" data-name="Calque 2"><g id="Calque_1-2" data-name="Calque 1"><path class="cls-1" d="M18.6,82.83H39.69a2.63,2.63,0,0,0,2.62-2.64,2.61,2.61,0,0,0-.77-1.83l-21-21A2.62,2.62,0,0,0,16,59.18V80.27A2.62,2.62,0,0,0,18.6,82.83Zm2.63-17.26,12.17,12H21.28Z"/><path class="cls-1" d="M98.78,79.68l-5.63-17h0L39.4,8.92h0L31.69,1.21a4.17,4.17,0,0,0-5.87,0L18.34,8.73a4.15,4.15,0,0,0,0,5.87L26,22.29l1.94,1.94L79.75,76l17,5.62a1.57,1.57,0,0,0,2-1A1.51,1.51,0,0,0,98.78,79.68ZM23.29,14.56,31.7,6.15l4.7,4.7L28,19.26Zm10.17,7.73,5.94-5.93L89.34,66.28l-5.93,5.93Zm54.12,51.9,3.7-3.7,1.85,5.58Z"/><path class="cls-1" d="M4.48,18.59A2.63,2.63,0,0,0,0,20.44V96.3a2.62,2.62,0,0,0,2.57,2.57H78.4a2.63,2.63,0,0,0,1.88-4.48Zm.76,75V82.83h3a2.63,2.63,0,1,0,.36-5.24,2.16,2.16,0,0,0-.36,0h-3v-7.4h3a2.63,2.63,0,0,0,0-5.24h-3v-7.4h3a2.63,2.63,0,0,0,0-5.24h-3V44.9h3a2.63,2.63,0,0,0,0-5.24h-3V26.8L72.07,93.63Z"/></g></g></svg>