<svg xmlns="http://www.w3.org/2000/svg" viewBox="0 0 97.98 98.05"><defs><style>.cls-1{fill:#848484;}</style></defs><g id="Calque_2" data-name="Calque 2"><g id="Calque_1-2" data-name="Calque 1"><path class="cls-1" d="M49,8A40.35,40.35,0,0,1,78,20,40.89,40.89,0,0,1,90,49,40.34,40.34,0,0,1,78,78a40.92,40.92,0,0,1-29,12A40.37,40.37,0,0,1,20,78,41,41,0,0,1,49,8m0-8a48.89,48.89,0,0,0-34.6,83.48,48.83,48.83,0,1,0,69.2-68.91A48.6,48.6,0,0,0,49,0Z"/><path class="cls-1" d="M80.08,53H60.19A3.92,3.92,0,0,1,56.27,49a4,4,0,0,1,3.92-3.92H79.94A3.93,3.93,0,0,1,80.08,53Z"/><path class="cls-1" d="M70.14,63a4.16,4.16,0,0,1-2.8-1.12l-10-10.08a4,4,0,0,1,0-5.61l10-9.94a4,4,0,1,1,5.6,5.6L65.8,49l7.14,7.15a4,4,0,0,1,0,5.6A3.73,3.73,0,0,1,70.14,63Z"/><path class="cls-1" d="M38.2,53.09H18.31a3.92,3.92,0,0,1-3.92-3.93,4,4,0,0,1,3.92-3.92H38.06a3.93,3.93,0,0,1,.14,7.85Z"/><path class="cls-1" d="M28.26,62.89a4.16,4.16,0,0,1-2.8-1.12,4,4,0,0,1,0-5.6L32.6,49l-7.14-7.14a4,4,0,1,1,5.6-5.6l10,9.94a4,4,0,0,1,0,5.61l-9.95,9.94A4.45,4.45,0,0,1,28.26,62.89Z"/><path class="cls-1" d="M49,74.24a3.92,3.92,0,0,1-3.92-3.93V27.87A3.91,3.91,0,0,1,49,24a4,4,0,0,1,3.92,3.92v42.3A4,4,0,0,1,49,74.24Z"/></g></g></svg>