<svg xmlns="http://www.w3.org/2000/svg" viewBox="0 0 99.21 99.21"><defs><style>.cls-1{fill:#848484;}</style></defs><g id="Calque_2" data-name="Calque 2"><g id="Calque_1-2" data-name="Calque 1"><path class="cls-1" d="M49.61,8.08A41.53,41.53,0,1,1,8.08,49.61,41.49,41.49,0,0,1,49.61,8.08m0-8.08a49.61,49.61,0,1,0,49.6,49.61A49.66,49.66,0,0,0,49.61,0Z"/><path class="cls-1" d="M55.28,28.49l-1.14,28.2A4,4,0,0,1,50,60.52a4,4,0,0,1-3.83-3.83l-1.13-28.2a5,5,0,0,1,5-5.25,5.09,5.09,0,0,1,5.25,5Z"/><circle class="cls-1" cx="50.17" cy="71.15" r="5.39"/></g></g></svg>