<svg xmlns="http://www.w3.org/2000/svg" viewBox="0 0 98.85 93.89"><defs><style>.cls-1{fill:#848484;}</style></defs><g id="Calque_2" data-name="Calque 2"><g id="Calque_1-2" data-name="Calque 1"><polygon class="cls-1" points="55.06 80.97 12.94 80.97 12.94 12.94 55.06 12.94 55.06 23.47 68 23.47 68 0 0 0 0 93.89 68 93.89 68 70.44 55.06 70.44 55.06 80.97"/><path class="cls-1" d="M97.77,50.54c0-.16.18-.34.27-.5a3.78,3.78,0,0,0,.53-1.28,2.28,2.28,0,0,1,.16-.53,6.73,6.73,0,0,0,0-2.53.74.74,0,0,0-.16-.55A3.78,3.78,0,0,0,98,43.87c0-.16-.16-.34-.27-.5a6.23,6.23,0,0,0-.8-1h0L80.76,26.18a6.46,6.46,0,0,0-9.13,9.13l5.18,5.19H27.71a6.47,6.47,0,0,0,0,12.94h49.1L71.59,58.6a6.46,6.46,0,0,0,9.13,9.13l16.2-16.21h0A6.57,6.57,0,0,0,97.77,50.54Z"/></g></g></svg>