<svg xmlns="http://www.w3.org/2000/svg" viewBox="0 0 97.58 98.35"><defs><style>.cls-1{fill:#848484;}</style></defs><g id="Calque_2" data-name="Calque 2"><g id="Calque_1-2" data-name="Calque 1"><circle class="cls-1" cx="48.86" cy="49.18" r="11.8"/><path class="cls-1" d="M48.86,10a1.48,1.48,0,0,1,1.26.7A21.39,21.39,0,0,0,69,21.92a18.15,18.15,0,0,0,6.18-1c.14,0,.29-.14.43-.14a1.74,1.74,0,0,1,1.12.57,1.08,1.08,0,0,1,.14,1.26,21.36,21.36,0,0,0,10.4,25,1.49,1.49,0,0,1,0,2.53A22,22,0,0,0,77,75.45a1.41,1.41,0,0,1-.14,1.26,1.74,1.74,0,0,1-1.26.57.53.53,0,0,1-.43-.14,22.37,22.37,0,0,0-6.18-1A21.55,21.55,0,0,0,50.12,87.39a1.47,1.47,0,0,1-2.52,0A21.39,21.39,0,0,0,28.77,76.15a18.15,18.15,0,0,0-6.18,1,.53.53,0,0,1-.43.14A1.7,1.7,0,0,1,21,76.71a1.08,1.08,0,0,1-.14-1.26,21.36,21.36,0,0,0-10.4-25,1.49,1.49,0,0,1,0-2.53,21.36,21.36,0,0,0,10.4-25A1.41,1.41,0,0,1,21,21.64a1.73,1.73,0,0,1,1.12-.56.53.53,0,0,1,.43.14,22.74,22.74,0,0,0,6.18,1A21.55,21.55,0,0,0,47.6,11a1.24,1.24,0,0,1,1.26-1m0-10a11.07,11.07,0,0,0-10,6h0a11.24,11.24,0,0,1-10,6,12,12,0,0,1-3.23-.42h0a14.21,14.21,0,0,0-3.38-.56A11.43,11.43,0,0,0,11.49,25.85h0A11.42,11.42,0,0,1,6,39.2,11.4,11.4,0,0,0,6,59.29a11.25,11.25,0,0,1,5.48,13.35h0C9,80.09,14.86,87.25,22.16,87.25a9.52,9.52,0,0,0,3.38-.56h0a13.58,13.58,0,0,1,3.23-.42,11.26,11.26,0,0,1,10,6h0a11.27,11.27,0,0,0,20,0h0a11.26,11.26,0,0,1,10-6,12,12,0,0,1,3.23.42h0a14.22,14.22,0,0,0,3.37.56A11.43,11.43,0,0,0,86.09,72.5h0a11.42,11.42,0,0,1,5.48-13.35,11.4,11.4,0,0,0,0-20.09,11.25,11.25,0,0,1-5.48-13.35h0A11.43,11.43,0,0,0,75.27,11a9.5,9.5,0,0,0-3.37.56h0a13.65,13.65,0,0,1-3.23.42,11.26,11.26,0,0,1-10-6h0A11.1,11.1,0,0,0,48.86,0Z"/></g></g></svg>