<svg xmlns="http://www.w3.org/2000/svg" viewBox="0 0 99.09 99.09"><defs><style>.cls-1{fill:#848484;}</style></defs><g id="Calque_2" data-name="Calque 2"><g id="Calque_1-2" data-name="Calque 1"><path class="cls-1" d="M49.54,8.07A41.48,41.48,0,1,1,8.07,49.54,41.44,41.44,0,0,1,49.54,8.07m0-8.07A49.55,49.55,0,1,0,99.09,49.54,49.59,49.59,0,0,0,49.54,0Z"/><path class="cls-1" d="M41.19,83.8a35.25,35.25,0,0,1,8.35-69.5H51l-.57.7c-.14,0-.42.15-.56.15A5.45,5.45,0,0,0,48.69,18c0,1.13-.85,2.12-1.41,3-.14.14-.28.14-.43.28a9.56,9.56,0,0,1-2,.29,2.45,2.45,0,0,0,.14,1,2.73,2.73,0,0,1-1,3,2.62,2.62,0,0,1-2,.71,1.07,1.07,0,0,1-.57-.29,18.71,18.71,0,0,1-1-2.4.82.82,0,0,1,.15-.57.87.87,0,0,0,0-1.13,5.24,5.24,0,0,0-.85-.85c-.85-.71-1.14-.71-2,0a4.86,4.86,0,0,1-2.4,1.27c-.14,0-.29.15-.43.15l-2.12,2.54a1.35,1.35,0,0,0,.57.71A2.19,2.19,0,0,0,36,25.05c.43-.56.85-1,1.28-1.55a1.42,1.42,0,0,1,1.56-.71c.14.57.28,1.27.42,1.84s.28,1.13,1,1l-.85,2.55a1.06,1.06,0,0,1-1,.85,6.1,6.1,0,0,0-1.56.28,8.94,8.94,0,0,0-2,1A2.11,2.11,0,0,0,34,31l-2.12,2.55a5.19,5.19,0,0,1-2.69,1.84,1.36,1.36,0,0,0-1,1.41c0,.71.14,1.28.14,2a.84.84,0,0,1-.14.56l-.85,1.28a.52.52,0,0,1-.43.14c-.42,0-.84-1-.56-1.42a2.39,2.39,0,0,0,.42-1.7c-.28-1.27-.14-1.27-1.41-1.7-.57-.14-1.42.57-1.56,1.14v1.55c-.42-.14-.71-.14-1.13-.28a3.91,3.91,0,0,1-.14,1.27c-.14,1.28-.85,2.27-.85,3.54s-.14,1.14.85,1.7c.28.14.42.29.7.43.43-.57,1-1,1.42-1.56a3.59,3.59,0,0,1-.28,3,1.84,1.84,0,0,0-.14.85,3.11,3.11,0,0,0,.14,1.13.89.89,0,0,0,1,1h.71a12.16,12.16,0,0,0,.56,2.41c.28.85.57,1.56,1.7,1.7s1.84.57,2.83.71c.28.14.43.28.43.56v1.56a1.51,1.51,0,0,0,.28.71,1.22,1.22,0,0,0,1.7.56H34a1.06,1.06,0,0,1,1,.85,2.5,2.5,0,0,0,.29,1.42c.14.28.42.85.7.85a2.09,2.09,0,0,1,1.7,2c0,.28.14.43.14.57A1.08,1.08,0,0,1,37.51,65a1.81,1.81,0,0,0-.56,1.7c.14,1,.14,2.12.28,3.12A16.1,16.1,0,0,0,38.08,75a1.38,1.38,0,0,0,.56.71,1.79,1.79,0,0,1,1,.71A6.18,6.18,0,0,0,42,78.28c1.42.56,2.83,1,4.11,1.41C46,81.25,46,81.25,44.73,82l-.85.42c-.42.14-.85.43-1.27.57.42.14.28.71-.43.71Z"/><path class="cls-1" d="M81,34.54l-1.13.14-2.41,4-.14.15-2.13.84c-.14-.14-.14,0-.14.15l1.84,6.08c.14.29,0,.57-.28.57h0l-.42-.71a15.94,15.94,0,0,0-3.69-3.82h0l-.42-.57-.14-.14-1-.56h-.29l-.14.14-1.27,7.64v.14l-.28.43c0,.14-.15.14-.29.14h-.42c-.14,0-.14,0-.14-.14l-2.27-4.39h0l-2.4-2.69h-.15l-2.83-1.27h0L58,40.2c-.15,0-.15,0-.29.14l-.14.14a.53.53,0,0,0-.14.29L57.61,42v.14l.14.14.14.15,3.4,1.13h1.28l.14.14c.14,0,.14.14.14.28l-.57,1.84V46l-2.69,3.4v.14l-.42,5.81v.14l.14.14.14.14h.14s.15,0,.15.14v.14c0,.15.14.15,0,.29l-.43,1.55V58l-.57.85h0l-1,2.4v.14l-.14,7.22v.14l-1,1.7a.14.14,0,0,1-.14.14l-.57.29H54.07l-.28-.29a.14.14,0,0,1-.14-.14l-3.4-5.09v-.14l-2-7.79v-.14l-1-1.13h0l-.43-.85v-.14l-.7-4.11V51l-.71-.85a.49.49,0,0,0-.28-.14h-.71l-1.56,1h-.14l-.85.14h-.14L40.48,51h-.14l-1.55-1.42-.15-.14.15-3.82v-.14l.56-1.28.14-.14,6.23-2.69H46l.15.14a.53.53,0,0,1,.14.29v.85c0,.14,0,.14.14.28l1.7.85h.14l3.11-.28h0l.71-.29a.14.14,0,0,0,.14-.14l2.13-2.69v-.42l-.57-.71-.14-.14-.28-.14h-.15l-9.06.42c-.14,0-.28,0-.28-.14v-.42l1.42-1.28h.14L47.56,37c.14,0,.14-.15.14-.15l.14-.42V36.1L47.7,36a.49.49,0,0,1-.14-.28v-.14c0-.14,0-.14.14-.14l1.14-.85H49l1.7.14h.14l5.94-4.39.14-.14L57.19,29v-.71l-.14-.14a.54.54,0,0,0-.43-.14l-1.41.71a.14.14,0,0,0-.15.14l.15.85v.14l-.29.42c0,.14-.14.14-.28.14H53.51c-.14,0-.29,0-.29-.14V30l1.7-4.11a.14.14,0,0,1,.14-.14l.29-.14h.14l1.56-.14h.14l.14-.14.14-.14.14-.71a.14.14,0,0,1,.14-.14l.85-.29c.14,0,.29,0,.29.15l.85,1.41h.14l3.39-2.69.15-.14.14-.28v-.14l.28-2.27V20l-.57-1.42-2-1.55-1.55-1.42A35.44,35.44,0,0,1,82.1,35.67Z"/><path class="cls-1" d="M75.73,73.18a36.51,36.51,0,0,0,5.38-7.78L81,65h-.29a16.88,16.88,0,0,0-.56-2.83A6.73,6.73,0,0,0,79.27,60c-.14-.28-.71-.28-1-.57-.14.43-.14.85-.28,1.42-.43-.57-.71-1.13-1.14-1.7a5.78,5.78,0,0,0-1-1c-.28-.29-1.27.42-1.27.85v1.84a6.1,6.1,0,0,1-1.56.28,7.62,7.62,0,0,0-2.83,1,.3.3,0,0,0-.28.28,6,6,0,0,0-.85,2.84,9,9,0,0,1-.85,3.82,1.52,1.52,0,0,0,.28,1.7,1.81,1.81,0,0,0,2.12-.71,24.83,24.83,0,0,1,2-2,.84.84,0,0,1,.56-.14A2.17,2.17,0,0,1,75,69.22a1.51,1.51,0,0,0,1,.85l.85.42-.42,1Z"/><path class="cls-1" d="M49.54,29.3a.43.43,0,0,1-.7.43h0a1.53,1.53,0,0,0-2.13.14C47.14,31,47.56,32,48,33c0,.14.14.14.28.14.42,0,.71,0,1-.42a3.39,3.39,0,0,1,2.12-1.28.63.63,0,0,0,.43-.42V27.46a.37.37,0,0,0-.43-.42A2.52,2.52,0,0,0,50,27.6,1.39,1.39,0,0,0,49.54,29.3Z"/></g></g></svg>