<svg xmlns="http://www.w3.org/2000/svg" viewBox="0 0 98.82 82.67"><defs><style>.cls-1{fill:#848484;}</style></defs><g id="Calque_2" data-name="Calque 2"><g id="Calque_1-2" data-name="Calque 1"><path class="cls-1" d="M66.8,73.38H19.12a9.83,9.83,0,0,1-9.83-9.83V16.63a4.65,4.65,0,1,0-9.29,0v47a19.06,19.06,0,0,0,19.1,19H66.78a4.65,4.65,0,0,0,0-9.29h0Z"/><path class="cls-1" d="M88.17,0a10.63,10.63,0,0,0-3.75,20.59A34.25,34.25,0,0,1,73.33,37.1a10.63,10.63,0,0,0-17.62,10,72.71,72.71,0,0,1-16.09,3.71,10.65,10.65,0,1,0,0,5.54A77.3,77.3,0,0,0,58.17,52a10.63,10.63,0,0,0,18-10.28A39.81,39.81,0,0,0,89.84,21.13,10.63,10.63,0,0,0,88.07,0Zm-58.8,57.7a4.16,4.16,0,1,1,4.16-4.16,4.16,4.16,0,0,1-4.16,4.16ZM66.13,49a4.15,4.15,0,1,1,4.14-4.14h0a4.13,4.13,0,0,1-4.11,4.17h0ZM90.91,13.66h0a4,4,0,0,1-5.49,0h0a4.11,4.11,0,1,1,5.81-.32Z"/></g></g></svg>