<svg xmlns="http://www.w3.org/2000/svg" viewBox="0 0 98.79 87.66"><defs><style>.cls-1{fill:#848484;}</style></defs><g id="Calque_2" data-name="Calque 2"><g id="Calque_1-2" data-name="Calque 1"><path class="cls-1" d="M50,83.18c-1.57-.49-3.14-1-4.68-1.6-.77-.28-1.53-.58-2.29-.9l-.52-.21.19.08-.29-.12-1.14-.5a74.64,74.64,0,0,1-8.12-4.26q-1.87-1.14-3.68-2.39c-.58-.4-1.15-.82-1.72-1.24-.29-.21-.56-.42-.84-.64s.36.28,0,0L26.39,71a65.52,65.52,0,0,1-6.13-5.53c-.92-.94-1.8-1.89-2.66-2.89-.43-.5-.85-1-1.28-1.52-.2-.25-.4-.5-.59-.76-.06-.06-.38-.49-.14-.17s-.1-.12-.17-.21a63.65,63.65,0,0,1-4.16-6.27c-.6-1-1.17-2.12-1.72-3.21-.26-.52-.51-1.06-.75-1.58-.13-.26-.24-.53-.36-.8s-.1-.25-.16-.38c-.24-.54.18.41,0,0a55.11,55.11,0,0,1-2.21-6.49c-.28-1.06-.53-2.13-.74-3.21-.1-.53-.19-1-.27-1.58,0-.26-.08-.52-.12-.77,0-.06,0-.11,0-.16-.05-.36,0,.3,0,.29s0-.27,0-.41a39.6,39.6,0,0,1-.29-6.16c0-1,.1-2,.22-3l0-.33a1.08,1.08,0,0,1,0-.19c0-.35,0,.34,0,.32,0-.26.07-.51.11-.76.08-.46.16-.92.25-1.39A35.5,35.5,0,0,1,6.81,18.5s-.26.59-.12.29a.67.67,0,0,1,.06-.12,3.27,3.27,0,0,1,.14-.33l.29-.61c.19-.41.41-.82.63-1.22a23.6,23.6,0,0,1,1.41-2.25c.11-.17.24-.33.35-.49s.15-.19.21-.28-.4.5-.19.25l.1-.13c.28-.36.57-.7.86-1a20.85,20.85,0,0,1,1.9-1.86l1-.83-.25.19.14-.1.25-.18c.18-.13.36-.26.55-.38a32.6,32.6,0,0,1,4.53-2.57c.38-.19.76-.36,1.13-.52L20,6.26,20.69,6c.76-.27,1.54-.52,2.31-.73s1.53-.36,2.31-.49a2.26,2.26,0,0,0,.51-.08l-.17,0,.28,0c.36,0,.71-.07,1.07-.09a18.72,18.72,0,0,1,2.12,0l.92,0,.52,0,.2,0-.16,0a31.45,31.45,0,0,1,3.7.85c.29.09.57.2.86.3l.39.15c.16.07.75.34.05,0,.53.24,1.06.48,1.58.74a26,26,0,0,1,2.9,1.76c.22.14.44.3.65.46s.2.15.3.22a1,1,0,0,0,.13.09c.33.24-.37-.28-.18-.14.4.34.83.67,1.21,1,.72.62,1.41,1.27,2.07,2s1.1,1.2,1.63,1.81c.21.26.42.53.64.79s-.26-.32-.19-.24a1.3,1.3,0,0,0,.15.18,4.08,4.08,0,0,0,.25.33c.24.33.48.67.71,1a2.3,2.3,0,0,0,3.93,0c.23-.36.48-.7.72-1a4.08,4.08,0,0,1,.25-.33c.38-.49-.35.46,0,0,.22-.26.42-.53.65-.8a33.2,33.2,0,0,1,3.72-3.78c.38-.33.8-.63,1.17-1-.59.56.06-.05.25-.18l.7-.49a27.69,27.69,0,0,1,2.91-1.75l.73-.35.43-.19.16-.07c.34-.15,0,0-.18.07.56-.21,1.12-.44,1.69-.63S65.78,5.12,66.4,5l.92-.2.43-.08c.21,0,.84-.07.1,0a30,30,0,0,1,4-.13l1.06.1.29,0-.26,0c.19.06.46.06.65.1a20.74,20.74,0,0,1,2.24.49c.81.21,1.61.48,2.39.76l.56.22c.21.08.6.19.17.07a8,8,0,0,1,1.3.59,33.4,33.4,0,0,1,4.42,2.53l.54.39.25.18.14.1c.19.13-.5-.4-.22-.17s.69.55,1,.85a20.73,20.73,0,0,1,1.88,1.87c.28.32.57.66.84,1s-.13-.18-.09-.12.13.16.18.24l.41.57a21.4,21.4,0,0,1,1.41,2.27c.21.39.41.78.6,1.18.09.2.2.4.29.6l.12.29.07.16c.1.21-.25-.61-.11-.26.33.85.65,1.69.91,2.56s.51,1.85.71,2.78c.09.46.18.92.25,1.39,0,.22,0,.45.1.66-.16-.91,0,0,0,.25a36.6,36.6,0,0,1,.18,6c0,1-.13,2.09-.26,3.13,0,.12,0,.24,0,.36.06-.81,0-.27,0-.09s-.08.56-.13.83c-.08.53-.18,1-.28,1.58a51.65,51.65,0,0,1-1.75,6.45c-.37,1.09-.8,2.18-1.23,3.25-.09.23.14-.32.12-.28s-.06.14-.1.22-.1.25-.16.38l-.37.84c-.25.55-.51,1.1-.79,1.64a61.4,61.4,0,0,1-3.69,6.38c-.7,1-1.42,2-2.18,3-.09.13-.48.61,0,.05-.1.11-.19.24-.28.35s-.42.54-.64.8c-.41.5-.82,1-1.24,1.48a66.78,66.78,0,0,1-5.65,5.76c-1,.93-2.1,1.83-3.2,2.7-.12.1-.25.21-.38.3-.44.34.28-.22,0,0s-.59.46-.9.67c-.59.44-1.18.87-1.78,1.28A71.39,71.39,0,0,1,61.56,78c-1.38.71-2.77,1.39-4.19,2l-1,.44-.29.12c.06,0,.49-.2.11,0l-.58.24c-.73.29-1.47.59-2.21.86q-2.27.86-4.62,1.57A2.28,2.28,0,0,0,50,87.57a79.6,79.6,0,0,0,18.06-8,70,70,0,0,0,13.84-11,63.91,63.91,0,0,0,9.75-12.92A56.15,56.15,0,0,0,97.25,42a44.84,44.84,0,0,0,1.5-13.34A34.62,34.62,0,0,0,96,16.39a25,25,0,0,0-6.72-9.13,31.79,31.79,0,0,0-7.5-4.66A28.35,28.35,0,0,0,71.6,0,24.67,24.67,0,0,0,56.38,4.6a35,35,0,0,0-8.22,8.07c-.26.34-.49.69-.72,1h3.93a33.49,33.49,0,0,0-6.1-6.91A26.73,26.73,0,0,0,31.75.27c-7-1-13.92,1.22-19.74,5.08A25.5,25.5,0,0,0,4,14,32,32,0,0,0,.28,25.74a41.93,41.93,0,0,0,.55,13A54,54,0,0,0,5.48,52.46,62.69,62.69,0,0,0,14.21,65.6,69.28,69.28,0,0,0,27.12,77.17a77.16,77.16,0,0,0,17,8.8q2.32.87,4.68,1.6A2.28,2.28,0,1,0,50,83.18Z"/></g></g></svg>