<svg xmlns="http://www.w3.org/2000/svg" viewBox="0 0 98.76 83.66"><defs><style>.cls-1{fill:#848484;}</style></defs><g id="Calque_2" data-name="Calque 2"><g id="Calque_1-2" data-name="Calque 1"><path class="cls-1" d="M95.69,60.46,91,62.31l-11.2,4.41L66.27,72.06,54.52,76.68c-1.88.75-3.85,1.39-5.69,2.24l-.08,0H50l-4.68-1.85L34.13,72.7,20.59,67.36,8.84,62.74c-1.9-.75-3.78-1.58-5.7-2.24a.3.3,0,0,0-.08,0V65l9-3.53,14.34-5.64,3.28-1.29H28.38l6.94,2.74,11,4.34c.79.32,1.59.68,2.41,1a4.27,4.27,0,0,0,2.81-.6L62,57.89c2.74-1.08,5.55-2.07,8.25-3.25l.14-.06H69.17l9,3.52,14.33,5.64L95.74,65a2.37,2.37,0,0,0,2.91-1.66A2.44,2.44,0,0,0,97,60.46l-7.36-2.91-13.2-5.19-4.68-1.84a3.72,3.72,0,0,0-2.7-.47c-1.19.39-2.34.92-3.5,1.37l-6.37,2.51c-3.4,1.34-6.86,2.59-10.23,4l-.18.07H50L41.31,54.6,30.2,50.23A2.51,2.51,0,0,0,28.38,50a5.73,5.73,0,0,0-.62.25l-4,1.58L10.77,57C7.83,58.12,4.89,59.26,2,60.44a.59.59,0,0,0-.14.06A2.45,2.45,0,0,0,.07,62.78a2.51,2.51,0,0,0,1.75,2.29L6.5,66.92c3.75,1.48,7.51,3,11.25,4.44l13.6,5.36,11.73,4.61c1.87.73,3.72,1.59,5.63,2.22a2.63,2.63,0,0,0,2-.25c1-.39,2-.77,2.94-1.17l10.65-4.19L77.8,72.63,90,67.81l6.68-2.63.3-.12a2.44,2.44,0,0,0,1.66-2.92C98.24,61,96.92,60,95.69,60.46Z"/><path class="cls-1" d="M95.69,39.53l-7.32,2.88-13.19,5.2c-2.07.8-4.13,1.62-6.19,2.43-3.3,1.3-6.61,2.59-9.9,3.9s-6.83,2.58-10.18,4l-.17.07H50L41.34,54.6,30.19,50.21l-5.28-2.07L11.94,43C9,41.88,6.13,40.63,3.18,39.58A.59.59,0,0,1,3,39.52V44.1l9-3.53q7.17-2.82,14.33-5.64l3.29-1.29H28.35l6.95,2.74,11,4.34c.8.32,1.59.68,2.41,1a4.27,4.27,0,0,0,2.81-.6L62,37c2.74-1.08,5.55-2.07,8.26-3.25a.59.59,0,0,1,.14-.06H69.14l9,3.52L92.43,42.8l3.28,1.3a2.38,2.38,0,0,0,2.92-1.66A2.44,2.44,0,0,0,97,39.52c-2.45-1-4.91-1.93-7.36-2.91l-13.2-5.19-4.68-1.84A3.74,3.74,0,0,0,69,29.11c-1.18.39-2.33.92-3.49,1.37L59.16,33c-3.41,1.34-6.87,2.59-10.24,4l-.17.07H50l-8.71-3.43L30.18,29.29a2.54,2.54,0,0,0-1.83-.22,6.5,6.5,0,0,0-.61.25l-4,1.58L10.74,36c-2.94,1.16-5.88,2.3-8.81,3.48l-.14.06A2.43,2.43,0,0,0,.05,41.84a2.5,2.5,0,0,0,1.74,2.29L9.11,47q6.62,2.63,13.24,5.22l6.16,2.42,10,3.94c3.36,1.32,6.7,2.76,10.1,4,1.06.38,2-.17,2.93-.55L57,59.88,69,55.12l4.77-1.87,12.67-5,10-3.93.53-.21a2.38,2.38,0,0,0-1.27-4.59Z"/><path class="cls-1" d="M95.69,18.6l-7.32,2.88-13.19,5.2c-2.07.8-4.13,1.62-6.19,2.43L59.09,33c-3.39,1.34-6.83,2.58-10.18,4l-.17.07H50l-8.65-3.42c-3.72-1.45-7.44-2.92-11.15-4.38l-5.28-2.08-13-5.11C9,21,6.13,19.71,3.18,18.65A.35.35,0,0,1,3,18.59v4.58l4.68-1.85,11.19-4.41,13.55-5.34L44.21,7c1.88-.75,3.85-1.39,5.69-2.24l.08,0H48.72l4.69,1.85L64.6,10.93l13.54,5.34,11.75,4.62c1.89.75,3.77,1.59,5.69,2.24l.09,0a2.37,2.37,0,0,0,2.91-1.66,2.44,2.44,0,0,0-1.66-2.92l-4.68-1.85L81,12.31,67.39,7c-3.92-1.54-7.82-3.09-11.73-4.61C53.79,1.6,51.94.75,50,.12a2.59,2.59,0,0,0-2,.25L45.06,1.53,34.41,5.73Q27.68,8.37,20.94,11L8.73,15.85,2.05,18.48a2.85,2.85,0,0,1-.31.12A2.46,2.46,0,0,0,0,20.89a2.51,2.51,0,0,0,1.74,2.29l7.32,2.88,13.25,5.22,6.15,2.42,10,3.93c3.36,1.33,6.7,2.77,10.11,4,1,.38,2-.17,2.93-.55l5.41-2.13L69,34.17l4.76-1.87,12.68-5,10-3.93.53-.21a2.44,2.44,0,0,0,1.66-2.92A2.36,2.36,0,0,0,95.69,18.6Z"/></g></g></svg>