<svg xmlns="http://www.w3.org/2000/svg" viewBox="0 0 99.21 99.17"><defs><style>.cls-1{fill:#848484;fill-rule:evenodd;}</style></defs><g id="Calque_2" data-name="Calque 2"><g id="Calque_1-2" data-name="Calque 1"><path class="cls-1" d="M99.1,53.49v-.74c0-1,.11-2.1.11-3.17a30.24,30.24,0,0,0-.11-3.16v-.74c-.08-1-.17-1.86-.29-2.73v-.36A49.75,49.75,0,0,0,56.55.38h-.47c-.85-.11-1.72-.2-2.59-.27h-.74c-1,0-2.06-.11-3.11-.11a31.5,31.5,0,0,0-3.21.11h-.74c-.95.08-1.89.18-2.84.3h-.27A49.74,49.74,0,0,0,.4,42.59V43c-.13.95-.22,1.86-.29,2.73v.74c0,1-.11,2.1-.11,3.16a30.34,30.34,0,0,0,.11,3.17v.74c.08.95.17,1.86.29,2.73v.36A49.75,49.75,0,0,0,42.48,98.76h.27c1,.13,1.89.23,2.84.3h.74c1.07,0,2.13.11,3.21.11a28.82,28.82,0,0,0,3.11-.11h.74c.88-.07,1.74-.16,2.59-.27h.47A49.77,49.77,0,0,0,98.72,56.58v-.36A23.26,23.26,0,0,0,99.1,53.49Zm-8-1.63v.44A14.44,14.44,0,0,1,91,54.15v.1L79.22,53a29.83,29.83,0,0,0,0-6.81L91,44.94V45c0,.61.12,1.23.16,1.84v5ZM89.26,37,75.45,38.41a28.28,28.28,0,0,0-15-14.78l1.42-13.8A41.84,41.84,0,0,1,89.26,37ZM54,91c-.65,0-1.32.11-2,.15H46.71c-.61,0-1.22-.09-1.83-.15H44.7L46,79.25a29.91,29.91,0,0,0,6.82,0L54,91ZM49.58,69.68a20.1,20.1,0,1,1,20.1-20.1h0A20.13,20.13,0,0,1,49.58,69.68ZM44.88,8.23c.61,0,1.22-.12,1.83-.16H52a18.68,18.68,0,0,1,2,.16h0L52.77,20A28.81,28.81,0,0,0,46,20L44.68,8.24ZM36.79,10l1.43,13.84a28.22,28.22,0,0,0-14.5,14.65L9.91,37.05A41.8,41.8,0,0,1,36.79,10ZM20,53,8.23,54.25v-.1c0-.61-.12-1.23-.16-1.84V49.63h0V46.94a16.14,16.14,0,0,1,.16-1.83V45L20,46.26a29.91,29.91,0,0,0,0,6.82ZM9.92,62.18l13.81-1.42A28.27,28.27,0,0,0,38.22,75.35L36.79,89.19a41.8,41.8,0,0,1-26.88-27Zm52,27.2-1.42-13.8A28.24,28.24,0,0,0,75.45,60.7l13.81,1.42A41.79,41.79,0,0,1,62,89.38Z"/></g></g></svg>