<svg xmlns="http://www.w3.org/2000/svg" viewBox="0 0 97.84 76.61"><defs><style>.cls-1{fill:#848484;}</style></defs><g id="Calque_2" data-name="Calque 2"><g id="Calque_1-2" data-name="Calque 1"><path class="cls-1" d="M91.17,62a13.3,13.3,0,0,1-.1,1.55c0-.3.07-.59.12-.89a12,12,0,0,1-.8,2.88l.33-.8a12.66,12.66,0,0,1-1,1.81l-.33.48c-.33.46.52-.62.17-.21s-.48.54-.74.81-.5.46-.75.69c-.54.46.63-.46.15-.11l-.42.3a10.87,10.87,0,0,1-1.87,1l.8-.34a11.52,11.52,0,0,1-2.88.8l.89-.12a22.89,22.89,0,0,1-3.1.1h-67a12,12,0,0,1-1.59-.1L14,70a11.56,11.56,0,0,1-2.87-.8l.8.34a12.25,12.25,0,0,1-1.82-1l-.47-.33c-.47-.34.62.52.21.16s-.55-.48-.81-.73-.47-.5-.69-.76c-.47-.53.45.64.11.16-.1-.13-.2-.28-.3-.42a10.56,10.56,0,0,1-1-1.87l.33.8a11.52,11.52,0,0,1-.8-2.88l.12.89a47.56,47.56,0,0,1-.1-5.85V20.07c0-1.81,0-3.62,0-5.43a11.53,11.53,0,0,1,.1-1.55L6.65,14a11.56,11.56,0,0,1,.8-2.87l-.33.8a12.19,12.19,0,0,1,1-1.82l.34-.47c.33-.47-.53.62-.17.21S8.74,9.27,9,9s.5-.47.76-.69c.53-.47-.63.45-.16.11l.43-.3a10.48,10.48,0,0,1,1.86-1l-.8.33A11.64,11.64,0,0,1,14,6.65l-.89.12a24.8,24.8,0,0,1,3.11-.1h67a12.12,12.12,0,0,1,1.59.1l-.89-.12a11.52,11.52,0,0,1,2.88.8l-.8-.33a12.6,12.6,0,0,1,1.81,1c.17.11.32.23.48.34.47.33-.62-.53-.21-.17s.54.48.81.73.47.5.69.76c.47.53-.46-.63-.11-.16l.3.43a11.16,11.16,0,0,1,1,1.86l-.33-.8a12.09,12.09,0,0,1,.8,2.88c0-.3-.08-.59-.12-.89a45.47,45.47,0,0,1,.1,5.72V56c0,2,0,4,0,5.91V62a3.34,3.34,0,1,0,6.67,0V14.74a14.67,14.67,0,0,0-5.1-11.19A15.07,15.07,0,0,0,83,0H14.63A14.83,14.83,0,0,0,2.09,7.07,15.62,15.62,0,0,0,0,15.31V60.74a17.46,17.46,0,0,0,.8,6,14.56,14.56,0,0,0,4.4,6.4,15.31,15.31,0,0,0,7.87,3.36,24.4,24.4,0,0,0,3,.1H82.65a15.73,15.73,0,0,0,7.59-1.8A14.74,14.74,0,0,0,97.82,62a3.33,3.33,0,1,0-6.65,0Z"/><path class="cls-1" d="M78.69,13l-3.21,2.8-7.71,6.72-9.32,8.14-8.06,7c-1.31,1.13-2.65,2.25-3.93,3.42l-.05.05h4.71l-3.18-2.8-7.65-6.74-9.2-8.1-8-7c-1.3-1.15-2.58-2.3-3.89-3.44,0,0,0,0-.06,0a3.49,3.49,0,0,0-2.35-1,3.43,3.43,0,0,0-2.36,1,3.37,3.37,0,0,0,0,4.71l3.18,2.8,7.65,6.74,9.2,8.1,8,7c1.3,1.15,2.58,2.3,3.89,3.44l.06,0a3.42,3.42,0,0,0,4.71,0l3.21-2.8L62,36.35l9.32-8.13,8.07-7c1.3-1.13,2.65-2.25,3.92-3.42a.1.1,0,0,1,.06-.05,3.35,3.35,0,0,0,0-4.71,3.41,3.41,0,0,0-4.72,0Z"/><path class="cls-1" d="M19.14,63.59c2.12-1.71,4.22-3.43,6.33-5.14q5-4.1,10-8.16l2.31-1.88a3.32,3.32,0,0,0,1-2.36,3.35,3.35,0,0,0-3.33-3.34,3.84,3.84,0,0,0-2.36,1l-6.33,5.15q-5,4.08-10,8.16l-2.31,1.88a3.34,3.34,0,0,0,2.36,5.69,3.78,3.78,0,0,0,2.35-1Z"/><path class="cls-1" d="M83.41,58.88c-2.12-1.71-4.22-3.44-6.33-5.15q-5-4.08-10-8.16c-.77-.62-1.55-1.25-2.31-1.88a3.59,3.59,0,0,0-2.36-1,3.43,3.43,0,0,0-2.36,1c-1.12,1.23-1.44,3.55,0,4.72,2.12,1.71,4.22,3.43,6.33,5.14q5,4.1,10,8.16l2.31,1.88a3.59,3.59,0,0,0,2.36,1,3.43,3.43,0,0,0,2.36-1c1.12-1.22,1.44-3.54,0-4.71Z"/></g></g></svg>