<svg xmlns="http://www.w3.org/2000/svg" viewBox="0 0 69.71 98.44"><defs><style>.cls-1{fill:#848484;}</style></defs><g id="Calque_2" data-name="Calque 2"><g id="Calque_1-2" data-name="Calque 1"><path class="cls-1" d="M63.24,34.86A33,33,0,0,1,63,39.07l.12-.86a29.57,29.57,0,0,1-1.95,7.41l.32-.77a55.49,55.49,0,0,1-5,8.81q-1.7,2.52-3.49,5l-1.89,2.53-.93,1.22c-.17.22-.8,1,0,0l-.55.71c-4.47,5.75-9.17,11.32-14,16.77-1,1.12-2,2.24-3,3.33h4.56c-2.86-3.12-5.64-6.32-8.38-9.56-2.61-3.08-5.19-6.2-7.7-9.39l-.95-1.2-.47-.61c-.33-.43.53.67.19.24l-.31-.41c-.62-.8-1.24-1.62-1.85-2.44q-1.86-2.48-3.6-5a59.72,59.72,0,0,1-5.82-10l.32.77a28.92,28.92,0,0,1-1.95-7.42c0,.29.07.57.11.86a33.34,33.34,0,0,1,0-8.41c0,.29-.07.57-.11.86a31.77,31.77,0,0,1,2.19-8.1l-.32.78A31.83,31.83,0,0,1,10.64,20c.41-.66.84-1.31,1.29-1.93.11-.15.23-.3.33-.46l.17-.22c.3-.39-.24.33-.24.32s.26-.33.35-.44L13,16.7a31.74,31.74,0,0,1,3.25-3.31c.28-.25.57-.49.86-.73l.44-.36c.18-.14.48-.34-.32.25l.28-.21c.62-.47,1.26-.92,1.91-1.34a32.45,32.45,0,0,1,4.78-2.51l-.77.32a32,32,0,0,1,8.09-2.2l-.86.12a33.49,33.49,0,0,1,8.37,0l-.86-.12a32,32,0,0,1,8.1,2.2l-.78-.32a30.65,30.65,0,0,1,4.23,2.17c.67.41,1.31.84,1.94,1.29l.45.33.22.17L52,12.21c.14,0,.33.26.44.35L53,13a31.74,31.74,0,0,1,3.31,3.25c.25.28.5.57.73.86l.36.44c.14.18.34.48-.25-.32l.22.28c.46.62.91,1.26,1.33,1.91a32.5,32.5,0,0,1,2.52,4.78l-.33-.77a32,32,0,0,1,2.2,8.09c0-.29-.08-.57-.12-.86a29.41,29.41,0,0,1,.29,4.19,3.23,3.23,0,0,0,6.45,0A34.82,34.82,0,0,0,31,.24,36.58,36.58,0,0,0,20.81,3,34.85,34.85,0,0,0,1.72,45.68,49.48,49.48,0,0,0,8,57.39c3.07,4.55,6.42,8.9,9.85,13.19q4.52,5.64,9.25,11.07c1.72,2,3.47,4,5.23,5.9.09.09.16.19.25.27a3.24,3.24,0,0,0,4.56,0c1-1.15,2.08-2.31,3.12-3.47Q44,80.06,47.7,75.67C50.9,71.83,54,67.93,57,63.93a118.13,118.13,0,0,0,7.63-11.2,44.39,44.39,0,0,0,2.72-5.43,32.77,32.77,0,0,0,2.21-9.61c.08-.95.11-1.89.12-2.83a3.24,3.24,0,0,0-6.47,0Z"/><path class="cls-1" d="M45,34.86a15.06,15.06,0,0,1-.12,1.78c0-.29.07-.57.12-.86a14,14,0,0,1-.91,3.35l.33-.78a15.13,15.13,0,0,1-1.2,2.25l-.36.52c-.08.1-.3.39,0,0s.08-.1,0,0A12.64,12.64,0,0,1,42,42c-.28.28-.57.55-.88.81,0,0-.22.22-.27.22s.68-.5.32-.25l-.51.37a15.07,15.07,0,0,1-2.31,1.24l.78-.33a14,14,0,0,1-3.35.91l.86-.12a14.22,14.22,0,0,1-3.57,0l.86.12a13.77,13.77,0,0,1-3.34-.91l.77.33a15.53,15.53,0,0,1-2.24-1.2c-.18-.12-.35-.23-.52-.36s-.4-.3,0,0,.11.07,0,0c-.32-.27-.63-.55-.93-.85s-.55-.57-.81-.88c0,0-.23-.22-.23-.27s.51.68.25.32c-.12-.17-.25-.34-.36-.52a13.06,13.06,0,0,1-1.24-2.3l.32.78a14,14,0,0,1-.9-3.35c0,.29.07.57.12.86a14.22,14.22,0,0,1,0-3.57c-.05.29-.08.57-.12.86a13.75,13.75,0,0,1,.9-3.34l-.32.77a14.55,14.55,0,0,1,1.19-2.24c.12-.18.24-.35.37-.52s.3-.4,0,0-.08.11,0,0a12.31,12.31,0,0,1,.85-.93c.28-.28.57-.55.88-.81,0,0,.21-.23.27-.23l-.33.25.52-.36a13.42,13.42,0,0,1,2.3-1.24l-.77.32a13.75,13.75,0,0,1,3.34-.9l-.86.12a14.22,14.22,0,0,1,3.57,0l-.86-.12a14,14,0,0,1,3.35.9l-.78-.32a14.21,14.21,0,0,1,2.25,1.19l.52.37c.1.07.39.3-.05,0s-.1-.08,0,0a9.37,9.37,0,0,1,.94.85c.28.28.55.57.81.88,0,0,.22.21.22.27s-.5-.68-.25-.33c.12.18.25.35.37.52a14.51,14.51,0,0,1,1.24,2.3l-.33-.77A13.77,13.77,0,0,1,45,33.93c-.05-.29-.08-.57-.12-.86A15.08,15.08,0,0,1,45,34.86a3.23,3.23,0,0,0,6.45,0,16.4,16.4,0,0,0-2.94-9.4,17.25,17.25,0,0,0-8.17-6.24,16.59,16.59,0,0,0-18.06,4.91,17.2,17.2,0,0,0-3.91,9.61,16.49,16.49,0,0,0,9.44,16.09,17.23,17.23,0,0,0,10.52,1.23A16.54,16.54,0,0,0,51.14,37.8a20.61,20.61,0,0,0,.28-2.93,3.23,3.23,0,0,0-6.46,0Z"/><path class="cls-1" d="M22.5,98.44H47.19a3.23,3.23,0,1,0,0-6.45H22.5a3.23,3.23,0,1,0,0,6.45Z"/></g></g></svg>