<svg xmlns="http://www.w3.org/2000/svg" viewBox="0 0 98.75 97.96"><defs><style>.cls-1{fill:#848484;}</style></defs><g id="Calque_2" data-name="Calque 2"><g id="Calque_1-2" data-name="Calque 1"><path class="cls-1" d="M49.41,1.06h-.09l1.27,1.27h0L49.32,3.6h.09a.83.83,0,0,0,.49-.11.87.87,0,0,0,.41-.27.87.87,0,0,0,.27-.41,1.14,1.14,0,0,0,.11-.49,1.86,1.86,0,0,0,0-.34,1.11,1.11,0,0,0-.33-.56,1.34,1.34,0,0,0-.9-.36h-.09a.88.88,0,0,0-.5.12,1,1,0,0,0-.4.26,1.34,1.34,0,0,0-.37.9h0a.94.94,0,0,0,.11.5,1,1,0,0,0,.27.41,1.25,1.25,0,0,0,.9.36h.09a.8.8,0,0,0,.5-.11.89.89,0,0,0,.4-.27.89.89,0,0,0,.27-.4,1.08,1.08,0,0,0,.11-.5A2,2,0,0,0,50.65,2a1.11,1.11,0,0,0-.33-.56A1.35,1.35,0,0,0,49.41,1.06Z"/><path class="cls-1" d="M48.14,2.33h0l1.27-1.27h-.09V3.6h.09a.83.83,0,0,0,.49-.11.87.87,0,0,0,.41-.27.87.87,0,0,0,.27-.41,1.14,1.14,0,0,0,.11-.49,1.86,1.86,0,0,0,0-.34,1.11,1.11,0,0,0-.33-.56,1.32,1.32,0,0,0-.9-.37h-.09a.88.88,0,0,0-.5.11.89.89,0,0,0-.4.27.87.87,0,0,0-.27.41,1.14,1.14,0,0,0-.11.49,1.86,1.86,0,0,0,.05.34,1.11,1.11,0,0,0,.33.56,1.32,1.32,0,0,0,.9.37h.09a.83.83,0,0,0,.49-.11.87.87,0,0,0,.41-.27,1.32,1.32,0,0,0,.37-.9h0a.88.88,0,0,0-.12-.5,1,1,0,0,0-.26-.4,1,1,0,0,0-.41-.27A1,1,0,0,0,49.4,1a2.11,2.11,0,0,0-.35.05,1.19,1.19,0,0,0-.56.33A1.51,1.51,0,0,0,48.14,2.33Z"/><path class="cls-1" d="M96.2,75.15H6.34c-1.22,0-2.44,0-3.66,0H2.53v5.08a12.9,12.9,0,0,0,9.75-4.44,22.73,22.73,0,0,0,4.49-9.23,46.42,46.42,0,0,0,1.29-11.8c0-5.59,0-11.16,0-16.75,0-2.14-.07-4.31.1-6.43l.09-.87c0-.18.14-.58,0,.06a2.15,2.15,0,0,0,.05-.34c.1-.64.22-1.26.37-1.88a27.85,27.85,0,0,1,1-3.48l.31-.8s.24-.58.07-.18.07-.13.08-.18c.25-.58.53-1.14.82-1.71a32.13,32.13,0,0,1,1.82-3c.33-.48.66-.94,1-1.41.23-.3-.39.48,0,0l.21-.27c.22-.26.45-.53.66-.8a35.19,35.19,0,0,1,2.53-2.65c.42-.41.87-.79,1.31-1.17.23-.19.44-.38.67-.56l.28-.22.28-.21c-.28.21-.32.24-.1.07,1-.72,2-1.41,3-2s2.09-1.2,3.18-1.74l.8-.38c.16-.07,1-.49.37-.16A13.39,13.39,0,0,1,38.78,7a31.33,31.33,0,0,1,3.58-1.06c.57-.14,1.16-.26,1.74-.36L45,5.39l.35,0c.54-.07-.56.07.12,0a32.8,32.8,0,0,1,7.21-.08c.29,0,.6,0,.89.1-.76-.16.22,0,.38.07.65.1,1.28.23,1.92.37a34.83,34.83,0,0,1,3.5,1c.56.19,1.12.4,1.67.61l.4.17.19.08c-.39-.17.16.06.19.07s.34.14.49.22c1.13.52,2.22,1.09,3.29,1.71s2.09,1.31,3.1,2c.14.11.92.64.33.25a8.46,8.46,0,0,1,.68.54c.47.4.94.79,1.4,1.21a30.07,30.07,0,0,1,2.51,2.54c.39.43.77.87,1.13,1.33.11.14.23.27.32.41,0-.05-.34-.46-.07-.1l.61.84a32.3,32.3,0,0,1,1.91,3.08c.28.51.54,1,.78,1.54.12.25.24.52.35.79s.23.35,0-.13a3.46,3.46,0,0,1,.23.56,28.61,28.61,0,0,1,1.09,3.36c.14.56.27,1.13.38,1.71.06.29.11.57.16.86s.21.66,0,0a2.37,2.37,0,0,1,.06.52,33.12,33.12,0,0,1,.17,3.58V52.14A65.19,65.19,0,0,0,81.31,62,36,36,0,0,0,84,71.44a15.22,15.22,0,0,0,6.65,7.48,12.91,12.91,0,0,0,5.53,1.31,2.54,2.54,0,1,0,0-5.08c-.39,0-.84-.12-1.22-.08.63-.06.51.08.2,0l-.23,0a5.89,5.89,0,0,1-.67-.16c-.35-.1-.7-.24-1-.35.84.25.23.1,0,0s-.38-.21-.57-.31-.6-.39-.89-.58.27.2.25.2a1.22,1.22,0,0,0-.25-.2c-.17-.14-.33-.28-.48-.43s-.49-.49-.71-.74-.25-.28-.36-.42c-.43-.53.3.43,0,0A16.6,16.6,0,0,1,89,70c-.18-.33-.35-.67-.51-1-.08-.18-.15-.36-.23-.52-.18-.41.22.53.1.24l-.15-.37a30.81,30.81,0,0,1-1.36-4.48c-.16-.75-.32-1.49-.44-2.25-.07-.34-.12-.69-.17-1l-.08-.49c-.06-.42.08.65.06.33,0-.12,0-.22,0-.33-.14-1.09-.24-2.2-.31-3.3,0-.88-.06-1.76-.06-2.65V36.43a42.63,42.63,0,0,0-.59-8.28,32.39,32.39,0,0,0-6.46-13.73A38.23,38.23,0,0,0,52.39.15c-10.23-1-20.65,3-28.22,9.8A33.08,33.08,0,0,0,13,34.3V51.52a83.74,83.74,0,0,1-.26,9.1l-.12.92c0,.32.1-.75,0-.33,0,.09,0,.17,0,.26a5,5,0,0,1-.09.56c-.11.75-.25,1.48-.42,2.22a31,31,0,0,1-1.37,4.52c-.23.57.26-.56,0,0-.08.17-.15.35-.23.51-.16.33-.33.67-.51,1s-.37.64-.57,1l-.3.46c-.16.22-.66.75,0,.1-.53.56-1,1.15-1.55,1.65a4.87,4.87,0,0,0-.42.35c.59-.59.21-.17,0,0a7.63,7.63,0,0,1-1,.61l-.5.25c-.19.08-.3,0,.3-.13a2,2,0,0,0-.31.13c-.35.12-.69.22-1,.31l-.58.13-.29.05c-.46.09.59-.06.26,0s-.89.08-1.34.08A2.56,2.56,0,0,0,0,77.7a2.6,2.6,0,0,0,2.54,2.54H92.4c1.22,0,2.44,0,3.66,0h.15a2.56,2.56,0,0,0,2.54-2.54A2.6,2.6,0,0,0,96.2,75.15Z"/><path class="cls-1" d="M59.75,86.59c-.21.41-.42.8-.66,1.18l-.4.6-.15.21c-.34.47.24-.28,0,0a18.32,18.32,0,0,1-1.92,1.92c-.36.29.05-.07.1-.08a2.43,2.43,0,0,0-.28.2l-.58.4c-.4.25-.82.48-1.24.7L54.1,92c-.32.15.44-.16.11,0L54,92c-.49.18-1,.33-1.46.47a13.59,13.59,0,0,1-1.35.29,3.58,3.58,0,0,0-.37.06s.51-.06.22,0l-.85.07a14.07,14.07,0,0,1-1.45,0l-.68,0a2.58,2.58,0,0,1-.38,0c.3.09.36,0,0,0a11.4,11.4,0,0,1-2.8-.82l-.24-.12L44,91.54c-.44-.24-.85-.51-1.27-.78l-.31-.22c-.25-.19-.27-.14,0,0a4.65,4.65,0,0,1-.63-.53A14.8,14.8,0,0,1,40.7,88.9c-.19-.2-.37-.41-.55-.62L40,88.06c-.39-.48.31.45,0-.07s-.62-.91-.9-1.39a2.55,2.55,0,0,0-4.4,2.57,17.68,17.68,0,0,0,11,8.38A17.22,17.22,0,0,0,59,95a16,16,0,0,0,5.11-5.83,2.55,2.55,0,0,0-4.4-2.58Z"/><path class="cls-1" d="M34.49,25.09a14.74,14.74,0,0,1,1.14-1.8l.16-.23c-.19.24-.23.29-.11.15s.2-.24.29-.35c.24-.28.5-.56.76-.83s.54-.52.82-.77c.11-.11.24-.21.35-.31l.26-.21.19-.14a5.59,5.59,0,0,1,.47-.33c.31-.22.63-.42,1-.61a9.28,9.28,0,0,1,1.86-.94c-.6.17,0,0,.1,0l.53-.19c.36-.13.72-.24,1.09-.35s.68-.17,1-.24l.47-.09.38-.06-.29,0a4.93,4.93,0,0,0,1.14-.1c.28,0,.57,0,.85,0a2.54,2.54,0,0,0,2.54-2.54,2.59,2.59,0,0,0-2.54-2.54A19.5,19.5,0,0,0,30.1,22.51a2.55,2.55,0,0,0,4.39,2.58Z"/></g></g></svg>