<svg xmlns="http://www.w3.org/2000/svg" viewBox="0 0 98.8 98.92"><defs><style>.cls-1{fill:#848484;}</style></defs><g id="Calque_2" data-name="Calque 2"><g id="Calque_1-2" data-name="Calque 1"><polygon class="cls-1" points="25.24 91.82 15.39 83.42 7.13 73.71 70.3 10.54 88.41 28.65 25.24 91.82"/><path class="cls-1" d="M9,81.24l8.7,8.69-13,4.35L9,81.24M7.13,73.71l-6.95,21a3.15,3.15,0,0,0,3,4.2,2.37,2.37,0,0,0,1-.15l21-7L7.13,73.71Z"/><polygon class="cls-1" points="5.39 89.93 1.92 93.41 5.39 96.89 9.02 93.41 5.39 89.93"/><path class="cls-1" d="M79.43,7.35,91.74,19.67,86.09,25,73.78,12.86l5.65-5.51m0-5.94L68,12.86l18.11,18,11.3-11.3-18-18.11Z"/><path class="cls-1" d="M86.24,1.41,97.39,12.57a5,5,0,0,1,0,7h0l-18-18.11h0A4.82,4.82,0,0,1,86.24,1.41Z"/></g></g></svg>