<svg xmlns="http://www.w3.org/2000/svg" viewBox="0 0 98.63 98.47"><defs><style>.cls-1{fill:#848484;fill-rule:evenodd;}</style></defs><g id="Calque_2" data-name="Calque 2"><g id="Calque_1-2" data-name="Calque 1"><path class="cls-1" d="M67.73,33.48l-8.24-8.24a7.7,7.7,0,0,1,0-11l12-12a7.7,7.7,0,0,1,11,0l8.24,8.24Z"/><path class="cls-1" d="M13.77,93.74h0L25.24,82.27,36.71,70.8,71,36.55,82.43,25.08,93.9,13.61h0a16.09,16.09,0,0,1,0,22.78L36.71,93.74A16.28,16.28,0,0,1,13.77,93.74Z"/><path class="cls-1" d="M10.54,90.51,2.3,82.27a7.7,7.7,0,0,1,0-11l12-12a7.7,7.7,0,0,1,11,0l8.24,8.24Z"/></g></g></svg>