<svg xmlns="http://www.w3.org/2000/svg" viewBox="0 0 99.08 91.54"><defs><style>.cls-1{fill:#848484;}</style></defs><g id="Calque_2" data-name="Calque 2"><g id="Calque_1-2" data-name="Calque 1"><path class="cls-1" d="M94.43,25.81V64.4c0,.24,0,.47,0,.72s-.11.38,0-.14a2.87,2.87,0,0,0,0,.31A9.61,9.61,0,0,1,94,66.78c0,.09-.07.2-.1.29-.15.42,0-.13,0-.13s-.3.61-.33.68c-.23.43-.51.81-.78,1.22-.16.25.3-.33.08-.12a3.36,3.36,0,0,0-.24.29,5.62,5.62,0,0,1-.41.44c-.18.17-.36.35-.56.51l-.23.2.17-.13-.18.14a11.52,11.52,0,0,1-1.16.7c-.08,0-.48.3-.54.27s.48-.19.06,0l-.36.13a8.75,8.75,0,0,1-1.36.35c-.1,0-.52,0-.16,0s-.08,0-.16,0a7,7,0,0,1-.8,0c-4.11,0-8.22,0-12.33,0h-.42L76.52,74V48.39a2.35,2.35,0,0,0-2.31-2.32H30.93c-2,0-4,0-6,0h-.08a2.36,2.36,0,0,0-2.32,2.32V74l2.32-2.31H12.12l-.65,0c-.06,0-.45,0-.48,0s.52.08.07,0a11.42,11.42,0,0,1-1.86-.51c-.41-.15.13.06.13.06a2,2,0,0,1-.42-.2c-.26-.14-.53-.28-.79-.44s-.45-.32-.69-.46.43.37.06,0L7,69.68A6.35,6.35,0,0,1,6.42,69a3.15,3.15,0,0,0-.25-.28c-.23-.22.33.46,0,0a11.63,11.63,0,0,1-.94-1.55L5.2,67.1c-.1-.23-.08-.18,0,.13-.06,0-.14-.37-.16-.43a9.13,9.13,0,0,1-.27-.89c-.06-.25-.1-.51-.16-.76-.1-.54,0,.54,0,0,0-.21,0-.43,0-.64V39c0-4.37,0-8.74,0-13.12,0-.15,0-.28,0-.43s0-.27,0-.41,0-.1,0-.16c0-.26,0-.21,0,.14-.11-.14.17-.9.22-1.08s.13-.49.23-.74c0-.06.1-.4.16-.42L5.13,23c0-.09.08-.18.13-.28a11.63,11.63,0,0,1,.94-1.55c.3-.42-.35.39,0,0,.1-.11.19-.23.3-.33s.35-.36.53-.53a2.43,2.43,0,0,1,.34-.3,1,1,0,0,1,.11-.1c.2-.15.15-.12-.11.08,0-.18.64-.45.81-.55s.48-.28.72-.41c.05,0,.37-.22.42-.19L9.06,19l.29-.11a11.27,11.27,0,0,1,1.79-.48c.55-.1-.54,0,0,0l.39,0H87.3a7,7,0,0,0,.8.05c-.57,0-.21,0,0,0a3.73,3.73,0,0,1,.46.09,9,9,0,0,1,.89.25l.29.11L90,19c-.31-.14-.36-.15-.13,0a13.82,13.82,0,0,1,1.45.82c.07,0,.34.18.37.26l-.23-.17.23.2c.26.23.52.47.76.72.07.09.52.49.5.57l-.18-.23.18.24.25.37a6.11,6.11,0,0,1,.38.65l.21.41.07.13-.05-.12c.13.05.27.72.3.86s.14.5.2.76a3.69,3.69,0,0,1,.08.46c.11.54,0-.55,0,0a7.52,7.52,0,0,0,0,.95,2.33,2.33,0,0,0,2.31,2.31,2.36,2.36,0,0,0,2.32-2.31A12.18,12.18,0,0,0,89,13.9a23.76,23.76,0,0,0-3.67-.19h-73A12.35,12.35,0,0,0,1.94,19.24,12.1,12.1,0,0,0,0,25.85V64.1A12.09,12.09,0,0,0,8.1,75.59a13.78,13.78,0,0,0,4.72.68h12A2.35,2.35,0,0,0,27.16,74V48.37l-2.31,2.32H68.13c2,0,4,.08,6,0h.08l-2.31-2.32V74a2.34,2.34,0,0,0,2.31,2.31H86.64A12.28,12.28,0,0,0,96.17,72a12.67,12.67,0,0,0,2.89-8.21V36.07c0-3.36,0-6.73,0-10.09v-.15a2.34,2.34,0,0,0-2.32-2.31A2.31,2.31,0,0,0,94.43,25.81Z"/><path class="cls-1" d="M71.89,2.34V16L74.2,13.7H30.91c-2,0-4-.08-6,0h-.08L27.16,16V2.34L24.85,4.65H68.13c2,0,4,.06,6,0h.08a2.33,2.33,0,0,0,2.31-2.31A2.36,2.36,0,0,0,74.2,0H30.91c-2,0-4-.06-6,0h-.08a2.35,2.35,0,0,0-2.32,2.31V16a2.36,2.36,0,0,0,2.32,2.32H68.13c2,0,4,.05,6,0h.08A2.35,2.35,0,0,0,76.51,16V2.34a2.31,2.31,0,0,0-4.62,0Z"/><path class="cls-1" d="M71.89,48.35V84.17c0,1.65-.07,3.32,0,5v.07l2.31-2.31H30.91c-2,0-4-.09-6,0h-.08l2.31,2.31V53.38c0-1.65.07-3.32,0-5v-.07l-2.31,2.31H68.13c2,0,4,.06,6,0h.08a2.33,2.33,0,0,0,2.31-2.31A2.36,2.36,0,0,0,74.2,46H30.91c-2,0-4-.06-6,0h-.08a2.35,2.35,0,0,0-2.32,2.31V84.17c0,1.65,0,3.32,0,5v.07a2.35,2.35,0,0,0,2.32,2.31H68.13c2,0,4,.06,6,0h.08a2.34,2.34,0,0,0,2.31-2.31V53.38c0-1.65,0-3.32,0-5v-.07A2.33,2.33,0,0,0,74.2,46,2.36,2.36,0,0,0,71.89,48.35Z"/><path class="cls-1" d="M18.13,50.66h55c2.54,0,5.1.06,7.65,0h.11a2.33,2.33,0,0,0,2.31-2.31A2.36,2.36,0,0,0,80.91,46h-55c-2.55,0-5.1-.06-7.66,0h-.1a2.31,2.31,0,1,0,0,4.62Z"/><path class="cls-1" d="M73.27,34.59h7.64a2.33,2.33,0,0,0,2.31-2.31A2.36,2.36,0,0,0,80.91,30H73.27a2.31,2.31,0,0,0,0,4.62Z"/><path class="cls-1" d="M40,64.88H59.08a2.33,2.33,0,0,0,2.31-2.31,2.36,2.36,0,0,0-2.31-2.31H40a2.31,2.31,0,1,0,0,4.62Z"/><path class="cls-1" d="M40,77.25H53.35a2.33,2.33,0,0,0,2.32-2.31,2.36,2.36,0,0,0-2.32-2.31H40a2.31,2.31,0,1,0,0,4.62Z"/></g></g></svg>