<svg xmlns="http://www.w3.org/2000/svg" viewBox="0 0 99.08 99.15"><defs><style>.cls-1{fill:#848484;}</style></defs><g id="Calque_2" data-name="Calque 2"><g id="Calque_1-2" data-name="Calque 1"><path class="cls-1" d="M49.47,99.15a49.57,49.57,0,0,1-35-84.62,49.61,49.61,0,0,1,76.87,8.6l2.12,3.39-6.77,4.23-2-3.25A35.83,35.83,0,0,0,79,20.31a41.55,41.55,0,0,0-58.68,0,41.62,41.62,0,0,0,0,58.81A41.57,41.57,0,0,0,90.65,56.28a39,39,0,0,0,0-12.84l-.56-3.95L98,38.22l.56,4a54.72,54.72,0,0,1,0,15.23A49.71,49.71,0,0,1,49.47,99.15Z"/><path class="cls-1" d="M91.92,32.72H72.32a3.94,3.94,0,0,1-3.95-3.95,4,4,0,0,1,3.95-3.95H87.83V9.31a4,4,0,0,1,4-3.95,4,4,0,0,1,4,4v19.6A3.79,3.79,0,0,1,91.92,32.72Z"/></g></g></svg>