<svg xmlns="http://www.w3.org/2000/svg" viewBox="0 0 98.25 98.25"><defs><style>.cls-1{fill:#848484;}</style></defs><g id="Calque_2" data-name="Calque 2"><g id="Calque_1-2" data-name="Calque 1"><path class="cls-1" d="M46.18,42.11A4.19,4.19,0,0,1,43.37,41a4,4,0,0,1,0-5.62l7.16-7.3-7.16-7.16A4,4,0,1,1,49,15.3l10,10a4.07,4.07,0,0,1,0,5.61l-10,10A4,4,0,0,1,46.18,42.11Z"/><path class="cls-1" d="M52.21,84.36a4.13,4.13,0,0,1-2.8-1.13l-10-10a4,4,0,0,1,0-5.62l10-10A4,4,0,1,1,55,63.3l-7.16,7.16L55,77.62a4,4,0,0,1,0,5.61A4.41,4.41,0,0,1,52.21,84.36Z"/><path class="cls-1" d="M49.13,8A41.13,41.13,0,1,1,8,49.13,41.09,41.09,0,0,1,49.13,8m0-8A49.13,49.13,0,1,0,98.25,49.13,49.19,49.19,0,0,0,49.13,0Z"/><path class="cls-1" d="M49.13,74.39a3.92,3.92,0,0,1-3.93-3.93,4,4,0,0,1,3.93-3.93A17.25,17.25,0,0,0,66.39,49.27a14.84,14.84,0,0,0-1-5.62A4,4,0,1,1,72.85,41a23.9,23.9,0,0,1,1.4,8.28A25.1,25.1,0,0,1,49.13,74.39Z"/><path class="cls-1" d="M29.05,60.07a3.91,3.91,0,0,1-3.78-2.66,23.75,23.75,0,0,1-1.41-8.28A25.34,25.34,0,0,1,49.13,23.86a3.93,3.93,0,0,1,3.93,3.93,4,4,0,0,1-3.93,3.93A17.25,17.25,0,0,0,31.86,49a16,16,0,0,0,1,5.75,4,4,0,0,1-2.38,5A2.79,2.79,0,0,1,29.05,60.07Z"/></g></g></svg>