<svg xmlns="http://www.w3.org/2000/svg" viewBox="0 0 92.67 99.15"><defs><style>.cls-1{fill:#848484;}</style></defs><g id="Calque_2" data-name="Calque 2"><g id="Calque_1-2" data-name="Calque 1"><path class="cls-1" d="M72,42.65l5.08,5.08,8.06,8.06L87,57.64A3.32,3.32,0,0,0,91.72,53c-1.69-1.69-3.39-3.38-5.08-5.08l-8.06-8L76.73,38A3.36,3.36,0,0,0,72,38a3.39,3.39,0,0,0,0,4.69Z"/><path class="cls-1" d="M76.35,58,81.43,53l8-8.05L91.34,43a3.32,3.32,0,0,0-4.69-4.69l-5.08,5.08-8,8-1.86,1.86a3.34,3.34,0,0,0,0,4.69,3.38,3.38,0,0,0,4.69,0Z"/><path class="cls-1" d="M61.18,25.16A23.7,23.7,0,0,1,61,28.07l.12-.89a21.66,21.66,0,0,1-1.53,5.59l.34-.8a22.17,22.17,0,0,1-2,3.71l-.58.83c-.15.2-.54.62.16-.21l-.36.45c-.44.52-.89,1-1.36,1.5s-1,.93-1.5,1.36c-.09.08-.33.35-.45.36.14,0,.73-.55.21-.16-.28.2-.54.4-.83.58a22.57,22.57,0,0,1-3.71,2l.8-.33a22,22,0,0,1-5.59,1.52c.3,0,.59-.07.88-.12a21.89,21.89,0,0,1-5.83,0l.89.12A22,22,0,0,1,35,42.08l.8.33a22.17,22.17,0,0,1-3.71-2c-.28-.18-.55-.38-.83-.58s-.62-.53.21.16l-.45-.36c-.52-.43-1-.89-1.5-1.36s-.93-1-1.36-1.5c-.08-.09-.35-.33-.36-.45,0,.14.55.73.16.21-.2-.28-.4-.54-.58-.83a22.57,22.57,0,0,1-2-3.71l.33.8a22,22,0,0,1-1.52-5.59c0,.3.07.59.12.89a22,22,0,0,1,0-5.84c0,.3-.08.59-.12.89a22,22,0,0,1,1.52-5.59l-.33.8a22.17,22.17,0,0,1,2-3.71c.18-.28.38-.55.58-.83s.53-.62-.16.21c.12-.14.24-.3.36-.45.43-.52.89-1,1.36-1.5s1-.93,1.5-1.36c.09-.07.33-.35.45-.36-.14,0-.73.55-.21.16.28-.2.54-.39.83-.58a22.57,22.57,0,0,1,3.71-2l-.8.34A21.66,21.66,0,0,1,40.63,6.7l-.89.12a22.75,22.75,0,0,1,5.83,0l-.88-.12a21.66,21.66,0,0,1,5.59,1.53l-.8-.34a22.17,22.17,0,0,1,3.71,2l.83.58c.2.15.62.53-.21-.16l.45.36c.52.43,1,.89,1.5,1.36s.92,1,1.36,1.5c.07.09.35.33.36.45,0-.14-.55-.73-.16-.21.19.28.39.54.58.83a22.57,22.57,0,0,1,2,3.71l-.34-.8a21.66,21.66,0,0,1,1.53,5.59L61,22.23a24,24,0,0,1,.19,2.93,3.32,3.32,0,1,0,6.64,0A25.09,25.09,0,0,0,63.3,10.79,25.91,25.91,0,0,0,51.09,1.45,25.25,25.25,0,0,0,23.41,9a25.78,25.78,0,0,0-5.85,14.48A25.09,25.09,0,0,0,32.07,48a27,27,0,0,0,8,2.2,24.91,24.91,0,0,0,7.75-.38A25.25,25.25,0,0,0,67.44,29.42a27.63,27.63,0,0,0,.38-4.25,3.32,3.32,0,0,0-6.64,0Z"/><path class="cls-1" d="M78.67,69.37v16.2a25.12,25.12,0,0,1-.06,2.88c0-.3.07-.58.12-.88a8.79,8.79,0,0,1-.57,2.14l.34-.79a10.05,10.05,0,0,1-.75,1.41,2,2,0,0,1-.24.36s.61-.73.21-.28c-.18.2-.34.4-.53.59s-.34.33-.53.48-.6.35.22-.16l-.35.24a7.67,7.67,0,0,1-1.42.74l.8-.33a9,9,0,0,1-2.15.57l.88-.13a21.15,21.15,0,0,1-2.52.07H11.82a8.27,8.27,0,0,1-1.11-.07l.88.13A8.79,8.79,0,0,1,9.45,92l.79.33a10,10,0,0,1-1.41-.74,2,2,0,0,1-.36-.24s.73.61.28.21c-.2-.18-.4-.34-.59-.53l-.49-.53c-.18-.24-.34-.6.17.22-.08-.12-.17-.24-.24-.36a7.58,7.58,0,0,1-.74-1.41l.33.79a8.79,8.79,0,0,1-.57-2.14c0,.3.08.58.13.88a20.75,20.75,0,0,1-.07-2.73V70.6a38.73,38.73,0,0,1,.23-4.81l-.12.88a27.26,27.26,0,0,1,1.87-6.86l-.33.8a28.76,28.76,0,0,1,1.81-3.54c.36-.58.72-1.14,1.12-1.68.17-.23.9-1.11.15-.23.22-.25.4-.51.61-.76a27.06,27.06,0,0,1,2.7-2.76l.73-.63c.13-.1.26-.2.38-.31l.25-.2-.42.32a12.7,12.7,0,0,1,1.72-1.21A3.32,3.32,0,0,0,14,43.88a30.19,30.19,0,0,0-14,25C0,73.44,0,78,0,82.59c0,1.6,0,3.2,0,4.8A11.9,11.9,0,0,0,9,98.81a16.78,16.78,0,0,0,4,.34H73.38a11.78,11.78,0,0,0,9.11-4.08,12.21,12.21,0,0,0,2.87-7.53c0-.47,0-1,0-1.43V69.39a3.35,3.35,0,0,0-6.69,0Z"/></g></g></svg>