<svg xmlns="http://www.w3.org/2000/svg" viewBox="0 0 99.25 99.21"><defs><style>.cls-1{fill:#848484;}</style></defs><g id="Calque_2" data-name="Calque 2"><g id="Calque_1-2" data-name="Calque 1"><path class="cls-1" d="M1.91,40.84l13.27,6.42q10.49,5.07,21,10.16l4.77,2.31-1.38-1.38L46,71.61Q51,82.1,56.11,92.57c.77,1.59,1.53,3.18,2.32,4.78a3.79,3.79,0,0,0,3.82,1.83,3.93,3.93,0,0,0,3.19-2.75l.9-2.45c.82-2.21,1.62-4.43,2.44-6.64,1.22-3.29,2.42-6.6,3.64-9.89q2.2-6,4.42-12,2.41-6.57,4.82-13.15c1.63-4.43,3.26-8.84,4.88-13.27,1.51-4.13,3-8.25,4.55-12.38l3.84-10.46,2.76-7.53c.44-1.19.91-2.38,1.32-3.59,0,0,0-.1,0-.15C100,2.26,97-.79,94.34.19l-2.45.89L85.25,3.53,75.36,7.16l-12,4.42L50.21,16.41,36.93,21.29,24.55,25.83,14.09,29.67,6.56,32.44,3,33.76l-.15.05A4,4,0,0,0,.53,35.57a3.83,3.83,0,0,0-.38,3c.6,1.84,2.7,3.42,4.72,2.69.82-.29,1.63-.6,2.45-.9L14,37.88l9.88-3.64,12-4.42L49,25l13.28-4.88,12.38-4.55,10.46-3.84L92.65,9c1.19-.44,2.39-.86,3.58-1.32a.49.49,0,0,1,.16-.05L91.66,2.87c-.29.82-.6,1.63-.89,2.45C90,7.53,89.14,9.75,88.32,12c-1.22,3.29-2.42,6.6-3.64,9.89l-4.41,12Q77.84,40.43,75.44,47L70.56,60.28Q68.29,66.47,66,72.66L62.18,83.12q-1.4,3.76-2.77,7.53c-.43,1.19-.9,2.38-1.32,3.59,0,.05,0,.1-.05.15l7-.92L58.63,80.21q-5.09-10.53-10.19-21c-.74-1.54-1.45-3.12-2.25-4.64s-2.92-2.16-4.38-2.86L21.73,41.94,6,34.33l-.25-.13A3.91,3.91,0,0,0,.53,35.59C-.37,37.3,0,39.9,1.91,40.84Z"/><path class="cls-1" d="M45.56,59.13q3.66-3.69,7.35-7.37Q58.75,45.9,64.6,40c.88-.9,1.78-1.78,2.66-2.68a3.84,3.84,0,0,0-5.43-5.43q-3.66,3.69-7.35,7.38L42.79,51,40.13,53.7a3.88,3.88,0,0,0,0,5.43,3.92,3.92,0,0,0,5.43,0Z"/></g></g></svg>