<svg xmlns="http://www.w3.org/2000/svg" viewBox="0 0 99.4 99.47"><defs><style>.cls-1{fill:#848484;}</style></defs><g id="Calque_2" data-name="Calque 2"><g id="Calque_1-2" data-name="Calque 1"><path class="cls-1" d="M49.7,8.1A40.92,40.92,0,0,1,79.12,20.32,41.54,41.54,0,0,1,91.34,49.74,40.9,40.9,0,0,1,79.12,79.15,41.5,41.5,0,0,1,49.7,91.37,40.9,40.9,0,0,1,20.29,79.15,41.64,41.64,0,0,1,49.7,8.1m0-8.1A49.6,49.6,0,0,0,14.6,84.7,49.54,49.54,0,1,0,84.8,14.78,49.29,49.29,0,0,0,49.7,0Z"/><path class="cls-1" d="M63.91,28.42A7.11,7.11,0,1,0,71,35.53a7,7,0,0,0-7.11-7.11Z"/><path class="cls-1" d="M63.91,57A7.11,7.11,0,1,0,71,64.09,7,7,0,0,0,63.91,57Z"/><path class="cls-1" d="M28.53,42.63a7.11,7.11,0,1,0,7.1,7.11,7,7,0,0,0-7.1-7.11Z"/><path class="cls-1" d="M63.91,66.22a1.08,1.08,0,0,1-.71-.14L27.82,51.58a2,2,0,0,1,0-3.69L63.2,33.68a2,2,0,1,1,1.42,3.69L33.93,49.74l30.83,12.5A2,2,0,0,1,65.9,64.8,2.29,2.29,0,0,1,63.91,66.22Z"/></g></g></svg>