<svg xmlns="http://www.w3.org/2000/svg" viewBox="0 0 98.65 96.68"><defs><style>.cls-1{fill:#848484;}</style></defs><g id="Calque_2" data-name="Calque 2"><g id="Calque_1-2" data-name="Calque 1"><path class="cls-1" d="M33.43.66A49.49,49.49,0,0,0,11.11,16.2,51.16,51.16,0,0,0,3.69,28.68a49.32,49.32,0,1,0,66.49-26A54,54,0,0,0,63.57.13a3.36,3.36,0,0,0-4.12,2.34,3.42,3.42,0,0,0,2.34,4.11,48.13,48.13,0,0,1,4.54,1.64l-.8-.33a46.32,46.32,0,0,1,6.15,3.16c1,.6,1.94,1.24,2.87,1.92l.68.5c.12.09.26.18.37.28l-.32-.25c.48.38,1,.76,1.42,1.16a45.33,45.33,0,0,1,4.88,4.82c.34.38.67.77,1,1.17l.57.71c.32.39-.24-.31-.24-.31.13.16.24.33.37.49.66.91,1.31,1.82,1.91,2.77a45.92,45.92,0,0,1,3.65,6.94l-.34-.8A46.14,46.14,0,0,1,91.65,42.1l-.12-.89a48.08,48.08,0,0,1,0,12.34l.12-.89a46.75,46.75,0,0,1-3.2,11.71l.34-.81a48.26,48.26,0,0,1-3.17,6.15c-.6,1-1.24,1.92-1.91,2.86-.15.21-.31.44-.48.65l-.26.34c-.36.48.53-.68.16-.21s-.72.92-1.1,1.36a45.15,45.15,0,0,1-4.75,4.83c-.42.37-.85.74-1.28,1.08l-.57.46c-.19.15-.67.5.21-.17l-.47.36q-1.33,1-2.76,1.92a46.21,46.21,0,0,1-6.89,3.63l.8-.33a46.2,46.2,0,0,1-11.71,3.19l.9-.12a46.65,46.65,0,0,1-12.38,0l.89.12a46.13,46.13,0,0,1-11.7-3.19l.8.33A45.1,45.1,0,0,1,27,83.65c-1-.6-1.93-1.23-2.87-1.9l-.65-.48L23.12,81c-.48-.36.68.54.21.17s-.91-.73-1.36-1.11a45.13,45.13,0,0,1-4.83-4.75c-.37-.42-.73-.84-1.08-1.28l-.46-.57c-.15-.19-.5-.67.17.22-.12-.16-.23-.32-.36-.47-.66-.9-1.31-1.82-1.91-2.77a44.84,44.84,0,0,1-3.65-6.88l.34.81A45.92,45.92,0,0,1,7,52.66c0,.3.07.59.12.89a46.73,46.73,0,0,1,0-12.39c-.05.31-.08.6-.12.9a46.07,46.07,0,0,1,3.15-11.59l-.33.81A44.35,44.35,0,0,1,13,25.07c.59-1,1.21-1.91,1.88-2.84.14-.21.3-.41.46-.62l.28-.37c.36-.49-.53.67-.15.19s.7-.88,1.07-1.31a48,48,0,0,1,4.78-4.89l1.23-1.05.6-.48c.12-.1.25-.18.37-.29-.9.72-.27.22-.07.06.91-.68,1.84-1.33,2.79-1.94A44.84,44.84,0,0,1,33.1,7.92l-.81.33c1-.4,1.94-.78,2.93-1.12A3.42,3.42,0,0,0,37.56,3,3.42,3.42,0,0,0,33.43.66Z"/><path class="cls-1" d="M46,3.36v38.4c0,1.77,0,3.55,0,5.32v.08a3.35,3.35,0,1,0,6.69,0V8.77c0-1.78,0-3.56,0-5.33V3.36a3.35,3.35,0,1,0-6.69,0Z"/></g></g></svg>