<svg xmlns="http://www.w3.org/2000/svg" viewBox="0 0 98.73 94.37"><defs><style>.cls-1{fill:none;stroke:#848484;stroke-linecap:round;stroke-linejoin:round;stroke-width:5.67px;}</style></defs><g id="Calque_2" data-name="Calque 2"><g id="Calque_1-2" data-name="Calque 1"><path class="cls-1" d="M50.79,3.88l10,30.69a1.52,1.52,0,0,0,1.39,1H94.41a1.52,1.52,0,0,1,.83,2.78l-26,18.89a1.58,1.58,0,0,0-.56,1.66l10,30.7a1.52,1.52,0,0,1-2.36,1.67L50.24,72.36a1.46,1.46,0,0,0-1.81,0l-26,18.89a1.54,1.54,0,0,1-2.37-1.67l10-30.7a1.59,1.59,0,0,0-.56-1.66L3.43,38.33a1.56,1.56,0,0,1,.83-2.78H36.49a1.37,1.37,0,0,0,1.38-1L48,3.88A1.45,1.45,0,0,1,50.79,3.88Z"/></g></g></svg>