<svg xmlns="http://www.w3.org/2000/svg" viewBox="0 0 99.01 70.72"><defs><style>.cls-1{fill:#848484;fill-rule:evenodd;}</style></defs><g id="Calque_2" data-name="Calque 2"><g id="Calque_1-2" data-name="Calque 1"><path class="cls-1" d="M14.14,70.72H0V31.4a3.13,3.13,0,0,1,3.11-3.11h7.78A3.13,3.13,0,0,1,14,31.4V70.72Z"/><path class="cls-1" d="M42.43,70.72H28.29V17.26a3.14,3.14,0,0,1,3.11-3.12h7.78a3.14,3.14,0,0,1,3.11,3.12V70.72Z"/><path class="cls-1" d="M70.72,70.72H56.58V3.11A3.13,3.13,0,0,1,59.69,0h7.78a3.13,3.13,0,0,1,3.11,3.11V70.72Z"/><path class="cls-1" d="M99,70.72H84.87V31.4A3.13,3.13,0,0,1,88,28.29h7.78a3.13,3.13,0,0,1,3.11,3.11V70.72Z"/></g></g></svg>