<svg xmlns="http://www.w3.org/2000/svg" viewBox="0 0 99.01 99.01"><defs><style>.cls-1{fill:#848484;}</style></defs><g id="Calque_2" data-name="Calque 2"><g id="Calque_1-2" data-name="Calque 1"><path class="cls-1" d="M83.76,49.5a33.79,33.79,0,1,1-.37-5.18,34.45,34.45,0,0,1,.37,5.18,1.1,1.1,0,0,0,2.2,0,36.46,36.46,0,0,0-6.74-21.12,36.42,36.42,0,0,0-39.72-14A36.47,36.47,0,0,0,34.41,82.7a36.91,36.91,0,0,0,22.42,2.53,36.46,36.46,0,0,0,28.68-30A37.57,37.57,0,0,0,86,49.49,1.1,1.1,0,0,0,83.76,49.5Z"/><path class="cls-1" d="M64.26,49.5a14.6,14.6,0,1,1-.16-2.3,14.74,14.74,0,0,1,.16,2.3,1.11,1.11,0,0,0,2.21,0,17.12,17.12,0,1,0-.24,2.74,16.57,16.57,0,0,0,.22-2.73A1.1,1.1,0,0,0,64.26,49.5Z"/><path class="cls-1" d="M50.58,33.62c0-3.68,0-7.35,0-11l0-17.5c0-1.35,0-2.68,0-4a1.1,1.1,0,0,0-2.2,0c0,3.67,0,7.34,0,11q0,8.76,0,17.51c0,1.34,0,2.67,0,4a1.1,1.1,0,0,0,2.2,0Z"/><path class="cls-1" d="M50.69,98c0-3.68,0-7.35,0-11l0-17.5c0-1.35,0-2.68,0-4a1.11,1.11,0,0,0-2.21,0c0,3.68,0,7.34,0,11q0,8.76,0,17.51c0,1.34,0,2.67,0,4a1.1,1.1,0,0,0,2.2,0Z"/><path class="cls-1" d="M39,37.51l-7.81-7.79L18.81,17.36,16,14.52a1.1,1.1,0,0,0-1.55,1.55l7.81,7.79,12.4,12.36,2.84,2.84A1.1,1.1,0,0,0,39,37.51Z"/><path class="cls-1" d="M84.6,82.92l-7.81-7.79L64.38,62.78Q63,61.36,61.53,59.93A1.1,1.1,0,0,0,60,61.49l7.81,7.78,12.4,12.36L83,84.48a1.1,1.1,0,0,0,1.56-1.56Z"/><path class="cls-1" d="M61.53,39.07l7.81-7.79,12.4-12.36,2.85-2.84A1.1,1.1,0,0,0,83,14.53l-7.81,7.78L62.82,34.67,60,37.52c-1,1,.55,2.55,1.55,1.55Z"/><path class="cls-1" d="M16,84.48l7.81-7.79,12.4-12.36c1-.95,1.9-1.9,2.86-2.84a1.1,1.1,0,0,0-1.56-1.56l-7.81,7.79L17.27,80.08c-.95,1-1.89,1.9-2.85,2.84A1.1,1.1,0,0,0,16,84.48Z"/><path class="cls-1" d="M33.62,48.42l-11,0-17.5,0h-4a1.1,1.1,0,0,0,0,2.2l11,0,17.51,0h4a1.11,1.11,0,0,0,0-2.21Z"/><path class="cls-1" d="M98,48.31l-11,0-17.5,0h-4a1.1,1.1,0,0,0,0,2.2l11,0,17.51,0c1.34,0,2.67,0,4,0a1.1,1.1,0,0,0,0-2.2Z"/></g></g></svg>