<svg xmlns="http://www.w3.org/2000/svg" viewBox="0 0 99.21 99.21"><defs><style>.cls-1{fill:#848484;}</style></defs><g id="Calque_2" data-name="Calque 2"><g id="Calque_1-2" data-name="Calque 1"><path class="cls-1" d="M49.61,8.08A41.53,41.53,0,1,1,8.08,49.61,41.49,41.49,0,0,1,49.61,8.08m0-8.08a49.61,49.61,0,1,0,49.6,49.61A49.66,49.66,0,0,0,49.61,0Z"/><path class="cls-1" d="M18.57,83.2a3.1,3.1,0,0,1-2.41-1,3.42,3.42,0,0,1,0-5L77.24,16.16a3.51,3.51,0,1,1,5,5L21.12,82.2A3.42,3.42,0,0,1,18.57,83.2Z"/></g></g></svg>