<svg fill="#848484" xmlns="http://www.w3.org/2000/svg" viewBox="0 0 24 24" x="0px" y="0px"><title>vertical tag</title><g data-name="vertical tag"><path d="M17,24H7a3,3,0,0,1-3-3V8.55A5.29,5.29,0,0,1,5.22,5.17L8,1.9a5.27,5.27,0,0,1,8.1,0l2.73,3.27A5.29,5.29,0,0,1,20,8.55V21A3,3,0,0,1,17,24ZM12,2A3.25,3.25,0,0,0,9.49,3.18L6.76,6.45A3.28,3.28,0,0,0,6,8.55V21a1,1,0,0,0,1,1H17a1,1,0,0,0,1-1V8.55a3.28,3.28,0,0,0-.76-2.1L14.51,3.18A3.25,3.25,0,0,0,12,2Z"></path><path d="M12,9a3,3,0,1,1,3-3A3,3,0,0,1,12,9Zm0-4a1,1,0,1,0,1,1A1,1,0,0,0,12,5Z"></path></g></svg>