<svg xmlns="http://www.w3.org/2000/svg" viewBox="0 0 98.43 98.5"><defs><style>.cls-1{fill:#848484;}</style></defs><g id="Calque_2" data-name="Calque 2"><g id="Calque_1-2" data-name="Calque 1"><path class="cls-1" d="M49.22,8a40.5,40.5,0,0,1,29.12,12.1A41.13,41.13,0,0,1,90.45,49.25,40.53,40.53,0,0,1,78.34,78.38a41.08,41.08,0,0,1-29.12,12.1,40.52,40.52,0,0,1-29.13-12.1A41.23,41.23,0,0,1,49.22,8m0-8A49.11,49.11,0,0,0,14.46,83.87,49.06,49.06,0,1,0,84,14.63,48.86,48.86,0,0,0,49.22,0Z"/><path class="cls-1" d="M39.51,65.86A32.18,32.18,0,0,0,18.4,87.53a47.07,47.07,0,0,0,17,8.86H63.15a51.83,51.83,0,0,0,17-8.86,32.19,32.19,0,0,0-21.1-21.67,4,4,0,0,1-2.68-3.66h0a3.93,3.93,0,0,1,2.11-3.38,19.8,19.8,0,0,0,10.7-18,19.84,19.84,0,0,0-39.68.42A20.15,20.15,0,0,0,40.07,58.82a3.81,3.81,0,0,1-.56,7Z"/></g></g></svg>