<svg xmlns="http://www.w3.org/2000/svg" viewBox="0 0 83.44 97.86"><defs><style>.cls-1{fill:#848484;}</style></defs><g id="Calque_2" data-name="Calque 2"><g id="Calque_1-2" data-name="Calque 1"><path class="cls-1" d="M51.05,53.1h0a4.88,4.88,0,0,1,2.71-4.41,25.73,25.73,0,0,0,13.9-23.4A26.15,26.15,0,0,0,43.08,0,25.8,25.8,0,0,0,29.85,48.69a4.88,4.88,0,0,1,2.71,4.41h0A4.86,4.86,0,0,1,29,57.84,41.9,41.9,0,0,0,0,93.45a4,4,0,0,0,3.9,4.41H79.53a4,4,0,0,0,3.9-4.24,42.32,42.32,0,0,0-29-35.78A4.92,4.92,0,0,1,51.05,53.1Z"/></g></g></svg>