<svg xmlns="http://www.w3.org/2000/svg" viewBox="0 0 84.65 98.41"><defs><style>.cls-1{fill:none;stroke:#848484;stroke-miterlimit:10;stroke-width:5.08px;}</style></defs><g id="Calque_2" data-name="Calque 2"><g id="Calque_1-2" data-name="Calque 1"><path class="cls-1" d="M51.06,53.16h0A4.73,4.73,0,0,1,53.59,49,24.61,24.61,0,1,0,30.7,49a4.59,4.59,0,0,1,2.52,4.15h0A4.81,4.81,0,0,1,30,57.66,40,40,0,0,0,2.58,91.19a4.13,4.13,0,0,0,4.15,4.68H77.92a4.12,4.12,0,0,0,4.14-4.68A39.66,39.66,0,0,0,54.49,57.84,4.81,4.81,0,0,1,51.06,53.16Z"/></g></g></svg>