<svg xmlns="http://www.w3.org/2000/svg" width="24" height="22" viewBox="0 0 24 22"><defs><style>.a{fill:#596872;}</style></defs><title>burger_24_1</title><path class="a" d="M21.33,13.75H2.67a2.75,2.75,0,0,1,0-5.5H21.33a2.75,2.75,0,0,1,0,5.5ZM2.67,9.63a1.38,1.38,0,0,0,0,2.75H21.33a1.38,1.38,0,0,0,0-2.75Z"/><path class="a" d="M21.33,5.5H2.67A2.71,2.71,0,0,1,0,2.75,2.71,2.71,0,0,1,2.67,0H21.33A2.71,2.71,0,0,1,24,2.75,2.71,2.71,0,0,1,21.33,5.5ZM2.67,1.37A1.36,1.36,0,0,0,1.33,2.75,1.35,1.35,0,0,0,2.67,4.12H21.33a1.35,1.35,0,0,0,1.34-1.37,1.36,1.36,0,0,0-1.34-1.38Z"/><path class="a" d="M21.33,22H2.67a2.75,2.75,0,0,1,0-5.5H21.33a2.75,2.75,0,0,1,0,5.5ZM2.67,17.87a1.38,1.38,0,0,0,0,2.75H21.33a1.38,1.38,0,0,0,0-2.75Z"/></svg>