<svg id="Calque_1" data-name="Calque 1" xmlns="http://www.w3.org/2000/svg" viewBox="0 0 52 52"><defs><style>.cls-1{fill:#1d1d1b;}.cls-2{fill:#010101;}</style></defs><g id="_26-Comptes_à_privilèges_sécurisés" data-name="26-Comptes à privilèges sécurisés"><path d="M5.59,14.92c.11-1.48.25-3.2.36-4.93,0-.42.28-.45.62-.47,1.54-.06,3.1,0,4.62-.22A23.88,23.88,0,0,0,24.26,3.74c.55-.47,1.06-1,1.57-1.5.25-.25.4-.23.66,0a45.45,45.45,0,0,0,3.71,3.1,23.74,23.74,0,0,0,11.25,4c1.43.15,2.88.16,4.32.2.4,0,.58.15.62.54a39.14,39.14,0,0,1,.15,8.45,63.75,63.75,0,0,1-.94,6.32,37.3,37.3,0,0,1-8.17,16.66,39.85,39.85,0,0,1-10.79,8.67.83.83,0,0,1-.93,0A40.31,40.31,0,0,1,17.26,44a36.32,36.32,0,0,1-8-11.5,37.69,37.69,0,0,1-2.71-8.64c-.36-2-.54-4.09-.77-6.14C5.66,16.85,5.65,16,5.59,14.92Zm2-.55H7.52c.05,1,0,2,.16,2.92.27,2.18.5,4.37.91,6.53a30.93,30.93,0,0,0,2.53,7.74,54.27,54.27,0,0,0,3.14,5.63A30.61,30.61,0,0,0,21,44.6c1.52,1.19,3.13,2.26,4.73,3.35a.81.81,0,0,0,.71,0A36.3,36.3,0,0,0,37.53,38a37.78,37.78,0,0,0,6.4-15.1,40.27,40.27,0,0,0,.77-10.68c0-.38-.14-.52-.53-.54-.87-.05-1.74-.12-2.61-.23a31,31,0,0,1-7.64-2A26.6,26.6,0,0,1,26.63,5.2c-.39-.32-.59-.33-1,0A24.87,24.87,0,0,1,20,8.74,32.53,32.53,0,0,1,8.23,11.63c-.5,0-.65.24-.65.67Z"/><path class="cls-1" d="M26.19,51a1.74,1.74,0,0,1-.85-.24,40.68,40.68,0,0,1-8.6-6.28,37.35,37.35,0,0,1-8.2-11.74A38.62,38.62,0,0,1,5.78,24c-.29-1.63-.46-3.29-.63-4.9L5,17.77c-.07-.57-.09-1.15-.12-1.81,0-.31,0-.64,0-1v-.05l.09-1.15c.09-1.2.19-2.51.27-3.82,0-.74.5-1.13,1.34-1.17l1.32,0c1.07,0,2.18-.06,3.24-.19A23,23,0,0,0,23.77,3.17c.55-.47,1.08-1,1.53-1.45A1.12,1.12,0,0,1,27,1.67l.94.83a28.53,28.53,0,0,0,2.71,2.22A23.15,23.15,0,0,0,41.52,8.57c1.18.11,2.4.15,3.57.18l.7,0A1.26,1.26,0,0,1,47.14,10a39.12,39.12,0,0,1,.14,8.61l0,.2c-.24,2-.48,4.15-.92,6.19A38.22,38.22,0,0,1,38,42,40,40,0,0,1,27,50.8,1.66,1.66,0,0,1,26.19,51ZM6.34,14.93c0,.34,0,.66,0,1,0,.62.05,1.16.11,1.7l.14,1.3c.17,1.58.34,3.22.62,4.8a36.27,36.27,0,0,0,2.66,8.46,35.51,35.51,0,0,0,7.86,11.27,39.56,39.56,0,0,0,8.29,6l.12.05A38.81,38.81,0,0,0,36.86,41a36.7,36.7,0,0,0,8-16.33c.43-2,.67-4,.9-6l0-.21a37.33,37.33,0,0,0-.13-8.14l-.61,0c-1.2,0-2.45-.07-3.68-.19A24.46,24.46,0,0,1,29.78,6a28.44,28.44,0,0,1-2.86-2.33L26.18,3c-.44.44-.92.91-1.43,1.35A24.79,24.79,0,0,1,11.28,10c-1.13.14-2.27.17-3.38.2l-1.21,0c-.09,1.25-.18,2.47-.27,3.6ZM26.15,48.8a1.49,1.49,0,0,1-.82-.23l-.88-.6c-1.29-.88-2.63-1.79-3.88-2.78a31.39,31.39,0,0,1-6.94-7.59,53,53,0,0,1-3.18-5.71A31.27,31.27,0,0,1,7.86,24c-.36-1.86-.59-3.77-.81-5.61l-.11-1c-.09-.7-.11-1.4-.14-2.08l0-.89,0-.77h.1V12.31a1.31,1.31,0,0,1,1.35-1.43A31.33,31.33,0,0,0,19.69,8.06a24.07,24.07,0,0,0,5.49-3.45,1.34,1.34,0,0,1,1.93,0,26.25,26.25,0,0,0,7.08,4.13,30.83,30.83,0,0,0,7.47,1.91c.8.11,1.66.18,2.55.23a1.21,1.21,0,0,1,1.24,1.24A41,41,0,0,1,44.67,23a38.68,38.68,0,0,1-6.53,15.4A37.19,37.19,0,0,1,26.86,48.62,1.39,1.39,0,0,1,26.15,48.8ZM8.3,15.1v.15c0,.68,0,1.32.13,1.95l.11,1c.22,1.82.44,3.7.79,5.51a30,30,0,0,0,2.47,7.55,50.07,50.07,0,0,0,3.09,5.55A29.75,29.75,0,0,0,21.49,44c1.22,1,2.53,1.85,3.81,2.72l.88.6a36.21,36.21,0,0,0,10.74-9.81,37.29,37.29,0,0,0,6.28-14.8A40,40,0,0,0,44,12.38c-.9-.05-1.73-.13-2.5-.23a32.19,32.19,0,0,1-7.83-2,28,28,0,0,1-7.49-4.36h0a25.81,25.81,0,0,1-5.82,3.65,32.64,32.64,0,0,1-12,2.95Z"/><path class="cls-2" d="M37.49,18.61l-3.16,2.88c-1.84,1.69-4.4.75-5.32-1.93L26.6,12.73c-.22-.57-.82-.57-1,0l-2.34,6.78c-1,2.78-3.59,3.67-5.43,1.88l-3.06-3c-.42-.43-1,.14-.85.84l3.2,14.37a.22.22,0,0,0,.21.19H35c.11,0,.18-.1.22-.19l3.16-14.08C38.52,18.8,37.92,18.19,37.49,18.61Z"/></g></svg>