<svg id="Calque_1" data-name="Calque 1" xmlns="http://www.w3.org/2000/svg" viewBox="0 0 56.07 49.21"><defs><style>.cls-1{fill:#010101;}</style></defs><g id="_6.3-Comptes_à_privilèges" data-name="6.3-Comptes à privilèges"><path class="cls-1" d="M54.53,17.37A87.76,87.76,0,0,0,41,2.08a3.7,3.7,0,0,0-5.18.22A68.43,68.43,0,0,0,25.77,14.86,4.52,4.52,0,0,0,26,20c.36.45,2.21,3,2.53,3.33L27,21.21l1.55,2.09c-.25.26-.22-.27,0,0l-1.64,2.39c.13.18.11-.16,0,0l-15,15.82a1.22,1.22,0,0,0-.31,1.05l.68,4.38a1,1,0,0,0,1,.9l3.63.32a.94.94,0,0,0,.83-.35L20.41,45a.66.66,0,0,0,.22-.54l-.29-2.78c0-.4-.34,3.26.07,3.32l2.77-3.85a.66.66,0,0,0,.7-.73l1.83-4.19c0-.41-3.3,1-2.9,1L20.41,45c.19,0,7-7.52,7.1-7.62l7.14-6.93c.17-.15-1.8,1.58-1.65,1.69l2.52-2.58c.23.27-.25.25,0,0l-.87.89c.17-.15,1.73,1.6,1.88,1.71.31.37.71.69,1.08,1.08a3.69,3.69,0,0,0,4.78.33A67.81,67.81,0,0,0,54.16,23,4.63,4.63,0,0,0,54.53,17.37Zm-5.8,1.3L46.62,20.9a.46.46,0,0,1-.73,0L37.5,11.42a.57.57,0,0,1,0-.79l2.11-2.24a.46.46,0,0,1,.72,0l8.4,9.45A.65.65,0,0,1,48.73,18.67Z"/><path class="cls-1" d="M24.25,6.76,21.12,9.32c-1.82,1.52-4.35.68-5.26-1.72L13.47,1.5a.51.51,0,0,0-1,0L10.17,7.56C9.22,10,6.62,10.84,4.8,9.24l-3-2.65c-.43-.38-1,.13-.85.76L4.09,20.17a.22.22,0,0,0,.21.17H21.76a.26.26,0,0,0,.21-.17L25.09,7.6C25.27,6.93,24.67,6.38,24.25,6.76Z"/></g></svg>