<svg id="Calque_1" data-name="Calque 1" xmlns="http://www.w3.org/2000/svg" viewBox="0 0 63 60.11"><defs><style>.cls-1{fill:#3c3c3b;}</style></defs><g id="_12.4_-_Rotation_mot_de_passe" data-name="12.4 - Rotation mot de passe"><path class="cls-1" d="M15.53,19.71h4.19l-1.3,5,3.73-3.52,1.93,3.63-5,1.3,5,1.44L21.9,31.11l-3.59-3.58,1.27,4.95h-4l1.27-4.95-3.67,3.58-2.2-3.58L16,26.09l-5.05-1.41L13.13,21l3.67,3.68Z"/><path class="cls-1" d="M30.4,19.71h4.19l-1.31,5L37,21.16l1.93,3.63-5,1.3,5,1.44-2.18,3.58-3.59-3.58,1.27,4.95h-4l1.27-4.95L28,31.11l-2.2-3.58,5.05-1.44-5.05-1.41L28,21l3.68,3.68Z"/><path class="cls-1" d="M46.53,27.53l-.39,1.52a5.32,5.32,0,0,1,1.3-.16,5.83,5.83,0,0,1,1,.08L48,27.53l1.71,1.7A4.79,4.79,0,0,1,52.3,30l1.5-2.48-5-1.44,5-1.3-1.93-3.63-3.72,3.52,1.3-5H45.26l1.27,5L42.85,21l-2.19,3.68,5,1.41-5,1.44L42,29.76a4.92,4.92,0,0,1,2.31-.54l.44,0Z"/><polygon class="cls-1" points="53.03 48.98 51.01 50.56 40.73 38.38 42.76 36.79 53.03 48.98"/><polygon class="cls-1" points="43.3 50.5 41.17 49.05 50.21 36.68 52.34 38.13 43.3 50.5"/><path class="cls-1" d="M60.75,8.18,55.86,9.5c-5.38-7.41-18-10.63-30.66-7.21C17.31,4.42,11,8.71,7.32,13.79a4.61,4.61,0,0,1,1.87,1.63,5.89,5.89,0,0,1,.54.32,8.34,8.34,0,0,1,1.71,1.57c2.5-4.8,7.94-9,15-10.91C35.82,3.87,45.08,6,49.59,11.15l-4.52,1.23c-.93.25-1.31,1.14-.58,1.55l10.62,6.51a1.5,1.5,0,0,0,2-.56l5-10.69C62.48,8.5,61.68,7.93,60.75,8.18Z"/><path class="cls-1" d="M34.61,44c0-.49.1-1,.19-1.5a8.78,8.78,0,0,1,.32-1.2l-.21.12C26.59,45.57,17.6,45,12.55,40.62l4-2c.83-.41,1-1.37.28-1.65l-11-4.71a1.4,1.4,0,0,0-1.82.9L1.14,44.71c-.18.75.65,1.19,1.48.78L7,43.33c5.82,6.07,17,7.41,27.55,3A11.28,11.28,0,0,1,34.61,44Z"/><path class="cls-1" d="M46.9,58A14.35,14.35,0,1,1,61.6,43.68,14.54,14.54,0,0,1,46.9,58Zm0-25.35a11,11,0,1,0,11.27,11A11.15,11.15,0,0,0,46.9,32.68Z"/></g></svg>