<svg xmlns="http://www.w3.org/2000/svg" viewBox="0 0 52 52"><defs><style>.cls-1{fill:#010101;}</style></defs><g id="Calque_2" data-name="Calque 2"><g id="Calque_1-2" data-name="Calque 1"><g id="_5.2-Comptes_standards" data-name="5.2-Comptes standards"><path class="cls-1" d="M10.5,48.45l3.29-4.26a.76.76,0,0,0,.83-.8m-1.27-3.48L10.5,48.45c.22,0,8.32-8.31,8.43-8.43l8.49-7.65c.2-.17-2.14,1.74-2,1.87l3-2.86c.27.3-.31.28,0,0l-1,1c.2-.17,2,1.76,2.23,1.89.38.4.85.76,1.29,1.19a4.65,4.65,0,0,0,5.68.37,79.1,79.1,0,0,0,14-11.6A4.83,4.83,0,0,0,51.05,18,98.91,98.91,0,0,0,35,1.06a4.62,4.62,0,0,0-6.16.24A77.21,77.21,0,0,0,16.87,15.18a4.71,4.71,0,0,0,.25,5.65c.43.5,2.64,3.28,3,3.69l-1.85-2.31,1.85,2.31c-.31.28-.27-.3,0,0l-2,2.64c.16.2.13-.18,0,0L.39,44.65A1.23,1.23,0,0,0,0,45.81l.8,4.84a1.2,1.2,0,0,0,1.13,1L6.27,52a1.17,1.17,0,0,0,1-.39l3.24-3.16a.74.74,0,0,0,.26-.59m33.4-28.47-2.52,2.48a.58.58,0,0,1-.86,0l-10-10.46a.6.6,0,0,1,.06-.87L33.37,8a.59.59,0,0,1,.87,0l10,10.46A.66.66,0,0,1,44.16,19.39Z"/></g></g></g></svg>