<svg xmlns="http://www.w3.org/2000/svg" viewBox="0 0 47.4 47.4"><defs><style>.cls-1{fill:#3c3c3b;}</style></defs><g id="Calque_2" data-name="Calque 2"><g id="Calque_1-2" data-name="Calque 1"><g id="_1.2_-_identification" data-name="1.2 - identification"><polygon class="cls-1" points="47.4 47.4 28.15 47.4 28.15 43.9 43.9 43.9 43.9 28.15 47.4 28.15 47.4 47.4"/><polygon class="cls-1" points="19.25 47.4 0 47.4 0 28.15 3.5 28.15 3.5 43.9 19.25 43.9 19.25 47.4"/><polygon class="cls-1" points="3.5 19.25 0 19.25 0 0 19.25 0 19.25 3.5 3.5 3.5 3.5 19.25"/><polygon class="cls-1" points="47.4 19.25 43.9 19.25 43.9 3.5 28.15 3.5 28.15 0 47.4 0 47.4 19.25"/><path class="cls-1" d="M36.79,17.79l-3.64,2.9c-2.13,1.71-5.07.76-6.14-2l-2.78-6.89a.59.59,0,0,0-1.14,0l-2.7,6.84c-1.11,2.81-4.13,3.71-6.26,1.9l-3.51-3c-.49-.43-1.19.14-1,.85L13.31,33a.27.27,0,0,0,.25.19H33.88a.28.28,0,0,0,.25-.19l3.64-14.21C38,18,37.28,17.36,36.79,17.79Z"/></g></g></g></svg>