<svg xmlns="http://www.w3.org/2000/svg" viewBox="0 0 52 51"><defs><style>.cls-1{fill:#3c3c3b;}</style></defs><g id="Calque_2" data-name="Calque 2"><g id="Calque_1-2" data-name="Calque 1"><g id="_22-Non_embarqués" data-name="22-Non embarqués"><path class="cls-1" d="M42.89,12.09,37.15,17.6c-3.35,3.25-8,1.44-9.68-3.7L23.09.81C22.7-.27,21.6-.27,21.28.81L17,13.81c-1.74,5.32-6.51,7-9.87,3.61L1.61,11.73C.83,10.92-.26,12,.06,13.36l5.8,27.52a.43.43,0,0,0,.39.37H26.7a14,14,0,0,1-.2-6,6.34,6.34,0,0,1-.41-2.92,6,6,0,0,1,.6-3.26c.4-1.56,1.4-2.81,3-2.81a3,3,0,0,1,.43,0,3.15,3.15,0,0,1,.44,0,2.93,2.93,0,0,1,.9.15,5.81,5.81,0,0,1,3.68-.29,2.69,2.69,0,0,1,1.49-.43,27.4,27.4,0,0,1,5.19.42l2.6-12.23C44.76,12.45,43.66,11.28,42.89,12.09Z"/><path class="cls-1" d="M52,51H25.38V24.85H52ZM28.08,47.93H49.3v-20H28.08Z"/><polygon class="cls-1" points="38.69 29.95 46.83 39.74 30.56 39.74 38.69 29.95 38.69 29.95"/><rect class="cls-1" x="34.8" y="38.48" width="7.79" height="6.58" transform="translate(77.38 83.54) rotate(180)"/></g></g></g></svg>