<svg id="Calque_1" data-name="Calque 1" xmlns="http://www.w3.org/2000/svg" viewBox="0 0 59 59"><defs><style>.cls-1{fill:#3c3c3b;}</style></defs><g id="_2.3_-_périmètre" data-name="2.3 - périmètre"><path class="cls-1" d="M52.23,58.56H7.28V13.75H52.23ZM10.6,55.25H48.91V17.06H10.6Z"/><polygon class="cls-1" points="9.24 16.36 7.26 13.7 25.11 0.56 27.08 3.22 9.24 16.36"/><polygon class="cls-1" points="51.18 16.63 32.16 10.05 33.25 6.93 52.26 13.5 51.18 16.63"/><path class="cls-1" d="M41.06,29.7l-3.45,2.74c-2,1.62-4.81.72-5.81-1.84l-2.64-6.51a.57.57,0,0,0-1.09,0l-2.56,6.46c-1,2.65-3.91,3.51-5.93,1.8l-3.33-2.83c-.47-.4-1.13.14-.93.81L18.81,44a.24.24,0,0,0,.23.18H38.31a.26.26,0,0,0,.23-.18L42,30.6C42.19,29.88,41.53,29.3,41.06,29.7Z"/></g></svg>