<svg height='100px' width='100px'  fill="#1A1A1A" xmlns="http://www.w3.org/2000/svg" xmlns:xlink="http://www.w3.org/1999/xlink" version="1.1" x="0px" y="0px" viewBox="0 0 100 100" enable-background="new 0 0 100 100" xml:space="preserve"><path d="M50,57.333c-0.289,0-0.578-0.063-0.846-0.188l-40-18.667C8.45,38.149,8,37.443,8,36.666s0.45-1.483,1.154-1.813l40-18.666  c0.537-0.25,1.155-0.25,1.692,0l40,18.666c0.702,0.329,1.152,1.035,1.152,1.813s-0.45,1.483-1.152,1.812l-40,18.668  C50.578,57.271,50.289,57.333,50,57.333z M14.729,36.666L50,53.126l35.271-16.46L50,20.207L14.729,36.666z M50.846,70.479l40-18.666  c1-0.467,1.434-1.656,0.967-2.659c-0.467-1-1.652-1.435-2.658-0.966L50,66.459L10.846,48.188c-1-0.465-2.19-0.034-2.658,0.966  c-0.467,1.002-0.035,2.192,0.967,2.659l40,18.666c0.268,0.125,0.557,0.188,0.846,0.188S50.578,70.604,50.846,70.479z M50.846,83.813  l40-18.666c1-0.469,1.434-1.657,0.967-2.66c-0.467-1-1.652-1.436-2.658-0.965L50,79.793L10.846,61.521  c-1-0.465-2.19-0.035-2.658,0.965c-0.467,1.003-0.035,2.191,0.967,2.66l40,18.666C49.422,83.938,49.711,84,50,84  S50.578,83.938,50.846,83.813z M23.729,36.666L50,49.126l27.271-12.46L50,24.207L23.729,36.666z"></path></svg>