<svg xmlns="http://www.w3.org/2000/svg" viewBox="0 0 51 52"><defs><style>.cls-1{fill:#3c3c3b;}</style></defs><g id="Calque_2" data-name="Calque 2"><g id="Calque_1-2" data-name="Calque 1"><g id="_20_-_Prestataire" data-name="20 - Prestataire"><path class="cls-1" d="M26.66,52c-7.35,0-13.42-.6-19.26-2.52a32.49,32.49,0,0,1-3.9-1.64A5.55,5.55,0,0,1,.11,41.35,17.54,17.54,0,0,1,14,27.26a3.64,3.64,0,0,1,2.2.34,18.85,18.85,0,0,0,18.57,0A3.72,3.72,0,0,1,37,27.23c7.61,1.4,13.75,8.27,14,15.44a4.75,4.75,0,0,1-2.32,4.45c-3.1,2.11-6.71,3-10.4,3.73a51.43,51.43,0,0,1-5.41.78C30.41,51.85,27.94,51.93,26.66,52Z"/><path class="cls-1" d="M39.17,13.85a14.68,14.68,0,0,1-8.24,11.84,11.37,11.37,0,0,1-10.75.08C12.34,22,9.41,12,14.2,5.52A14.36,14.36,0,0,1,29.75.6,13.06,13.06,0,0,1,39.17,13.85Z"/></g></g></g></svg>