<svg xmlns="http://www.w3.org/2000/svg" width="66px" height="20px" viewBox="0 0 96.49 28.77"><defs><style>.cls-1{fill:#3c3c3b;}</style></defs><g id="Calque_2" data-name="Calque 2"><g id="Calque_1-2" data-name="Calque 1"><g id="_25-Priorité_faible" data-name="25-Priorité faible"><path class="cls-1" d="M56.76,28.76a1.39,1.39,0,0,1-.59-.15l-7.94-4.16-7.94,4.17a1.28,1.28,0,0,1-1.72-.55,1.31,1.31,0,0,1-.13-.8L40,18.43l-6.42-6.26a1.28,1.28,0,0,1,0-1.81,1.25,1.25,0,0,1,.69-.36L43.1,8.71l4-8A1.28,1.28,0,0,1,48.82.14a1.21,1.21,0,0,1,.57.57l4,8L62.23,10a1.28,1.28,0,0,1,.71,2.18l-6.42,6.26L58,27.28a1.27,1.27,0,0,1-1,1.47l-.21,0Zm-8.53-7a1.2,1.2,0,0,1,.59.15l6.24,3.28-1.19-7a1.29,1.29,0,0,1,.36-1.17l5-4.92-7-1a1.29,1.29,0,0,1-1-.7l-3-6.33-3.12,6.32a1.27,1.27,0,0,1-1,.7l-7,1,5,4.92a1.25,1.25,0,0,1,.37,1.13l-1.19,7,6.24-3.28a1.32,1.32,0,0,1,.7-.14Zm41.69,7a1.39,1.39,0,0,1-.59-.15l-7.94-4.17-7.94,4.17a1.28,1.28,0,0,1-1.72-.55,1.31,1.31,0,0,1-.13-.8l1.52-8.84L66.7,12.16a1.28,1.28,0,0,1,0-1.81,1.25,1.25,0,0,1,.72-.37l8.82-1.27,4-8A1.28,1.28,0,0,1,82,.14a1.21,1.21,0,0,1,.57.57l4,8L95.39,10a1.28,1.28,0,0,1,.71,2.18l-6.42,6.26,1.52,8.84a1.27,1.27,0,0,1-1,1.47l-.21,0Zm-8.53-7a1.2,1.2,0,0,1,.59.15l6.25,3.24L87,18.2a1.28,1.28,0,0,1,.37-1.13l5-4.92-7-1a1.29,1.29,0,0,1-1-.7L81.28,4.13l-3,6.31a1.27,1.27,0,0,1-1,.7l-7,1,5,4.92a1.25,1.25,0,0,1,.37,1.13l-1.19,7,6.24-3.28a1.28,1.28,0,0,1,.74-.14ZM30.09,10.87a1.26,1.26,0,0,0-1-.87L20.23,8.71l-4-8A1.27,1.27,0,0,0,14.52.14a1.28,1.28,0,0,0-.58.57l-4,8L1.09,10a1.28,1.28,0,0,0-.71,2.18L6.8,18.44,5.28,27.27a1.28,1.28,0,0,0,1,1.47,1.22,1.22,0,0,0,.8-.12l7.93-4.17L23,28.62a1.29,1.29,0,0,0,1.73-.55,1.24,1.24,0,0,0,.12-.8l-1.52-8.84,6.42-6.26A1.27,1.27,0,0,0,30.09,10.87Z"/></g></g></g></svg>