<svg xmlns="http://www.w3.org/2000/svg" width="66px" height="20px" viewBox="0 0 93.79 27.14"><defs><style>.cls-1{fill:#3c3c3b;}</style></defs><g id="Calque_2" data-name="Calque 2"><g id="Calque_1-2" data-name="Calque 1"><g id="_23-Priorité_haute" data-name="23-Priorité haute"><path class="cls-1" d="M14.16,0a1,1,0,0,0-.95.55L9.36,8.24.86,9.5a1.17,1.17,0,0,0-.58,1.88l6.11,6L5,25.87a1.14,1.14,0,0,0,1.06,1.27A1,1,0,0,0,6.56,27l7.6-4,7.64,4a1.15,1.15,0,0,0,1.57-1.16L22,17.4l6.1-6a1.17,1.17,0,0,0-.61-1.88L19,8.24,15.15.55a1.09,1.09,0,0,0-1-.55Zm32.7,0a1.12,1.12,0,0,0-1,.55L42.06,8.24,33.56,9.5A1.17,1.17,0,0,0,33,11.38l6.1,6-1.39,8.47A1.12,1.12,0,0,0,39.26,27l7.6-4,7.61,4a1.17,1.17,0,0,0,1.6-1.16l-1.4-8.47,6.11-6a1.18,1.18,0,0,0-.62-1.88L51.67,8.24,47.85.55a1.09,1.09,0,0,0-1-.55ZM79.6,0a1.09,1.09,0,0,0-1,.55L74.79,8.24,66.3,9.5a1.17,1.17,0,0,0-.61,1.88l6.1,6-1.4,8.47a1.14,1.14,0,0,0,1.06,1.27A1.12,1.12,0,0,0,72,27l7.61-4,7.6,4a1.17,1.17,0,0,0,1.6-1.16L87.41,17.4l6.1-6A1.17,1.17,0,0,0,92.9,9.5L84.4,8.24,80.59.55a1.12,1.12,0,0,0-1-.55Z"/></g></g></g></svg>