<svg xmlns="http://www.w3.org/2000/svg" width="66px" height="20px" viewBox="0 0 95.04 28.77"><defs><style>.cls-1{fill:#3c3c3b;}</style></defs><g id="Calque_2" data-name="Calque 2"><g id="Calque_1-2" data-name="Calque 1"><g id="_24-_Priorité_normale" data-name="24- Priorité normale"><path class="cls-1" d="M27.75,11.12,19.21,9.88l-3.9-7.51a1.11,1.11,0,0,0-1-.53h0a1,1,0,0,0-1,.53L9.45,9.88.87,11.12A1.12,1.12,0,0,0,.29,13l6.17,5.87L5,27.12a1.13,1.13,0,0,0,1.07,1.23,1,1,0,0,0,.52-.1l7.68-3.87L22,28.25a1.16,1.16,0,0,0,1.59-1.13l-1.41-8.29L28.37,13A1.13,1.13,0,0,0,27.75,11.12Z"/><path class="cls-1" d="M60.8,11.12,52.22,9.88,48.36,2.37a1.11,1.11,0,0,0-1-.53h0a1.12,1.12,0,0,0-1,.53L42.5,9.88l-8.58,1.24A1.13,1.13,0,0,0,33.3,13l6.17,5.87-1.41,8.29a1.12,1.12,0,0,0,1.07,1.23,1.17,1.17,0,0,0,.55-.1l7.68-3.87,7.69,3.87a1.19,1.19,0,0,0,1.62-1.13l-1.42-8.29L61.42,13A1.13,1.13,0,0,0,60.8,11.12Z"/><path class="cls-1" d="M95,11.45A1.27,1.27,0,0,0,93.94,10L85.07,8.71l-4-8A1.21,1.21,0,0,0,80.5.14a1.28,1.28,0,0,0-1.72.57l-4,8L66,10a1.25,1.25,0,0,0-.72.37,1.28,1.28,0,0,0,0,1.81l6.42,6.26-1.52,8.84a1.31,1.31,0,0,0,.13.8,1.28,1.28,0,0,0,1.72.55l7.94-4.17,7.94,4.17a1.36,1.36,0,0,0,.59.15h0l.21,0a1.27,1.27,0,0,0,1-1.47l-1.52-8.84,6.42-6.26A1.28,1.28,0,0,0,95,11.45ZM86,17.07a1.28,1.28,0,0,0-.37,1.13l1.2,7-6.25-3.24a1.2,1.2,0,0,0-.59-.15v0a1.28,1.28,0,0,0-.74.14L73,25.14l1.19-6.95a1.28,1.28,0,0,0-.37-1.13l-5-4.92,7-1a1.27,1.27,0,0,0,1-.7l3-6.31L83,10.45a1.29,1.29,0,0,0,1,.7l7,1Z"/></g></g></g></svg>