<svg id="Calque_1" data-name="Calque 1" xmlns="http://www.w3.org/2000/svg" viewBox="0 0 52 52"><defs><style>.cls-1{fill:#3c3c3b;}</style></defs><g id="_13_-_Risques_CyberArk" data-name="13 - Risques CyberArk"><path class="cls-1" d="M8.23,15c.11-1.46.24-3.17.36-4.88,0-.43.28-.45.61-.47,1.53-.06,3.07,0,4.59-.22A23.69,23.69,0,0,0,26.75,4c.54-.47,1.05-1,1.56-1.48.24-.25.39-.23.65,0a42.75,42.75,0,0,0,3.68,3.07A23.52,23.52,0,0,0,43.79,9.48c1.43.15,2.86.16,4.3.2.39,0,.57.15.61.54a39,39,0,0,1,.15,8.37c-.25,2.1-.48,4.21-.93,6.27a37,37,0,0,1-8.11,16.51A39.21,39.21,0,0,1,29.1,50a.83.83,0,0,1-.92,0,40,40,0,0,1-8.38-6.12,35.74,35.74,0,0,1-8-11.4,37.35,37.35,0,0,1-2.69-8.56c-.36-2-.54-4.05-.76-6.08C8.29,17,8.29,16.12,8.23,15Zm2-.54h-.06c0,1,0,1.94.16,2.89.26,2.16.49,4.34.9,6.47a30.86,30.86,0,0,0,2.51,7.68,53.3,53.3,0,0,0,3.11,5.58,30.71,30.71,0,0,0,6.72,7.35c1.51,1.18,3.11,2.23,4.69,3.31a.78.78,0,0,0,.71,0,35.81,35.81,0,0,0,11-9.93,37.49,37.49,0,0,0,6.35-15A40.39,40.39,0,0,0,47,12.33c0-.38-.14-.52-.53-.54-.86,0-1.73-.12-2.59-.23a30.52,30.52,0,0,1-7.58-2A26.43,26.43,0,0,1,29.1,5.4c-.39-.31-.59-.32-1,0a25,25,0,0,1-5.61,3.52,32,32,0,0,1-11.69,2.87c-.49,0-.64.24-.64.67Z"/><path class="cls-1" d="M28.66,50.7a1.58,1.58,0,0,1-.77-.23,40.3,40.3,0,0,1-8.51-6.2,36.74,36.74,0,0,1-8.1-11.59A37.64,37.64,0,0,1,8.56,24c-.29-1.61-.46-3.25-.63-4.84l-.14-1.29c-.07-.57-.09-1.13-.12-1.78,0-.31,0-.64,0-1v0l.1-1.26c.08-1.15.18-2.4.26-3.65a1.08,1.08,0,0,1,1.19-1l1.31,0a31.62,31.62,0,0,0,3.23-.18A22.94,22.94,0,0,0,26.36,3.5c.54-.47,1.07-1,1.52-1.45a1,1,0,0,1,1.48,0l.93.82A28.07,28.07,0,0,0,33,5,22.89,22.89,0,0,0,43.85,8.88C45,9,46.23,9,47.4,9.06l.7,0a1.11,1.11,0,0,1,1.2,1.08,38.78,38.78,0,0,1,.15,8.5l0,.22A61.71,61.71,0,0,1,48.51,25a37.68,37.68,0,0,1-8.24,16.77A39.61,39.61,0,0,1,29.4,50.49,1.49,1.49,0,0,1,28.66,50.7ZM8.83,15.05c0,.34,0,.67.05,1,0,.63,0,1.17.11,1.7L9.13,19c.16,1.56.34,3.18.62,4.75a36.37,36.37,0,0,0,2.64,8.42A35.44,35.44,0,0,0,20.22,43.4a39.25,39.25,0,0,0,8.26,6c.17.1.2.08.33,0A38.36,38.36,0,0,0,39.35,41a36.56,36.56,0,0,0,8-16.25c.43-2,.66-4,.89-6l0-.22a37.6,37.6,0,0,0-.15-8.23h0l-.71,0c-1.18,0-2.41-.07-3.63-.19A24.14,24.14,0,0,1,32.3,6a28.81,28.81,0,0,1-2.82-2.3L28.64,3c-.47.47-1,1-1.5,1.42a24.42,24.42,0,0,1-13.28,5.65c-1.12.13-2.25.16-3.35.19l-1.29,0h0c-.08,1.24-.17,2.45-.26,3.56ZM28.62,48.48a1.25,1.25,0,0,1-.73-.2L27,47.7c-1.29-.87-2.62-1.78-3.87-2.76a31.15,31.15,0,0,1-6.85-7.49,52.83,52.83,0,0,1-3.15-5.65A31.21,31.21,0,0,1,10.61,24c-.35-1.83-.57-3.7-.79-5.51l-.12-1c-.08-.69-.11-1.38-.13-2,0-.3,0-.6,0-.9l0-.61h.09V12.45a1.17,1.17,0,0,1,1.21-1.28,31.11,31.11,0,0,0,11.47-2.8,24.32,24.32,0,0,0,5.48-3.44,1.19,1.19,0,0,1,1.73,0,26.14,26.14,0,0,0,7.07,4.11A30,30,0,0,0,44,11c.81.11,1.64.18,2.54.23a1,1,0,0,1,1.1,1.09A40.88,40.88,0,0,1,46.86,23,38.5,38.5,0,0,1,40.4,38.24,36.8,36.8,0,0,1,29.25,48.33,1.28,1.28,0,0,1,28.62,48.48ZM10.77,15.08v.3c0,.67,0,1.31.12,1.94l.12,1c.21,1.79.43,3.64.78,5.43a29.38,29.38,0,0,0,2.46,7.52,50.47,50.47,0,0,0,3.07,5.52A29.76,29.76,0,0,0,23.92,44c1.22,1,2.53,1.85,3.8,2.72l.85.58.11,0a35.63,35.63,0,0,0,10.74-9.74A37.15,37.15,0,0,0,45.67,22.8a39.65,39.65,0,0,0,.76-10.41c-.92-.05-1.77-.13-2.59-.23a31.9,31.9,0,0,1-7.74-2,27.71,27.71,0,0,1-7.39-4.31l-.1-.08-.07.06a25.63,25.63,0,0,1-5.76,3.61,32.4,32.4,0,0,1-11.9,2.92H10.8v2.69Z"/><path class="cls-1" d="M33,12.5,30.85,29.28H26.16l-2-16.78Z"/><circle class="cls-1" cx="28.73" cy="37.39" r="4.69"/></g></svg>