<svg xmlns="http://www.w3.org/2000/svg" viewBox="0 0 61.24 64.4"><defs><style>.cls-1{fill:#3c3c3b;}</style></defs><g id="Calque_2" data-name="Calque 2"><g id="Calque_1-2" data-name="Calque 1"><g id="_14_-_Risques_CyberArk_partenaires" data-name="14 - Risques CyberArk partenaires"><path class="cls-1" d="M29.75,50a4.17,4.17,0,0,1,.82-1.66,17.93,17.93,0,0,1-.59-5,4.3,4.3,0,0,1,3.28-4.35l.12-.14-.06-.42a3.56,3.56,0,0,1,.42-1.82,3.62,3.62,0,0,1,1-1.52,3.72,3.72,0,0,1,1-.69,3.71,3.71,0,0,1,.73-.94,8.46,8.46,0,0,1,6-2.55A16.17,16.17,0,0,0,36,28.06a3.5,3.5,0,0,0-2.14.4,17.44,17.44,0,0,1-18.06,0,3.3,3.3,0,0,0-2.13-.35A17.61,17.61,0,0,0,.11,42.61c-.46,3,.52,5.27,3.3,6.68A29.72,29.72,0,0,0,7.19,51c5.69,2,11.59,2.54,18.74,2.59.89,0,2.38-.11,4-.22A5.31,5.31,0,0,1,29.75,50Z"/><path class="cls-1" d="M38.09,14.27a15.14,15.14,0,0,1-8,12.21,10.53,10.53,0,0,1-10.45.08C12,22.65,9.15,12.4,13.81,5.68A13.52,13.52,0,0,1,28.93.62C34.45,2.33,38.24,7.56,38.09,14.27Z"/><ellipse class="cls-1" cx="44.49" cy="53.3" rx="3.46" ry="3.27"/><path class="cls-1" d="M48,36.11,46.28,48.47H42.59L41,36.11Z"/><path class="cls-1" d="M44.19,64.4a17,17,0,1,1,17.05-17A17.07,17.07,0,0,1,44.19,64.4Zm0-30.11A13.07,13.07,0,1,0,57.26,47.36,13.08,13.08,0,0,0,44.19,34.29Z"/></g></g></g></svg>