<svg xmlns="http://www.w3.org/2000/svg" viewBox="0 0 60 60"><defs><style>.cls-1{fill:#3c3c3b;}</style></defs><g id="Calque_2" data-name="Calque 2"><g id="Calque_1-2" data-name="Calque 1"><g id="_15.2-Qualités" data-name="15.2-Qualités"><path class="cls-1" d="M.23,35.57a1.57,1.57,0,0,0,.46,2l4.65,3.13A1.47,1.47,0,0,1,6,42.16l-.39,5.5A1.57,1.57,0,0,0,7,49.33l5.56.83a1.5,1.5,0,0,1,1.25,1l2.09,5.12a1.61,1.61,0,0,0,2,.9l5.37-1.6a2,2,0,0,1,1.57.32l4.13,3.71a1.58,1.58,0,0,0,2.16,0l4.13-3.71a1.5,1.5,0,0,1,1.57-.32l5.37,1.6a1.68,1.68,0,0,0,2-.9l2.09-5.12a1.5,1.5,0,0,1,1.25-1L53,49.33a1.62,1.62,0,0,0,1.38-1.67L54,42.16a1.47,1.47,0,0,1,.65-1.41l4.65-3.13a1.5,1.5,0,0,0,.46-2L57,30.77a1.62,1.62,0,0,1,0-1.54l2.75-4.8a1.57,1.57,0,0,0-.46-2.05l-4.65-3.13A1.47,1.47,0,0,1,54,17.84l.39-5.5A1.57,1.57,0,0,0,53,10.67l-5.56-.83a1.5,1.5,0,0,1-1.25-1L44.12,3.76a1.61,1.61,0,0,0-2-.9l-5.37,1.6a2,2,0,0,1-1.57-.32L31.08.43a1.58,1.58,0,0,0-2.16,0L24.79,4.14a1.5,1.5,0,0,1-1.57.32l-5.37-1.6a1.68,1.68,0,0,0-2,.9L13.79,8.88a1.5,1.5,0,0,1-1.25,1L7,10.67A1.62,1.62,0,0,0,5.6,12.34L6,17.84a1.47,1.47,0,0,1-.65,1.41L.69,22.38a1.5,1.5,0,0,0-.46,2.05L3,29.23a1.62,1.62,0,0,1,0,1.54Zm28.48-25c12-.74,21.92,8.93,21.16,20.68A19.76,19.76,0,0,1,31.29,49.42c-12,.74-21.92-8.93-21.16-20.68A19.76,19.76,0,0,1,28.71,10.58Z"/><ellipse class="cls-1" cx="30" cy="38.04" rx="3.81" ry="3.73"/><path class="cls-1" d="M33.45,18.24,31.73,31.59H27.91L26.29,18.24Z"/></g></g></g></svg>