<svg xmlns="http://www.w3.org/2000/svg" viewBox="0 0 53.4 52.24"><defs><style>.cls-1{fill:#3c3c3b;}</style></defs><g id="Calque_2" data-name="Calque 2"><g id="Calque_1-2" data-name="Calque 1"><g id="_16.2_-_Risques_càp_non_embarqués" data-name="16.2 - Risques càp non embarqués"><path class="cls-1" d="M26.91,33.18c.11-.23.21-.46.33-.68l.33-.55c.08-.14.17-.28.26-.42a14.69,14.69,0,0,1,1.4-1.87l.18-.18a8,8,0,0,1,2.65-2.75,3.19,3.19,0,0,1,3.1-1.84c.81,0,1.61.13,2.42.23a26.79,26.79,0,0,1,3.25-.49,3.86,3.86,0,0,1,1.82.29l2.94-12.25c.33-1.32-.8-2.39-1.59-1.65l-5.89,5c-3.44,3-8.21,1.31-9.93-3.37L23.68.74a1,1,0,0,0-1.85,0L17.46,12.58C15.68,17.44,10.78,19,7.34,15.87L1.65,10.69C.85,10-.27,10.94.06,12.17L6,37.26a.41.41,0,0,0,.39.33H25.55A16.47,16.47,0,0,1,26.91,33.18Z"/><polygon class="cls-1" points="37.47 38.71 39.94 38.71 41.06 29.72 36.42 29.72 37.47 38.71"/><path class="cls-1" d="M36.35,43.05a2.48,2.48,0,1,0,4.95,0,2.53,2.53,0,0,0-1.43-2.27H37.78A2.53,2.53,0,0,0,36.35,43.05Z"/><path class="cls-1" d="M38.78,52.24A14.89,14.89,0,0,1,24.15,37.13,14.88,14.88,0,0,1,38.78,22,14.88,14.88,0,0,1,53.4,37.13,14.88,14.88,0,0,1,38.78,52.24Zm0-26.69a11.59,11.59,0,0,0,0,23.17,11.59,11.59,0,0,0,0-23.17Z"/></g></g></g></svg>