<svg xmlns="http://www.w3.org/2000/svg" viewBox="0 0 52 52"><defs><style>.cls-1{fill:#3c3c3b;}</style></defs><g id="Calque_2" data-name="Calque 2"><g id="Calque_1-2" data-name="Calque 1"><g id="_19_-_Safes_CyberArk" data-name="19 - Safes CyberArk"><path class="cls-1" d="M47.34,52h-.21c-.27,0-.52,0-.79,0h-.76a4.6,4.6,0,0,1-3.79-2c-.28-.41-.54-.83-.79-1.24a.7.7,0,0,0-.69-.4h-.8l-.12-.91h0v.91H11.94c-.67,0-.82.15-1,.48s-.48.77-.7,1.1A4.62,4.62,0,0,1,6.36,52H4.54A4.39,4.39,0,0,1,0,48.11c0-.21,0-.44,0-.73V35.06H4V47.38c0,.18,0,.31,0,.43a.6.6,0,0,0,.64.54c.59,0,1.18,0,1.69,0a.59.59,0,0,0,.56-.3c.22-.33.39-.58.54-.84a4.84,4.84,0,0,1,4.51-2.49c2.18,0,4.35,0,6.46,0h22a4.58,4.58,0,0,1,4,2.19c.25.41.48.78.72,1.13a.57.57,0,0,0,.54.3H47.3a.59.59,0,0,0,.47-.15.85.85,0,0,0,.27-.62c0-3.53,0-7.28,0-11.17V35.06h4v1.36c0,3.88,0,7.63,0,11.16a4.31,4.31,0,0,1-1.5,3.26A4.75,4.75,0,0,1,47.34,52Z"/><path class="cls-1" d="M52,38.9H48V3.71s0-.07-.13-.14-.19-.12-.78-.12H4.87a2.16,2.16,0,0,0-.7.08C4,3.62,4,3.63,4,3.88c0,2.64,0,5.33,0,7.93V38.9H0V11.81c0-2.6,0-5.28,0-7.92A3.59,3.59,0,0,1,2.23.52,5.89,5.89,0,0,1,4.87,0H47.11a5.84,5.84,0,0,1,3.14.79A3.41,3.41,0,0,1,52,3.71c0,5.56,0,11.21,0,16.67Z"/><path class="cls-1" d="M36.53,28.29C34.47,27.2,32.42,26.1,30.36,25a.54.54,0,0,1-.35-.61,3.58,3.58,0,0,0-2.33-3.7.51.51,0,0,1-.38-.54c0-2.15,0-4.3,0-6.45a1.38,1.38,0,0,1,1.39-1.57v0H22.91v.06a1.41,1.41,0,0,1,1.82,1.43v3.23h0c0,1.11,0,2.22,0,3.32a.52.52,0,0,1-.37.55A3.66,3.66,0,0,0,22,24.49a.57.57,0,0,1-.24.45c-2.13,1.15-4.25,2.29-6.39,3.4a1.49,1.49,0,0,1-1.75-.21V32H16c-.24-.63,0-1.24.85-1.67,2-1.09,4.05-2.16,6.07-3.24a.63.63,0,0,1,.75,0,4.2,4.2,0,0,0,4.65,0,.62.62,0,0,1,.74,0c2,1.08,4,2.13,6,3.19.88.47,1.19,1.08.94,1.73H39.1V27.5h-.28A1.53,1.53,0,0,1,36.53,28.29ZM26,25.5a1.44,1.44,0,1,1,0-2.86,1.47,1.47,0,0,1,1.53,1.45A1.51,1.51,0,0,1,26,25.5Z"/><path class="cls-1" d="M26.29,39.29C17.14,39.29,9.7,32.45,9.7,24S17.14,8.8,26.29,8.8,42.88,15.64,42.88,24,35.44,39.29,26.29,39.29Zm0-26.86c-7,0-12.63,5.21-12.63,11.61s5.66,11.61,12.63,11.61S38.92,30.44,38.92,24,33.26,12.43,26.29,12.43Z"/></g></g></g></svg>