<svg xmlns="http://www.w3.org/2000/svg" viewBox="0 0 45 45"><defs><style>.cls-1{fill:#3c3c3b;}</style></defs><g id="Calque_2" data-name="Calque 2"><g id="Calque_1-2" data-name="Calque 1"><g id="_8.2-Statut_plannifié" data-name="8.2-Statut plannifié"><path class="cls-1" d="M22.5,4.22A18.28,18.28,0,1,1,4.22,22.5,18.3,18.3,0,0,1,22.5,4.22M22.5,0A22.5,22.5,0,1,0,45,22.5,22.5,22.5,0,0,0,22.5,0Z"/><circle class="cls-1" cx="22.5" cy="22.5" r="4.22"/><circle class="cls-1" cx="22.5" cy="7.03" r="1.41"/><circle class="cls-1" cx="22.5" cy="37.97" r="1.41"/><circle class="cls-1" cx="37.97" cy="22.5" r="1.41"/><circle class="cls-1" cx="7.03" cy="22.5" r="1.41"/><path class="cls-1" d="M22.5,23.91a1.41,1.41,0,0,1-1.41-1.41V11.25a1.41,1.41,0,0,1,2.82,0V22.5A1.41,1.41,0,0,1,22.5,23.91Z"/><path class="cls-1" d="M11.25,33.75a1.4,1.4,0,0,1-1.06-.48,1.42,1.42,0,0,1,.13-2l11.25-9.84a1.41,1.41,0,0,1,1.86,2.12L12.18,33.4A1.38,1.38,0,0,1,11.25,33.75Z"/></g></g></g></svg>