<svg xmlns="http://www.w3.org/2000/svg" viewBox="0 0 50 53"><defs><style>.cls-1,.cls-2{fill:#3c3c3b;}.cls-2{fill-rule:evenodd;}</style></defs><g id="Calque_2" data-name="Calque 2"><g id="Calque_1-2" data-name="Calque 1"><g id="_4.2-Suivi_du_programme" data-name="4.2-Suivi du programme"><path class="cls-1" d="M42.71,53c4,0,7.29-2.6,7.29-5.8V5.8C50,2.6,46.74,0,42.71,0H7.29C3.26,0,0,2.6,0,5.8V47.2C0,50.4,3.26,53,7.29,53ZM4.17,47.2V5.8c0-1.38,1.4-2.49,3.12-2.49H42.71c1.72,0,3.12,1.11,3.12,2.49V47.2c0,1.38-1.4,2.49-3.12,2.49H7.29C5.57,49.69,4.17,48.58,4.17,47.2Z"/><path class="cls-2" d="M7.43,29.3h6.35V43.07H7.43Zm28.5-5.49h6.35V43.07H35.93Zm-9.48-8.26h6.32V43.07H26.45Zm-9.51,5.51h6.32v22H16.94Z"/></g></g></g></svg>