<svg id="Calque_1" data-name="Calque 1" xmlns="http://www.w3.org/2000/svg" viewBox="0 0 61.15 62"><defs><style>.cls-1{fill:#3c3c3b;}</style></defs><path class="cls-1" d="M34.16,43.3q2.12-1.12,4.25-2.3a.76.76,0,0,0,.26-.34A4.6,4.6,0,0,1,41,37.88a.64.64,0,0,0,.35-.4c.34-.85.68-1.69,1-2.54h0l1-2.46a2,2,0,0,0,.1-.36c-3.3.38-7.1,3.74-8.86,8a11.78,11.78,0,0,0-.85,3.25A.73.73,0,0,0,34.16,43.3Z"/><path class="cls-1" d="M43.5,45.63c-.68-.91-1.37-1.8-2-2.7-.09-.14-.19-.13-.38,0-1,.65-1.9.57-2.34-.21-.09-.15-.19-.16-.37-.05l-4,2.2a1.86,1.86,0,0,0-.57.46c.28,2.24,1.58,3.81,3.69,4s4.26-.91,6.22-2.74A1,1,0,0,0,43.5,45.63Z"/><path class="cls-1" d="M41.25,39.43c-.42,0-1,.41-1.21,1s-.09,1.14.34,1.18,1-.42,1.21-1S41.69,39.47,41.25,39.43Z"/><path class="cls-1" d="M44.89,32.15a2.62,2.62,0,0,0-.28.53c-.66,1.64-1.3,3.28-2,4.92-.09.22-.08.33,0,.43.6.61.62,1.71,0,2.93-.11.23-.1.35,0,.48.71.91,1.41,1.85,2.12,2.77a.57.57,0,0,0,.78.11,14.85,14.85,0,0,0,1.72-3.07C49.2,36.68,48.09,32.72,44.89,32.15Z"/><path class="cls-1" d="M51.61,17.54h0C48,15.6,24.26,2.71,24.26,2.71,23,2,21.59,2,20.94,2.8c0,0-12.16,14.39-12.9,15.35s-.69,3.31-.67,4.49c.13,7.86,0,15.72,0,23.58a.77.77,0,0,0,.38.73c2.37,1.58,4.73,3.18,7.09,4.77l13.8,9.33a.56.56,0,0,0,.65.07q7.08-3.69,14.18-7.36,5.18-2.68,10.35-5.35a.68.68,0,0,0,.43-.69c0-4.36,0-8.73,0-13.09,0-3.18.1-7.58,0-12.94a4.56,4.56,0,0,0-.76-2.56A6.27,6.27,0,0,0,51.61,17.54ZM12,20.27c-.28-.2-.44-.36-.61-.5L21.86,7.34s0,0,0,0,0,0,0-.11l.89-1.06L41,16.2,29.23,31.73c-4.56-3.08-12-7.85-16.52-10.93l-.15-.1ZM27.67,56.59v.58l-1.84-1.23L10.71,45.74a1.1,1.1,0,0,1-.58-1q0-10.94,0-21.87v-.52l.39.23L25.83,32.87c.46.31.9.63,1.38.92a.86.86,0,0,1,.47.85q0,7.06,0,14.13ZM49.35,41.44c-2.56,6.23-8.39,11-13,10.58s-6.28-5.79-3.72-12,8.38-11,13-10.58S51.9,35.21,49.35,41.44Z"/></svg>