<svg height='100px' width='100px'  fill="#848484;" xmlns="http://www.w3.org/2000/svg" viewBox="0 0 100 100" x="0px" y="0px"><defs><style>.cls-1{fill:#848484;}</style></defs><title>Celeb</title><g class="cls-1"><g data-name="Layer 1"><path d="M26.13,76l3.17,1.55A78.06,78.06,0,0,1,35,67.66,53.25,53.25,0,0,1,42.48,59a41,41,0,0,1,7.1-5.33c.49-.28.92-.54,1.31-.75l1-.5.86-.43-.92.29-1.08.34c-.42.15-.89.35-1.42.56a38,38,0,0,0-8,4.45,47.1,47.1,0,0,0-8.7,8.23A52.92,52.92,0,0,0,26.13,76Z"></path><path d="M14.86,59.3l2,2.91a54,54,0,0,1,10.65-5.72,59.56,59.56,0,0,1,6-2c2-.5,4-.94,5.86-1.24,3.77-.63,7.14-.91,9.54-1.08,1.2-.09,2.17-.14,2.83-.18l1,0-1-.1c-.67-.06-1.63-.15-2.84-.22a80.28,80.28,0,0,0-9.73-.12,58.43,58.43,0,0,0-6.17.63,49.34,49.34,0,0,0-6.46,1.5A43.48,43.48,0,0,0,14.86,59.3Z"></path><path d="M18.2,29.43l-.81,3.44a76,76,0,0,1,12.43,4c2.08.9,4.12,1.91,6.06,3s3.78,2.22,5.46,3.38c3.39,2.28,6.22,4.52,8.23,6.14,1,.8,1.79,1.46,2.34,1.92l.85.7L52,51.18c-.48-.53-1.18-1.29-2.08-2.22a94.89,94.89,0,0,0-7.54-7.14c-1.58-1.36-3.36-2.7-5.25-4a61.22,61.22,0,0,0-6-3.62A57.25,57.25,0,0,0,18.2,29.43Z"></path><path d="M51.39,17.92,48,16.8a38.08,38.08,0,0,0-1.93,11.86,40.86,40.86,0,0,0,1.72,11.76,53.59,53.59,0,0,0,3.29,8.39c.49,1,.9,1.8,1.19,2.34l.45.84-.31-.9c-.21-.58-.48-1.43-.82-2.49A61.9,61.9,0,0,1,49.55,40a44.7,44.7,0,0,1-.46-11.23A46.39,46.39,0,0,1,51.39,17.92Z"></path><path d="M76.85,31.4,75.79,28a30.76,30.76,0,0,0-9.92,5.45,39.84,39.84,0,0,0-7.48,8.21A56.85,56.85,0,0,0,54.15,49c-.46.94-.8,1.7-1,2.23l-.36.81.49-.74c.31-.48.78-1.17,1.38-2a67,67,0,0,1,5.14-6.44,45.09,45.09,0,0,1,7.88-6.93A36,36,0,0,1,76.85,31.4Z"></path><path d="M80.43,70.32,83,67.87a69.83,69.83,0,0,0-8.48-7.55,44.79,44.79,0,0,0-9.92-5.62,37.62,37.62,0,0,0-8.39-2.31c-1.06-.19-1.92-.26-2.51-.32L52.76,52l.88.23c.57.15,1.4.36,2.41.7a42,42,0,0,1,7.76,3.37,51.3,51.3,0,0,1,8.81,6.35C75.44,65.14,78.08,67.87,80.43,70.32Z"></path><path d="M62.29,85.59l3.53-.09a54.88,54.88,0,0,0-1.7-11.88,54.71,54.71,0,0,0-4.21-11.15,49.41,49.41,0,0,0-4.84-7.71c-.35-.44-.66-.85-.94-1.19l-.74-.86L52.76,52l.5.81.6,1c.23.38.47.82.75,1.31a54,54,0,0,1,3.68,8.1A63.81,63.81,0,0,1,61.2,74.25,81.79,81.79,0,0,1,62.29,85.59Z"></path><path d="M40.8,88.36l3.36,1.09A247.2,247.2,0,0,0,50.9,65.36c.8-3.79,1.29-7.14,1.55-9.54s.31-3.83.31-3.83l-.85,3.74c-.58,2.32-1.5,5.54-2.71,9.16C46.81,72.15,43.18,81,40.8,88.36Z"></path><path d="M92.16,52.92l1.35-3.27a49.43,49.43,0,0,0-13.39-3.4,47,47,0,0,0-7.1-.17,45.93,45.93,0,0,0-6.6.89,50.32,50.32,0,0,0-9.93,3.22c-1.19.51-2.11,1-2.75,1.3l-1,.5,1-.36c.67-.22,1.64-.57,2.88-.92a54.6,54.6,0,0,1,10-2,47.17,47.17,0,0,1,6.36-.22,50.66,50.66,0,0,1,6.67.7A61.72,61.72,0,0,1,92.16,52.92Z"></path><path d="M65.51,8.4l-2.9-2A74.12,74.12,0,0,0,55,20.17a53.06,53.06,0,0,0-3.84,15.25,43.05,43.05,0,0,0,.55,12c.15.73.25,1.4.4,2l.39,1.45c.21.79.33,1.22.33,1.22s-.07-.44-.18-1.25c-.06-.4-.14-.9-.22-1.47s-.11-1.25-.18-2a45.48,45.48,0,0,1,.66-11.68,56.33,56.33,0,0,1,4.81-14.28A99.43,99.43,0,0,1,65.51,8.4Z"></path><path d="M31.1,13.4l-2.88,2,1.9,2.78c.65,1,1.34,1.9,2,2.91l2,3c.68,1,1.32,2.07,2,3.11,2.65,4.17,5.24,8.41,7.67,12.12C45,41.25,46.09,43,47.19,44.5s2,2.9,2.87,4L52.76,52l-2.24-3.81C49.8,47,49,45.54,48.14,43.92s-1.85-3.46-2.87-5.41c-2-3.91-4.23-8.36-6.62-12.74-.61-1.09-1.18-2.2-1.82-3.27L35,19.31c-.61-1-1.29-2-1.93-3Z"></path><path d="M4.59,49.09l.88,3.42a127.3,127.3,0,0,1,15.18-3.16,67.3,67.3,0,0,1,15.44-.18C40.87,49.67,45,50.42,48,51c1.49.28,2.67.55,3.49.71l1.26.27-1.22-.41c-.8-.26-1.94-.66-3.4-1.1a107.4,107.4,0,0,0-11.8-3.06,68,68,0,0,0-7.7-1,58.63,58.63,0,0,0-8.28,0A89,89,0,0,0,4.59,49.09Z"></path><path d="M10.28,80l3,1.8a56.69,56.69,0,0,1,4.49-6.41c.82-1.09,1.78-2.09,2.69-3.15.48-.51,1-1,1.46-1.51s1-1,1.51-1.49L25,67.75c.53-.47,1.08-.92,1.61-1.38,1.05-.94,2.18-1.76,3.26-2.62.55-.43,1.12-.81,1.67-1.21s1.09-.8,1.66-1.16c1.12-.72,2.19-1.46,3.3-2.09a74.61,74.61,0,0,1,11.41-5.61c.75-.29,1.42-.55,2-.76l1.53-.51,1.3-.42-1.34.28-1.58.33c-.62.15-1.31.35-2.09.55a69.57,69.57,0,0,0-12.09,4.59c-1.18.54-2.34,1.21-3.55,1.86-.61.32-1.19.7-1.8,1s-1.21.72-1.81,1.12c-1.18.8-2.41,1.57-3.56,2.47-.59.44-1.18.87-1.76,1.33L21.47,67A53.38,53.38,0,0,0,10.28,80Z"></path><path d="M30,92.49l3.47.66c.88-4.65,1.83-9.86,3.15-15,.36-1.26.66-2.54,1.08-3.77.19-.62.38-1.24.58-1.85l.65-1.81c.11-.3.21-.6.33-.9l.36-.86.71-1.72c.27-.55.53-1.1.79-1.64s.52-1.07.82-1.57l.84-1.49c.26-.5.6-.93.89-1.39l.89-1.33.93-1.19c.31-.38.59-.77.9-1.12l.93-1,.86-.92c.29-.27.59-.52.86-.76.55-.48,1-.95,1.49-1.3l1.21-.87,1-.74-1.1.61-1.31.73c-.51.31-1,.71-1.66,1.14l-1,.68-1,.84-1,.9c-.36.32-.68.69-1,1s-.72.75-1.1,1.13l-1,1.28c-.35.44-.75.86-1.07,1.35s-.68,1-1,1.47-.68,1-1,1.55l-1,1.63-.89,1.72-.45.87c-.15.3-.28.6-.41.9-.28.6-.55,1.21-.83,1.82s-.49,1.25-.74,1.88c-.52,1.25-.93,2.54-1.38,3.82A122.2,122.2,0,0,0,30,92.49Z"></path><path d="M55.35,92.55l3.44.81a65.28,65.28,0,0,0,1.72-13.91c0-1.22,0-2.43-.09-3.64s-.19-2.4-.31-3.57c0-.59-.18-1.17-.26-1.74s-.16-1.15-.29-1.7c-.24-1.11-.45-2.2-.75-3.24a46.81,46.81,0,0,0-3.91-9.92c-.32-.58-.58-1.12-.86-1.56l-.69-1.14L52.76,52l.45,1,.54,1.21c.22.47.41,1,.65,1.65a50.09,50.09,0,0,1,2.68,10.06,52.89,52.89,0,0,1,.62,6.5c0,1.13.06,2.27,0,3.42s-.11,2.31-.18,3.47A90.86,90.86,0,0,1,55.35,92.55Z"></path><path d="M78.59,82.65,82,81.77a40.66,40.66,0,0,0-6.13-12.89l-1.1-1.49c-.36-.49-.77-1-1.15-1.43C72.87,65,72,64.15,71.2,63.28c-.4-.44-.85-.83-1.27-1.24s-.82-.81-1.27-1.17c-.88-.73-1.71-1.48-2.6-2.11a42.81,42.81,0,0,0-9.29-5.36c-.62-.24-1.17-.48-1.66-.66l-1.28-.41L52.76,52l1,.48L55,53c.46.24,1,.54,1.55.86a45.16,45.16,0,0,1,8.4,6.22c.78.68,1.5,1.48,2.27,2.26.4.38.74.82,1.11,1.23s.75.83,1.1,1.28c.69.9,1.43,1.77,2.07,2.73.33.48.68.94,1,1.42l.92,1.47A46.59,46.59,0,0,1,78.59,82.65Z"></path><path d="M97.21,38.27l.29-3.52a46.56,46.56,0,0,0-16,1.63l-2,.58c-.66.21-1.31.45-2,.67-1.31.43-2.55,1-3.8,1.49a76.26,76.26,0,0,0-6.89,3.44,106.6,106.6,0,0,0-10.18,6.55c-1.23.87-2.19,1.6-2.85,2.1l-1,.78,1.1-.65c.72-.42,1.75-1,3.06-1.77,2.62-1.48,6.32-3.49,10.68-5.43,2.17-1,4.53-1.9,7-2.77,1.24-.38,2.47-.83,3.75-1.15.64-.17,1.27-.36,1.91-.52l1.93-.43A52.87,52.87,0,0,1,97.21,38.27Z"></path><path d="M78.68,16.44l-2-2.92-1.45,1.07-.74.55-.71.6L72.35,17,71,18.28l-.7.68-.66.7L68.3,21.1l-1.25,1.5-.63.75-.59.79L64.65,25.7l-1.1,1.6c-.75,1.06-1.39,2.17-2.07,3.23s-1.26,2.16-1.83,3.23-1.12,2.12-1.6,3.17a75.66,75.66,0,0,0-4.13,10.65l-.53,1.84c-.14.55-.25,1-.35,1.39L52.76,52l.43-1.13c.14-.37.31-.81.5-1.33l.75-1.76a83.41,83.41,0,0,1,5.17-10c.56-1,1.21-1.94,1.84-2.94s1.35-2,2-3,1.44-2,2.24-3l1.17-1.46L68.14,26l.61-.71.64-.68c.42-.45.84-.91,1.27-1.36L72,22l.65-.64.68-.6,1.33-1.19L76,18.45l.67-.54.68-.5Z"></path><path d="M2.55,32.06l0,3.53,2,.08,1,0,1,.09L8.64,36l2.14.28,1.08.14,1.08.19,2.18.37,2.18.47,1.1.23,1.09.27,2.18.54,2.16.62c1.44.38,2.84.88,4.24,1.31s2.75,1,4.07,1.44,2.62,1,3.85,1.53a117,117,0,0,1,12.12,5.86l2,1.12,1.45.89,1.23.75-1.14-.88-1.36-1L48.4,48.76a102.73,102.73,0,0,0-11.66-7c-1.21-.65-2.49-1.23-3.79-1.86s-2.66-1.19-4-1.77S26.12,37,24.66,36.51l-2.17-.77-2.22-.68-1.11-.34L18,34.42l-2.24-.59-2.26-.49-1.12-.23-1.13-.19-2.23-.36-2.21-.24-1.09-.11-1.09-.06Z"></path><path d="M91.81,65.7l2.69-2.29-1.21-1.3-.61-.66L92,60.83l-1.38-1.25-1.49-1.16a34.26,34.26,0,0,0-6.63-3.9c-1.16-.58-2.39-1-3.57-1.44l-1.82-.55-.91-.27-.91-.21-1.8-.41-1.78-.29c-1.17-.22-2.34-.28-3.45-.41a51.21,51.21,0,0,0-11.14.32c-1.38.15-2.47.39-3.22.52L52.76,52l1.17-.06c.76,0,1.86-.13,3.24-.12A55,55,0,0,1,68,52.69c1.06.23,2.17.39,3.26.71l1.67.44,1.67.53.84.28.83.32,1.66.65c1.07.52,2.19,1,3.22,1.57A36.9,36.9,0,0,1,91.81,65.7Z"></path><path d="M49.54,86.59l3.45.74A77.71,77.71,0,0,0,54.07,64a83.4,83.4,0,0,0-1.38-8.81c-.51-2.17-.81-3.47-.81-3.47l.26,3.54c.13,2.21.25,5.3.17,8.81A122.61,122.61,0,0,1,49.54,86.59Z"></path><path d="M38.31,79.75l3.5.49a65.09,65.09,0,0,1,2-9.25l.33-1.19c.11-.4.28-.78.41-1.17.28-.77.55-1.54.83-2.3s.63-1.46.94-2.18.59-1.43,1-2.07c.7-1.3,1.28-2.59,2-3.63l.93-1.53.42-.68.43-.6,1.75-2.46-2.17,2.11-.54.52-.54.61L48.35,57.8a41.73,41.73,0,0,0-2.59,3.38,22,22,0,0,0-1.29,2c-.42.7-.87,1.4-1.28,2.14L42,67.61c-.18.39-.4.77-.56,1.17L41,70A42.16,42.16,0,0,0,38.31,79.75Z"></path><polygon points="52.17 6.23 50.59 7.01 50.34 8.75 49.11 7.49 47.38 7.79 48.2 6.23 47.38 4.67 49.11 4.97 50.34 3.71 50.59 5.45 52.17 6.23"></polygon><polygon points="86.82 27.09 86.51 25.28 84.85 24.5 86.48 23.65 86.7 21.83 88.01 23.12 89.81 22.77 89 24.41 89.88 26.02 88.07 25.75 86.82 27.09"></polygon><polygon points="91.37 41.7 90.28 41.71 89.66 42.62 89.31 41.58 88.26 41.28 89.14 40.63 89.1 39.53 89.99 40.16 91.02 39.79 90.7 40.83 91.37 41.7"></polygon><polygon points="41.2 19.57 39.59 19.35 38.5 20.55 38.21 18.95 36.74 18.28 38.16 17.52 38.34 15.91 39.51 17.03 41.1 16.7 40.39 18.16 41.2 19.57"></polygon><polygon points="32.6 27.9 31.01 28.08 30.26 29.49 29.6 28.04 28.02 27.76 29.2 26.68 28.98 25.1 30.37 25.88 31.8 25.18 31.48 26.75 32.6 27.9"></polygon><polygon points="18.89 42.81 17.53 42.12 16.2 42.85 16.44 41.35 15.34 40.31 16.84 40.07 17.49 38.7 18.18 40.05 19.68 40.25 18.61 41.32 18.89 42.81"></polygon><polygon points="17.9 53.82 16.58 53.65 15.7 54.63 15.45 53.33 14.24 52.79 15.41 52.16 15.55 50.84 16.51 51.75 17.81 51.48 17.24 52.67 17.9 53.82"></polygon><polygon points="12.23 68.63 10.28 68.3 8.9 69.72 8.61 67.77 6.83 66.9 8.6 66.02 8.88 64.06 10.26 65.47 12.21 65.13 11.3 66.88 12.23 68.63"></polygon><polygon points="19.68 81.31 21.5 81.18 22.43 79.6 23.11 81.3 24.9 81.69 23.5 82.87 23.68 84.69 22.13 83.72 20.45 84.45 20.89 82.68 19.68 81.31"></polygon><polygon points="70.73 73.45 69.35 72.94 68.16 73.79 68.21 72.33 67.03 71.45 68.44 71.05 68.91 69.66 69.73 70.88 71.2 70.9 70.29 72.05 70.73 73.45"></polygon><polygon points="84.41 62 85.7 62.2 86.6 61.25 86.81 62.54 87.99 63.1 86.83 63.7 86.66 65 85.73 64.07 84.44 64.31 85.03 63.15 84.41 62"></polygon><polygon points="96.77 56.36 95.86 56.3 95.3 57.01 95.08 56.13 94.23 55.82 95 55.34 95.03 54.43 95.73 55.01 96.6 54.77 96.27 55.61 96.77 56.36"></polygon><polygon points="82.56 32.1 81.93 31.39 80.99 31.51 81.47 30.69 81.07 29.83 81.99 30.03 82.69 29.39 82.78 30.33 83.61 30.79 82.74 31.17 82.56 32.1"></polygon><polygon points="62.44 18.77 61.6 18.78 61.13 19.48 60.86 18.68 60.05 18.46 60.73 17.95 60.69 17.11 61.38 17.6 62.17 17.31 61.92 18.11 62.44 18.77"></polygon><polygon points="68.69 13.42 67.23 12.95 66.03 13.88 66.02 12.36 64.76 11.5 66.21 11.02 66.64 9.56 67.54 10.79 69.06 10.74 68.17 11.98 68.69 13.42"></polygon><polygon points="59.15 30.44 58.07 29.96 57.07 30.57 57.19 29.4 56.29 28.63 57.45 28.39 57.9 27.3 58.49 28.32 59.67 28.41 58.88 29.29 59.15 30.44"></polygon><polygon points="49.51 93.61 48.35 93.3 47.44 94.06 47.38 92.87 46.37 92.24 47.49 91.82 47.78 90.66 48.52 91.59 49.72 91.51 49.06 92.5 49.51 93.61"></polygon><polygon points="70.41 88.27 69.7 87.18 68.4 87.14 69.22 86.13 68.86 84.88 70.07 85.35 71.15 84.61 71.08 85.91 72.11 86.71 70.85 87.04 70.41 88.27"></polygon><g class="cls-2"><path d="M95.07,29a.77.77,0,0,1-.56.78,18,18,0,0,1-3,.52,47.8,47.8,0,0,0-5.44,1c-.83.25-1.6.44-2.12.64l-.86.29.7-.59a17.17,17.17,0,0,1,1.85-1.34,15,15,0,0,1,5.56-2.11,6.88,6.88,0,0,1,3.31.09C95,28.46,95.08,28.73,95.07,29Z"></path></g><g class="cls-2"><path d="M97.35,49.08a.78.78,0,0,1-.91.37,4.23,4.23,0,0,1-1.06-.36c-.23-.1-.48-.23-.77-.38a9.52,9.52,0,0,0-1-.5c-.77-.33-1.59-.83-2.46-1.27s-1.77-.83-2.57-1.23c-1.65-.63-2.94-1.18-2.94-1.18s1.36,0,3.22.12c.9.15,1.92.34,2.94.57a20.43,20.43,0,0,1,2.78,1,6.08,6.08,0,0,1,1.06.58c.3.19.55.37.77.53a4.28,4.28,0,0,1,.88.79A.69.69,0,0,1,97.35,49.08Z"></path></g><g class="cls-2"><path d="M91.18,71.16a.83.83,0,0,1-.82.26,6.26,6.26,0,0,1-1.69-1.09c-.84-.67-1.91-1.58-2.9-2.25-.49-.31-.94-.62-1.28-.79L83.94,67l.63,0a11.18,11.18,0,0,1,1.59.1A8.72,8.72,0,0,1,90,68.59a3.8,3.8,0,0,1,1.48,1.77A.72.72,0,0,1,91.18,71.16Z"></path></g><g class="cls-2"><path d="M87.14,79.29a.86.86,0,0,1-.87-.19,2.39,2.39,0,0,1-.45-.63,4.89,4.89,0,0,1-.32-.5,4.23,4.23,0,0,0-.39-.64,14,14,0,0,0-2.43-3.07,10,10,0,0,0-1.31-1l-.58-.37.69,0a7.75,7.75,0,0,1,1.75.35A7.38,7.38,0,0,1,87,76.15a3.83,3.83,0,0,1,.46.86c.11.26.2.49.27.7a2.63,2.63,0,0,1,.07,1A.67.67,0,0,1,87.14,79.29Z"></path></g><g class="cls-2"><path d="M76,89.08c-.62,0-1.06-.22-1.35-3.46-.12-.81-.15-1.74-.23-2.68s-.18-1.88-.23-2.74c-.25-1.69-.38-3-.38-3s.65,1.15,1.43,2.74c.33.82.68,1.75,1,2.69a19.13,19.13,0,0,1,.59,2.77C77.11,88.82,76.56,89.07,76,89.08Z"></path></g><g class="cls-2"><path d="M64.38,93.57c-.61-.06-1-.27-1-2.34a12.88,12.88,0,0,1,.07-1.72c0-.61.05-1.23.11-1.8,0-1.12,0-2,0-2s.47.74,1,1.81c.22.55.45,1.18.65,1.82a9.3,9.3,0,0,1,.28,1.88C65.52,93.52,65,93.63,64.38,93.57Z"></path></g><g class="cls-2"><path d="M51.85,95.93a.89.89,0,0,1-.55-.65,4.93,4.93,0,0,1,.34-1.72c.28-.88.71-2,1-3.06.09-.5.21-1,.23-1.31l.08-.56.26.5a7.84,7.84,0,0,1,.52,1.34,7.08,7.08,0,0,1,.06,3.71A3.05,3.05,0,0,1,52.68,96,.72.72,0,0,1,51.85,95.93Z"></path></g><g class="cls-2"><path d="M28.05,90.35a.7.7,0,0,1-.82-.28,3.84,3.84,0,0,1-.46-2.47,8.07,8.07,0,0,1,1.58-4.19,8.48,8.48,0,0,1,1.16-1.27L30,81.7l-.23.63c-.16.38-.28.94-.45,1.54A21.94,21.94,0,0,0,29,87.71a8.5,8.5,0,0,1-.2,2.1A.84.84,0,0,1,28.05,90.35Z"></path></g><g class="cls-2"><path d="M37.89,96.24c-.57.14-1.14.11-1.43-2.16a8.55,8.55,0,0,1,.11-1.86,18.39,18.39,0,0,1,.53-1.8c.5-1.07.93-1.79.93-1.79s.1.89.15,2c.09.54.18,1.13.23,1.7a13.12,13.12,0,0,1,.23,1.62C38.89,95.83,38.49,96.09,37.89,96.24Z"></path></g><g class="cls-2"><path d="M38.29,6.71a.69.69,0,0,1,.88-.16,3,3,0,0,1,.8.6,7.26,7.26,0,0,1,1,1.47,9.27,9.27,0,0,1,1,4.82,9.86,9.86,0,0,1-.3,1.87l-.2.72-.14-.73a16.85,16.85,0,0,0-.44-1.72,22.77,22.77,0,0,0-1.85-3.91c-.28-.57-.59-1-.74-1.31A3.69,3.69,0,0,1,38,7.57.82.82,0,0,1,38.29,6.71Z"></path></g><g class="cls-2"><path d="M19.22,22a.76.76,0,0,1,.45-.69,2.65,2.65,0,0,1,1.94.25,6.12,6.12,0,0,1,2.62,2.29A7.11,7.11,0,0,1,24.84,25l.19.5-.45-.28c-.26-.18-.66-.37-1.08-.6-.88-.43-1.94-.77-2.72-1.08a4.08,4.08,0,0,1-1.41-.75A1,1,0,0,1,19.22,22Z"></path></g><g class="cls-2"><path d="M9.59,28.86a.71.71,0,0,1,.41-.74,2.36,2.36,0,0,1,.8-.15c.19,0,.4,0,.64,0a2.52,2.52,0,0,1,.81.13,9,9,0,0,1,1.88.7c.6.37,1.19.77,1.68,1.13.91.89,1.49,1.57,1.49,1.57s-.92-.25-2-.6c-.58-.1-1.2-.22-1.8-.36s-1.21-.16-1.71-.31C9.74,29.92,9.57,29.48,9.59,28.86Z"></path></g><g class="cls-2"><path d="M5.93,44.19c-.12-.58,0-1.14,2.46-1.48a11.84,11.84,0,0,1,2.06,0c.73.1,1.44.22,2.07.36,1.26.35,2.17.69,2.17.69s-1,.21-2.2.4c-.61.14-1.29.29-2,.39a16.54,16.54,0,0,1-1.91.32C6.31,45.2,6.05,44.79,5.93,44.19Z"></path></g><g class="cls-2"><path d="M7.58,60.37a.72.72,0,0,1-.2-.83A3.4,3.4,0,0,1,9.07,58a7.51,7.51,0,0,1,4-.73,9.24,9.24,0,0,1,1.53.28l.58.18-.58.17a13.41,13.41,0,0,0-1.38.45A31.74,31.74,0,0,0,10.09,60a6.13,6.13,0,0,1-1.73.77A.87.87,0,0,1,7.58,60.37Z"></path></g><g class="cls-2"><path d="M75.08,12.06a.86.86,0,0,1-.2.83,5.09,5.09,0,0,1-1.62.79c-.9.33-2.1.7-3.08,1.16-.48.24-.93.44-1.22.63l-.5.29.25-.52A8.55,8.55,0,0,1,69.48,14a7.33,7.33,0,0,1,3-2.35,3.13,3.13,0,0,1,2.12-.27A.74.74,0,0,1,75.08,12.06Z"></path></g><g class="cls-2"><path d="M84.32,16.9a.66.66,0,0,1,.72.53,3.18,3.18,0,0,1,.09,1.08,7.78,7.78,0,0,1-.19.83l-.14.5c-.07.17-.15.34-.25.53a6.78,6.78,0,0,1-1.61,2.12,10.35,10.35,0,0,1-1.1.81c-.4.21-.79.41-1.15.57a7.1,7.1,0,0,1-1.94.42l-.77,0,.67-.36a8.38,8.38,0,0,0,1.48-1,10.77,10.77,0,0,0,2.45-3.5l.2-.4.13-.36a6.08,6.08,0,0,1,.25-.6,2.84,2.84,0,0,1,.34-.77A.85.85,0,0,1,84.32,16.9Z"></path></g><g class="cls-2"><path d="M56.24,8.16a.68.68,0,0,1,.77.37,2.27,2.27,0,0,1,.2.87,6.55,6.55,0,0,1-.05.7A3.64,3.64,0,0,1,57,11a6.38,6.38,0,0,1-2.7,3.34,6.45,6.45,0,0,1-1.51.64l-.61.16.44-.45a8.33,8.33,0,0,0,.93-1.15,12.1,12.1,0,0,0,1.36-3.19,3.32,3.32,0,0,0,.18-.64,3.7,3.7,0,0,1,.16-.5,2,2,0,0,1,.25-.65A.89.89,0,0,1,56.24,8.16Z"></path></g><g class="cls-2"><path d="M24.55,12c.58-.21,1.06-.22,1.84,1.58A12.1,12.1,0,0,1,27,15.07c.2.54.38,1.1.53,1.62.37,1,.62,1.81.62,1.81s-.68-.48-1.53-1.21A17.68,17.68,0,0,1,25.35,16a9.32,9.32,0,0,1-1-1.5C23.55,12.48,24,12.16,24.55,12Z"></path></g><g class="cls-2"><path d="M10.36,73.67a.91.91,0,0,1,.09-.87,2.17,2.17,0,0,1,.51-.46,3.72,3.72,0,0,1,.4-.32l.25-.17.26-.24a10,10,0,0,0,2.37-2.51,7.57,7.57,0,0,0,.62-1.33l.21-.6.13.62a5.89,5.89,0,0,1,.08,1.65,6.06,6.06,0,0,1-2,3.86c-.13.11-.25.21-.38.3l-.37.22c-.24.13-.45.23-.64.31a2.17,2.17,0,0,1-.9.12C10.56,74.21,10.45,74,10.36,73.67Z"></path></g></g></g></svg>