<?xml version="1.0" encoding="utf-8"?>
<!-- Generator: Adobe Illustrator 24.1.2, SVG Export Plug-In . SVG Version: 6.00 Build 0)  -->
<svg version="1.1" id="Calque_1" xmlns="http://www.w3.org/2000/svg" xmlns:xlink="http://www.w3.org/1999/xlink" x="0px" y="0px"
	 height='100px' width='250px' viewBox="0 0 512 177.6" style="enable-background:new 0 0 512 177.6;" xml:space="preserve">
<style type="text/css">
	.st0{fill:#C91337;}
	.st1{fill:#FFFFFF;}
	.st2{fill:#C21445;}
</style>
<g>
	<g>
		<polygon class="st0" points="512,43.9 512,43.9 512,43.9 		"/>
		<polygon class="st1" points="512,43.9 512,43.9 512,43.9 512,43.9 		"/>
		<g>
			<g>
				<polygon class="st2" points="509,42.4 434.8,0 361.1,43 435.6,86.5 				"/>
				<polygon class="st2" points="438.3,175.9 512,132.9 512,47.3 438.3,91.5 				"/>
				<polygon class="st2" points="358.1,47.8 358.1,133.5 432.7,175.9 432.7,91.4 				"/>
			</g>
			<path class="st1" d="M461.3,34.9c-1.1-1.7-3.3-3.6-6.8-5.8l-9.5-5.4l-42.2,23.9l12.5,8c4.2,2.7,8.8,4.2,13.7,4.5
				c0.7,0,1.3,0.1,1.9,0.1c4,0,7.5-0.8,10.5-2.5c1.7-1,3-2.1,3.7-3.4c0.8-1.3,1.1-2.7,0.9-4.2c-0.2-1.1-0.7-2.3-1.7-3.7
				c2.3,0.3,4.9,0.4,7.2,0.2c2.5-0.3,4.7-0.9,6.6-2c2.1-1.2,3.4-2.6,4-4.3C462.7,38.4,462.4,36.6,461.3,34.9z M453,40.6
				c-1.3,0.7-2.9,1.2-4.8,1.3c-1.8,0.1-3.7,0.2-5.5-0.4c-2-0.6-5.3-2-8-3.8l-1.6-1l11.9-6.8l5.4,2.9c3.5,2.2,4.4,3.7,4.6,4.6
				C455.4,38.7,454.7,39.7,453,40.6z M427.8,39.7l2.1,1.3c3.5,2.2,5.8,3.9,6.9,5c1.5,1.5,2.2,3,2.1,4.3c-0.1,1.4-1,2.5-2.6,3.4
				c-1.4,0.8-3.1,1.2-5.1,1.4c-2,0.1-4.1-0.1-6-0.6c-2-0.6-4.5-1.8-7.5-3.8l-4.4-2.8L427.8,39.7z"/>
			<g>
				<path class="st1" d="M493.3,86.6c-1.2-4.3-4.9-7.1-9.4-7.1h-0.1c-2.3,0-4.4,0.7-6.5,2.1c-2.7,1.8-5.1,4-7.2,6.6
					c-5.1,6.1-8,12.5-8.8,19.5c-0.3,2.2-0.2,4.1,0.3,6c0.8,3.1,2.1,6,4.1,8.7c1.3,1.8,2.5,4,2.2,6.7l0,0.7c0,0.2,0,0.5,0,0.7
					c0,0.3,0,0.8,0.5,1.1c0.2,0.1,0.3,0.1,0.5,0.1c0.4,0,0.7-0.2,0.8-0.3c0,0,0.1-0.1,0.1-0.1l11.1-8.6c1.6-1.2,3.2-2.5,4.8-3.7
					c0.5-0.4,1.1-0.9,1.1-1.8c0-1.5,0.4-2.9,0.9-4.5c0.5-1.6,1.1-3.2,1.7-4.8c0.3-0.9,0.7-1.8,1-2.7c1.4-3.9,2.8-8.5,3.2-13.3
					C493.8,89.7,493.7,88.1,493.3,86.6z M480.9,119.4c0-0.8,0.1-1.6,0.1-2.4c0.1-1.6,0.2-3.3,0.4-5.1c0.2-2.3,0.5-4.5,0.9-6.6
					l0.1-0.7c0.1-0.4,0.1-0.8,0.2-1.1c0-0.2,0.1-0.6,0-0.9c-0.2-0.5-0.6-0.7-1.1-0.6c-0.4,0.1-0.7,0.4-0.9,0.7
					c-0.6,0.9-1,1.9-1.3,2.8l-0.1,0.3c0,0.1-0.1,0.2-0.1,0.4c-0.4-0.7-0.9-1.2-1.5-1.6l-0.4-0.3l-0.2,0.5c-0.1,0.2-0.2,0.4-0.3,0.5
					c-0.3,0.5-0.6,1.1-0.8,1.7c-0.2,0.5-0.3,1-0.5,1.5l0,0c-0.1-0.2-0.3-0.5-0.5-0.7c-0.2-0.2-0.8-0.9-1.7-0.7
					c-0.6,0.2-1.1,1-1.2,1.7c0,0.5,0.2,1,0.3,1.3l0.1,0.2c0.1,0.2,0.1,0.3,0.2,0.5l0,0.1c0.3,0.6,0.5,1.1,0.6,1.7
					c0.1,1,0.2,1.9,0.3,2.9l0,0.4c0.2,1.6,0.3,3.2,0.5,4.8c0.1,0.8,0.1,1.6,0.2,2.4l0,0.2c0,0.5,0.1,1,0.1,1.4l-3.8,3
					c0.1-2-0.5-3.9-1.6-5.8c-0.4-0.6-0.8-1.3-1.2-1.9c-0.5-0.8-1-1.6-1.5-2.4c-1.9-3-2.6-6.4-2.3-10c0.5-5.8,2.6-11.1,6.6-16.2
					c2-2.6,4.4-4.8,7.1-6.5c1.8-1.1,3.7-1.7,5.7-1.7c0.2,0,0.3,0,0.5,0c3.9,0.2,6.7,2.7,7.1,6.4c0.2,1.4,0,2.7-0.1,3.9
					c-0.6,5.1-2.2,9.8-3.8,14.2l-0.4,0.9c-0.8,2.1-1.6,4.4-2.2,6.7c-0.2,0.7-0.3,1.3-0.3,2L480.9,119.4L480.9,119.4z M477.4,109.9
					c0.2-0.3,0.4-0.5,0.5-0.7c0,0,0,0,0,0c0.2,0,0.7,0.1,1,0.2c-0.1,1.8-0.3,3.7-0.4,5.5c-0.2,2.2-0.3,4.4-0.4,6.6c0,0,0,0.1,0,0.1
					c-0.3,0.2-0.6,0.5-1,0.7l0-0.4c0-0.8,0-1.6-0.1-2.4c-0.1-1.4-0.1-3-0.3-4.5c-0.1-0.6-0.2-1.3-0.2-1.9l-0.2-1.7
					C476.5,111,477,110.5,477.4,109.9z"/>
				<path class="st1" d="M484.9,123.6L484.9,123.6c-0.2,0.1-0.4,0.2-0.5,0.4c-3.5,2.8-7.1,5.5-10.6,8.3l-0.7,0.5
					c-1.1,0.8-2.1,1.7-3.2,2.5c-0.6,0.5-1,1.1-1,1.8c0,0.2,0,0.7,0.5,1c0.2,0.1,0.3,0.1,0.5,0.1c0.3,0,0.6-0.1,0.7-0.2
					c0.1-0.1,0.2-0.1,0.3-0.2l0,0c-0.2,0.4-0.2,0.9-0.1,1.4c0.2,0.9,1,1.3,2.1,1.3c0.6,0,1.3-0.2,2-0.4c2.1-0.8,4.1-2,6.2-3.9
					c1.2-1.1,2-2,2.7-3.1c0.5-0.8,0.7-1.5,0.7-2.2c0-0.5-0.2-0.8-0.5-1c-0.3-0.2-0.7-0.2-1.1,0.1c-0.6,0.4-1,0.9-1.1,1.5
					c-0.1,0.5-0.3,0.8-0.6,1.2c-0.9,1-1.9,2-3.3,2.8c-1.3,0.8-2.3,1.4-3.6,1.8c-0.3,0.1-0.6,0.1-0.9,0.1c-0.1-0.5-0.4-0.7-0.6-0.8
					c-0.1,0-0.2-0.1-0.3-0.1l12.8-10.1c0.7-0.5,1-1.2,1-1.9c0-0.4-0.2-0.7-0.5-0.9C485.7,123.4,485.3,123.4,484.9,123.6z"/>
				<path class="st1" d="M470,134.8c0.2,0,0.4-0.1,0.6-0.2c0.1-0.1,0.3-0.2,0.4-0.3l12.3-9.7c0.8-0.6,1.5-1.2,2.3-1.8
					c0.6-0.5,0.9-1.1,0.9-1.9c0-0.4-0.2-0.7-0.4-0.8c-0.3-0.2-0.6-0.2-1-0.1c-0.2,0.1-0.4,0.2-0.6,0.4l-0.1,0.1
					c-2.7,2.1-5.4,4.3-8.2,6.4l-3.6,2.8c-0.9,0.7-1.8,1.4-2.8,2.2c-0.6,0.4-0.9,1-0.9,1.6c0,0.3,0,0.8,0.5,1.1
					C469.6,134.8,469.8,134.8,470,134.8z"/>
			</g>
			<path class="st1" d="M396.3,114.6c1.6,0.4,3,0.9,4.3,1.2c3.3,0.6,5.8-1,6.6-4.2c0.6-2.4,0.5-4.8-0.2-7.2c-1.8-6-5.5-10.7-10.7-14
				c-5.3-3.4-16.5-9.8-16.7-9.8c0,14.7,0,44.7,0,44.7s3.9,2.2,5.9,3.3c0-6.8,0-13.3,0-19.8c0.5,0.3,0.5,0.1,0.7,0.4
				c4.4,8.2,15.4,28.5,15.4,28.5s6.3,3.5,8.1,4.5C405.1,132.7,400.8,123.7,396.3,114.6z M385.5,102.5c0,0-0.1-8.4-0.1-12.9
				c4.2,2.6,8.1,4.7,11.8,7.3c2.4,1.7,3.8,4.3,4.4,7.2c0.1,0.7,0.1,1.5,0,2.2c-0.4,2.1-1.9,3.1-3.9,2.5c-1.4-0.4-2.8-1-4.1-1.7
				C391,105.9,385.5,102.5,385.5,102.5z"/>
			<polygon class="st1" points="512,47.3 512,44.2 509,42.4 435.6,86.5 435.6,86.5 435.6,86.5 361.1,43 358.1,44.7 358.1,47.8 
				432.7,91.4 432.7,175.9 435.5,177.6 438.3,175.9 438.3,175.9 438.3,91.5 			"/>
		</g>
	</g>
	<g>
		<path d="M0,104.5V64.2h6.7c3.9,0,6.7,0.2,8.5,0.7c2.5,0.6,4.5,1.8,6,3.6c1.5,1.7,2.2,3.8,2.2,6.1c0,1.5-0.3,2.9-1,4.2
			c-0.7,1.2-1.8,2.4-3.3,3.5c2.6,1.1,4.4,2.6,5.6,4.3c1.2,1.7,1.8,3.8,1.8,6.1c0,2.3-0.6,4.3-1.8,6.2c-1.2,1.9-2.8,3.3-4.8,4.2
			c-1.9,0.9-4.6,1.4-8,1.4H5.7H0z M8.1,71.5V80h1.8c2,0,3.4-0.4,4.4-1.2c1-0.8,1.4-1.9,1.4-3.2c0-1.3-0.5-2.3-1.4-3
			c-0.9-0.7-2.3-1.1-4.1-1.1H8.1z M8.1,86.9v10.3h2c3.3,0,5.6-0.4,6.8-1.2c1.2-0.8,1.7-2,1.7-3.5c0-1.7-0.7-3.1-2-4.1
			c-1.4-1-3.6-1.5-6.8-1.5H8.1z"/>
		<path d="M33.6,64.2h8.5c4.7,0,8,0.4,10,1.2c2,0.8,3.6,2.1,4.8,4c1.2,1.8,1.8,4,1.8,6.5c0,2.6-0.7,4.9-2,6.6c-1.3,1.8-3.3,3.1-6,4
			l10,17.9h-8.8l-9.5-17h-0.7v17h-4.5h-3.5V64.2z M41.7,80h2.5c2.6,0,4.3-0.3,5.3-1c1-0.6,1.4-1.7,1.4-3.2c0-0.9-0.2-1.6-0.7-2.3
			c-0.5-0.6-1.1-1.1-1.9-1.4c-0.8-0.3-2.3-0.4-4.4-0.4h-2.2V80z"/>
		<path d="M80.5,64.2h8.2l16.3,40.2h-8.4l-3.3-8.3H76l-3.4,8.3H68h-3.9L80.5,64.2z M84.6,74.9l-5.7,13.8h11.3L84.6,74.9z"/>
		<path d="M109.5,64.2h8v40.2h-4.1h-3.9V64.2z"/>
		<path d="M126.3,64.2h7.7l18.1,26.5V64.2h8.1v40.2h-7.7l-18.1-26.4v26.4h-4.3h-3.8V64.2z"/>
		<path d="M165.5,64.2h7.9l6.1,25.7l7.6-25.7h6.7l7.7,25.7l6.1-25.7h7.9l-9.5,40.2h-7.7l-7.8-26l-7.6,26h-3.9h-3.8L165.5,64.2z"/>
		<path d="M231,64.2h8.2l16.3,40.2H247l-3.3-8.3h-17.3l-3.4,8.3h-4.3h-4.1L231,64.2z M235.1,74.9l-5.7,13.8h11.3L235.1,74.9z"/>
		<path d="M253.1,64.2h8.3l10.6,28.6l10.8-28.6h8.3l-15.2,40.2h-4.5h-3.3L253.1,64.2z"/>
		<path d="M296.1,64.2h23.1v7.5h-15.1V79h15.1v7.4h-15.1V97h15.1v7.5h-12.5h-10.6V64.2z"/>
		<path class="st2" d="M238.9,120.9l-5.7,5.3c-3.6-3.6-7.8-5.4-12.5-5.4c-4.2,0-7.7,1.3-10.5,3.9c-2.8,2.6-4.2,5.8-4.2,9.6
			c0,3.9,1.5,7.2,4.4,9.9c2.9,2.7,6.5,4,10.8,4c2.8,0,5.1-0.6,7-1.7c1.9-1.1,3.4-2.9,4.6-5.2h-12.3v-7.2H232h9.9l0.1,1.7
			c0,3.5-1,6.9-2.9,10c-1.9,3.2-4.4,5.6-7.4,7.2s-6.6,2.5-10.7,2.5c-4.4,0-8.3-0.9-11.7-2.7c-3.4-1.8-6.2-4.4-8.2-7.8
			c-2-3.4-3-7-3-10.9c0-5.3,1.9-10,5.6-13.9c4.4-4.7,10.1-7,17.1-7c3.7,0,7.1,0.6,10.3,1.9C233.7,116.4,236.3,118.3,238.9,120.9z"/>
		<path class="st2" d="M248.6,114.4h8.5c4.7,0,8,0.4,10,1.2c2,0.8,3.6,2.1,4.8,4c1.2,1.8,1.8,4,1.8,6.5c0,2.6-0.7,4.9-2,6.6
			c-1.3,1.8-3.3,3.1-6,4l10,17.9h-8.8l-9.5-17h-0.7v17h-5.2h-2.9V114.4z M256.6,130.1h2.5c2.6,0,4.3-0.3,5.3-1
			c1-0.6,1.4-1.7,1.4-3.2c0-0.9-0.2-1.6-0.7-2.3s-1.1-1.1-1.9-1.4c-0.8-0.3-2.3-0.4-4.4-0.4h-2.2V130.1z"/>
		<path class="st2" d="M319.6,121.4l-5.6,5.1c-3.8-3.9-8.1-5.8-12.9-5.8c-4,0-7.4,1.3-10.2,3.9c-2.8,2.6-4.2,5.9-4.2,9.7
			c0,2.7,0.6,5.1,1.8,7.1c1.2,2.1,3,3.7,5.2,4.9c2.2,1.2,4.7,1.8,7.5,1.8c2.3,0,4.5-0.4,6.4-1.2c1.9-0.8,4.1-2.3,6.4-4.5l2.5,2.5
			l3,3c-3.1,2.9-6.1,4.9-8.9,6c-2.8,1.1-6,1.7-9.5,1.7c-6.6,0-12-2-16.1-5.9c-4.2-4-6.3-9.1-6.3-15.3c0-4,1-7.6,2.9-10.7
			c1.9-3.1,4.6-5.6,8.2-7.5c3.6-1.9,7.4-2.8,11.5-2.8c3.5,0,6.8,0.7,10.1,2.1C314.5,116.9,317.3,118.9,319.6,121.4z"/>
	</g>
</g>
</svg>
