<svg xmlns="http://www.w3.org/2000/svg" height='100px' width='100px' viewBox="0 0 437.22 504.55"><defs><style>.cls-1{fill:#c21445;}.cls-2{fill:#fff;}</style></defs><g id="Calque_2" data-name="Calque 2"><g id="Calque_1-2" data-name="Calque 1"><polygon class="cls-1" points="428.7 120.46 217.9 0 8.52 122.16 220.18 245.74 428.7 120.46"/><polygon class="cls-1" points="227.84 499.73 437.22 377.56 437.22 134.38 227.84 259.95 227.84 499.73"/><polygon class="cls-1" points="0 135.8 0 379.27 211.94 499.73 211.94 259.66 0 135.8"/><path class="cls-2" d="M293.19,99.15c-3.13-4.83-9.38-10.23-19.32-16.48l-27-15.34L127,135.23,162.5,158a80.14,80.14,0,0,0,38.92,12.78c2,0,3.7.29,5.4.29,11.37,0,21.31-2.28,29.83-7.11,4.83-2.84,8.52-6,10.51-9.66a17.62,17.62,0,0,0,2.56-11.93,26.18,26.18,0,0,0-4.83-10.51,98.65,98.65,0,0,0,20.46.57c7.1-.85,13.35-2.56,18.75-5.68,6-3.41,9.66-7.39,11.36-12.22A17.43,17.43,0,0,0,293.19,99.15Zm-23.58,16.19A32.19,32.19,0,0,1,256,119c-5.11.28-10.51.56-15.62-1.14a93.81,93.81,0,0,1-22.73-10.8l-4.55-2.84,33.81-19.32,15.34,8.24c9.94,6.25,12.5,10.52,13.07,13.07C276.43,110,274.44,112.79,269.61,115.34ZM198,112.79l6,3.69c9.94,6.25,16.48,11.08,19.6,14.2,4.27,4.27,6.25,8.53,6,12.22-.28,4-2.84,7.1-7.39,9.66-4,2.27-8.8,3.41-14.49,4a57.18,57.18,0,0,1-17-1.71c-5.68-1.7-12.79-5.11-21.31-10.79l-12.5-8Z"/><path class="cls-2" d="M384.1,246a27.13,27.13,0,0,0-26.71-20.17h-.28c-6.54,0-12.5,2-18.47,6a91.47,91.47,0,0,0-20.45,18.75c-14.49,17.33-22.73,35.51-25,55.4a42.27,42.27,0,0,0,.85,17,70.42,70.42,0,0,0,11.65,24.71c3.69,5.12,7.1,11.37,6.25,19v4a3.23,3.23,0,0,0,1.42,3.12,2.59,2.59,0,0,0,1.42.28,3.4,3.4,0,0,0,2.27-.85l.29-.28,31.53-24.43c4.55-3.41,9.09-7.11,13.64-10.52,1.42-1.13,3.12-2.55,3.12-5.11,0-4.26,1.14-8.24,2.56-12.78s3.12-9.09,4.83-13.64c.85-2.56,2-5.11,2.84-7.67,4-11.08,7.95-24.15,9.09-37.79C385.52,254.83,385.23,250.29,384.1,246Zm-35.23,93.18c0-2.27.28-4.54.28-6.82.29-4.54.57-9.37,1.14-14.49a186.42,186.42,0,0,1,2.56-18.75l.28-2c.29-1.13.29-2.27.57-3.12a7.8,7.8,0,0,0,0-2.56,2.57,2.57,0,0,0-3.13-1.7,4.5,4.5,0,0,0-2.55,2,33.19,33.19,0,0,0-3.7,8l-.28.85c0,.29-.28.57-.28,1.14a13.19,13.19,0,0,0-4.27-4.55l-1.13-.85-.57,1.42a6.08,6.08,0,0,1-.85,1.42,25,25,0,0,0-2.27,4.83c-.57,1.42-.86,2.84-1.43,4.26h0a8.42,8.42,0,0,0-1.42-2c-.56-.57-2.27-2.56-4.83-2-1.7.57-3.12,2.84-3.4,4.83a11.61,11.61,0,0,0,.85,3.69l.28.57c.29.57.29.85.57,1.42v.28a16.44,16.44,0,0,1,1.7,4.83c.29,2.84.57,5.4.86,8.24v1.14c.57,4.54.85,9.09,1.42,13.63.28,2.28.28,4.55.57,6.82v.57c0,1.42.28,2.84.28,4l-10.8,8.52c.29-5.68-1.42-11.08-4.54-16.48-1.14-1.7-2.27-3.69-3.41-5.39l-4.26-6.82c-5.4-8.53-7.39-18.19-6.54-28.41,1.42-16.48,7.39-31.54,18.75-46a78,78,0,0,1,20.17-18.46,30.73,30.73,0,0,1,16.2-4.83h1.42c11.08.57,19,7.67,20.17,18.18.57,4,0,7.67-.28,11.08-1.71,14.49-6.25,27.84-10.8,40.34l-1.14,2.56a188.48,188.48,0,0,0-6.25,19,20,20,0,0,0-.85,5.68l-9.09,6Zm-9.94-27c.56-.85,1.13-1.42,1.42-2h0a12.69,12.69,0,0,1,2.84.57c-.29,5.11-.85,10.51-1.14,15.63-.57,6.25-.85,12.5-1.13,18.75v.28a25.09,25.09,0,0,1-2.85,2v-1.14a55.65,55.65,0,0,0-.28-6.82c-.28-4-.28-8.52-.85-12.78a34,34,0,0,1-.57-5.4l-.57-4.83C336.37,315.35,337.79,313.93,338.93,312.22Z"/><path class="cls-2" d="M360.23,351.14h0a2.93,2.93,0,0,0-1.42,1.14c-9.94,8-20.17,15.62-30.11,23.58l-2,1.42c-3.12,2.27-6,4.83-9.09,7.1a6.77,6.77,0,0,0-2.84,5.12,3.06,3.06,0,0,0,1.42,2.84,2.59,2.59,0,0,0,1.42.28,3.29,3.29,0,0,0,2-.57c.28-.28.57-.28.85-.57h0a6.2,6.2,0,0,0-.28,4c.56,2.56,2.84,3.7,6,3.7a22.16,22.16,0,0,0,5.68-1.14,54.81,54.81,0,0,0,17.62-11.08,42.52,42.52,0,0,0,7.67-8.81,11.48,11.48,0,0,0,2-6.25,3.14,3.14,0,0,0-1.42-2.84,2.6,2.6,0,0,0-3.13.29,6.51,6.51,0,0,0-3.12,4.26,7.86,7.86,0,0,1-1.71,3.41,37.38,37.38,0,0,1-9.37,7.95c-3.7,2.27-6.54,4-10.23,5.11a7.7,7.7,0,0,1-2.56.29,3,3,0,0,0-1.7-2.27c-.29,0-.57-.29-.85-.29l36.36-28.69a6.49,6.49,0,0,0,2.84-5.4,3,3,0,0,0-1.42-2.56C362.51,350.57,361.37,350.57,360.23,351.14Z"/><path class="cls-2" d="M317.9,383a4,4,0,0,0,1.71-.57c.28-.28.85-.56,1.13-.85L355.69,354c2.27-1.7,4.26-3.41,6.53-5.11a6.58,6.58,0,0,0,2.56-5.4,2.54,2.54,0,0,0-1.14-2.27,3.23,3.23,0,0,0-2.84-.28,5.78,5.78,0,0,0-1.7,1.13l-.29.29c-7.67,6-15.34,12.21-23.29,18.18l-10.23,8c-2.56,2-5.11,4-8,6.25a5.45,5.45,0,0,0-2.56,4.55,3.23,3.23,0,0,0,1.42,3.12A2.08,2.08,0,0,0,317.9,383Z"/><path class="cls-2" d="M108.52,325.57c4.55,1.14,8.53,2.56,12.22,3.41,9.38,1.71,16.48-2.84,18.75-11.93a38.41,38.41,0,0,0-.57-20.45,70,70,0,0,0-30.4-39.78C93.47,247.16,61.65,229,61.08,229V356s11.08,6.25,16.76,9.38V309.1c1.42.85,1.42.28,2,1.13,12.5,23.3,43.75,81,43.75,81l23,12.78C133.53,377,121.31,351.43,108.52,325.57ZM77.84,291.2s-.28-23.87-.28-36.65c11.93,7.39,23,13.35,33.52,20.74,6.82,4.83,10.8,12.22,12.5,20.45a22.56,22.56,0,0,1,0,6.25c-1.13,6-5.4,8.81-11.08,7.11a59.57,59.57,0,0,1-11.65-4.83C93.47,300.86,77.84,291.2,77.84,291.2Z"/><polygon class="cls-2" points="437.22 134.38 437.22 125.57 428.7 120.46 220.18 245.74 220.18 245.74 220.18 245.74 8.52 122.16 0 126.99 0 135.8 211.94 259.66 211.94 499.73 219.89 504.56 227.84 499.73 227.84 499.73 227.84 259.95 437.22 134.38"/></g></g></svg>