<svg xmlns="http://www.w3.org/2000/svg" viewBox="0 0 96.72 84.93"><defs><style>.cls-1{fill:#848484;}</style></defs><g id="Calque_2" data-name="Calque 2"><g id="Calque_1-2" data-name="Calque 1"><path class="cls-1" d="M21.56,84.93a2.14,2.14,0,0,1-.5-.06,2.16,2.16,0,0,1-1.61-2.6l4.94-20.94a2.16,2.16,0,0,1,4.21,1L23.66,83.26A2.15,2.15,0,0,1,21.56,84.93Zm-14,0a2.07,2.07,0,0,1-.5-.06,2.15,2.15,0,0,1-1.61-2.6l4.93-20.94a2.17,2.17,0,0,1,4.22,1L9.7,83.26A2.15,2.15,0,0,1,7.6,84.93Z"/><path class="cls-1" d="M50,84.93a2.07,2.07,0,0,1-.5-.06,2.15,2.15,0,0,1-1.61-2.6l4.93-20.94a2.17,2.17,0,0,1,4.22,1L52.09,83.26A2.15,2.15,0,0,1,50,84.93Zm-14,0a2.2,2.2,0,0,1-.5-.06,2.17,2.17,0,0,1-1.61-2.6l4.94-20.94a2.17,2.17,0,0,1,4.22,1L38.13,83.26A2.16,2.16,0,0,1,36,84.93Z"/><path class="cls-1" d="M63.48,54.3H10.81C6.15,54.3,2.53,52,.89,48.07a13.16,13.16,0,0,1,2.95-14c3.18-3.17,7.68-4.2,12.64-3a14.74,14.74,0,0,1,7-11.27,19.33,19.33,0,0,1,19.41-.28A15.08,15.08,0,0,1,48.34,25a11.31,11.31,0,0,1,13.11-.24,9.79,9.79,0,0,1,4.72,9.72,10.1,10.1,0,0,1,7,4,9.94,9.94,0,0,1,1.15,10.29C73.31,50.82,70.52,54.3,63.48,54.3ZM6.9,37.16a8.62,8.62,0,0,0-2,9.25C5.57,48,7.14,50,10.81,50H63.48c3.49,0,6-1.12,7-3.16a5.64,5.64,0,0,0-.73-5.75A6.07,6.07,0,0,0,63.5,38.9a2.17,2.17,0,0,1-2.28-3.2c1.8-3.18,0-5.93-2.15-7.31a6.86,6.86,0,0,0-9,.93,20.32,20.32,0,0,1,.47,6A2.16,2.16,0,1,1,46.19,35c.41-6.74-2.76-10.09-5.49-11.72a14.82,14.82,0,0,0-14.89.23,10.64,10.64,0,0,0-5,10.41,2.19,2.19,0,0,1-.89,1.93,2,2,0,0,1-2.1.25C14.92,34.63,10,34.45,6.9,37.16Zm76.17,9.56a2.17,2.17,0,1,1,0-4.33c5.39,0,7.62-2.65,8.47-4.23a6.67,6.67,0,0,0-.18-6.76c-1.42-2.16-4.11-3.19-7.55-2.89a2.16,2.16,0,0,1-2.07-3.22c2.24-3.95-.06-7.38-2.71-9.12-3.47-2.27-8.76-2.65-12.17,1.9A2.17,2.17,0,0,1,63,16.79C62.89,9,57.52,6.17,54.32,5.16c-6.33-2-14-.09-17.17,4.28a2.16,2.16,0,1,1-3.51-2.53c4.28-6,13.74-8.5,22-5.88,5.83,1.84,9.71,5.84,11.1,11.25a13.37,13.37,0,0,1,14.67.27c4.32,2.82,6.26,7.32,5.33,11.68A11.08,11.08,0,0,1,95,29a10.9,10.9,0,0,1,.38,11.19C93.13,44.35,88.65,46.72,83.07,46.72Z"/></g></g></svg>