<svg xmlns="http://www.w3.org/2000/svg" viewBox="0 0 53.04 96.14"><defs><style>.cls-1{fill:#848484;}</style></defs><g id="Calque_2" data-name="Calque 2"><g id="Calque_1-2" data-name="Calque 1"><path class="cls-1" d="M8.54,94.66l4.3-4.3L23.13,80.08,35.56,67.64,46.31,56.89c1.74-1.74,3.5-3.46,5.23-5.22l.07-.07a5.08,5.08,0,0,0,0-7.07l-4.3-4.3L37,29.94q-6.23-6.23-12.43-12.43L13.84,6.76C12.1,5,10.37,3.26,8.61,1.53l-.07-.07A5.14,5.14,0,0,0,5,0,5.1,5.1,0,0,0,1.46,1.46,5,5,0,0,0,0,5,5.25,5.25,0,0,0,1.46,8.54l4.3,4.3L16.05,23.12,28.49,35.56,39.23,46.31c1.74,1.74,3.46,3.51,5.23,5.23l.07.07V44.54l-4.3,4.3L30,59.12,17.52,71.55,6.77,82.3C5,84,3.27,85.77,1.54,87.53l-.07.07a5,5,0,0,0,0,7.07A5,5,0,0,0,5,96.13a5.21,5.21,0,0,0,3.53-1.47Z"/></g></g></svg>