<svg height='100px' width='100px'  fill="#000000" xmlns="http://www.w3.org/2000/svg" xmlns:xlink="http://www.w3.org/1999/xlink" version="1.1" x="0px" y="0px" viewBox="0 0 100 100" enable-background="new 0 0 100 100" xml:space="preserve"><path fill="none" d="M82.28,49.995L56.084,28.391h-6.688l24.329,20.065c0.984,0.811,0.957,2.305-0.018,3.098L49.395,71.6h6.688  L82.28,49.995z"></path><path fill="none" d="M53.049,49.995L26.843,28.391h-6.688l24.338,20.065c0.975,0.811,0.957,2.305-0.018,3.098L20.155,71.6h6.688  L53.049,49.995z"></path><path d="M43.837,75.6h12.948c0.547,0,1.039-0.219,1.403-0.574l28.466-23.472c0.975-0.793,1.002-2.287,0.018-3.098L58.188,24.965  c-0.364-0.346-0.856-0.565-1.403-0.565H43.837c-1.832,0-2.825,2.36-1.13,3.645l26.625,21.951l-26.625,21.96  C41.012,73.231,42.005,75.6,43.837,75.6z M73.706,51.554c0.975-0.793,1.002-2.287,0.018-3.098L49.395,28.391h6.688L82.28,49.995  L56.084,71.6h-6.688L73.706,51.554z"></path><path d="M14.606,75.6h12.948c0.547,0,1.039-0.219,1.394-0.574l28.475-23.472c0.975-0.793,0.993-2.287,0.018-3.098L28.948,24.965  c-0.355-0.346-0.847-0.565-1.394-0.565H14.606c-1.832,0-2.825,2.36-1.139,3.645l26.634,21.951l-26.634,21.96  C11.781,73.231,12.774,75.6,14.606,75.6z M44.475,51.554c0.975-0.793,0.993-2.287,0.018-3.098L20.155,28.391h6.688l26.206,21.604  L26.843,71.6h-6.688L44.475,51.554z"></path></svg>