<svg  fill="#2196f3" xmlns="http://www.w3.org/2000/svg" xmlns:xlink="http://www.w3.org/1999/xlink" version="1.1" x="0px" y="0px" viewBox="0 0 100 100" enable-background="new 0 0 100 100" xml:space="preserve"><path d="M15,58.75C8.797,58.75,3.75,63.797,3.75,70S8.797,81.25,15,81.25S26.25,76.203,26.25,70c0-1.584-0.333-3.091-0.926-4.459  l13.42-7.668c2.263,3.227,5.871,5.44,10.007,5.815v10.137c-5.616,0.624-10,5.396-10,11.176c0,6.203,5.047,11.25,11.25,11.25  S61.25,91.203,61.25,85c0-5.78-4.384-10.552-10-11.176V63.687c4.136-0.375,7.743-2.588,10.007-5.815l13.42,7.668  C74.083,66.909,73.75,68.416,73.75,70c0,6.203,5.047,11.25,11.25,11.25S96.25,76.203,96.25,70S91.203,58.75,85,58.75  c-3.725,0-7.024,1.828-9.073,4.626l-13.431-7.675c0.797-1.74,1.253-3.666,1.253-5.701s-0.456-3.962-1.253-5.701l13.431-7.675  c2.049,2.798,5.347,4.626,9.073,4.626c6.203,0,11.25-5.047,11.25-11.25S91.203,18.75,85,18.75S73.75,23.797,73.75,30  c0,1.584,0.333,3.091,0.926,4.459l-13.42,7.668c-2.263-3.227-5.871-5.44-10.007-5.815V26.176c5.616-0.624,10-5.396,10-11.176  c0-6.203-5.047-11.25-11.25-11.25S38.75,8.797,38.75,15c0,5.78,4.384,10.552,10,11.176v10.137  c-4.136,0.375-7.743,2.588-10.007,5.815l-13.42-7.668c0.594-1.369,0.926-2.875,0.926-4.459c0-6.203-5.047-11.25-11.25-11.25  S3.75,23.797,3.75,30S8.797,41.25,15,41.25c3.725,0,7.024-1.828,9.073-4.626l13.431,7.675c-0.797,1.74-1.253,3.666-1.253,5.701  s0.456,3.962,1.253,5.701l-13.43,7.675C22.024,60.578,18.725,58.75,15,58.75z M15,78.75c-4.825,0-8.75-3.925-8.75-8.75  s3.925-8.75,8.75-8.75c2.798,0,5.286,1.324,6.889,3.374c0.513,0.655,0.933,1.383,1.244,2.169c0.394,0.995,0.617,2.075,0.617,3.208  C23.75,74.825,19.825,78.75,15,78.75z M76.867,66.792c0.311-0.785,0.731-1.513,1.244-2.169c1.603-2.049,4.091-3.374,6.889-3.374  c4.825,0,8.75,3.925,8.75,8.75s-3.925,8.75-8.75,8.75s-8.75-3.925-8.75-8.75C76.25,68.867,76.473,67.787,76.867,66.792z M85,21.25  c4.825,0,8.75,3.925,8.75,8.75s-3.925,8.75-8.75,8.75c-2.798,0-5.286-1.324-6.889-3.374c-0.513-0.655-0.933-1.383-1.244-2.169  C76.473,32.213,76.25,31.133,76.25,30C76.25,25.175,80.175,21.25,85,21.25z M58.75,85c0,4.825-3.925,8.75-8.75,8.75  s-8.75-3.925-8.75-8.75c0-4.399,3.267-8.04,7.5-8.65c0.409-0.059,0.825-0.1,1.25-0.1s0.841,0.041,1.25,0.1  C55.483,76.96,58.75,80.601,58.75,85z M41.25,15c0-4.825,3.925-8.75,8.75-8.75s8.75,3.925,8.75,8.75c0,4.399-3.267,8.04-7.5,8.65  c-0.409,0.059-0.825,0.1-1.25,0.1s-0.841-0.041-1.25-0.1C44.517,23.04,41.25,19.399,41.25,15z M39.676,45.541  c0.335-0.772,0.76-1.494,1.251-2.165c1.816-2.48,4.614-4.195,7.823-4.552c0.411-0.046,0.827-0.074,1.25-0.074  s0.839,0.028,1.25,0.074c3.209,0.357,6.007,2.072,7.823,4.552c0.491,0.671,0.916,1.393,1.251,2.165  c0.594,1.369,0.926,2.875,0.926,4.459s-0.333,3.091-0.926,4.459c-0.335,0.772-0.76,1.494-1.251,2.165  c-1.816,2.48-4.614,4.195-7.823,4.552c-0.411,0.046-0.827,0.074-1.25,0.074s-0.839-0.028-1.25-0.074  c-3.209-0.357-6.007-2.072-7.823-4.552c-0.491-0.671-0.916-1.393-1.251-2.165C39.083,53.091,38.75,51.584,38.75,50  S39.083,46.909,39.676,45.541z M23.133,33.208c-0.311,0.785-0.731,1.513-1.244,2.169C20.286,37.426,17.798,38.75,15,38.75  c-4.825,0-8.75-3.925-8.75-8.75s3.925-8.75,8.75-8.75s8.75,3.925,8.75,8.75C23.75,31.133,23.527,32.213,23.133,33.208z"></path></svg>