<svg xmlns="http://www.w3.org/2000/svg" viewBox="0 0 18 39"><defs><style>.a{fill:#b2b2b2;}</style></defs><rect class="a" width="4" height="4"/><rect class="a" y="7" width="4" height="4"/><rect class="a" y="14" width="4" height="4"/><rect class="a" y="21" width="4" height="4"/><rect class="a" y="28" width="4" height="4"/><rect class="a" y="35" width="4" height="4"/><rect class="a" x="7" width="4" height="4"/><rect class="a" x="7" y="7" width="4" height="4"/><rect class="a" x="7" y="14" width="4" height="4"/><rect class="a" x="7" y="21" width="4" height="4"/><rect class="a" x="7" y="28" width="4" height="4"/><rect class="a" x="7" y="35" width="4" height="4"/><rect class="a" x="14" width="4" height="4"/><rect class="a" x="14" y="7" width="4" height="4"/><rect class="a" x="14" y="14" width="4" height="4"/><rect class="a" x="14" y="21" width="4" height="4"/><rect class="a" x="14" y="28" width="4" height="4"/><rect class="a" x="14" y="35" width="4" height="4"/></svg>