<svg height='100px' width='100px'  fill="#848484" xmlns:dc="http://purl.org/dc/elements/1.1/" xmlns:cc="http://creativecommons.org/ns#" xmlns:rdf="http://www.w3.org/1999/02/22-rdf-syntax-ns#" xmlns:svg="http://www.w3.org/2000/svg" xmlns="http://www.w3.org/2000/svg" xmlns:sodipodi="http://sodipodi.sourceforge.net/DTD/sodipodi-0.dtd" xmlns:inkscape="http://www.inkscape.org/namespaces/inkscape" viewBox="0 0 16.933333 16.933334" version="1.1" x="0px" y="0px"><g transform="translate(0,-280.06664)"><path style="color:#000000;font-style:normal;font-variant:normal;font-weight:normal;font-stretch:normal;font-size:medium;line-height:normal;font-family:sans-serif;font-variant-ligatures:normal;font-variant-position:normal;font-variant-caps:normal;font-variant-numeric:normal;font-variant-alternates:normal;font-feature-settings:normal;text-indent:0;text-align:start;text-decoration:none;text-decoration-line:none;text-decoration-style:solid;text-decoration-color:#000000;letter-spacing:normal;word-spacing:normal;text-transform:none;writing-mode:lr-tb;direction:ltr;text-orientation:mixed;dominant-baseline:auto;baseline-shift:baseline;text-anchor:start;white-space:normal;shape-padding:0;clip-rule:nonzero;display:inline;overflow:visible;visibility:visible;opacity:1;isolation:auto;mix-blend-mode:normal;color-interpolation:sRGB;color-interpolation-filters:linearRGB;solid-color:#000000;solid-opacity:1;vector-effect:none;fill:#000000;fill-opacity:1;fill-rule:nonzero;stroke:none;stroke-width:4;stroke-linecap:round;stroke-linejoin:round;stroke-miterlimit:4;stroke-dasharray:none;stroke-dashoffset:0;stroke-opacity:1;paint-order:stroke fill markers;color-rendering:auto;image-rendering:auto;shape-rendering:auto;text-rendering:auto;enable-background:accumulate" d="M 15.996094,4 V 8.0019531 H 4.0019531 C 2.8966668,8.0009844 2.0001102,8.8966662 2,10.001953 2,26.000651 2,41.999349 2,57.998047 1.9990303,59.104097 2.8959035,60.00097 4.0019531,60 H 60 c 1.105287,-1.1e-4 2.000969,-0.896667 2,-2.001953 C 62,41.999349 62,26.000651 62,10.001953 61.999889,8.8974293 61.104524,8.0020636 60,8.0019531 H 47.996094 V 4 H 44.003906 V 8.0019531 H 34.001953 V 4 H 30 V 8.0019531 H 19.998047 V 4 Z m -9.9941409,8.001953 h 9.9941409 v 4.001953 h 4.001953 V 12.001953 H 30 v 4.001953 h 4.001953 v -4.001953 h 10.001953 v 4.001953 h 3.992188 V 12.001953 H 58 v 7.994141 H 6.0019531 Z m 0,11.996094 H 58 v 32 H 6.0019531 Z" transform="matrix(0.26458334,0,0,0.26458334,0,280.06664)"></path><path style="opacity:1;fill:#000000;fill-opacity:1;stroke:none;stroke-width:1.0583334;stroke-linecap:round;stroke-linejoin:round;stroke-miterlimit:4;stroke-dasharray:none;stroke-dashoffset:0;stroke-opacity:1;paint-order:stroke fill markers" d="m 8.995834,288.53329 a 0.52916682,0.52916682 0 0 1 -0.5291668,0.52917 0.52916682,0.52916682 0 0 1 -0.5291668,-0.52917 0.52916682,0.52916682 0 0 1 0.5291668,-0.52916 0.52916682,0.52916682 0 0 1 0.5291668,0.52916 z"></path><path style="opacity:1;fill:#000000;fill-opacity:1;stroke:none;stroke-width:1.0583334;stroke-linecap:round;stroke-linejoin:round;stroke-miterlimit:4;stroke-dasharray:none;stroke-dashoffset:0;stroke-opacity:1;paint-order:stroke fill markers" d="m 11.1125,288.53329 a 0.52916682,0.52916682 0 0 1 -0.529167,0.52917 0.52916682,0.52916682 0 0 1 -0.529167,-0.52917 0.52916682,0.52916682 0 0 1 0.529167,-0.52916 0.52916682,0.52916682 0 0 1 0.529167,0.52916 z"></path><path style="opacity:1;fill:#000000;fill-opacity:1;stroke:none;stroke-width:1.0583334;stroke-linecap:round;stroke-linejoin:round;stroke-miterlimit:4;stroke-dasharray:none;stroke-dashoffset:0;stroke-opacity:1;paint-order:stroke fill markers" d="m 6.8791672,288.53329 a 0.52916682,0.52916682 0 0 1 -0.5291668,0.52917 0.52916682,0.52916682 0 0 1 -0.5291668,-0.52917 0.52916682,0.52916682 0 0 1 0.5291668,-0.52916 0.52916682,0.52916682 0 0 1 0.5291668,0.52916 z"></path><path style="opacity:1;fill:#000000;fill-opacity:1;stroke:none;stroke-width:1.0583334;stroke-linecap:round;stroke-linejoin:round;stroke-miterlimit:4;stroke-dasharray:none;stroke-dashoffset:0;stroke-opacity:1;paint-order:stroke fill markers" d="m 13.229165,288.53329 a 0.52916682,0.52916682 0 0 1 -0.529167,0.52917 0.52916682,0.52916682 0 0 1 -0.529167,-0.52917 0.52916682,0.52916682 0 0 1 0.529167,-0.52916 0.52916682,0.52916682 0 0 1 0.529167,0.52916 z"></path><path style="opacity:1;fill:#000000;fill-opacity:1;stroke:none;stroke-width:1.0583334;stroke-linecap:round;stroke-linejoin:round;stroke-miterlimit:4;stroke-dasharray:none;stroke-dashoffset:0;stroke-opacity:1;paint-order:stroke fill markers" d="m 8.995834,290.64999 a 0.52916682,0.52916682 0 0 1 -0.5291668,0.52917 0.52916682,0.52916682 0 0 1 -0.5291668,-0.52917 0.52916682,0.52916682 0 0 1 0.5291668,-0.52916 0.52916682,0.52916682 0 0 1 0.5291668,0.52916 z"></path><path style="opacity:1;fill:#000000;fill-opacity:1;stroke:none;stroke-width:1.0583334;stroke-linecap:round;stroke-linejoin:round;stroke-miterlimit:4;stroke-dasharray:none;stroke-dashoffset:0;stroke-opacity:1;paint-order:stroke fill markers" d="m 11.1125,290.64999 a 0.52916682,0.52916682 0 0 1 -0.529167,0.52917 0.52916682,0.52916682 0 0 1 -0.529167,-0.52917 0.52916682,0.52916682 0 0 1 0.529167,-0.52916 0.52916682,0.52916682 0 0 1 0.529167,0.52916 z"></path><path style="opacity:1;fill:#000000;fill-opacity:1;stroke:none;stroke-width:1.0583334;stroke-linecap:round;stroke-linejoin:round;stroke-miterlimit:4;stroke-dasharray:none;stroke-dashoffset:0;stroke-opacity:1;paint-order:stroke fill markers" d="m 6.8791672,290.64999 a 0.52916682,0.52916682 0 0 1 -0.5291668,0.52917 0.52916682,0.52916682 0 0 1 -0.5291668,-0.52917 0.52916682,0.52916682 0 0 1 0.5291668,-0.52916 0.52916682,0.52916682 0 0 1 0.5291668,0.52916 z"></path><path style="opacity:1;fill:#000000;fill-opacity:1;stroke:none;stroke-width:1.0583334;stroke-linecap:round;stroke-linejoin:round;stroke-miterlimit:4;stroke-dasharray:none;stroke-dashoffset:0;stroke-opacity:1;paint-order:stroke fill markers" d="m 13.229165,290.64999 a 0.52916682,0.52916682 0 0 1 -0.529167,0.52917 0.52916682,0.52916682 0 0 1 -0.529167,-0.52917 0.52916682,0.52916682 0 0 1 0.529167,-0.52916 0.52916682,0.52916682 0 0 1 0.529167,0.52916 z"></path><path style="opacity:1;fill:#000000;fill-opacity:1;stroke:none;stroke-width:1.0583334;stroke-linecap:round;stroke-linejoin:round;stroke-miterlimit:4;stroke-dasharray:none;stroke-dashoffset:0;stroke-opacity:1;paint-order:stroke fill markers" d="m 6.8791672,292.76669 a 0.52916682,0.52916682 0 0 1 -0.5291668,0.52917 0.52916682,0.52916682 0 0 1 -0.5291668,-0.52917 0.52916682,0.52916682 0 0 1 0.5291668,-0.52916 0.52916682,0.52916682 0 0 1 0.5291668,0.52916 z"></path><path style="opacity:1;fill:#000000;fill-opacity:1;stroke:none;stroke-width:1.0583334;stroke-linecap:round;stroke-linejoin:round;stroke-miterlimit:4;stroke-dasharray:none;stroke-dashoffset:0;stroke-opacity:1;paint-order:stroke fill markers" d="m 8.9958349,292.76669 a 0.52916682,0.52916682 0 0 1 -0.5291668,0.52917 0.52916682,0.52916682 0 0 1 -0.5291668,-0.52917 0.52916682,0.52916682 0 0 1 0.5291668,-0.52916 0.52916682,0.52916682 0 0 1 0.5291668,0.52916 z"></path><path style="opacity:1;fill:#000000;fill-opacity:1;stroke:none;stroke-width:1.0583334;stroke-linecap:round;stroke-linejoin:round;stroke-miterlimit:4;stroke-dasharray:none;stroke-dashoffset:0;stroke-opacity:1;paint-order:stroke fill markers" d="m 4.7625004,292.76669 a 0.52916682,0.52916682 0 0 1 -0.5291668,0.52917 0.52916682,0.52916682 0 0 1 -0.5291668,-0.52917 0.52916682,0.52916682 0 0 1 0.5291668,-0.52916 0.52916682,0.52916682 0 0 1 0.5291668,0.52916 z"></path><path style="opacity:1;fill:#000000;fill-opacity:1;stroke:none;stroke-width:1.0583334;stroke-linecap:round;stroke-linejoin:round;stroke-miterlimit:4;stroke-dasharray:none;stroke-dashoffset:0;stroke-opacity:1;paint-order:stroke fill markers" d="m 11.1125,292.76669 a 0.52916682,0.52916682 0 0 1 -0.529167,0.52917 0.52916682,0.52916682 0 0 1 -0.529167,-0.52917 0.52916682,0.52916682 0 0 1 0.529167,-0.52916 0.52916682,0.52916682 0 0 1 0.529167,0.52916 z"></path><path style="opacity:1;fill:#000000;fill-opacity:1;stroke:none;stroke-width:1.0583334;stroke-linecap:round;stroke-linejoin:round;stroke-miterlimit:4;stroke-dasharray:none;stroke-dashoffset:0;stroke-opacity:1;paint-order:stroke fill markers" d="m 4.7625004,290.64999 a 0.52916682,0.52916682 0 0 1 -0.5291668,0.52917 0.52916682,0.52916682 0 0 1 -0.5291668,-0.52917 0.52916682,0.52916682 0 0 1 0.5291668,-0.52916 0.52916682,0.52916682 0 0 1 0.5291668,0.52916 z"></path></g></svg>