<svg height='100px' width='100px'  fill="#848484" xmlns="http://www.w3.org/2000/svg" xmlns:xlink="http://www.w3.org/1999/xlink" version="1.1" x="0px" y="0px" viewBox="0 0 20 20" enable-background="new 0 0 20 20" xml:space="preserve"><rect x="-167" y="-33" display="none" fill="#000000" width="198" height="87"></rect><path d="M-131.421-19.5v0.108c-7.587,0-13.738,6.151-13.738,13.738c0,7.568,6.121,13.701,13.683,13.733v0.019h0.805V40.5h4.294  v-52.271h7.728V40.5h4.294v-52.271h7.514V-19.5H-131.421z"></path><path d="M-67.614-11v0.072c-5.058,0-9.158,4.101-9.158,9.159c0,5.045,4.08,9.134,9.122,9.155v0.013h0.537V29h2.863V-5.848h5.152V29  h2.863V-5.848h5.009V-11H-67.614z"></path><path d="M-23.711-4v0.054c-3.793,0-6.868,3.076-6.868,6.87c0,3.784,3.06,6.85,6.841,6.866V9.8h0.402V26h2.147V-0.136h3.864V26h2.147  V-0.136h3.757V-4H-23.711z"></path><path d="M8.193,0v0.036c-2.529,0-4.579,2.05-4.579,4.58c0,2.522,2.04,4.567,4.561,4.578V9.2h0.269V20h1.432V2.576h2.576V20h1.431  V2.576h2.505V0H8.193z"></path></svg>