<svg height='100px' width='100px'  fill="#848484" xmlns="http://www.w3.org/2000/svg" viewBox="0 0 24 14" x="0px" y="0px"><path fill="#000000" d="M451.898983,86 L459,86 C461.761424,86 464,88.2385763 464,91 C464,93.7614237 461.761424,96 459,96 L451.898983,96 C450.636446,97.237187 448.907305,98 447,98 C443.134007,98 440,94.8659932 440,91 C440,87.1340068 443.134007,84 447,84 C448.907305,84 450.636446,84.762813 451.898983,86 Z M453.326292,88 C453.764784,88.9235464 454,89.9439592 454,91 C454,92.0560408 453.764784,93.0764536 453.326292,94 L459,94 C460.656854,94 462,92.6568542 462,91 C462,89.3431458 460.656854,88 459,88 L453.326292,88 Z M447,96 C449.761424,96 452,93.7614237 452,91 C452,88.2385763 449.761424,86 447,86 C444.238576,86 442,88.2385763 442,91 C442,93.7614237 444.238576,96 447,96 Z" transform="translate(-440 -84)"></path></svg>