<svg xmlns="http://www.w3.org/2000/svg" viewBox="0 0 420 420" fill="#808080" >
<path 
d="M213.18485,253.83145H50.52475a6.76387,6.76387,0,0,1-6.76414-6.76414V84.40674a6.76387,6.76387,0,0,1,6.76414-6.76414h162.6601a6.76387,6.76387,0,0,1,6.76414,6.76414V247.06732A6.76387,6.76387,0,0,1,213.18485,253.83145Zm-155.896-13.52827H206.42072V91.17088H57.28888v149.1323Z" transform="translate(-43.76061 -43.95475)"></path>
<path d="M213.18485,467.45283H50.52475a6.76387,6.76387,0,0,1-6.76414-6.76414V298.0267a6.76387,6.76387,0,0,1,6.76414-6.76414h162.6601a6.76387,6.76387,0,0,1,6.76414,6.76414v162.662A6.76387,6.76387,0,0,1,213.18485,467.45283Zm-155.896-13.52827H206.42072V304.79084H57.28888V453.92455Z" transform="translate(-43.76061 -43.95475)"></path>
<path d="M427.7848,467.45283H265.12469a6.76387,6.76387,0,0,1-6.76414-6.76414V298.0267a6.76387,6.76387,0,0,1,6.76414-6.76414H427.7848a6.76387,6.76387,0,0,1,6.76414,6.76414v162.662A6.76387,6.76387,0,0,1,427.7848,467.45283Zm-155.896-13.52827H421.02066V304.79084H271.88883V453.92455Z" transform="translate(-43.76061 -43.95475)"></path><path d="M346.45522,287.52143a6.76282,6.76282,0,0,1-4.78293-1.98121L226.65367,170.51972a6.76366,6.76366,0,0,1,0-9.56585L341.67229,45.93572a6.76452,6.76452,0,0,1,9.56585,0l115.02,115.01815a6.76395,6.76395,0,0,1,0,9.56585l-115.02,115.02051A6.76282,6.76282,0,0,1,346.45522,287.52143ZM241.00245,165.73679L346.45522,271.19144,451.9094,165.73679,346.45522,60.2845Z" transform="translate(-43.76061 -43.95475)"></path></svg>