<?xml version="1.0" encoding="UTF-8"?>
<svg width="100px" height="100px" fill="#808080" version="1.1" viewBox="0 0 100 100" xmlns="http://www.w3.org/2000/svg">
 <path d="m50.445 20.688c-7.6172 0-13.844 6.2656-13.844 13.895 0 7.6328 6.2227 13.879 13.844 13.879 7.6172 0 13.836-6.2461 13.836-13.879 0-7.6328-6.2188-13.895-13.836-13.895zm0 5c4.9062 0 8.8359 3.957 8.8359 8.8945 0 4.9414-3.9297 8.8789-8.8359 8.8789s-8.8438-3.9375-8.8438-8.8789c0-4.9414 3.9375-8.8945 8.8438-8.8945zm-26.723 9.1367c-5.8008 0-10.555 4.7695-10.555 10.574 0 5.8047 4.7539 10.57 10.555 10.57 5.8008 0 10.559-4.7656 10.559-10.57 0-5.8047-4.7539-10.574-10.559-10.574zm52.934 0.019531c-5.6797 0.14453-10.289 4.8398-10.289 10.555 0 5.8047 4.7539 10.57 10.555 10.57s10.559-4.7656 10.559-10.57c0-5.8047-4.7539-10.555-10.559-10.555-0.089844 0-0.17969-0.003906-0.26953 0zm-52.934 4.9805c3.0938 0 5.5508 2.4648 5.5508 5.5781 0 3.1094-2.457 5.5703-5.5508 5.5703s-5.5586-2.4609-5.5547-5.5703c0-3.1094 2.4609-5.5781 5.5547-5.5781zm53.203 0c3.0938 0 5.5586 2.4648 5.5586 5.5781 0 3.1094-2.4609 5.5703-5.5586 5.5703-3.0938 0-5.5547-2.4609-5.5547-5.5703s2.4609-5.5781 5.5547-5.5781zm-26.922 10.629c-7.4297 0-13.973 3.8047-17.801 9.5742-2.5273-1.668-5.5547-2.6367-8.793-2.6367h-0.003906c-8.7695 0-15.902 7.1484-15.902 15.93v3.5039h-0.003906c0.003906 0.66406 0.26953 1.2969 0.73828 1.7656 0.47266 0.46484 1.1094 0.72656 1.7734 0.72266 1.3711-0.003906 2.4844-1.1172 2.4883-2.4883v-3.5039c0-6.1016 4.8242-10.922 10.902-10.922 2.4609 0 4.707 0.78516 6.5195 2.1328-0.83594 2.293-1.293 4.7656-1.293 7.3477v4.9453c0 0.66406 0.26562 1.2969 0.73828 1.7656 0.46875 0.46484 1.1094 0.72656 1.7695 0.72266 1.375-0.003906 2.4844-1.1172 2.4922-2.4883v-4.9453c0-2.4258 0.50781-4.7188 1.4258-6.7773 0.003906-0.007812 0.007812-0.011718 0.007812-0.019531 0.082031-0.13281 0.14844-0.27344 0.19922-0.41797 0.003906-0.003906 0.003906-0.007812 0.007812-0.011718 2.6406-5.4727 8.2148-9.1992 14.73-9.1992 6.5781 0 12.188 3.793 14.801 9.3477v-0.003906c0.03125 0.074219 0.0625 0.14844 0.10156 0.21875 0.94141 2.082 1.4648 4.4023 1.4648 6.8594v4.9492c0.003906 0.66406 0.26953 1.2969 0.73828 1.7656 0.47266 0.46484 1.1094 0.72656 1.7695 0.72266 1.375-0.003906 2.4883-1.1172 2.4922-2.4883v-4.9453c0-2.5781-0.44922-5.0508-1.2852-7.3398 1.8125-1.3555 4.0625-2.1484 6.5273-2.1484 6.0781 0 10.906 4.8242 10.906 10.93v3.5039h0.003906c0.003907 1.3711 1.1172 2.4844 2.4883 2.4883 1.375-0.003906 2.4883-1.1172 2.4922-2.4883v-3.5039c0-8.7812-7.1172-15.926-15.891-15.93-3.2461 0-6.2812 0.96875-8.8047 2.6406-3.8281-5.7734-10.375-9.582-17.809-9.582z" fill-rule="evenodd"/>
</svg>
