<?xml version="1.0" encoding="UTF-8"?>
<svg width="100px" height="100px" fill="#808080" version="1.1" viewBox="0 0 100 100" xmlns="http://www.w3.org/2000/svg">
 <path d="m18.137 76.371c0.73047-1.1641 2.2695-1.5156 3.4375-0.78125 1.1641 0.73047 1.5156 2.2695 0.78125 3.4375l-3.2539 5.1406c-0.73047 1.1641-2.2695 1.5156-3.4375 0.78125-1.1641-0.73047-1.5156-2.2695-0.78125-3.4375zm79.227-68.027v68.484c0 0.75-0.32812 1.4219-0.85156 1.8828l-14.32 14.59c-0.46094 0.54688-1.1445 0.89453-1.918 0.89453h-75.129c-1.3789 0-2.5-1.1172-2.5-2.5v-68.523c0-0.76562 0.34375-1.4492 0.88281-1.9062l14.727-14.723c0.48438-0.48438 1.1211-0.72266 1.7578-0.72656l74.855-0.007812c1.3789 0 2.5 1.1172 2.5 2.5v0.035156zm-5 67.473v-15.723l-9.5898 9.7695v15.723zm0-22.84v-15.723l-9.5898 9.7695v15.723zm0-22.84v-15.723l-9.5898 9.7695v15.723zm-13.129-9.4688 9.6797-9.8594h-67.883l-9.8633 9.8594zm-71.59 68.523h70.129v-17.84h-70.129zm0-40.68v17.84h70.129v-17.84zm0-5h70.129v-17.84h-70.129zm48.113-15.137h12.668c1.3789 0 2.5 1.1172 2.5 2.5v7.4297c0 1.3789-1.1172 2.5-2.5 2.5h-12.668c-1.3789 0-2.5-1.1172-2.5-2.5v-7.4297c0-1.3789 1.1172-2.5 2.5-2.5zm10.168 5h-7.6641v2.4297h7.6641zm-47.785-2.6836c0.73047-1.1641 2.2695-1.5156 3.4375-0.78125 1.1641 0.73047 1.5156 2.2695 0.78125 3.4375l-3.2539 5.1406c-0.73047 1.1641-2.2695 1.5156-3.4375 0.78125-1.1641-0.73047-1.5156-2.2695-0.78125-3.4375zm18.359 0c0.73047-1.1641 2.2695-1.5156 3.4375-0.78125 1.1641 0.73047 1.5156 2.2695 0.78125 3.4375l-3.2539 5.1406c-0.73047 1.1641-2.2695 1.5156-3.4375 0.78125-1.1641-0.73047-1.5156-2.2695-0.78125-3.4375zm-9.1797 0c0.73047-1.1641 2.2695-1.5156 3.4375-0.78125 1.1641 0.73047 1.5156 2.2695 0.78125 3.4375l-3.2539 5.1406c-0.73047 1.1641-2.2695 1.5156-3.4375 0.78125-1.1641-0.73047-1.5156-2.2695-0.78125-3.4375zm28.441 20.523h12.668c1.3789 0 2.5 1.1172 2.5 2.5v7.4297c0 1.3789-1.1172 2.5-2.5 2.5h-12.668c-1.3789 0-2.5-1.1172-2.5-2.5v-7.4297c0-1.3789 1.1172-2.5 2.5-2.5zm10.168 5h-7.6641v2.4297h7.6641zm-47.785-2.6836c0.73047-1.1641 2.2695-1.5156 3.4375-0.78125 1.1641 0.73047 1.5156 2.2695 0.78125 3.4375l-3.2539 5.1406c-0.73047 1.1641-2.2695 1.5156-3.4375 0.78125-1.1641-0.73047-1.5156-2.2695-0.78125-3.4375zm18.359 0c0.73047-1.1641 2.2695-1.5156 3.4375-0.78125 1.1641 0.73047 1.5156 2.2695 0.78125 3.4375l-3.2539 5.1406c-0.73047 1.1641-2.2695 1.5156-3.4375 0.78125-1.1641-0.73047-1.5156-2.2695-0.78125-3.4375zm-9.1797 0c0.73047-1.1641 2.2695-1.5156 3.4375-0.78125 1.1641 0.73047 1.5156 2.2695 0.78125 3.4375l-3.2539 5.1406c-0.73047 1.1641-2.2695 1.5156-3.4375 0.78125-1.1641-0.73047-1.5156-2.2695-0.78125-3.4375zm28.441 20.523h12.668c1.3789 0 2.5 1.1172 2.5 2.5v7.4297c0 1.3789-1.1172 2.5-2.5 2.5h-12.668c-1.3789 0-2.5-1.1172-2.5-2.5v-7.4297c0-1.3789 1.1172-2.5 2.5-2.5zm10.168 5h-7.6641v2.4297h7.6641zm-29.426-2.6836c0.73047-1.1641 2.2695-1.5156 3.4375-0.78125 1.1641 0.73047 1.5156 2.2695 0.78125 3.4375l-3.2539 5.1406c-0.73047 1.1641-2.2695 1.5156-3.4375 0.78125-1.1641-0.73047-1.5156-2.2695-0.78125-3.4375zm-9.1797 0c0.73047-1.1641 2.2695-1.5156 3.4375-0.78125 1.1641 0.73047 1.5156 2.2695 0.78125 3.4375l-3.2539 5.1406c-0.73047 1.1641-2.2695 1.5156-3.4375 0.78125-1.1641-0.73047-1.5156-2.2695-0.78125-3.4375z"/>
</svg>
