<?xml version="1.0" encoding="UTF-8"?>
<svg width="100px" height="100px" fill="#808080" version="1.1" viewBox="0 0 100 100" xmlns="http://www.w3.org/2000/svg">
 <path d="m100 46.559c0-12.633-10.105-22.957-22.664-23.293-5.3984-11.203-16.715-18.352-29.242-18.352-15.473 0-28.863 11.105-31.852 26.117-9.2422 1.5781-16.242 9.7148-16.242 19.273 0 10.789 8.7773 19.559 19.559 19.559h2.9805c1.1914 14.105 13.051 25.23 27.465 25.23 14.422 0 26.285-11.125 27.465-25.254 12.488-0.41016 22.531-10.691 22.531-23.281zm-50 43.84c-12.621 0-22.883-10.262-22.883-22.883s10.262-22.883 22.883-22.883 22.883 10.262 22.883 22.883-10.262 22.883-22.883 22.883zm27.465-25.262c-1.2109-14.094-13.066-25.188-27.465-25.188-14.41 0-26.273 11.117-27.465 25.23h-2.9805c-8.1992 0-14.875-6.6719-14.875-14.875 0-7.7383 6.043-14.254 13.746-14.832 1.0938-0.085937 1.9883-0.91406 2.1484-2.0117 1.9297-13.598 13.754-23.859 27.52-23.859 11.168 0 21.211 6.6406 25.59 16.926 0.37891 0.89453 1.2617 1.4648 2.2539 1.4219 0.25391-0.011719 0.50391-0.019531 0.75781-0.019531 10.262 0 18.621 8.3594 18.621 18.621 0 10.008-7.9492 18.176-17.852 18.586zm-15.148 3.5898c0.91406 0.91406 0.91406 2.3984 0 3.3164l-10.664 10.652c-0.44141 0.44141-1.0312 0.68359-1.6523 0.68359s-1.2227-0.24219-1.6523-0.68359l-10.664-10.652c-0.91406-0.91406-0.91406-2.3984 0-3.3164 0.91406-0.91406 2.3984-0.91406 3.3164 0l6.6406 6.6328 0.03125-21.367c0-1.293 1.0508-2.3359 2.3477-2.3359 1.293 0 2.3359 1.0508 2.3359 2.3477l-0.03125 21.391 6.6719-6.6719c0.91797-0.91406 2.4023-0.91406 3.3203 0.003906z"/>
</svg>
