<svg xmlns="http://www.w3.org/2000/svg" viewBox="0 0 53.76 95.87"><defs><style>.cls-1{fill:#848484;}</style></defs><g id="Calque_2" data-name="Calque 2"><g id="Calque_1-2" data-name="Calque 1"><path class="cls-1" d="M52,85.88l-4.2-4.2-10-10L25.64,59.49,15.14,49c-1.7-1.7-3.38-3.43-5.11-5.11L10,43.81V52.1l4.2-4.2,10.05-10q6.08-6.09,12.15-12.15l10.5-10.5c1.7-1.7,3.41-3.39,5.1-5.11L52,10a6,6,0,0,0,1.72-4.14A5.92,5.92,0,0,0,52,1.75,5.85,5.85,0,0,0,47.89,0a6.12,6.12,0,0,0-4.14,1.72l-4.2,4.2L29.5,16,17.35,28.12,6.86,38.62c-1.7,1.7-3.42,3.39-5.11,5.1l-.07.07a5.94,5.94,0,0,0,0,8.29l4.2,4.2,10.05,10L28.08,78.48,38.58,89c1.69,1.7,3.38,3.42,5.1,5.11l.07.06a6,6,0,0,0,4.14,1.72A5.87,5.87,0,0,0,53.75,90,6.07,6.07,0,0,0,52,85.88Z"/></g></g></svg>