<svg xmlns="http://www.w3.org/2000/svg" viewBox="0 0 98.68 66.24"><defs><style>.cls-1{fill:#848484;}</style></defs><g id="Calque_2" data-name="Calque 2"><g id="Calque_1-2" data-name="Calque 1"><path class="cls-1" d="M64.58,7.09V53c0,2,0,4.1,0,6.15,0,.17,0,.34,0,.5,0-.29.07-.58.12-.88a4.81,4.81,0,0,1-.26,1l.33-.79a3.81,3.81,0,0,1-.29.57c-.3.53.18-.3.23-.26a2.73,2.73,0,0,1-.24.26l-.21.19c-.26.27.7-.46.27-.22a5.41,5.41,0,0,1-.63.33l.8-.33a4.23,4.23,0,0,1-1,.25l.88-.12a17.39,17.39,0,0,1-1.91,0H7.15l-.52,0c.29,0,.58.08.88.12a4.23,4.23,0,0,1-1-.25l.79.33a5.12,5.12,0,0,1-.57-.3c-.53-.29.3.19.26.24a2,2,0,0,1-.26-.25,1.9,1.9,0,0,1-.19-.21c-.27-.25.46.71.22.28a5.41,5.41,0,0,1-.33-.63l.33.79a4,4,0,0,1-.25-1c0,.3.07.59.12.88a17,17,0,0,1,0-1.75V13.37c0-2.08,0-4.15,0-6.23,0-.17,0-.34,0-.5,0,.29-.08.58-.12.88a4.36,4.36,0,0,1,.25-1l-.33.79a5.12,5.12,0,0,1,.3-.57c.29-.53-.19.3-.24.26a2,2,0,0,1,.25-.26c.06-.07.14-.12.21-.19.25-.27-.71.46-.28.22a5.41,5.41,0,0,1,.63-.33l-.79.33a4,4,0,0,1,1-.25c-.3,0-.59.07-.88.12a17.18,17.18,0,0,1,1.9,0H57.2c2.28,0,4.56,0,6.84,0l.53,0-.88-.12a4.36,4.36,0,0,1,1,.25l-.8-.33a6.36,6.36,0,0,1,.58.3c.53.29-.31-.19-.27-.24s.24.23.27.25l.18.21c.27.25-.46-.71-.22-.28a4.21,4.21,0,0,1,.33.63l-.33-.79a4.81,4.81,0,0,1,.26,1c-.05-.3-.08-.59-.12-.88,0,.14,0,.29,0,.45a3.3,3.3,0,0,0,6.6,0A7.21,7.21,0,0,0,66,.26,8.24,8.24,0,0,0,63.85,0h-56A7.58,7.58,0,0,0,1.93,2.22,7.34,7.34,0,0,0,0,7.15v51.6c0,.2,0,.42,0,.63A7.2,7.2,0,0,0,5.32,66a13.16,13.16,0,0,0,3.07.22H62c.69,0,1.38,0,2.07,0a7.19,7.19,0,0,0,7.13-7.18c0-2.53,0-5.06,0-7.59V7.09a3.3,3.3,0,0,0-6.6,0Z"/><path class="cls-1" d="M92.06,7.46v45c0,2.08-.06,4.16,0,6.23v.09l5-2.85-9.3-5-14.8-7.91-3.37-1.8c.55.94,1.09,1.9,1.64,2.85v-22c-.55.95-1.09,1.91-1.64,2.85l9.3-5,14.8-7.91L97,10.3a3.33,3.33,0,0,0,1.19-4.51A3.37,3.37,0,0,0,93.7,4.6l-9.3,5q-7.4,4-14.8,7.92l-3.37,1.8a3.31,3.31,0,0,0-1.64,2.85v22A3.28,3.28,0,0,0,66.23,47l9.3,5,14.8,7.91,3.37,1.81a3.33,3.33,0,0,0,5-2.85v-45c0-2.08,0-4.16,0-6.23V7.46a3.3,3.3,0,1,0-6.6,0Z"/></g></g></svg>