<svg xmlns="http://www.w3.org/2000/svg" viewBox="0 0 97.06 97.06"><defs><style>.cls-1{fill:#848484;}</style></defs><g id="Calque_2" data-name="Calque 2"><g id="Calque_1-2" data-name="Calque 1"><path class="cls-1" d="M72.29,6.53H93.8L90.54,3.26V24.78a3.26,3.26,0,0,0,6.52,0V3.26A3.31,3.31,0,0,0,93.8,0H72.29A3.31,3.31,0,0,0,69,3.26a3.32,3.32,0,0,0,3.27,3.27Z"/><path class="cls-1" d="M72.29,97.06H93.8a3.31,3.31,0,0,0,3.26-3.26V72.29a3.26,3.26,0,1,0-6.52,0V93.8l3.26-3.26H72.29a3.26,3.26,0,1,0,0,6.52Z"/><path class="cls-1" d="M24.78,0H3.26A3.31,3.31,0,0,0,0,3.26V24.78A3.3,3.3,0,0,0,3.26,28a3.32,3.32,0,0,0,3.27-3.26V3.26L3.26,6.53H24.78A3.31,3.31,0,0,0,28,3.26,3.32,3.32,0,0,0,24.78,0Z"/><path class="cls-1" d="M24.78,90.54H3.26L6.53,93.8V72.29A3.32,3.32,0,0,0,3.26,69,3.32,3.32,0,0,0,0,72.29V93.8a3.31,3.31,0,0,0,3.26,3.26H24.78a3.26,3.26,0,0,0,0-6.52Z"/><path class="cls-1" d="M1,5.57,9,13.64,21.88,26.5l2.93,2.92a3.26,3.26,0,1,0,4.61-4.61l-8.07-8.07L8.49,3.88,5.57,1A3.29,3.29,0,0,0,1,1,3.3,3.3,0,0,0,1,5.57Z"/><path class="cls-1" d="M67.63,72.25l8.07,8.07L88.56,93.18l2.92,2.93a3.26,3.26,0,0,0,4.61-4.62L88,83.42,75.17,70.57l-2.93-2.93a3.26,3.26,0,0,0-4.61,4.61Z"/><path class="cls-1" d="M91.49,1,83.42,9Q77,15.45,70.57,21.88l-2.93,2.93a3.26,3.26,0,1,0,4.61,4.61l8.07-8.07q6.44-6.42,12.86-12.86l2.93-2.92a3.31,3.31,0,0,0,0-4.61,3.31,3.31,0,0,0-4.62,0Z"/><path class="cls-1" d="M24.81,67.63,16.74,75.7,3.88,88.56,1,91.48a3.29,3.29,0,0,0,0,4.61,3.3,3.3,0,0,0,4.61,0L13.64,88,26.5,75.17l2.92-2.93a3.26,3.26,0,0,0-4.61-4.61Z"/></g></g></svg>