<svg xmlns="http://www.w3.org/2000/svg" viewBox="0 0 99.21 85.55"><defs><style>.cls-1{fill:#848484;}</style></defs><g id="Calque_2" data-name="Calque 2"><g id="Calque_1-2" data-name="Calque 1"><path class="cls-1" d="M36.15,29.58l8,5.43L56.9,43.65l2.9,2V40l-6.95,4.71-12,8.16-3.93,2.66-.72.49a3.54,3.54,0,0,0-1.63,2.87V70.92c0,3.7,0,7.41,0,11.12v.2c0,2.35,2.82,4.24,4.92,2.82l5.8-3.94q6.95-4.73,13.92-9.44L76,60.29q7.25-4.92,14.51-9.84c2.35-1.59,4.72-3.17,7.07-4.78l.09-.07a3.31,3.31,0,0,0,0-5.65L91.83,36q-6.94-4.72-13.92-9.44L61.13,15.18q-7.25-4.92-14.51-9.84C44.27,3.75,42,2.08,39.55.55L39.46.49c-2.1-1.42-4.92.47-4.92,2.82V26.73a3.27,3.27,0,1,0,6.54,0V3.31L36.16,6.14,42,10.08q7,4.72,13.92,9.44L72.67,30.91q7.24,4.92,14.5,9.84c2.36,1.59,4.68,3.25,7.07,4.79l.1.06V40l-5.8,3.94L74.62,53.33,57.83,64.72l-14.5,9.84c-2.36,1.59-4.76,3.14-7.07,4.79l-.1.06,4.92,2.83V58.82l-1.62,2.82,8-5.43L60.2,47.57l2.9-2a3.31,3.31,0,0,0,0-5.65l-8-5.43L42.36,25.89l-2.9-2A3.29,3.29,0,0,0,35,25.11,3.34,3.34,0,0,0,36.15,29.58Z"/><path class="cls-1" d="M0,3.34V79c0,1,0,2,0,3.08v.13c0,2.35,2.83,4.24,4.92,2.82l8.77-5.94L30.13,68l9.31-6.32,10.45-7.08,13-8.82.23-.16a3.31,3.31,0,0,0,0-5.65L52,32.37,39.56,24l-7.65-5.19L15.59,7.7C12.1,5.33,8.63,2.91,5.1.59L4.93.48A3.28,3.28,0,0,0,.46,1.66,3.35,3.35,0,0,0,1.64,6.13l8.77,5.94L26.85,23.22l9.31,6.31,10.45,7.09,13,8.82.23.16V40L48.68,47.51l-12.4,8.41-7.66,5.19L12.31,72.18c-3.49,2.37-7,4.69-10.49,7.11l-.17.11,4.92,2.83V6.54c0-1,0-2,0-3.07V3.34A3.31,3.31,0,0,0,3.3.06,3.34,3.34,0,0,0,0,3.34Z"/></g></g></svg>