<svg xmlns="http://www.w3.org/2000/svg" viewBox="0 0 96.46 96.5"><defs><style>.cls-1{fill:#848484;}</style></defs><g id="Calque_2" data-name="Calque 2"><g id="Calque_1-2" data-name="Calque 1"><path class="cls-1" d="M89.67,50V73.49a34.9,34.9,0,0,1-.16,4.69c0-.3.08-.59.13-.9a18,18,0,0,1-1.2,4.38l.34-.81a18.71,18.71,0,0,1-1.54,2.86c-.15.23-.31.44-.47.67-.35.48.22-.22.22-.27s-.25.3-.29.34c-.35.41-.71.81-1.09,1.19a15.64,15.64,0,0,1-1.2,1.1l-.28.23c-.3.25.7-.52.27-.21-.23.17-.47.35-.72.51a16.83,16.83,0,0,1-2.87,1.54l.82-.34a17.45,17.45,0,0,1-4.38,1.2l.9-.12A57.49,57.49,0,0,1,71,89.7H26.78c-2.05,0-4.11,0-6.15,0a18.42,18.42,0,0,1-2.35-.15l.91.12a17.45,17.45,0,0,1-4.38-1.2l.81.34a19.3,19.3,0,0,1-2.87-1.54l-.66-.47c-.49-.35.21.22.27.22s-.3-.25-.34-.28a15.5,15.5,0,0,1-1.19-1.1c-.39-.38-.75-.78-1.1-1.19l-.24-.29c-.24-.3.52.7.22.27-.17-.23-.35-.47-.51-.72a17.17,17.17,0,0,1-1.55-2.86l.34.81A17.87,17.87,0,0,1,6.8,77.28c0,.31.08.6.12.9A57.29,57.29,0,0,1,6.76,71V26.81c0-2,0-4.11,0-6.15a18.15,18.15,0,0,1,.16-2.34l-.12.9A18,18,0,0,1,8,14.84l-.34.81A17.93,17.93,0,0,1,9.2,12.79c.15-.23.31-.44.46-.67.35-.48-.21.22-.21.27s.25-.3.28-.34c.35-.41.71-.81,1.1-1.19A15.5,15.5,0,0,1,12,9.76l.28-.23c.31-.25-.7.51-.27.21l.72-.51a17.62,17.62,0,0,1,2.87-1.54L14.81,8a17.75,17.75,0,0,1,4.38-1.19L18.28,7A31.53,31.53,0,0,1,22.4,6.8H46.49a3.43,3.43,0,0,0,3.39-3.39A3.44,3.44,0,0,0,46.49,0H20.73a21.16,21.16,0,0,0-9.4,2.22A20.77,20.77,0,0,0,0,20.66c0,1.58,0,3.16,0,4.75V75.86A20.62,20.62,0,0,0,20.65,96.5c1.75,0,3.5,0,5.25,0H74.64c.5,0,1,0,1.5,0a20.51,20.51,0,0,0,10.91-3.33,21,21,0,0,0,9.41-17.46V50a3.4,3.4,0,0,0-6.79,0Z"/><path class="cls-1" d="M68,6.77h25a3.41,3.41,0,0,0,3.38-3.38A3.44,3.44,0,0,0,93.06,0H68a3.43,3.43,0,0,0-3.39,3.39A3.44,3.44,0,0,0,68,6.77Z"/><path class="cls-1" d="M96.44,28.44v-25a3.39,3.39,0,1,0-6.77,0V28.44a3.39,3.39,0,0,0,6.77,0Z"/><path class="cls-1" d="M50.69,50.54l4.48-4.48L65.84,35.39,78.75,22.48,89.94,11.29c1.81-1.81,3.66-3.59,5.43-5.43l.08-.08a3.43,3.43,0,0,0,0-4.78,3.42,3.42,0,0,0-4.78,0L86.19,5.47,75.51,16.15,62.6,29.06,51.41,40.25c-1.8,1.8-3.65,3.59-5.43,5.43l-.08.08a3.38,3.38,0,0,0,4.79,4.78Z"/></g></g></svg>