<svg xmlns="http://www.w3.org/2000/svg" viewBox="0 0 79.12 99.21"><defs><style>.cls-1{fill:none;}.cls-2{fill:#848484;}</style></defs><g id="Calque_2" data-name="Calque 2"><g id="Calque_1-2" data-name="Calque 1"><path class="cls-1" d="M28.7,60.54c-.57-.36-1.13-.75-1.67-1.14l-.32-.24c-.51-.38-1-.77-1.5-1.18a.08.08,0,0,1,0,0l-.43.67,7.4,4.69.42-.66-.82-.41c-.36-.18-.72-.35-1.08-.54C30,61.32,29.34,60.94,28.7,60.54Z"/><path class="cls-1" d="M29.8,65.64l-6.18-3.92a3.11,3.11,0,0,0-4.29,1L3.71,87.29a3.11,3.11,0,0,0,1,4.29l6.18,3.92h0a3.12,3.12,0,0,0,4.29-1L30.76,69.93a3.11,3.11,0,0,0-1-4.29Z"/><path class="cls-1" d="M59.4,12.18A24.47,24.47,0,1,0,70.16,27.5,24.34,24.34,0,0,0,59.4,12.18Z"/><path class="cls-1" d="M62.15,7.85a29.37,29.37,0,0,0-15.8-4.62A30,30,0,0,0,39.84,4a29.6,29.6,0,0,0-14,50.32l.05,0A29.74,29.74,0,0,0,29.25,57c.39.28.78.54,1.18.8s.83.51,1.25.74.63.35,1,.51l.3.17,1.13.54.17.07,1.09.46A29.59,29.59,0,0,0,62.15,7.85Zm7.52,39.82A27.52,27.52,0,0,1,52.33,59.85a28.14,28.14,0,0,1-6.09.68A27.69,27.69,0,1,1,69.67,47.67Z"/><path class="cls-2" d="M78.32,25.67a32.82,32.82,0,1,0-55.56,30l-1.48,2.34A6.32,6.32,0,0,0,16.61,61L1,85.56a6.34,6.34,0,0,0,2,8.74l6.18,3.93h0a6.26,6.26,0,0,0,3.37,1,6.76,6.76,0,0,0,1.41-.15,6.27,6.27,0,0,0,4-2.79L33.49,71.66a6.32,6.32,0,0,0,.83-4.78c-.06-.22-.15-.43-.22-.65l1.51-2.38A32.81,32.81,0,0,0,78.32,25.67ZM30.76,69.93,15.14,94.55a3.12,3.12,0,0,1-4.29,1h0L4.67,91.58a3.11,3.11,0,0,1-1-4.29L19.33,62.68a3.11,3.11,0,0,1,4.29-1l6.18,3.92a3.11,3.11,0,0,1,1,4.29Zm1.8-7.29-.42.66-7.4-4.69.43-.67a.08.08,0,0,0,0,0c.49.41,1,.8,1.5,1.18l.32.24c.54.39,1.1.78,1.67,1.14s1.29.78,2,1.15c.36.19.72.36,1.08.54Zm38.72-14a29.65,29.65,0,0,1-36,11.62l-1.09-.46-.17-.08-1.13-.53-.3-.17c-.32-.16-.64-.33-1-.51s-.84-.48-1.25-.74-.79-.52-1.18-.8a28.75,28.75,0,0,1-3.32-2.72l-.05,0A29.59,29.59,0,0,1,39.84,4a30,30,0,0,1,6.51-.72A29.61,29.61,0,0,1,71.28,48.69Z"/><path class="cls-2" d="M61.13,9.46A27.69,27.69,0,1,0,46.24,60.53a28.14,28.14,0,0,0,6.09-.68,27.68,27.68,0,0,0,8.8-50.39Zm5.81,36.48A24.47,24.47,0,1,1,70.16,27.5,24.26,24.26,0,0,1,66.94,45.94Z"/></g></g></svg>