<svg xmlns="http://www.w3.org/2000/svg" viewBox="0 0 97.86 97.86"><defs><style>.cls-1{fill:#848484;}</style></defs><g id="Calque_2" data-name="Calque 2"><g id="Calque_1-2" data-name="Calque 1"><path class="cls-1" d="M92.23,24.05H70.53l3.29,3.29V5.64a3.29,3.29,0,1,0-6.58,0v21.7a3.33,3.33,0,0,0,3.29,3.29h21.7a3.29,3.29,0,0,0,0-6.58Z"/><path class="cls-1" d="M92.23,67.23H70.53a3.33,3.33,0,0,0-3.29,3.29v21.7a3.29,3.29,0,1,0,6.58,0V70.52l-3.29,3.29h21.7a3.29,3.29,0,0,0,0-6.58Z"/><path class="cls-1" d="M5.63,30.63h21.7a3.33,3.33,0,0,0,3.29-3.29V5.64a3.29,3.29,0,0,0-6.58,0v21.7l3.29-3.29H5.63a3.33,3.33,0,0,0-3.29,3.29,3.36,3.36,0,0,0,3.29,3.29Z"/><path class="cls-1" d="M5.63,73.81h21.7L24,70.52v21.7a3.29,3.29,0,0,0,6.58,0V70.52a3.33,3.33,0,0,0-3.29-3.29H5.63a3.29,3.29,0,1,0,0,6.58Z"/><path class="cls-1" d="M29.67,25l-8.14-8.14-13-13L5.61,1A3.32,3.32,0,0,0,1,1,3.33,3.33,0,0,0,1,5.6L9.1,13.74l13,13,3,2.95A3.29,3.29,0,1,0,29.67,25Z"/><path class="cls-1" d="M96.91,92.26l-8.14-8.14-13-13-3-3a3.29,3.29,0,0,0-4.65,4.65L76.34,81l13,13,3,3a3.29,3.29,0,1,0,4.65-4.65Z"/><path class="cls-1" d="M72.85,29.67,81,21.53l13-13,3-2.95a3.32,3.32,0,0,0,0-4.65,3.33,3.33,0,0,0-4.65,0L84.12,9.1q-6.5,6.47-13,13L68.2,25a3.3,3.3,0,0,0,4.65,4.67Z"/><path class="cls-1" d="M5.6,96.91l8.14-8.14,13-13,2.95-3A3.29,3.29,0,0,0,25,68.2l-8.14,8.14-13,13L1,92.26a3.32,3.32,0,0,0,0,4.65,3.33,3.33,0,0,0,4.65,0Z"/></g></g></svg>