<svg xmlns="http://www.w3.org/2000/svg" viewBox="0 0 75.36 97.84"><defs><style>.cls-1{fill:#848484;}</style></defs><g id="Calque_2" data-name="Calque 2"><g id="Calque_1-2" data-name="Calque 1"><path class="cls-1" d="M23,94.49H4.66c-.46,0-.93,0-1.39,0h0c.45,0-.05.05,0,0l.13.07q-.21-.14-.06,0l0,0c-.13-.14-.13-.14,0,0l0-.07c-.06-.1,0-.08,0,.07s0-.28,0,0V4.89c0-.51.05-1.06,0-1.56v-.1h0s0,0,0,.08,0,0,0,.08c.05-.19,0-.19,0,0l0-.06c.06-.1,0-.09-.06.05l.1-.1s-.08.06-.11.09l.12-.06c-.15.06-.18.07-.05,0s-.11,0-.08,0c.36,0,.76,0,1.13,0h6.44c4.06,0,8.11,0,12.16,0h0l-.15,0,.15,0c-.16-.08-.18-.09-.07,0s-.08-.13,0,0l0,0c-.11-.15-.12-.15,0,0l0-.06c-.05-.11-.05-.09,0,.08,0,0,0-.2,0-.15v.08a2.17,2.17,0,0,0,0,.51V94a3.13,3.13,0,0,0,0,.53v.1c0,.09.06-.3,0-.07,0,0,0,0,0,.07.09-.18.09-.18,0,0l.05-.06c.08-.09.05-.08-.06,0l.11-.09-.12.06a.6.6,0,0,0,.16-.05h0a1.66,1.66,0,1,0,0,3.32,3.29,3.29,0,0,0,3.21-3.25V3.26A3.29,3.29,0,0,0,23,0c-1.4,0-2.81,0-4.22,0H4.22a12.59,12.59,0,0,0-1.37,0A3.28,3.28,0,0,0,0,3.29c0,.46,0,.93,0,1.39v88.7c0,.41,0,.81,0,1.22a3.28,3.28,0,0,0,3.24,3.23c.44,0,.9,0,1.34,0H23a1.67,1.67,0,0,0,0-3.34Z"/><path class="cls-1" d="M72.15,94.49H53.81c-.46,0-.93,0-1.39,0h0c.45,0,0,.05,0,0l.13.07q-.21-.14-.06,0l0,0c-.13-.14-.13-.14,0,0l0-.07c-.06-.1,0-.08,0,.07s0-.28,0,0V4.89c0-.51,0-1.06,0-1.56v-.1h0s0,0,0,.08,0,0,0,.08c.05-.19,0-.19,0,0l0-.06c.06-.1,0-.09-.06.05l.1-.1s-.08.06-.11.09l.12-.06c-.15.06-.17.07-.05,0s-.11,0-.08,0c.36,0,.76,0,1.13,0H60c4.06,0,8.11,0,12.17,0h0L72,3.3l.15,0c-.16-.08-.18-.09-.07,0s-.08-.13,0,0l0,0c-.12-.15-.13-.15,0,0l0-.06c0-.11,0-.09,0,.08,0,0,0-.2,0-.15v.08a2.17,2.17,0,0,0,0,.51V94a3.13,3.13,0,0,0,0,.53v.1c0,.09.06-.3,0-.07,0,0,0,0,0,.07.08-.18.08-.18,0,0l0-.06c.08-.09,0-.08-.06,0l.11-.09-.12.06a.6.6,0,0,0,.16-.05h0a1.66,1.66,0,0,0,0,3.32,3.29,3.29,0,0,0,3.21-3.25V3.26A3.27,3.27,0,0,0,72.14,0c-1.41,0-2.82,0-4.22,0H53.39A12.71,12.71,0,0,0,52,.05a3.24,3.24,0,0,0-2.84,3.23c0,.46,0,.93,0,1.39v88.7c0,.41,0,.81,0,1.22a3.27,3.27,0,0,0,3.23,3.23c.44,0,.9,0,1.34,0h18.4a1.67,1.67,0,0,0,0-3.33Z"/></g></g></svg>