<svg xmlns="http://www.w3.org/2000/svg" viewBox="0 0 81.17 99.21"><defs><style>.cls-1{fill:#848484;}</style></defs><g id="Calque_2" data-name="Calque 2"><g id="Calque_1-2" data-name="Calque 1"><path class="cls-1" d="M0,3.2v89c0,1.21,0,2.41,0,3.63V96a3.22,3.22,0,0,0,4.81,2.75l2-1.25,5.45-3.41,8.06-5q4.92-3.06,9.82-6.14l10.72-6.69,10.87-6.8L61.87,63.1l8.56-5.36c2-1.28,4.11-2.56,6.15-3.85,1-.61,2-1.2,2.92-1.82l.12-.07a3.23,3.23,0,0,0,0-5.52l-2-1.23-5.45-3.36-8-4.94L54.31,30.9,43.58,24.3,32.71,17.6,22.57,11.36,14,6.09,7.87,2.31C6.9,1.72,5.93,1.1,4.94.51L4.82.44A3.23,3.23,0,0,0,.45,1.59,3.25,3.25,0,0,0,1.6,6c.67.42,1.34.82,2,1.24l5.45,3.35,8,4.94,9.84,6.06c3.57,2.2,7.15,4.41,10.73,6.6l10.87,6.7,10.13,6.23,8.57,5.27,6.13,3.78c1,.6,1.94,1.22,2.93,1.8l.13.08V46.48l-2,1.26L69,51.14l-8.06,5-9.83,6.14L40.35,69,29.48,75.81,19.35,82.14,10.79,87.5c-2.06,1.29-4.11,2.56-6.15,3.85-1,.61-2,1.2-2.92,1.82a.46.46,0,0,1-.13.08c1.6.91,3.21,1.84,4.8,2.76V7c0-1.22,0-2.42,0-3.63V3.2A3.23,3.23,0,0,0,3.2,0,3.26,3.26,0,0,0,0,3.2Z"/></g></g></svg>