<svg xmlns="http://www.w3.org/2000/svg" viewBox="0 0 97.12 83.76"><defs><style>.cls-1{fill:#848484;}</style></defs><g id="Calque_2" data-name="Calque 2"><g id="Calque_1-2" data-name="Calque 1"><path class="cls-1" d="M58.51,23.42l-7.84,5.32L38.19,37.2l-2.84,1.92a3.25,3.25,0,0,0,0,5.53L43.19,50l12.48,8.46,2.84,1.92c-.54-.91-1.06-1.84-1.59-2.76V80.52l4.81-2.77L56.05,73.9,42.42,64.65,26,53.5l-14.2-9.64C9.47,42.3,7.2,40.68,4.86,39.17l-.1-.06v5.53l5.68-3.85,13.63-9.25Q32.31,26,40.52,20.41C45.25,17.19,50,14,54.73,10.77,57,9.21,59.38,7.7,61.65,6.08L61.74,6,56.93,3.25V26.19a3.21,3.21,0,0,0,6.41,0V3.25C63.34,1,60.57-.9,58.52.49L52.84,4.34,39.21,13.59,22.77,24.74C18,28,13.3,31.16,8.56,34.38c-2.3,1.56-4.62,3.11-6.92,4.69l-.09.06a3.24,3.24,0,0,0,0,5.53l5.68,3.86,13.63,9.25q8.2,5.53,16.42,11.13l14.21,9.63c2.31,1.56,4.57,3.2,6.92,4.69l.1.07c2.05,1.38,4.81-.46,4.81-2.77V58.66c0-.35,0-.69,0-1a3.33,3.33,0,0,0-1.61-2.81l-.23-.16-3.15-2.14L46.79,44.71c-2.69-1.83-5.36-3.7-8.08-5.48a.55.55,0,0,0-.14-.09v5.53l7.84-5.32L58.88,30.9,61.72,29a3.27,3.27,0,0,0,1.16-4.38A3.2,3.2,0,0,0,58.51,23.42Z"/><path class="cls-1" d="M90.72,3.25V77.37c0,1,0,2,0,3v.13l4.82-2.77c-2.86-1.94-5.73-3.87-8.59-5.82L70.85,61c-3-2.07-6.07-4.13-9.12-6.19-3.4-2.32-6.81-4.62-10.23-6.94L38.78,39.25l-.22-.16v5.53l10.91-7.4L61.62,29l7.49-5.08,16-10.84c3.43-2.32,6.86-4.63,10.28-7l.16-.1a3.27,3.27,0,0,0,1.15-4.38A3.25,3.25,0,0,0,92.3.45L83.71,6.28,67.62,17.19c-3.05,2.06-6.08,4.12-9.12,6.19L48.26,30.32,35.54,39l-.22.16a3.25,3.25,0,0,0,0,5.53q5.46,3.7,10.92,7.4l12.14,8.24,7.5,5.08,16,10.84c3.41,2.32,6.81,4.69,10.27,7l.16.11c2,1.38,4.82-.46,4.82-2.77V6.39c0-1,0-2,0-3V3.25a3.2,3.2,0,1,0-6.39,0Z"/></g></g></svg>