<svg xmlns="http://www.w3.org/2000/svg" viewBox="0 0 99.23 99.2"><defs><style>.cls-1{fill:#848484;}</style></defs><g id="Calque_2" data-name="Calque 2"><g id="Calque_1-2" data-name="Calque 1"><path class="cls-1" d="M80.3,91.86H25.76c-2.26,0-4.52,0-6.78,0a15.68,15.68,0,0,1-2.05-.13l1,.13a15.17,15.17,0,0,1-3.8-1l.87.36a15.06,15.06,0,0,1-2.56-1.38l-.6-.41c-.11-.09-.45-.34,0,0s.11.08,0,0c-.37-.3-.73-.63-1.08-1s-.63-.66-.92-1c0-.06-.26-.23-.26-.31s.57.75.28.35c-.15-.19-.28-.39-.41-.59A14.5,14.5,0,0,1,8,84.26l.37.88a15.38,15.38,0,0,1-1-3.81c0,.33.08.64.13,1a60.06,60.06,0,0,1-.13-7.59V25.92c0-2.32,0-4.66,0-7a17.77,17.77,0,0,1,.13-2.05c0,.33-.08.65-.13,1a14.74,14.74,0,0,1,1-3.81L8,14.94a15.15,15.15,0,0,1,1.38-2.57l.41-.59c.09-.11.35-.46-.05.05s-.08.11,0,0c.3-.36.63-.73,1-1.07a12.94,12.94,0,0,1,1-.93c.06-.05.23-.26.31-.26s-.75.58-.35.28l.59-.41A15.52,15.52,0,0,1,15,8l-.87.37a15.75,15.75,0,0,1,3.8-1l-1,.14a60.06,60.06,0,0,1,7.59-.14H80.29a15.69,15.69,0,0,1,2,.14l-1-.14a15.15,15.15,0,0,1,3.81,1L84.29,8a15.15,15.15,0,0,1,2.57,1.38l.6.42c.11.08.45.34,0-.05s-.11-.09,0,0c.37.31.73.64,1.07,1s.64.66.93,1c0,.06.26.23.26.32s-.58-.76-.28-.35l.41.58a15.23,15.23,0,0,1,1.42,2.64l-.37-.88a15.7,15.7,0,0,1,1,3.81c-.05-.33-.09-.65-.13-1a62.12,62.12,0,0,1,.13,7.6V73.28c0,2.32,0,4.65,0,7a17.49,17.49,0,0,1-.13,2c0-.33.08-.64.13-1a15.15,15.15,0,0,1-1,3.81l.37-.88a14.69,14.69,0,0,1-1.38,2.56l-.42.6c-.08.11-.34.45,0,0s.09-.11,0,0a14.25,14.25,0,0,1-1,1.08c-.31.32-.66.63-1,.93-.06,0-.23.25-.32.25s.76-.57.36-.28l-.59.42a15.19,15.19,0,0,1-2.64,1.41l.88-.36a15.68,15.68,0,0,1-3.81,1l1-.13a17.6,17.6,0,0,1-2,.13,3.67,3.67,0,0,0,0,7.33,18.83,18.83,0,0,0,15.21-7.74,18.91,18.91,0,0,0,3.72-11.38v-61A19.45,19.45,0,0,0,94.65,6.64,18.94,18.94,0,0,0,80.3,0c-3,0-5.93,0-8.9,0H19.54A20.09,20.09,0,0,0,10.1,2.23,18.91,18.91,0,0,0,.46,15.1C-.22,18.63.05,22.39.05,26V79A23.54,23.54,0,0,0,.7,85.16,19,19,0,0,0,11.13,97.47,19.48,19.48,0,0,0,19,99.2H80.31A3.71,3.71,0,0,0,84,95.54,3.76,3.76,0,0,0,80.3,91.86Z"/></g></g></svg>