<svg xmlns="http://www.w3.org/2000/svg" viewBox="0 0 98.53 85.83"><defs><style>.cls-1{fill:#848484;}</style></defs><g id="Calque_2" data-name="Calque 2"><g id="Calque_1-2" data-name="Calque 1"><path class="cls-1" d="M3.41,26.1H59.17c2.34,0,4.7-.05,7,0,1,0,2.09.13,3.14.26l-.91-.12A30.44,30.44,0,0,1,76,28.3L75.14,28a31.41,31.41,0,0,1,4,2.05c.63.39,1.26.81,1.86,1.24.27.19,1.22,1,.26.18.28.24.58.46.86.7a31.14,31.14,0,0,1,3.17,3.12c.23.26.46.52.67.79l.33.41c.32.4-.27-.34-.26-.34s.12.17.18.24c.44.6.87,1.21,1.27,1.83a29.72,29.72,0,0,1,2.37,4.5l-.34-.81a29.58,29.58,0,0,1,2,7.5l-.12-.91a31.19,31.19,0,0,1,0,8.19l.12-.91a30.32,30.32,0,0,1-2,7.5l.34-.81a31.41,31.41,0,0,1-2,4c-.39.63-.81,1.26-1.24,1.86-.19.27-1,1.22-.18.26-.24.28-.46.58-.7.86a31.14,31.14,0,0,1-3.12,3.17c-.26.23-.52.46-.79.67l-.41.33c-.4.32.34-.27.34-.26s-.17.12-.24.18c-.6.44-1.21.87-1.83,1.27a29.72,29.72,0,0,1-4.5,2.37l.81-.34a29.58,29.58,0,0,1-7.5,2l.91-.12a51.79,51.79,0,0,1-6.7.28H30.56c-1.77,0-3.54,0-5.29,0h-.08a3.4,3.4,0,0,0,0,6.8H58c5.27,0,10.56.26,15.72-1.09A33.28,33.28,0,0,0,92.78,33.85,33.24,33.24,0,0,0,65.41,19.26c-2.92,0-5.83,0-8.76,0H3.4A3.44,3.44,0,0,0,0,22.66,3.48,3.48,0,0,0,3.41,26.1Z"/><path class="cls-1" d="M25.14,39.62l-6.5-6.5L8.21,22.69,5.82,20.3v4.8l6.5-6.5L22.75,8.17l2.39-2.39a3.44,3.44,0,0,0,0-4.81,3.45,3.45,0,0,0-4.8,0L13.83,7.48,3.4,17.91,1,20.3a3.44,3.44,0,0,0,0,4.8l6.51,6.51L17.94,42l2.4,2.39a3.4,3.4,0,1,0,4.8-4.81Z"/></g></g></svg>