<svg xmlns="http://www.w3.org/2000/svg" viewBox="0 0 97.76 51.82"><defs><style>.cls-1{fill:#848484;}</style></defs><g id="Calque_2" data-name="Calque 2"><g id="Calque_1-2" data-name="Calque 1"><path class="cls-1" d="M82.38,51.82H13.51A12.64,12.64,0,0,1,1.33,43.73,20.69,20.69,0,0,1,5.67,22.3c2.49-2.48,7.67-6,15.81-3.77a18.73,18.73,0,0,1,9-15,24.63,24.63,0,0,1,24.72-.36,19.2,19.2,0,0,1,7.23,7.53,14.12,14.12,0,0,1,17-.75c4.71,3.08,6.81,8,5.77,12.79a12.75,12.75,0,0,1,9.57,5.21,15.87,15.87,0,0,1,1.46,16.21C94.74,47,91,51.82,82.38,51.82ZM8.78,25.43c-4,4.16-5.55,11.35-3.37,16.62a8.21,8.21,0,0,0,8.1,5.36H82.38c6,0,8.65-2.86,9.85-5.25a11.48,11.48,0,0,0-1-11.59,8.71,8.71,0,0,0-8.91-3.3A2.21,2.21,0,0,1,80,24c2.57-4.53,0-8.43-3-10.39-3.62-2.37-9.08-2.81-12.84,1.57a25.88,25.88,0,0,1,.68,7.94,2.21,2.21,0,0,1-4.41-.27c.57-9.13-3.76-13.7-7.48-15.92a20,20,0,0,0-20.13.32c-4.93,3.08-7.37,8.12-6.87,14.19a2.2,2.2,0,0,1-3.05,2.22C20.59,22.72,13.65,20.32,8.78,25.43Z"/></g></g></svg>