<svg xmlns="http://www.w3.org/2000/svg" viewBox="0 0 97.02 85.2"><defs><style>.cls-1{fill:#848484;}</style></defs><g id="Calque_2" data-name="Calque 2"><g id="Calque_1-2" data-name="Calque 1"><path class="cls-1" d="M35.75,85.2a2.07,2.07,0,0,1-.5-.06,2.18,2.18,0,0,1-1.62-2.61l4.95-21a2.17,2.17,0,0,1,4.23,1l-5,21A2.17,2.17,0,0,1,35.75,85.2Zm-14,0a2.2,2.2,0,0,1-.5-.06,2.17,2.17,0,0,1-1.61-2.61l4.95-21a2.17,2.17,0,0,1,4.23,1l-5,21A2.17,2.17,0,0,1,21.74,85.2Z"/><path class="cls-1" d="M63.67,54.47H10.85c-4.68,0-8.31-2.28-9.95-6.25a13.18,13.18,0,0,1,3-14C7,31,11.56,30,16.53,31.23a14.81,14.81,0,0,1,7.06-11.31,19.37,19.37,0,0,1,19.46-.28,15,15,0,0,1,5.44,5.45,11.35,11.35,0,0,1,13.15-.25,9.86,9.86,0,0,1,4.74,9.76,10.09,10.09,0,0,1,7.05,4,10,10,0,0,1,1.15,10.32C73.54,51,70.74,54.47,63.67,54.47ZM6.92,37.27a9.09,9.09,0,0,0-2,9.29c.68,1.63,2.25,3.57,5.94,3.57H63.67c3.65,0,6.15-.88,7.25-3.07,1.72-3.46-.82-9.38-7.22-8a2.17,2.17,0,0,1-2.29-3.21c1.81-3.19,0-5.94-2.15-7.33a6.89,6.89,0,0,0-9.06.93,20.46,20.46,0,0,1,.47,6,2.17,2.17,0,1,1-4.34-.27c.42-6.76-2.76-10.13-5.5-11.76a14.84,14.84,0,0,0-14.94.24,10.67,10.67,0,0,0-5.05,10.44,2.17,2.17,0,0,1-3,2.18C16,35.44,10.29,33.82,6.92,37.27Zm76.4,9.6a2.18,2.18,0,0,1,0-4.35c5.41,0,7.65-2.66,8.51-4.24a6.7,6.7,0,0,0-.18-6.78c-1.43-2.17-4.12-3.21-7.57-2.9A2.17,2.17,0,0,1,82,25.37c2.24-4-.06-7.41-2.72-9.15-3.49-2.28-8.79-2.66-12.21,1.91a2.17,2.17,0,0,1-3.91-1.29C63.09,9.05,57.7,6.19,54.49,5.17c-6.35-2-14.08-.08-17.22,4.29a2.17,2.17,0,1,1-3.53-2.53C38,.94,47.52-1.59,55.8,1c5.85,1.85,9.75,5.86,11.14,11.29a13.41,13.41,0,0,1,14.72.27C86,15.42,87.94,19.93,87,24.31a11.15,11.15,0,0,1,8.28,4.8,11,11,0,0,1,.37,11.23C93.42,44.49,88.92,46.87,83.32,46.87Z"/></g></g></svg>