<svg xmlns="http://www.w3.org/2000/svg" viewBox="0 0 99.24 98.02"><defs><style>.cls-1{fill:#848484;}</style></defs><g id="Calque_2" data-name="Calque 2"><g id="Calque_1-2" data-name="Calque 1"><path class="cls-1" d="M68.45,98a1.88,1.88,0,0,1-.53-.07,2.26,2.26,0,0,1-1.74-2.2V77.81H53.38a2.26,2.26,0,0,1-2.06-3.2L66.38,41.37a2.27,2.27,0,0,1,4.33.94V63.64H83.76a2.28,2.28,0,0,1,2,3.3L70.46,96.79A2.25,2.25,0,0,1,68.45,98ZM56.89,73.29H68.45a2.26,2.26,0,0,1,2.26,2.26V86.39l9.35-18.22H68.45a2.27,2.27,0,0,1-2.27-2.26V52.78Z"/><path class="cls-1" d="M88,37.08H85a2.27,2.27,0,0,1,0-4.53h3c2.89,0,5.06-1.06,6.1-3A4.61,4.61,0,0,0,94,24.89c-1-1.5-2.89-2.21-5.35-2a2.28,2.28,0,0,1-2.1-1,2.26,2.26,0,0,1-.06-2.34c1.55-2.73,0-5.06-1.93-6.34-2.48-1.62-6.27-1.9-8.69,1.35A2.27,2.27,0,0,1,71.8,13.2c0-5.3-4.63-8.14-9.15-8.61-4.77-.48-10.13,1.5-11.34,7.06a2.26,2.26,0,0,1-4.42-1C48.69,2.44,56.56-.58,63.12.09c6,.62,10.64,4,12.42,8.77a11,11,0,0,1,11.51.55,9.3,9.3,0,0,1,4.51,9.09,8.89,8.89,0,0,1,6.55,13.21C96.27,35.12,92.6,37.08,88,37.08Z"/><path class="cls-1" d="M75.1,51.65a2.26,2.26,0,0,1-.78-4.38c3.55-1.3,4.27-3.81,3.76-5.72-.7-2.6-3.71-4.84-8.11-4.07a2.26,2.26,0,0,1-2.32-3.41c2.09-3.4-.81-5.83-1.74-6.5-3-2.14-7.82-2.45-10.77,1.18a2.26,2.26,0,0,1-3.51-2.85c4.68-5.77,12.2-5.35,16.89-2,3.27,2.32,4.79,5.64,4.32,9a10.59,10.59,0,0,1,9.61,7.54c1.06,4-.56,8.93-6.57,11.14A2.32,2.32,0,0,1,75.1,51.65Z"/><path class="cls-1" d="M56.14,52.51H14.29c-5,0-8.82-2.3-10.52-6.31A12.38,12.38,0,0,1,6.47,33c3.39-3.5,8.32-4.67,13.84-3.37a14.22,14.22,0,0,1,6.91-10.68,21.6,21.6,0,0,1,21.47-.31c5.31,3.17,8,8.57,7.55,15.21a2.26,2.26,0,0,1-4.52-.3c.42-6.22-2.68-9.43-5.35-11a17.12,17.12,0,0,0-16.74.26,9.88,9.88,0,0,0-4.84,9.7,2.25,2.25,0,0,1-.89,2,2.21,2.21,0,0,1-2.17.31C11,30.2,5.5,39.74,7.94,44.43,9.1,46.67,11.12,48,14.29,48H56.14a2.27,2.27,0,1,1,0,4.53Z"/><path class="cls-1" d="M10.18,91.6a2.22,2.22,0,0,1-.51-.06A2.26,2.26,0,0,1,8,88.82l6.63-28.23a2.26,2.26,0,1,1,4.41,1L12.38,89.86A2.25,2.25,0,0,1,10.18,91.6Z"/><path class="cls-1" d="M2.27,91.6A2.27,2.27,0,0,1,.06,88.82L6.69,60.59a2.26,2.26,0,1,1,4.41,1L4.47,89.86A2.27,2.27,0,0,1,2.27,91.6Z"/><path class="cls-1" d="M26.27,91.6a2.31,2.31,0,0,1-.52-.06,2.26,2.26,0,0,1-1.69-2.72l6.63-28.23a2.26,2.26,0,1,1,4.41,1L28.47,89.86A2.27,2.27,0,0,1,26.27,91.6Z"/><path class="cls-1" d="M18.21,91.6a2.31,2.31,0,0,1-.52-.06A2.26,2.26,0,0,1,16,88.82l6.63-28.23a2.26,2.26,0,1,1,4.41,1L20.41,89.86A2.27,2.27,0,0,1,18.21,91.6Z"/><path class="cls-1" d="M42.48,91.6a2.37,2.37,0,0,1-.52-.06,2.26,2.26,0,0,1-1.68-2.72l6.63-28.23a2.26,2.26,0,1,1,4.4,1L44.68,89.86A2.25,2.25,0,0,1,42.48,91.6Z"/><path class="cls-1" d="M34.42,91.6a2.37,2.37,0,0,1-.52-.06,2.26,2.26,0,0,1-1.68-2.72l6.63-28.23a2.26,2.26,0,1,1,4.4,1L36.62,89.86A2.25,2.25,0,0,1,34.42,91.6Z"/></g></g></svg>