<svg xmlns="http://www.w3.org/2000/svg" viewBox="0 0 97.49 85.61"><defs><style>.cls-1{fill:#848484;}</style></defs><g id="Calque_2" data-name="Calque 2"><g id="Calque_1-2" data-name="Calque 1"><path class="cls-1" d="M45.39,85.61a2.1,2.1,0,0,1-1-.23,2.18,2.18,0,0,1-1-2.92L53.86,61.35a2.19,2.19,0,1,1,3.92,1.94L47.35,84.39A2.2,2.2,0,0,1,45.39,85.61Zm-10.8,0a2.1,2.1,0,0,1-1-.23,2.18,2.18,0,0,1-1-2.92L43.07,61.35A2.18,2.18,0,1,1,47,63.29L36.55,84.39A2.19,2.19,0,0,1,34.59,85.61Zm-10.8,0a2.09,2.09,0,0,1-1-.23,2.17,2.17,0,0,1-1-2.92L32.27,61.35a2.18,2.18,0,1,1,3.91,1.94L25.75,84.39A2.18,2.18,0,0,1,23.79,85.61Zm-10.8,0a2.09,2.09,0,0,1-1-.23,2.17,2.17,0,0,1-1-2.92L21.47,61.35a2.19,2.19,0,1,1,3.92,1.94L15,84.39A2.18,2.18,0,0,1,13,85.61Zm-10.8,0a2.09,2.09,0,0,1-1-.23,2.17,2.17,0,0,1-1-2.92L10.67,61.35a2.19,2.19,0,0,1,3.92,1.94L4.15,84.39A2.18,2.18,0,0,1,2.19,85.61Zm74-8.53a2.16,2.16,0,0,1-.95-.22,2.19,2.19,0,0,1-1-2.91l9.51-19.73a2.19,2.19,0,1,1,3.94,1.9L78.18,75.84A2.2,2.2,0,0,1,76.21,77.08Zm-9.55,0a2.09,2.09,0,0,1-.94-.22,2.17,2.17,0,0,1-1-2.91l9.51-19.73a2.18,2.18,0,1,1,3.93,1.9L68.63,75.84A2.2,2.2,0,0,1,66.66,77.08Z"/><path class="cls-1" d="M64,54.74H10.9c-4.7,0-8.35-2.29-10-6.29a13.25,13.25,0,0,1,3-14.09c3.21-3.2,7.75-4.23,12.74-3A14.86,14.86,0,0,1,23.7,20a19.46,19.46,0,0,1,19.56-.29,15.36,15.36,0,0,1,5.47,5.48A11.4,11.4,0,0,1,61.93,25a9.91,9.91,0,0,1,4.77,9.81,10.14,10.14,0,0,1,7.08,4,10,10,0,0,1,1.16,10.37C73.89,51.22,71.08,54.74,64,54.74ZM7,37.45a9,9,0,0,0-2,9.33c.67,1.64,2.26,3.59,6,3.59H64c3.52,0,6-1.13,7.05-3.19a5.69,5.69,0,0,0-.73-5.79A6.16,6.16,0,0,0,64,39.21,2.18,2.18,0,0,1,61.71,36c1.81-3.21,0-6-2.17-7.37a6.92,6.92,0,0,0-9.1.93,20.35,20.35,0,0,1,.47,6,2.18,2.18,0,1,1-4.36-.27C47,28.51,43.78,25.13,41,23.48a15,15,0,0,0-15,.24,10.74,10.74,0,0,0-5.07,10.49,2.18,2.18,0,0,1-3,2.2C16,35.62,10.6,33.8,7,37.45ZM83.73,47.1a2.19,2.19,0,1,1,0-4.37c5.43,0,7.68-2.67,8.54-4.27a6.69,6.69,0,0,0-.18-6.8c-1.44-2.19-4.14-3.22-7.61-2.92a2.18,2.18,0,0,1-2.09-3.25c2.26-4-.06-7.44-2.73-9.19-3.5-2.29-8.83-2.67-12.27,1.91a2.18,2.18,0,0,1-3.93-1.28C63.39,9.1,58,6.22,54.75,5.2c-6.38-2-14.14-.09-17.3,4.31A2.19,2.19,0,0,1,33.9,7C38.22,1,47.75-1.6,56.07,1,62,2.9,65.86,6.92,67.26,12.38a13.45,13.45,0,0,1,14.79.27C86.4,15.5,88.36,20,87.42,24.43a11.16,11.16,0,0,1,8.32,4.82,11,11,0,0,1,.37,11.28C93.87,44.71,89.35,47.1,83.73,47.1Z"/></g></g></svg>