<svg xmlns="http://www.w3.org/2000/svg" viewBox="0 0 98.07 96.6"><defs><style>.cls-1{fill:#848484;}</style></defs><g id="Calque_2" data-name="Calque 2"><g id="Calque_1-2" data-name="Calque 1"><path class="cls-1" d="M76.27,56.12a2.24,2.24,0,0,1-1.54-3.86A20.46,20.46,0,1,0,40.22,37.4a2.24,2.24,0,0,1-4.48,0,24.81,24.81,0,0,1,7-17.29,2.25,2.25,0,0,1-2.67-.38l-5.79-5.79a2.24,2.24,0,0,1,3.17-3.16l5.79,5.78a2.25,2.25,0,0,1,.36,2.69A24.86,24.86,0,0,1,59,12.52a2.24,2.24,0,0,1-.89-1.79V2.24a2.24,2.24,0,0,1,4.48,0v8.49a2.25,2.25,0,0,1-.86,1.76,24.84,24.84,0,0,1,16.21,7,2.25,2.25,0,0,1,.38-2.67L84.13,11a2.23,2.23,0,1,1,3.16,3.16L81.51,20a2.25,2.25,0,0,1-2.69.37,24.84,24.84,0,0,1,6.76,16,2.22,2.22,0,0,1,1.76-.86h8.49a2.24,2.24,0,0,1,0,4.48H87.34a2.24,2.24,0,0,1-1.79-.89,24.68,24.68,0,0,1-7.74,16.46A2.23,2.23,0,0,1,76.27,56.12Z"/><path class="cls-1" d="M83.65,96.6H75.39a2.24,2.24,0,0,1,0-4.48h8.26c5.58,0,7.89-2.74,8.77-4.37a6.93,6.93,0,0,0-.19-7c-1.47-2.24-4.25-3.3-7.81-3a2.21,2.21,0,0,1-2.07-1,2.23,2.23,0,0,1-.07-2.31c2.32-4.09-.06-7.63-2.8-9.43-3.59-2.35-9.06-2.74-12.58,2a2.24,2.24,0,0,1-4-1.32c-.07-8-5.63-11-8.93-12-6.55-2.07-14.51-.09-17.75,4.43a2.24,2.24,0,0,1-3.64-2.62c4.43-6.17,14.21-8.78,22.74-6.08,6,1.91,10,6,11.48,11.64a13.82,13.82,0,0,1,15.17.27c4.47,2.93,6.47,7.57,5.51,12.09a11.45,11.45,0,0,1,8.53,5,11.27,11.27,0,0,1,.39,11.57C94.05,94.15,89.42,96.6,83.65,96.6ZM61,96.6H10.53C6,96.6,2.47,94.39.87,90.52A12.76,12.76,0,0,1,3.73,76.94c3.05-3,7.35-4.06,12.09-2.93a14.3,14.3,0,0,1,6.81-10.74A18.69,18.69,0,0,1,41.41,63a14.69,14.69,0,0,1,5.16,5.11A11,11,0,0,1,59.18,68a9.59,9.59,0,0,1,4.63,9.33,9.82,9.82,0,0,1,6.68,3.84,9.65,9.65,0,0,1,1.12,10C70.6,93.2,67.88,96.6,61,96.6ZM6.89,80.11A8.43,8.43,0,0,0,5,88.81c.62,1.51,2.09,3.31,5.52,3.31H61c3.28,0,5.61-1,6.56-2.94a5.23,5.23,0,0,0-.68-5.34,5.56,5.56,0,0,0-5.82-2,2.25,2.25,0,0,1-2.24-.9,2.2,2.2,0,0,1-.12-2.4c1.67-3,0-5.51-2-6.8a6.46,6.46,0,0,0-8.4.8,19.92,19.92,0,0,1,.44,5.7,2.24,2.24,0,0,1-4.47-.28c.39-6.38-2.6-9.56-5.19-11.1A14,14,0,0,0,25,67.06a9.94,9.94,0,0,0-4.75,9.84,2.24,2.24,0,0,1-.91,2,2,2,0,0,1-2.18.26A8.38,8.38,0,0,0,6.89,80.11Z"/></g></g></svg>