<svg xmlns="http://www.w3.org/2000/svg" viewBox="0 0 97.96 97.96"><defs><style>.cls-1{fill:#848484;}</style></defs><g id="Calque_2" data-name="Calque 2"><g id="Calque_1-2" data-name="Calque 1"><path class="cls-1" d="M49,98a2.22,2.22,0,0,1-2.21-2.22V86.81A37.91,37.91,0,0,1,23.56,77.1l-6.49,6.5a2.21,2.21,0,0,1-3.13-3.13L20.45,74A37.89,37.89,0,0,1,11,51.19H2.21a2.22,2.22,0,0,1,0-4.43H11a37.88,37.88,0,0,1,9.71-23.31L14.24,17a2.21,2.21,0,0,1,3.13-3.12l6.5,6.5a37.9,37.9,0,0,1,22.89-9.42V2.21a2.22,2.22,0,0,1,4.43,0v8.7a37.86,37.86,0,0,1,23.19,9.71l6.5-6.5A2.21,2.21,0,0,1,84,17.25L77.5,23.76a37.88,37.88,0,0,1,9.43,23h8.81a2.21,2.21,0,1,1,0,4.42H86.91a37.87,37.87,0,0,1-9.69,23.08l6.49,6.49a2.21,2.21,0,0,1-3.13,3.13l-6.51-6.51a37.86,37.86,0,0,1-22.88,9.43v8.93A2.22,2.22,0,0,1,49,98Zm0-82.69A33.59,33.59,0,1,0,82.56,48.86,33.62,33.62,0,0,0,49,15.27Z"/></g></g></svg>