<svg height='100px' width='100px'  fill="#000000" xmlns="http://www.w3.org/2000/svg" xmlns:xlink="http://www.w3.org/1999/xlink" version="1.1" x="0px" y="0px" viewBox="0 0 512 512" style="enable-background:new 0 0 512 512;" xml:space="preserve"><g><g><g><path d="M336.9,238.9c-65.9,0-119.5,53.6-119.5,119.5S271,477.9,336.9,477.9s119.5-53.6,119.5-119.5     S402.8,238.9,336.9,238.9z M281.3,353.1l13.3,13.3c3.1,3.1,3.1,8.2,0,11.3c-1.6,1.6-3.6,2.3-5.7,2.3c-2,0-4.1-0.8-5.7-2.3     L270,364.4c-19.8-19.8-19.8-52.3,0-72.3c19.9-19.9,52.3-19.9,72.4-0.1l13.4,13.4c3.1,3.1,3.1,8.2,0,11.3s-8.2,3.1-11.3,0     l-13.3-13.3c-13.8-13.6-36.1-13.6-49.8,0C267.7,317.1,267.7,339.4,281.3,353.1z M313.9,335.9c3.1-3.1,8.2-3.1,11.3,0l34.4,34.4     c3.1,3.1,3.1,8.2,0,11.3c-1.6,1.6-3.6,2.3-5.7,2.3c-2,0-4.1-0.8-5.7-2.3l-34.4-34.4C310.8,344.1,310.8,339,313.9,335.9z      M403.5,425.4c-9.9,9.9-23,14.9-36.2,14.9c-13.1,0-26.2-4.9-36.2-14.8l-13.4-13.4c-3.1-3.1-3.1-8.2,0-11.3     c3.1-3.1,8.2-3.1,11.3,0l13.3,13.3c13.8,13.6,36.1,13.6,49.8,0c13.6-13.8,13.6-36.1,0-49.8L378.8,351c-3.1-3.1-3.1-8.2,0-11.3     c3.1-3.1,8.2-3.1,11.3,0l13.3,13.3C423.3,372.9,423.3,405.3,403.5,425.4z"></path></g></g><g><g><path d="M205.7,324h-86.9c-4.4,0-8-3.6-8-8s3.6-8,8-8H211c5.1-13,11.9-24,20.3-35H118.8c-4.4,0-8-3.6-8-8     s3.6-8,8-8h127.7c24-21,55.8-34.4,90.5-34.4c3.3,0,6,0.3,10,0.6V141h-60c-23.2,0-42-19-42-42.1V34H91.6C71.8,34,56,50.2,56,70.1     v305.2c0,19.9,15.8,35.7,35.6,35.7h120.5c-6.9-16-10.7-34-10.7-52.8C201.3,346.4,202.9,335,205.7,324z M118.8,207h101.3     c4.4,0,8,3.6,8,8s-3.6,8-8,8H118.8c-4.4,0-8-3.6-8-8S114.4,207,118.8,207z"></path></g></g><g><g><path d="M287,125h49l-75-78.9v52.8C261,113.2,272.6,125,287,125z"></path></g></g></g></svg>