<svg xmlns="http://www.w3.org/2000/svg" viewBox="0 0 76.6 99.29"><defs><style>.cls-1{fill:#848484;}</style></defs><g id="Calque_2" data-name="Calque 2"><g id="Calque_1-2" data-name="Calque 1"><path class="cls-1" d="M54.44,81.56a4.49,4.49,0,0,0,3.44-4.36v-.69A4.5,4.5,0,0,0,53.39,72h-.68c.3-5.71,2.59-9.3,6.65-13.65a28.81,28.81,0,1,0-42.1.07c4,4.28,6.28,7.84,6.57,13.58h-.68a4.5,4.5,0,0,0-4.49,4.49v.69a4.5,4.5,0,0,0,3.45,4.36V87.7a4.39,4.39,0,0,0,4.39,4.4h.19v1.55a5.64,5.64,0,0,0,5.63,5.64h11.9a5.64,5.64,0,0,0,5.63-5.64V92.1h.2a4.4,4.4,0,0,0,4.39-4.4ZM19.07,56.74a26.16,26.16,0,0,1-7.1-19A26.52,26.52,0,0,1,36.59,12.49,26.31,26.31,0,0,1,57.54,56.67c-4.39,4.72-7,8.85-7.31,15.35H26.34C26.05,65.47,23.42,61.39,19.07,56.74ZM21.14,77.2v-.69a2,2,0,0,1,2-2H53.39a2,2,0,0,1,2,2v.69a2,2,0,0,1-2,2H23.15A2,2,0,0,1,21.14,77.2ZM47.37,93.65a3.15,3.15,0,0,1-3.15,3.15H32.32a3.16,3.16,0,0,1-3.15-3.15V92.1h18.2Zm2.68-4H26.5a1.9,1.9,0,0,1-1.91-1.91v-6H52v6A1.9,1.9,0,0,1,50.05,89.61Z"/><path class="cls-1" d="M38.3,28.74a9.57,9.57,0,1,0,9.57,9.57A9.58,9.58,0,0,0,38.3,28.74Zm0,16.65a7.09,7.09,0,1,1,7.09-7.08A7.09,7.09,0,0,1,38.3,45.39Z"/><path class="cls-1" d="M49.71,53.71a2.84,2.84,0,0,1,4-4,1.17,1.17,0,0,0,1,.26,1.21,1.21,0,0,0,.85-.55,20.12,20.12,0,0,0,2.81-6.79,1.21,1.21,0,0,0-.21-1,1.25,1.25,0,0,0-.87-.51,2.84,2.84,0,0,1,0-5.65,1.22,1.22,0,0,0,.87-.51,1.19,1.19,0,0,0,.21-1,20.17,20.17,0,0,0-2.81-6.8,1.27,1.27,0,0,0-.85-.55,1.21,1.21,0,0,0-1,.26,2.84,2.84,0,0,1-4-4,1.26,1.26,0,0,0,.26-1,1.27,1.27,0,0,0-.55-.85,20.39,20.39,0,0,0-6.8-2.82,1.3,1.3,0,0,0-1,.21,1.25,1.25,0,0,0-.5.88,2.85,2.85,0,0,1-5.66,0,1.25,1.25,0,0,0-.5-.88,1.3,1.3,0,0,0-1-.21,20.26,20.26,0,0,0-6.79,2.82,1.23,1.23,0,0,0-.3,1.82,2.84,2.84,0,0,1-4,4,1.24,1.24,0,0,0-1-.26,1.3,1.3,0,0,0-.85.55A20.37,20.37,0,0,0,18.26,34a1.22,1.22,0,0,0,.2,1,1.26,1.26,0,0,0,.88.51,2.84,2.84,0,0,1,0,5.65,1.29,1.29,0,0,0-.88.51,1.25,1.25,0,0,0-.2,1,20.12,20.12,0,0,0,2.81,6.79,1.23,1.23,0,0,0,.85.55,1.2,1.2,0,0,0,1-.26,2.84,2.84,0,0,1,4,4,1.28,1.28,0,0,0-.26,1,1.25,1.25,0,0,0,.56.84A20.26,20.26,0,0,0,34,58.35a1.24,1.24,0,0,0,1.49-1.08,2.85,2.85,0,0,1,5.66,0,1.21,1.21,0,0,0,.5.87,1.23,1.23,0,0,0,.73.24,1.09,1.09,0,0,0,.26,0,20.39,20.39,0,0,0,6.8-2.82,1.24,1.24,0,0,0,.29-1.82ZM47,54.07a17.82,17.82,0,0,1-3.78,1.56,5.33,5.33,0,0,0-9.92,0,17.82,17.82,0,0,1-3.78-1.56,5.33,5.33,0,0,0-7-7A17.85,17.85,0,0,1,21,43.27a5.33,5.33,0,0,0,0-9.93,18,18,0,0,1,1.57-3.77,5.34,5.34,0,0,0,7-7A17.85,17.85,0,0,1,33.34,21a5.32,5.32,0,0,0,9.92,0A17.85,17.85,0,0,1,47,22.55a5.34,5.34,0,0,0,7,7,18,18,0,0,1,1.57,3.77,5.33,5.33,0,0,0,0,9.93,17.85,17.85,0,0,1-1.57,3.78,5.33,5.33,0,0,0-7,7Z"/><path class="cls-1" d="M62.57,64.65c-.58.54-1.19,1.06-1.82,1.57A1.24,1.24,0,0,0,60.57,68a1.2,1.2,0,0,0,1,.46,1.25,1.25,0,0,0,.78-.27c.67-.54,1.32-1.1,1.94-1.67a1.24,1.24,0,0,0-1.68-1.83Z"/><path class="cls-1" d="M17,9.25A1.2,1.2,0,0,0,17.67,9a35.13,35.13,0,0,1,4.19-2.54,1.24,1.24,0,0,0-1.14-2.21A39.3,39.3,0,0,0,16.24,7a1.25,1.25,0,0,0-.3,1.73A1.23,1.23,0,0,0,17,9.25Z"/><path class="cls-1" d="M25.94,4.6a1.23,1.23,0,0,0,.42-.07,34.71,34.71,0,0,1,4.72-1.31,1.24,1.24,0,0,0,1-1.47,1.23,1.23,0,0,0-1.46-1,38.13,38.13,0,0,0-5,1.4,1.24,1.24,0,0,0,.41,2.41Z"/><path class="cls-1" d="M35.93,2.57c.78-.06,1.57-.08,2.37-.08h0c.83,0,1.67,0,2.5.09h.09A1.24,1.24,0,0,0,41,.1C40.11,0,39.21,0,38.33,0a24.16,24.16,0,0,0-2.56.08,1.24,1.24,0,1,0,.16,2.48Z"/><path class="cls-1" d="M9.56,16.15a1.23,1.23,0,0,0,1-.46,37.75,37.75,0,0,1,3.35-3.58,1.24,1.24,0,1,0-1.7-1.81A40.25,40.25,0,0,0,8.6,14.12a1.23,1.23,0,0,0,.18,1.75A1.21,1.21,0,0,0,9.56,16.15Z"/><path class="cls-1" d="M8.64,62.54a1.27,1.27,0,0,0,1,.46,1.23,1.23,0,0,0,.78-.28A1.24,1.24,0,0,0,10.56,61a36,36,0,0,1-2.83-4,1.24,1.24,0,0,0-2.12,1.29A37.84,37.84,0,0,0,8.64,62.54Z"/><path class="cls-1" d="M73.35,53.78a38.61,38.61,0,0,0,1.78-4.93,1.24,1.24,0,0,0-2.39-.68,34.23,34.23,0,0,1-1.66,4.61,1.23,1.23,0,0,0,.63,1.63,1.1,1.1,0,0,0,.5.11A1.24,1.24,0,0,0,73.35,53.78Z"/><path class="cls-1" d="M1.41,34.51h.17a1.24,1.24,0,0,0,1.23-1.08,35.72,35.72,0,0,1,1-4.79A1.24,1.24,0,1,0,1.41,28,37.36,37.36,0,0,0,.35,33.11,1.24,1.24,0,0,0,1.41,34.51Z"/><path class="cls-1" d="M1.59,44.63h.17a1.24,1.24,0,0,0,1.06-1.4,36.08,36.08,0,0,1-.34-4.89,1.24,1.24,0,0,0-1.24-1.24h0A1.25,1.25,0,0,0,0,38.34a37.73,37.73,0,0,0,.36,5.22A1.24,1.24,0,0,0,1.59,44.63Z"/><path class="cls-1" d="M75.37,37.26h0a1.24,1.24,0,0,0-1.24,1.23,36.08,36.08,0,0,1-.36,4.89,1.26,1.26,0,0,0,1.06,1.41H75a1.25,1.25,0,0,0,1.23-1.07,39.35,39.35,0,0,0,.38-5.22A1.24,1.24,0,0,0,75.37,37.26Z"/><path class="cls-1" d="M3.81,24.68A1.24,1.24,0,0,0,5.44,24a37.14,37.14,0,0,1,2.25-4.34A1.24,1.24,0,1,0,5.58,18.4,38.55,38.55,0,0,0,3.16,23,1.26,1.26,0,0,0,3.81,24.68Z"/><path class="cls-1" d="M3.81,48a1.24,1.24,0,1,0-2.39.67,39.25,39.25,0,0,0,1.77,4.94,1.24,1.24,0,1,0,2.27-1A35.61,35.61,0,0,1,3.81,48Z"/><path class="cls-1" d="M66.17,15.81a1.27,1.27,0,0,0,1,.46,1.24,1.24,0,0,0,1-2,37,37,0,0,0-3.56-3.84,1.24,1.24,0,0,0-1.7,1.81A34.28,34.28,0,0,1,66.17,15.81Z"/><path class="cls-1" d="M54.88,6.55a35,35,0,0,1,4.17,2.56,1.28,1.28,0,0,0,.72.23,1.24,1.24,0,0,0,.72-2.25A36.54,36.54,0,0,0,56,4.35a1.24,1.24,0,1,0-1.15,2.2Z"/><path class="cls-1" d="M45.68,3.25a34.65,34.65,0,0,1,4.71,1.33A1.22,1.22,0,0,0,52,3.83a1.23,1.23,0,0,0-.75-1.58,38.11,38.11,0,0,0-5-1.43,1.24,1.24,0,1,0-.51,2.43Z"/><path class="cls-1" d="M71.22,24.18a1.26,1.26,0,0,0,1.15.75,1.15,1.15,0,0,0,.48-.1,1.25,1.25,0,0,0,.66-1.63,38.68,38.68,0,0,0-2.4-4.66A1.24,1.24,0,1,0,69,19.82,35.79,35.79,0,0,1,71.22,24.18Z"/><path class="cls-1" d="M72.84,28.8a34.59,34.59,0,0,1,1,4.8A1.24,1.24,0,0,0,75,34.68h.16a1.23,1.23,0,0,0,1.07-1.39,37.57,37.57,0,0,0-1-5.13,1.24,1.24,0,0,0-2.4.65Z"/><path class="cls-1" d="M66.1,62.84a1.27,1.27,0,0,0,.79.28,1.22,1.22,0,0,0,1-.45,37.41,37.41,0,0,0,3.05-4.25,1.24,1.24,0,1,0-2.11-1.31,35.65,35.65,0,0,1-2.85,4A1.25,1.25,0,0,0,66.1,62.84Z"/><path class="cls-1" d="M15.81,66.19c-.62-.51-1.23-1-1.81-1.57a1.24,1.24,0,1,0-1.69,1.82c.63.58,1.28,1.15,1.94,1.68a1.25,1.25,0,0,0,.78.27,1.24,1.24,0,0,0,.78-2.2Z"/></g></g></svg>