<svg xmlns="http://www.w3.org/2000/svg" viewBox="0 0 69.69 98.06"><defs><style>.cls-1{fill:#848484;}</style></defs><g id="Calque_2" data-name="Calque 2"><g id="Calque_1-2" data-name="Calque 1"><path class="cls-1" d="M22.16,6.92h3.68a9.32,9.32,0,0,1,15.6-4.19h0a9.39,9.39,0,0,1,2.42,4.19h3.68a2.41,2.41,0,0,1,2.4,2.41v2.21H67.29a2.4,2.4,0,0,1,2.4,2.4V95.65a2.4,2.4,0,0,1-2.4,2.41H2.4A2.41,2.41,0,0,1,0,95.65V13.94a2.41,2.41,0,0,1,2.4-2.4H19.76V9.33A2.4,2.4,0,0,1,22.16,6.92Zm-9.4,73.51a2.39,2.39,0,0,1,3.08-3.66l1,.88,2.31-2.74a2.41,2.41,0,0,1,3.39-.28A2.38,2.38,0,0,1,22.85,78L19,82.57h0a2.38,2.38,0,0,1-3.36.29Zm0-14.42a2.39,2.39,0,0,1,3.08-3.66l1,.87,2.31-2.74a2.4,2.4,0,1,1,3.66,3.11L19,68.14h0a2.38,2.38,0,0,1-3.36.28Zm0-28.84a2.39,2.39,0,1,1,3.08-3.66l1,.87,2.31-2.74a2.4,2.4,0,1,1,3.66,3.1L19,39.3h0a2.39,2.39,0,0,1-3.36.28Zm0,14.42a2.39,2.39,0,1,1,3.08-3.66l1,.87,2.31-2.74a2.41,2.41,0,0,1,3.39-.27,2.38,2.38,0,0,1,.27,3.37L19,53.72h0a2.39,2.39,0,0,1-3.36.28ZM30,81.14a2.41,2.41,0,0,1,0-4.81H55.4a2.41,2.41,0,0,1,0,4.81Zm0-43.27a2.4,2.4,0,0,1,0-4.8H55.4a2.4,2.4,0,0,1,0,4.8ZM30,52.3a2.41,2.41,0,0,1,0-4.81H55.4a2.41,2.41,0,0,1,0,4.81Zm0,14.42a2.41,2.41,0,0,1,0-4.81H55.4a2.41,2.41,0,0,1,0,4.81ZM49.94,16.34v2.21A2.41,2.41,0,0,1,47.54,21H22.16a2.4,2.4,0,0,1-2.4-2.41V16.34h-15V93.25H64.89V16.34Zm-22-4.61H24.56v4.42H45.14V11.73H41.77a2.4,2.4,0,0,1-2.4-2.4A4.51,4.51,0,0,0,38,6.13h0a4.54,4.54,0,0,0-6.39,0,4.55,4.55,0,0,0-1.32,3.2A2.41,2.41,0,0,1,27.93,11.73Z"/></g></g></svg>