<svg xmlns="http://www.w3.org/2000/svg" viewBox="0 0 77.31 99.45"><defs><style>.cls-1{fill:#848484;}</style></defs><g id="Calque_2" data-name="Calque 2"><g id="Calque_1-2" data-name="Calque 1"><path class="cls-1" d="M71.48,99.44a5.84,5.84,0,0,0,5.83-5.83V22.32h0a.45.45,0,0,0,0-.11,1.61,1.61,0,0,0-.1-.53,1.58,1.58,0,0,0-.37-.54L56.25.49a1.76,1.76,0,0,0-.54-.36A1.74,1.74,0,0,0,55.07,0H5.83A5.84,5.84,0,0,0,0,5.83V93.61a5.84,5.84,0,0,0,5.83,5.84H71.48ZM3.33,40.75H74V73.41H3.33Zm53.41-35,14.89,15H56.74ZM3.33,5.83a2.5,2.5,0,0,1,2.5-2.5H53.4v19A1.67,1.67,0,0,0,55.07,24H74V37.42H3.33V5.83Zm0,87.78V76.74H74V93.61a2.51,2.51,0,0,1-2.5,2.5H5.83A2.5,2.5,0,0,1,3.33,93.61Z"/><path class="cls-1" d="M27.5,61.13a2.77,2.77,0,0,1-1.9.71,3,3,0,0,1-2.44-1.11A5.76,5.76,0,0,1,22.22,57a5.44,5.44,0,0,1,1-3.56,3.16,3.16,0,0,1,2.49-1.1,2.84,2.84,0,0,1,2.9,2.32L31.31,54a5.4,5.4,0,0,0-1.41-2.53A5.71,5.71,0,0,0,25.8,50a6.13,6.13,0,0,0-4.67,1.9,7.55,7.55,0,0,0-1.78,5.34,7.15,7.15,0,0,0,1.77,5.12,5.92,5.92,0,0,0,4.5,1.87,5.87,5.87,0,0,0,3.66-1.09,6,6,0,0,0,2.07-3.35l-2.7-.85A4,4,0,0,1,27.5,61.13Z"/><path class="cls-1" d="M42.14,56.37a13.3,13.3,0,0,0-3-1,7.19,7.19,0,0,1-2.55-.92,1.05,1.05,0,0,1-.42-.84,1,1,0,0,1,.45-.85,3.15,3.15,0,0,1,1.89-.5,2.78,2.78,0,0,1,1.76.47A2.38,2.38,0,0,1,41,54.27l2.78-.12a4.06,4.06,0,0,0-1.38-3A5.78,5.78,0,0,0,38.54,50a6.89,6.89,0,0,0-2.71.47,3.68,3.68,0,0,0-1.71,1.4,3.53,3.53,0,0,0-.6,2,3.59,3.59,0,0,0,1.27,2.77A7.62,7.62,0,0,0,37.93,58c1.15.29,1.9.49,2.22.6a2.25,2.25,0,0,1,1,.6,1.23,1.23,0,0,1,.29.82,1.7,1.7,0,0,1-.68,1.33,3.1,3.1,0,0,1-2,.57,2.94,2.94,0,0,1-2-.64,3.31,3.31,0,0,1-1-2L33,59.5A5.23,5.23,0,0,0,34.7,63a5.93,5.93,0,0,0,4,1.21,7.68,7.68,0,0,0,3-.51,3.86,3.86,0,0,0,1.86-1.53,4.33,4.33,0,0,0,.11-4.41A4,4,0,0,0,42.14,56.37Z"/><polygon class="cls-1" points="51.64 60.4 48.15 50.22 45.14 50.22 50.06 63.98 53.02 63.98 57.95 50.22 55 50.22 51.64 60.4"/></g></g></svg>