<svg xmlns="http://www.w3.org/2000/svg" viewBox="0 0 99.21 82.67"><defs><style>.cls-1{fill:#848484;}</style></defs><g id="Calque_2" data-name="Calque 2"><g id="Calque_1-2" data-name="Calque 1"><path class="cls-1" d="M38.36,56.21h-15a23.2,23.2,0,0,1-6.73-.85,19.92,19.92,0,0,1-7.09-3.85A20,20,0,0,1,23.85,16.23a19.79,19.79,0,0,1,2.78.39A1.23,1.23,0,0,0,28,16.07a27,27,0,0,1,49.63,6.7,1.19,1.19,0,0,0,1.14.87A16.33,16.33,0,1,1,80.43,56.2H65.37a1.19,1.19,0,0,0,0,2.38H80.1A19.14,19.14,0,0,0,93,53.8,18.7,18.7,0,0,0,78.74,21.26l1.14.87a29.32,29.32,0,0,0-54-7.26l1.34-.55A22.4,22.4,0,0,0,5.75,51.17,22.54,22.54,0,0,0,22,58.57c4.42.08,8.84,0,13.27,0h3.1a1.18,1.18,0,0,0,0-2.36Z"/><path class="cls-1" d="M53,81.49V41.24c0-1.86.07-3.73,0-5.58v-.09a1.19,1.19,0,0,0-2.38,0V75.83c0,1.86-.07,3.72,0,5.58v.08a1.19,1.19,0,0,0,2.38,0Z"/><path class="cls-1" d="M52.62,82.34q6.08-5.13,12.17-10.23l1.69-1.43A1.19,1.19,0,0,0,64.8,69L52.63,79.23l-1.69,1.43a1.2,1.2,0,0,0,0,1.68,1.22,1.22,0,0,0,1.68,0Z"/><path class="cls-1" d="M52.56,80.65,40.39,70.42,38.7,69A1.21,1.21,0,0,0,37,69a1.19,1.19,0,0,0,0,1.68L49.19,80.9l1.69,1.43a1.23,1.23,0,0,0,1.68,0,1.2,1.2,0,0,0,0-1.68Z"/></g></g></svg>