<svg xmlns="http://www.w3.org/2000/svg" viewBox="0 0 89.17 98.74"><defs><style>.cls-1{fill:#848484;}</style></defs><g id="Calque_2" data-name="Calque 2"><g id="Calque_1-2" data-name="Calque 1"><path class="cls-1" d="M83.6,44.74h-2V6.52A6.51,6.51,0,0,0,75.06,0H39.68a1.43,1.43,0,0,0-.34.14h-.09a1.27,1.27,0,0,0-.34.27L9.27,32.14a1.37,1.37,0,0,0-.3.45.38.38,0,0,0,0,.15,1.27,1.27,0,0,0-.07.38V44.74H5.57A5.58,5.58,0,0,0,0,50.31v34.5a5.59,5.59,0,0,0,5.57,5.58H8.83v1.85a6.51,6.51,0,0,0,6.51,6.5H75.06a6.5,6.5,0,0,0,6.49-6.5V90.39h2a5.58,5.58,0,0,0,5.57-5.58V50.31A5.57,5.57,0,0,0,83.6,44.74ZM38.42,5.64V28.08a3.56,3.56,0,0,1-3.55,3.55H14.1ZM12,34.81H34.87a6.73,6.73,0,0,0,6.73-6.73V3.2H75.06a3.32,3.32,0,0,1,3.31,3.32V44.74H12ZM78.37,92.24a3.32,3.32,0,0,1-3.31,3.32H15.34A3.32,3.32,0,0,1,12,92.24V90.39H78.37ZM86,84.81A2.39,2.39,0,0,1,83.6,87.2h-78a2.39,2.39,0,0,1-2.39-2.39V50.31a2.39,2.39,0,0,1,2.39-2.39h78A2.39,2.39,0,0,1,86,50.31Z"/><path class="cls-1" d="M26.35,66.71l7-10.12a1.08,1.08,0,0,0,.07-1.07A1.06,1.06,0,0,0,32.5,55h-2a1.06,1.06,0,0,0-.87.47l-5.56,8.15-5.45-8.14a1.07,1.07,0,0,0-.89-.48h-2a1.06,1.06,0,0,0-.93.56,1.08,1.08,0,0,0,0,1.06L21.7,66.82,14.57,77.44a1.09,1.09,0,0,0,.93,1.62h2a1.07,1.07,0,0,0,.89-.48L24.09,70l5.78,8.63a1.06,1.06,0,0,0,.88.48h2a1.09,1.09,0,0,0,.94-.56,1.06,1.06,0,0,0-.06-1.06Z"/><path class="cls-1" d="M51.54,75.41H40.76V56a1.06,1.06,0,0,0-1.07-1.06H38A1.06,1.06,0,0,0,36.92,56V78A1.06,1.06,0,0,0,38,79.1H51.22a1,1,0,0,0,1.06-.86l.32-1.57a1.07,1.07,0,0,0-.22-.88A1.06,1.06,0,0,0,51.54,75.41Z"/><path class="cls-1" d="M64,64.54c-4.24-1.07-4.71-1.87-4.71-3.36,0-2.38,2.12-2.88,3.85-2.88,2.59,0,4,1.07,4.48,3.19a1.06,1.06,0,0,0,1.06.84h1.77A1.05,1.05,0,0,0,71.2,62a1.07,1.07,0,0,0,.28-.83c-.33-3-2.68-6.59-8.25-6.59s-7.9,3.35-7.9,6.67c0,4.18,3,5.78,7.49,6.89C67.59,69.3,68,70.67,68,72.37c0,2.77-2.45,3.36-4.51,3.36-3,0-4.62-1.22-5.2-3.85a1.07,1.07,0,0,0-1.06-.83H55.43a1.06,1.06,0,0,0-.81.38,1,1,0,0,0-.24.84c.6,4.44,4,7.09,9,7.09,6.29,0,8.49-3.84,8.49-7.12C71.9,69.41,71,66.28,64,64.54Z"/></g></g></svg>