<svg xmlns="http://www.w3.org/2000/svg" viewBox="0 0 83.7 99.25"><defs><style>.cls-1{fill:#848484;}</style></defs><g id="Calque_2" data-name="Calque 2"><g id="Calque_1-2" data-name="Calque 1"><path class="cls-1" d="M78.92,13.15H70.55V4.78A4.79,4.79,0,0,0,65.77,0h-61A4.79,4.79,0,0,0,0,4.78V81.31A4.8,4.8,0,0,0,4.78,86.1h8.37v8.37a4.79,4.79,0,0,0,4.79,4.78H58.59A14,14,0,0,0,66.86,96L80.22,83.39a12.73,12.73,0,0,0,3.48-8.06V17.94A4.8,4.8,0,0,0,78.92,13.15ZM4.78,82.51a1.21,1.21,0,0,1-1.19-1.2V4.78A1.2,1.2,0,0,1,4.78,3.59h61A1.2,1.2,0,0,1,67,4.78v8.37h-49a4.8,4.8,0,0,0-4.79,4.79V82.51ZM17.94,95.66a1.21,1.21,0,0,1-1.2-1.19V17.94a1.22,1.22,0,0,1,1.2-1.2h61a1.22,1.22,0,0,1,1.2,1.2V75.33a5.44,5.44,0,0,1-.16,1.2H66.36a6.58,6.58,0,0,0-6.57,6.58V95.52a6.82,6.82,0,0,1-1.2.14Zm46.46-2.3a6.23,6.23,0,0,1-1,.75v-11a3,3,0,0,1,3-3h12a5.54,5.54,0,0,1-.57.66Z"/><path class="cls-1" d="M31.09,33.48H65.77a1.8,1.8,0,0,0,0-3.59H31.09a1.8,1.8,0,0,0,0,3.59Z"/><path class="cls-1" d="M31.09,57.4H65.77a1.8,1.8,0,0,0,0-3.59H31.09a1.8,1.8,0,0,0,0,3.59Z"/><path class="cls-1" d="M50.22,65.77H31.09a1.79,1.79,0,0,0,0,3.58H50.22a1.79,1.79,0,1,0,0-3.58Z"/><path class="cls-1" d="M31.09,45.44H65.77a1.8,1.8,0,0,0,0-3.59H31.09a1.8,1.8,0,0,0,0,3.59Z"/></g></g></svg>