<svg xmlns="http://www.w3.org/2000/svg" viewBox="0 0 77.17 99.21"><defs><style>.cls-1{fill:#848484;}.cls-2{fill:none;stroke:#848484;stroke-miterlimit:10;stroke-width:1.42px;}</style></defs><g id="Calque_2" data-name="Calque 2"><g id="Calque_1-2" data-name="Calque 1"><path class="cls-1" d="M75.6,1.56V97.65h-74v-75L22.69,1.56H75.6M77.17,0H22.05L0,22.05V99.21H77.17V0Z"/><line class="cls-2" x1="11.02" y1="27.56" x2="66.14" y2="27.56"/><line class="cls-2" x1="11.02" y1="38.58" x2="66.14" y2="38.58"/><line class="cls-2" x1="11.02" y1="49.61" x2="66.14" y2="49.61"/><path class="cls-1" d="M13.5,81.91h4.22v4H13.5Z"/><path class="cls-1" d="M20.36,71.66h4.39v10.7H31.6v3.5H20.36Z"/><path class="cls-1" d="M32.71,78.77a7.33,7.33,0,0,1,1.93-5.42A7.32,7.32,0,0,1,40,71.41a7.41,7.41,0,0,1,5.46,1.91,7.18,7.18,0,0,1,1.92,5.33,8.78,8.78,0,0,1-.84,4.09,6,6,0,0,1-2.42,2.48,8,8,0,0,1-3.95.88,9.07,9.07,0,0,1-4-.76,6.06,6.06,0,0,1-2.56-2.42A8.09,8.09,0,0,1,32.71,78.77Zm4.39,0a4.79,4.79,0,0,0,.79,3.09,3,3,0,0,0,4.37,0A5.25,5.25,0,0,0,43,78.6a4.42,4.42,0,0,0-.81-2.93,2.76,2.76,0,0,0-2.2-.93,2.66,2.66,0,0,0-2.13.94A4.76,4.76,0,0,0,37.1,78.79Z"/><path class="cls-1" d="M56.93,80.72v-3h6.78v6.06a14.17,14.17,0,0,1-3.44,1.8,11.68,11.68,0,0,1-3.55.48,8.61,8.61,0,0,1-4.13-.86,5.91,5.91,0,0,1-2.47-2.57,8.46,8.46,0,0,1-.87-3.91,8.3,8.3,0,0,1,1-4.05A6.3,6.3,0,0,1,53,72.1a9.17,9.17,0,0,1,3.89-.68,11.06,11.06,0,0,1,3.52.42,4.73,4.73,0,0,1,1.94,1.32,6,6,0,0,1,1.16,2.28l-4.24.75A2.34,2.34,0,0,0,58.4,75a2.82,2.82,0,0,0-1.6-.43,2.89,2.89,0,0,0-2.3,1,4.83,4.83,0,0,0-.85,3.17A4.94,4.94,0,0,0,54.51,82a3.06,3.06,0,0,0,2.42,1,4.61,4.61,0,0,0,1.4-.21,7.41,7.41,0,0,0,1.53-.73V80.71H56.93Z"/><line class="cls-2" x1="11.02" y1="60.63" x2="44.09" y2="60.63"/></g></g></svg>