<svg xmlns="http://www.w3.org/2000/svg" viewBox="0 0 99.21 99.21"><defs><style>.cls-1{fill:#848484;}</style></defs><g id="Calque_2" data-name="Calque 2"><g id="Calque_1-2" data-name="Calque 1"><path class="cls-1" d="M0,99.21H99.21V0H0ZM25.52,4H95.24v17.1H25.52Zm0,21.15H95.24V95.24H25.52ZM4,4H21.54v17.1H4ZM4,25.12H21.54V95.24H4Z"/><path class="cls-1" d="M73.77,39.83l2.79,2.78,2.38-2.38V61.37A17.37,17.37,0,0,1,61.61,78.7H40.86l2.31-2.3-2.79-2.79-7,7,7.31,7.31,2.79-2.78-2.31-2.3H61.69A21.31,21.31,0,0,0,83,61.53V40.07l2.22,2.22L88,39.51l-7-7Z"/></g></g></svg>