<svg xmlns="http://www.w3.org/2000/svg" viewBox="0 0 74.27 99.03"><defs><style>.cls-1{fill:#848484;}</style></defs><g id="Calque_2" data-name="Calque 2"><g id="Calque_1-2" data-name="Calque 1"><rect class="cls-1" x="30.75" y="56.81" width="32.32" height="2.17"/><rect class="cls-1" x="30.75" y="62.23" width="32.32" height="2.17"/><rect class="cls-1" x="30.75" y="73.38" width="32.32" height="2.17"/><rect class="cls-1" x="30.75" y="78.81" width="32.32" height="2.17"/><path class="cls-1" d="M24.05,42.74A14.16,14.16,0,0,0,38.2,28.59H24.05V14.43a14.16,14.16,0,1,0,0,28.31ZM21,18V31.68H34.67A11.06,11.06,0,1,1,21,18Z"/><rect class="cls-1" x="44.73" y="35.47" width="2.17" height="4.98"/><rect class="cls-1" x="49.1" y="23.91" width="2.17" height="16.54"/><rect class="cls-1" x="53.47" y="15.5" width="2.17" height="24.94"/><rect class="cls-1" x="57.83" y="23.38" width="2.17" height="17.07"/><rect class="cls-1" x="62.2" y="31.41" width="2.17" height="9.03"/><polygon class="cls-1" points="16.09 62.76 13.14 59.9 11.2 62.01 16.31 66.98 25.25 56.12 23.09 54.25 16.09 62.76"/><polygon class="cls-1" points="16.09 79.34 13.14 76.47 11.2 78.58 16.31 83.55 25.25 72.69 23.09 70.82 16.09 79.34"/><path class="cls-1" d="M25.56,12.92V27.08H39.71A14.15,14.15,0,0,0,25.56,12.92Z"/><path class="cls-1" d="M74.27,0H0V99H74.27ZM72.1,96.86H2.17V2.17H72.1Z"/></g></g></svg>