<svg xmlns="http://www.w3.org/2000/svg" viewBox="0 0 99.31 77.96"><defs><style>.cls-1{fill:#848484;}</style></defs><g id="Calque_2" data-name="Calque 2"><g id="Calque_1-2" data-name="Calque 1"><path class="cls-1" d="M36,56.27H23.21a22.74,22.74,0,0,1-6.61-.86,19.88,19.88,0,0,1-7.1-3.85A20.06,20.06,0,0,1,26.64,16.63,1.24,1.24,0,0,0,28,16.08a27,27,0,0,1,49.68,6.71,1.22,1.22,0,0,0,1.15.87A16.34,16.34,0,1,1,80.5,56.25c-4.23,0-8.47,0-12.7,0a1.2,1.2,0,0,0,0,2.39H80.2a19.24,19.24,0,0,0,12.89-4.79A18.72,18.72,0,0,0,78.82,21.27l1.14.87a29.35,29.35,0,0,0-54-7.25l1.34-.55A22.42,22.42,0,0,0,5.76,51.23,22.58,22.58,0,0,0,22,58.64c3.65.07,7.32,0,11,0h3a1.19,1.19,0,0,0,0-2.37Z"/><path class="cls-1" d="M50.63,30.84v40.3c0,1.86-.07,3.73,0,5.59v.08a1.19,1.19,0,0,0,2.38,0V36.51c0-1.86.07-3.73,0-5.59v-.08a1.19,1.19,0,0,0-2.38,0Z"/><path class="cls-1" d="M51,31.68,63.16,41.93l1.69,1.43a1.22,1.22,0,0,0,1.68,0,1.19,1.19,0,0,0,0-1.68L54.34,31.43,52.65,30A1.23,1.23,0,0,0,51,30a1.19,1.19,0,0,0,0,1.68Z"/><path class="cls-1" d="M50.91,30,38.73,40.24,37,41.66a1.19,1.19,0,1,0,1.68,1.68L50.9,33.1l1.69-1.43a1.2,1.2,0,0,0,0-1.68,1.21,1.21,0,0,0-1.68,0Z"/></g></g></svg>