<svg xmlns="http://www.w3.org/2000/svg" viewBox="0 0 88.7 99.4"><defs><style>.cls-1{fill:#848484;}</style></defs><g id="Calque_2" data-name="Calque 2"><g id="Calque_1-2" data-name="Calque 1"><path class="cls-1" d="M83.09,45H81V6.56A6.56,6.56,0,0,0,74.49,0H38.88a1.51,1.51,0,0,0-.35.14h-.1a1.27,1.27,0,0,0-.34.27L8.26,32.35a1.41,1.41,0,0,0-.3.46V33a1.68,1.68,0,0,0-.07.39V45H5.61A5.61,5.61,0,0,0,0,50.65V85.38A5.61,5.61,0,0,0,5.61,91H7.82v1.87a6.55,6.55,0,0,0,6.56,6.54H74.49A6.55,6.55,0,0,0,81,92.86V91h2.06a5.61,5.61,0,0,0,5.61-5.61V50.65A5.61,5.61,0,0,0,83.09,45ZM37.61,5.68V28.27A3.59,3.59,0,0,1,34,31.84H13.12ZM11,35H34a6.77,6.77,0,0,0,6.77-6.77v-25H74.49a3.34,3.34,0,0,1,3.33,3.34V45H11ZM77.82,92.86a3.34,3.34,0,0,1-3.33,3.34H14.43a3.35,3.35,0,0,1-3.35-3.34V91h66.8Zm7.68-7.48a2.41,2.41,0,0,1-2.41,2.41H5.61a2.4,2.4,0,0,1-2.4-2.41V50.65a2.4,2.4,0,0,1,2.4-2.41H83.09a2.41,2.41,0,0,1,2.41,2.41Z"/><path class="cls-1" d="M18.61,55.29H11a1.06,1.06,0,0,0-.85,1.06V78.56A1.07,1.07,0,0,0,11,79.63a.81.81,0,0,0,.22,0h7.32C25.26,79.63,30,74.54,30,67.27S25.41,55.29,18.61,55.29Zm-.28,20.62H14.05V59h4.28C25.46,59,26,65.43,26,67.37,26,72.72,23.14,75.91,18.33,75.91Z"/><path class="cls-1" d="M44.19,55C37.5,55,33,60,33,67.46S37.51,80,44,80c7.7,0,11.15-6.35,11.15-12.64C55.13,60,50.64,55,44.19,55Zm-.13,21.26c-4.86,0-7.08-4.59-7.08-8.86s1.88-8.67,7.15-8.67,7,4.65,7,8.64C51.16,69.43,50.65,76.23,44.06,76.23Z"/><path class="cls-1" d="M68.93,58.7a5.33,5.33,0,0,1,5.72,4.07,1.07,1.07,0,0,0,1,.71h1.72a1,1,0,0,0,.5-.13,1,1,0,0,0,.33-.25,1.09,1.09,0,0,0,.22-.89,10,10,0,0,0-.6-1.82C76.43,57,73.25,55.05,69,55.05c-7.49,0-10.85,6.5-10.85,12.53C58.14,75,62.49,80,69,80a9,9,0,0,0,8.87-5.68A12.74,12.74,0,0,0,78.33,73a1.09,1.09,0,0,0-.17-.94,1.3,1.3,0,0,0-.34-.28,1,1,0,0,0-.52-.16H75.58a1.07,1.07,0,0,0-1,.68C73.53,75,71.81,76.18,69,76.18c-5.09,0-6.9-4.69-6.9-8.71S63.89,58.7,68.93,58.7Z"/></g></g></svg>