<svg height='100px' width='100px'  fill="#000000" xmlns="http://www.w3.org/2000/svg" xmlns:xlink="http://www.w3.org/1999/xlink" version="1.1" x="0px" y="0px" viewBox="0 0 52 52" style="enable-background:new 0 0 52 52;" xml:space="preserve"><style type="text/css">
	.st0{fill:none;}
</style><g><path d="M46.8068314,7.1549683c-0.4899902-1.039978-1.5499878-1.7099609-2.710022-1.7099609   c-0.4400024,0-0.8800049,0.0899658-1.25,0.2699585l-22.380003,9.6100464c-1.5,0.7099609-2.1300049,2.5-1.4199829,3.9899902   c0.4899902,1.039978,1.5499878,1.710022,2.710022,1.710022c0.4400024,0,0.8800049-0.1000366,1.25-0.2700195l22.380003-9.6099854   c0.7299805-0.3400269,1.2699585-0.9500122,1.539978-1.7000122C47.196846,8.6849976,47.1568069,7.875,46.8068314,7.1549683z"></path><polygon points="12.7568455,14.0349731 17.6268406,17.5650024 15.7668552,11.8549805 20.6268406,8.3150024 14.6168308,8.3150024    12.7568455,2.6049805 10.9068089,8.3150024 4.8967986,8.3150024 9.7568455,11.8549805 7.8967986,17.5650024  "></polygon><polygon points="19.8868504,12.3649902 23.6268406,9.6549683 27.3568211,12.3649902 25.9268284,7.9749756 29.6668186,5.2650146    25.0468235,5.2650146 23.6268406,0.8850098 22.1968479,5.2650146 17.5868015,5.2650146 21.316843,7.9749756  "></polygon><path d="M12.1367893,32.0754395c-0.5133057,0-1.0083618-0.0759888-1.4799805-0.208374v13.2479248c0,3.3099976,2.6900024,6,6,6   h13.9299927c3.3099957,0,5.9999981-2.6900024,5.9999981-6V31.8676147c-0.4718018,0.131958-0.9669189,0.2078247-1.4802856,0.2078247   H12.1367893z"></path><path d="M35.1068192,23.085022H12.1368504c-1.9299927,0-3.4900513,1.5699463-3.4900513,3.5   c0,1.9199829,1.5600586,3.4899902,3.4900513,3.4899902h22.9699688c1.9299927,0,3.5-1.5700073,3.5-3.4899902   C38.6068192,24.6549683,37.0368118,23.085022,35.1068192,23.085022z"></path></g></svg>