<svg height='100px' width='100px'  fill="#797979" xmlns:dc="http://purl.org/dc/elements/1.1/" xmlns:cc="http://creativecommons.org/ns#" xmlns:rdf="http://www.w3.org/1999/02/22-rdf-syntax-ns#" xmlns:svg="http://www.w3.org/2000/svg" xmlns="http://www.w3.org/2000/svg" xmlns:sodipodi="http://sodipodi.sourceforge.net/DTD/sodipodi-0.dtd" xmlns:inkscape="http://www.inkscape.org/namespaces/inkscape" version="1.1" x="0px" y="0px" viewBox="0 0 100 100"><g transform="translate(0,-952.36218)"><path style="text-indent:0;text-transform:none;direction:ltr;block-progression:tb;baseline-shift:baseline;color:#000000;enable-background:accumulate;" d="m 34.6875,957.36625 a 3.0003,3.0001643 0 0 0 -2.375,1.65618 c 0,0 -1.908905,3.68998 -4.4375,6.21846 -2.057189,2.0571 -7.874995,4.12482 -10.875,4.12482 a 3.0003,3.0001643 0 0 0 -3,2.99986 l 0,24.99887 c 0,30.20476 18.167216,49.99776 36,49.99776 17.832784,0 36,-19.793 36,-49.99776 l 0,-24.99887 a 3.0003,3.0001643 0 0 0 -3,-2.99986 c -3.000005,0 -8.817811,-2.06772 -10.875,-4.12482 -2.528595,-2.52848 -4.4375,-6.21846 -4.4375,-6.21846 A 3.0003,3.0001643 0 0 0 65,957.36625 l -15,0 -15,0 a 3.0003,3.0001643 0 0 0 -0.3125,0 z m 2.0625,5.99973 13.25,0 13.25,0 c 0.863133,1.51961 2.271999,3.74058 4.625,6.09347 3.185954,3.18581 7.820855,5.02212 12.125,5.62475 l 0,22.28024 c 0,27.79276 -16.808784,43.99806 -30,43.99806 -13.191216,0 -30,-16.2053 -30,-43.99806 l 0,-22.28024 c 4.304145,-0.60263 8.939046,-2.43894 12.125,-5.62475 2.353001,-2.35289 3.761867,-4.57386 4.625,-6.09347 z M 50,983.36508 c -2.486189,0 -4.92322,0.64642 -6.84375,2.1874 C 41.23572,987.09346 40,989.62074 40,992.36467 l 0,2.99986 a 3.0003,3.0001643 0 0 0 -0.3125,0 A 3.0003,3.0001643 0 0 0 37,998.3644 l 0,19.9991 a 3.0003,3.0001643 0 0 0 3,2.9999 l 20,0 a 3.0003,3.0001643 0 0 0 3,-2.9999 l 0,-19.9991 a 3.0003,3.0001643 0 0 0 -3,-2.99987 l 0,-2.99986 c 0,-2.74393 -1.23572,-5.27121 -3.15625,-6.81219 -1.92053,-1.54098 -4.357561,-2.1874 -6.84375,-2.1874 z m 0,5.99972 c 1.391811,0 2.45253,0.38554 3.0625,0.87496 0.60997,0.48943 0.9375,0.99101 0.9375,2.12491 l 0,2.99986 -8,0 0,-2.99986 c 0,-1.1339 0.32753,-1.63548 0.9375,-2.12491 0.60997,-0.48942 1.670689,-0.87496 3.0625,-0.87496 z m -7,11.9995 14,0 0,13.9993 -14,0 0,-13.9993 z" fill="#797979" fill-opacity="1" stroke="none" marker="none" visibility="visible" display="inline" overflow="visible"></path></g></svg>