<svg  fill="#797979" xmlns="http://www.w3.org/2000/svg" xmlns:xlink="http://www.w3.org/1999/xlink" version="1.1" x="0px" y="0px" viewBox="0 0 100 100" enable-background="new 0 0 100 100" xml:space="preserve"><g display="none"><rect x="-185" y="-669" display="inline" fill="#797979" stroke="#797979" stroke-width="3.1368" stroke-miterlimit="10" width="1254" height="1278"></rect></g><g><path fill="none" d="M59.796,45.751l-3.936-1.16c-0.915-0.269-1.716-0.851-2.256-1.639l-2.32-3.385   c-0.409-0.597-1.06-0.939-1.783-0.939c-0.724,0-1.375,0.343-1.784,0.939l-2.32,3.385c-0.54,0.788-1.341,1.37-2.256,1.639   l-3.935,1.16c-0.695,0.205-1.222,0.718-1.445,1.407c-0.224,0.688-0.099,1.412,0.343,1.985l2.502,3.253   c0.582,0.755,0.888,1.697,0.862,2.651l-0.113,4.103c-0.02,0.724,0.305,1.383,0.89,1.808c0.585,0.426,1.312,0.531,1.996,0.288   l3.866-1.375c0.45-0.159,0.922-0.239,1.395-0.239c0.472,0,0.944,0.08,1.394,0.239l3.867,1.375c0.684,0.243,1.41,0.138,1.996-0.288   c0.585-0.425,0.91-1.084,0.89-1.808l-0.113-4.103c-0.026-0.954,0.28-1.896,0.862-2.652l2.501-3.251   c0.441-0.574,0.566-1.298,0.343-1.986C61.017,46.469,60.49,45.956,59.796,45.751z"></path><path fill="none" d="M91.948,45.751l-3.936-1.16c-0.915-0.269-1.716-0.851-2.256-1.639l-2.32-3.385   c-0.409-0.597-1.06-0.939-1.783-0.939c-0.724,0-1.375,0.343-1.784,0.939l-2.32,3.385c-0.54,0.788-1.341,1.37-2.256,1.639   l-3.935,1.16c-0.695,0.205-1.222,0.718-1.445,1.407c-0.224,0.688-0.099,1.412,0.343,1.985l2.502,3.253   c0.582,0.756,0.888,1.698,0.862,2.651l-0.113,4.103c-0.02,0.724,0.305,1.383,0.89,1.808c0.585,0.426,1.312,0.531,1.996,0.288   l3.866-1.375c0.45-0.159,0.922-0.239,1.395-0.239c0.472,0,0.944,0.08,1.394,0.239l3.867,1.375c0.684,0.243,1.41,0.138,1.996-0.288   c0.585-0.425,0.91-1.084,0.89-1.808l-0.113-4.103c-0.026-0.954,0.28-1.896,0.862-2.652l2.501-3.251   c0.441-0.574,0.566-1.298,0.343-1.986C93.17,46.469,92.643,45.956,91.948,45.751z"></path><path d="M92.514,43.833l-3.937-1.16c-0.475-0.14-0.891-0.442-1.171-0.852l-2.32-3.385c-0.776-1.133-2.06-1.809-3.433-1.809   c-1.374,0-2.657,0.676-3.433,1.809l-2.32,3.385c-0.281,0.409-0.697,0.712-1.172,0.852l-3.936,1.16h0   c-1.317,0.389-2.357,1.4-2.781,2.707c-0.424,1.307-0.177,2.735,0.66,3.823l2.502,3.252c0.302,0.394,0.461,0.883,0.448,1.378   l-0.113,4.103c-0.038,1.372,0.603,2.674,1.713,3.48c1.111,0.809,2.547,1.015,3.841,0.555l3.866-1.375   c0.467-0.166,0.982-0.166,1.449,0l3.866,1.375c0.454,0.161,0.926,0.24,1.395,0.24c0.867,0,1.726-0.271,2.447-0.795   c1.111-0.807,1.751-2.108,1.713-3.48l-0.113-4.103c-0.014-0.496,0.146-0.984,0.448-1.378l2.502-3.251   c0.837-1.089,1.084-2.518,0.66-3.824C94.871,45.234,93.832,44.222,92.514,43.833z M93.05,49.145l-2.501,3.251   c-0.583,0.756-0.889,1.698-0.862,2.652l0.113,4.103c0.02,0.724-0.305,1.383-0.89,1.808c-0.586,0.426-1.312,0.531-1.996,0.288   l-3.867-1.375c-0.449-0.159-0.921-0.239-1.394-0.239c-0.473,0-0.945,0.08-1.395,0.239l-3.866,1.375   c-0.684,0.243-1.41,0.138-1.996-0.288c-0.585-0.425-0.91-1.084-0.89-1.808l0.113-4.103c0.026-0.953-0.28-1.896-0.862-2.651   l-2.502-3.253c-0.441-0.573-0.566-1.297-0.343-1.985c0.224-0.689,0.75-1.202,1.445-1.407l3.935-1.16   c0.915-0.269,1.716-0.851,2.256-1.639l2.32-3.385c0.409-0.597,1.06-0.939,1.784-0.939c0.724,0,1.374,0.343,1.783,0.939l2.32,3.385   c0.54,0.788,1.341,1.37,2.256,1.639l3.936,1.16c0.695,0.205,1.222,0.718,1.445,1.407C93.617,47.847,93.492,48.57,93.05,49.145z"></path><path d="M60.361,43.833l-3.937-1.16c-0.475-0.14-0.891-0.442-1.171-0.852l-2.32-3.385c-0.776-1.133-2.06-1.809-3.433-1.809   c-1.374,0-2.657,0.676-3.433,1.809l-2.32,3.385c-0.281,0.409-0.697,0.712-1.172,0.852l-3.936,1.16h0   c-1.317,0.389-2.357,1.4-2.781,2.707c-0.424,1.307-0.177,2.735,0.66,3.823l2.502,3.253c0.302,0.393,0.461,0.881,0.447,1.377   l-0.113,4.103c-0.038,1.372,0.603,2.674,1.713,3.48c1.111,0.809,2.547,1.015,3.841,0.555l3.866-1.375   c0.467-0.166,0.982-0.166,1.449,0l3.866,1.375c0.454,0.161,0.926,0.24,1.395,0.24c0.867,0,1.726-0.271,2.447-0.795   c1.111-0.807,1.751-2.108,1.713-3.48l-0.113-4.103c-0.014-0.496,0.146-0.984,0.448-1.378l2.502-3.251   c0.837-1.089,1.084-2.518,0.66-3.824C62.719,45.234,61.679,44.222,60.361,43.833z M60.898,49.145l-2.501,3.251   c-0.583,0.756-0.889,1.698-0.862,2.652l0.113,4.103c0.02,0.724-0.305,1.383-0.89,1.808c-0.585,0.426-1.312,0.531-1.996,0.288   l-3.867-1.375c-0.449-0.159-0.921-0.239-1.394-0.239c-0.473,0-0.945,0.08-1.395,0.239l-3.866,1.375   c-0.684,0.243-1.41,0.138-1.996-0.288c-0.585-0.425-0.91-1.084-0.89-1.808l0.113-4.103c0.026-0.954-0.28-1.896-0.862-2.651   l-2.502-3.253c-0.441-0.573-0.566-1.297-0.343-1.985c0.224-0.689,0.75-1.202,1.445-1.407l3.935-1.16   c0.915-0.269,1.716-0.851,2.256-1.639l2.32-3.385c0.409-0.597,1.06-0.939,1.784-0.939c0.724,0,1.374,0.343,1.783,0.939l2.32,3.385   c0.54,0.788,1.341,1.37,2.256,1.639l3.936,1.16c0.695,0.205,1.222,0.718,1.445,1.407C61.465,47.847,61.34,48.57,60.898,49.145z"></path><path d="M27.927,44.793l-3.936-1.16c-0.698-0.206-1.303-0.645-1.714-1.245l-2.32-3.385c-1.256-1.833-3.96-1.833-5.216,0   l-2.32,3.385c-0.411,0.6-1.017,1.04-1.714,1.245l-3.936,1.16c-2.131,0.628-2.967,3.2-1.612,4.961l2.502,3.252   c0.444,0.576,0.675,1.288,0.655,2.015l-0.113,4.102c-0.061,2.221,2.127,3.81,4.22,3.066l3.866-1.375   c0.685-0.244,1.434-0.244,2.119,0l3.866,1.375c2.093,0.744,4.281-0.845,4.22-3.066l-0.113-4.102   c-0.02-0.727,0.211-1.439,0.655-2.015l2.502-3.252C30.893,47.993,30.058,45.421,27.927,44.793z"></path></g></svg>