<svg height='100px' width='100px'  fill="#797979" xmlns="http://www.w3.org/2000/svg" xmlns:xlink="http://www.w3.org/1999/xlink" version="1.1" x="0px" y="0px" viewBox="0 0 100 100" enable-background="new 0 0 100 100" xml:space="preserve"><g display="none"><rect x="-545" y="-669" display="inline" fill="#797979" stroke="#797979" stroke-width="3.1368" stroke-miterlimit="10" width="1254" height="1278"></rect></g><g><path d="M28.426,44.792l-3.936-1.16c-0.698-0.206-1.303-0.645-1.714-1.245l-2.32-3.385c-1.256-1.833-3.96-1.833-5.216,0   l-2.32,3.385c-0.411,0.6-1.017,1.04-1.714,1.245l-3.936,1.16c-2.131,0.628-2.967,3.2-1.612,4.961l2.502,3.252   c0.443,0.576,0.675,1.288,0.655,2.015l-0.113,4.102c-0.061,2.221,2.127,3.81,4.22,3.066l3.866-1.375   c0.685-0.244,1.434-0.244,2.119,0l3.866,1.375c2.093,0.744,4.281-0.845,4.22-3.066l-0.113-4.102   c-0.02-0.727,0.211-1.439,0.655-2.015l2.502-3.252C31.392,47.992,30.557,45.42,28.426,44.792z"></path><path d="M60.578,44.792l-3.936-1.16c-0.698-0.206-1.303-0.645-1.714-1.245l-2.32-3.385c-1.256-1.833-3.96-1.833-5.216,0   l-2.32,3.385c-0.411,0.6-1.016,1.04-1.714,1.245l-3.936,1.16c-2.131,0.628-2.967,3.2-1.612,4.961l2.502,3.252   c0.443,0.576,0.675,1.288,0.655,2.015l-0.113,4.102c-0.061,2.221,2.127,3.81,4.22,3.066l3.866-1.375   c0.685-0.244,1.434-0.244,2.119,0l3.866,1.375c2.093,0.744,4.281-0.845,4.22-3.066l-0.113-4.102   c-0.02-0.727,0.211-1.439,0.655-2.015l2.502-3.252C63.545,47.992,62.709,45.42,60.578,44.792z"></path><path d="M92.73,44.792l-3.936-1.16c-0.698-0.206-1.303-0.645-1.714-1.245l-2.32-3.385c-1.256-1.833-3.96-1.833-5.216,0l-2.32,3.385   c-0.411,0.6-1.017,1.04-1.714,1.245l-3.936,1.16c-2.131,0.628-2.967,3.2-1.612,4.961l2.502,3.252   c0.444,0.576,0.675,1.288,0.655,2.015l-0.113,4.102c-0.061,2.221,2.127,3.81,4.22,3.066l3.866-1.375   c0.685-0.244,1.434-0.244,2.119,0l3.866,1.375c2.093,0.744,4.281-0.845,4.22-3.066l-0.113-4.102   c-0.02-0.727,0.211-1.439,0.655-2.015l2.502-3.252C95.697,47.992,94.861,45.42,92.73,44.792z"></path></g></svg>