<svg height='100px' width='100px'  fill="#797979" xmlns="http://www.w3.org/2000/svg" xmlns:xlink="http://www.w3.org/1999/xlink" version="1.1" x="0px" y="0px" viewBox="0 0 100 100" enable-background="new 0 0 100 100" xml:space="preserve"><g display="none"><rect x="-425" y="-669" display="inline" fill="#797979" stroke="#797979" stroke-width="3.1368" stroke-miterlimit="10" width="1254" height="1278"></rect></g><g><path fill="none" d="M91.949,45.752l-3.936-1.161c-0.915-0.269-1.716-0.851-2.256-1.639l-2.32-3.385   c-0.409-0.597-1.059-0.939-1.783-0.939s-1.374,0.343-1.784,0.939l-2.319,3.385c-0.54,0.788-1.342,1.37-2.257,1.639l-3.935,1.161   c-0.694,0.205-1.221,0.717-1.445,1.405c-0.224,0.689-0.099,1.413,0.343,1.986l2.502,3.253c0.582,0.756,0.888,1.698,0.862,2.651   l-0.113,4.103c-0.02,0.724,0.304,1.383,0.89,1.808c0.585,0.426,1.313,0.532,1.996,0.288l3.866-1.375   c0.45-0.159,0.922-0.239,1.395-0.239c0.473,0,0.944,0.08,1.394,0.239l3.867,1.375c0.682,0.242,1.409,0.138,1.995-0.288   c0.585-0.425,0.91-1.084,0.89-1.808l-0.113-4.103c-0.026-0.953,0.28-1.896,0.862-2.651l2.502-3.252   c0.441-0.574,0.566-1.299,0.342-1.987C93.169,46.469,92.643,45.958,91.949,45.752z"></path><path d="M92.514,43.834l-3.937-1.161c-0.475-0.14-0.891-0.442-1.171-0.852l-2.32-3.385c-0.776-1.133-2.059-1.809-3.432-1.809   c0,0,0,0,0,0c-1.373,0-2.657,0.676-3.433,1.809l-2.319,3.385c-0.281,0.409-0.697,0.712-1.172,0.852l-3.936,1.161   c-1.317,0.388-2.357,1.399-2.781,2.706c-0.425,1.306-0.178,2.735,0.66,3.823l2.502,3.252c0.302,0.394,0.461,0.883,0.448,1.378   l-0.113,4.103c-0.038,1.372,0.602,2.673,1.713,3.48c0.721,0.524,1.579,0.795,2.447,0.795c0.469,0,0.94-0.079,1.395-0.24   l3.866-1.375c0.468-0.166,0.983-0.166,1.45,0l3.866,1.375c1.293,0.458,2.729,0.253,3.841-0.555c1.111-0.807,1.751-2.108,1.713-3.48   l-0.113-4.103c-0.014-0.495,0.146-0.984,0.448-1.378l2.502-3.252c0.837-1.088,1.084-2.518,0.66-3.824   C94.87,45.234,93.831,44.222,92.514,43.834z M93.051,49.145l-2.502,3.252c-0.582,0.756-0.888,1.698-0.862,2.651l0.113,4.103   c0.02,0.724-0.305,1.383-0.89,1.808c-0.586,0.426-1.313,0.53-1.995,0.288l-3.867-1.375c-0.45-0.159-0.921-0.239-1.394-0.239   c-0.472,0-0.945,0.08-1.395,0.239l-3.866,1.375c-0.683,0.244-1.41,0.138-1.996-0.288c-0.585-0.425-0.91-1.084-0.89-1.808   l0.113-4.103c0.026-0.953-0.28-1.896-0.862-2.651l-2.502-3.253c-0.441-0.573-0.566-1.297-0.343-1.986   c0.224-0.688,0.75-1.2,1.445-1.405l3.935-1.161c0.916-0.269,1.717-0.851,2.257-1.639l2.319-3.385   c0.41-0.597,1.06-0.939,1.784-0.939s1.374,0.343,1.783,0.939l2.32,3.385c0.54,0.788,1.342,1.37,2.256,1.639l3.936,1.161   c0.694,0.205,1.221,0.717,1.444,1.405C93.617,47.846,93.492,48.571,93.051,49.145z"></path><path d="M60.079,44.793l-3.936-1.16c-0.698-0.206-1.303-0.645-1.714-1.245l-2.32-3.385c-1.256-1.833-3.96-1.833-5.216,0   l-2.32,3.385c-0.411,0.6-1.016,1.04-1.714,1.245l-3.936,1.16c-2.131,0.628-2.967,3.2-1.612,4.961l2.502,3.252   c0.443,0.576,0.675,1.288,0.655,2.015l-0.113,4.102c-0.061,2.221,2.127,3.81,4.22,3.066l3.866-1.375   c0.685-0.244,1.434-0.244,2.119,0l3.866,1.375c2.093,0.744,4.281-0.845,4.22-3.066l-0.113-4.102   c-0.02-0.727,0.211-1.439,0.655-2.015l2.502-3.252C63.046,47.993,62.21,45.421,60.079,44.793z"></path><path d="M27.927,44.793l-3.936-1.16c-0.698-0.206-1.303-0.645-1.714-1.245l-2.32-3.385c-1.256-1.833-3.96-1.833-5.216,0   l-2.32,3.385c-0.411,0.6-1.017,1.04-1.714,1.245l-3.936,1.16c-2.131,0.628-2.967,3.2-1.612,4.961l2.502,3.252   c0.444,0.576,0.675,1.288,0.655,2.015l-0.113,4.102c-0.061,2.221,2.127,3.81,4.22,3.066l3.866-1.375   c0.685-0.244,1.434-0.244,2.119,0l3.866,1.375c2.093,0.744,4.281-0.845,4.22-3.066l-0.113-4.102   c-0.02-0.727,0.211-1.439,0.655-2.015l2.502-3.252C30.893,47.993,30.057,45.421,27.927,44.793z"></path></g></svg>