<svg height='100px' width='100px'  fill="#797979" xmlns="http://www.w3.org/2000/svg" xmlns:xlink="http://www.w3.org/1999/xlink" version="1.1" x="0px" y="0px" viewBox="0 0 100 100" enable-background="new 0 0 100 100" xml:space="preserve"><g display="none"><rect x="-65" y="-669" display="inline" fill="#797979" stroke="#797979" stroke-width="3.1368" stroke-miterlimit="10" width="1254" height="1278"></rect></g><g><path fill="none" d="M91.526,45.844l-3.851-1.136c-0.895-0.263-1.679-0.832-2.207-1.603l-2.269-3.311   c-0.4-0.584-1.037-0.919-1.745-0.919c-0.708,0-1.345,0.335-1.745,0.919l-2.269,3.311c-0.528,0.771-1.312,1.34-2.207,1.603   l-3.85,1.136c-0.679,0.201-1.195,0.701-1.413,1.375c-0.219,0.674-0.097,1.382,0.335,1.944l2.448,3.181   c0.569,0.739,0.869,1.661,0.843,2.594l-0.11,4.014c-0.02,0.708,0.298,1.353,0.871,1.768c0.573,0.417,1.284,0.521,1.952,0.282   l3.782-1.345c0.44-0.156,0.902-0.234,1.364-0.234c0.462,0,0.924,0.078,1.363,0.234l3.783,1.345c0.67,0.238,1.38,0.135,1.952-0.282   c0.573-0.416,0.89-1.06,0.871-1.768l-0.11-4.014c-0.026-0.933,0.274-1.855,0.844-2.595l2.447-3.18   c0.432-0.562,0.554-1.27,0.335-1.944C92.721,46.546,92.206,46.045,91.526,45.844z"></path><path fill="none" d="M60.072,45.844l-3.851-1.136c-0.895-0.263-1.679-0.832-2.207-1.603l-2.269-3.311   c-0.4-0.584-1.037-0.919-1.745-0.919c-0.708,0-1.345,0.335-1.745,0.919l-2.269,3.311c-0.528,0.771-1.312,1.34-2.207,1.603   l-3.85,1.136c-0.679,0.201-1.195,0.701-1.413,1.375c-0.219,0.674-0.096,1.382,0.335,1.943l2.448,3.182   c0.569,0.739,0.869,1.661,0.843,2.594l-0.11,4.014c-0.02,0.708,0.298,1.353,0.871,1.768c0.573,0.417,1.284,0.521,1.952,0.282   l3.782-1.345c0.44-0.156,0.902-0.234,1.364-0.234c0.462,0,0.924,0.078,1.363,0.234l3.783,1.345c0.67,0.238,1.38,0.135,1.952-0.282   c0.573-0.416,0.89-1.06,0.871-1.768l-0.11-4.014c-0.026-0.933,0.274-1.855,0.844-2.595l2.447-3.18   c0.432-0.562,0.554-1.27,0.335-1.944C61.266,46.546,60.751,46.045,60.072,45.844z"></path><path fill="none" d="M28.617,45.844l-3.851-1.136c-0.895-0.263-1.679-0.832-2.207-1.603l-2.269-3.311   c-0.4-0.584-1.037-0.919-1.745-0.919c-0.708,0-1.345,0.335-1.745,0.919l-2.269,3.311c-0.528,0.771-1.312,1.34-2.207,1.603   l-3.85,1.136c-0.679,0.201-1.195,0.701-1.413,1.375c-0.219,0.674-0.096,1.382,0.335,1.943l2.448,3.182   c0.569,0.739,0.869,1.661,0.843,2.594l-0.11,4.014c-0.02,0.708,0.298,1.353,0.871,1.768c0.573,0.417,1.284,0.521,1.952,0.282   l3.782-1.345c0.44-0.156,0.902-0.234,1.364-0.234c0.462,0,0.924,0.078,1.363,0.234l3.783,1.345c0.669,0.238,1.38,0.135,1.952-0.282   c0.573-0.416,0.89-1.06,0.871-1.768l-0.11-4.014c-0.026-0.933,0.274-1.855,0.844-2.595l2.447-3.18   c0.432-0.562,0.554-1.27,0.335-1.944C29.812,46.546,29.296,46.045,28.617,45.844z"></path><path d="M29.17,43.968l-3.851-1.136c-0.464-0.137-0.871-0.433-1.146-0.833l-2.269-3.311c-0.76-1.108-2.015-1.769-3.358-1.769   c-1.344,0-2.599,0.661-3.359,1.769l-2.269,3.311c-0.275,0.4-0.682,0.696-1.146,0.833l-3.851,1.136   c-1.289,0.379-2.306,1.369-2.721,2.647c-0.416,1.277-0.174,2.676,0.645,3.74l2.448,3.181c0.296,0.385,0.451,0.864,0.438,1.348   l-0.11,4.014c-0.037,1.342,0.589,2.616,1.676,3.405c1.087,0.79,2.492,0.993,3.758,0.543l3.782-1.345   c0.457-0.162,0.961-0.162,1.418,0l3.782,1.345c0.444,0.158,0.906,0.235,1.364,0.235c0.848,0,1.688-0.265,2.394-0.778   c1.087-0.789,1.713-2.063,1.676-3.405l-0.11-4.014c-0.013-0.485,0.142-0.963,0.438-1.348l2.448-3.18   c0.819-1.065,1.061-2.464,0.645-3.741C31.476,45.337,30.459,44.347,29.17,43.968z M29.695,49.163l-2.447,3.18   c-0.57,0.739-0.869,1.661-0.844,2.595l0.11,4.014c0.019,0.708-0.298,1.353-0.871,1.768c-0.572,0.417-1.283,0.52-1.952,0.282   l-3.783-1.345c-0.439-0.156-0.901-0.234-1.363-0.234c-0.462,0-0.924,0.078-1.364,0.234l-3.782,1.345   c-0.669,0.239-1.379,0.136-1.952-0.282c-0.573-0.416-0.89-1.06-0.871-1.768l0.11-4.014c0.026-0.932-0.274-1.854-0.843-2.594   l-2.448-3.182c-0.432-0.561-0.554-1.269-0.335-1.943c0.219-0.674,0.734-1.174,1.413-1.375l3.85-1.136   c0.895-0.263,1.679-0.832,2.207-1.603l2.269-3.311c0.4-0.584,1.037-0.919,1.745-0.919c0.708,0,1.344,0.335,1.745,0.919l2.269,3.311   c0.528,0.771,1.312,1.34,2.207,1.603l3.851,1.136c0.679,0.201,1.195,0.701,1.413,1.375C30.249,47.894,30.127,48.602,29.695,49.163z   "></path><path d="M60.625,43.968l-3.851-1.136c-0.464-0.137-0.871-0.433-1.146-0.833l-2.269-3.311c-0.76-1.108-2.015-1.769-3.358-1.769   c-1.344,0-2.599,0.661-3.359,1.769l-2.269,3.311c-0.275,0.4-0.682,0.696-1.146,0.833l-3.851,1.136   c-1.289,0.379-2.306,1.369-2.721,2.647c-0.416,1.277-0.174,2.676,0.645,3.74l2.448,3.181c0.296,0.385,0.451,0.864,0.438,1.348   l-0.11,4.014c-0.037,1.342,0.589,2.616,1.676,3.405c1.087,0.79,2.492,0.993,3.758,0.543l3.782-1.345   c0.457-0.162,0.961-0.162,1.418,0l3.782,1.345c0.444,0.158,0.906,0.235,1.364,0.235c0.848,0,1.688-0.265,2.394-0.778   c1.087-0.789,1.713-2.063,1.676-3.405l-0.11-4.014c-0.013-0.485,0.142-0.963,0.438-1.348l2.448-3.18   c0.819-1.065,1.061-2.464,0.645-3.741C62.931,45.337,61.914,44.347,60.625,43.968z M61.15,49.163l-2.447,3.18   c-0.57,0.739-0.869,1.661-0.844,2.595l0.11,4.014c0.019,0.708-0.298,1.353-0.871,1.768c-0.573,0.417-1.283,0.52-1.952,0.282   l-3.783-1.345c-0.439-0.156-0.901-0.234-1.363-0.234c-0.462,0-0.924,0.078-1.364,0.234l-3.782,1.345   c-0.668,0.239-1.379,0.136-1.952-0.282c-0.573-0.416-0.89-1.06-0.871-1.768l0.11-4.014c0.026-0.932-0.274-1.854-0.843-2.594   l-2.448-3.182c-0.432-0.561-0.554-1.269-0.335-1.943c0.219-0.674,0.734-1.174,1.413-1.375l3.85-1.136   c0.895-0.263,1.679-0.832,2.207-1.603l2.269-3.311c0.4-0.584,1.037-0.919,1.745-0.919c0.708,0,1.344,0.335,1.745,0.919l2.269,3.311   c0.528,0.771,1.312,1.34,2.207,1.603l3.851,1.136c0.679,0.201,1.195,0.701,1.413,1.375C61.704,47.894,61.582,48.602,61.15,49.163z"></path><path d="M92.079,43.968l-3.851-1.136c-0.464-0.137-0.871-0.433-1.146-0.833l-2.269-3.311c-0.76-1.108-2.015-1.769-3.358-1.769   c-1.344,0-2.599,0.661-3.359,1.769l-2.269,3.311c-0.275,0.4-0.682,0.696-1.146,0.833l-3.851,1.136   c-1.289,0.379-2.306,1.369-2.721,2.646c-0.415,1.278-0.174,2.677,0.645,3.741l2.448,3.181c0.296,0.385,0.451,0.864,0.438,1.348   l-0.11,4.014c-0.037,1.342,0.589,2.616,1.676,3.405c1.087,0.79,2.492,0.993,3.758,0.543l3.782-1.345   c0.458-0.162,0.961-0.162,1.418,0l3.782,1.345c0.444,0.158,0.906,0.235,1.364,0.235c0.848,0,1.688-0.265,2.394-0.778   c1.087-0.789,1.713-2.063,1.676-3.405l-0.11-4.014c-0.013-0.485,0.142-0.963,0.438-1.348l2.448-3.18   c0.819-1.065,1.061-2.464,0.645-3.741C94.385,45.337,93.368,44.347,92.079,43.968z M92.604,49.163l-2.447,3.18   c-0.57,0.739-0.869,1.661-0.844,2.595l0.11,4.014c0.019,0.708-0.298,1.353-0.871,1.768c-0.573,0.417-1.283,0.52-1.952,0.282   l-3.783-1.345c-0.439-0.156-0.901-0.234-1.363-0.234c-0.462,0-0.924,0.078-1.364,0.234l-3.782,1.345   c-0.668,0.239-1.38,0.136-1.952-0.282c-0.573-0.416-0.89-1.06-0.871-1.768l0.11-4.014c0.026-0.932-0.274-1.854-0.843-2.594   l-2.448-3.181c-0.432-0.562-0.554-1.271-0.335-1.944c0.219-0.674,0.734-1.174,1.413-1.375l3.85-1.136   c0.895-0.263,1.679-0.832,2.207-1.603l2.269-3.311c0.4-0.584,1.037-0.919,1.745-0.919c0.708,0,1.344,0.335,1.745,0.919l2.269,3.311   c0.528,0.771,1.312,1.34,2.207,1.603l3.851,1.136c0.679,0.201,1.195,0.701,1.413,1.375C93.159,47.894,93.036,48.602,92.604,49.163z   "></path></g></svg>