<svg height='100px' width='100px'  fill="#797979" xmlns:x="http://ns.adobe.com/Extensibility/1.0/" xmlns:i="http://ns.adobe.com/AdobeIllustrator/10.0/" xmlns:graph="http://ns.adobe.com/Graphs/1.0/" xmlns="http://www.w3.org/2000/svg" xmlns:xlink="http://www.w3.org/1999/xlink" version="1.1" x="0px" y="0px" viewBox="0 0 64 64" enable-background="new 0 0 64 64" xml:space="preserve"><metadata><sfw xmlns="http://ns.adobe.com/SaveForWeb/1.0/"><slices></slices><sliceSourceBounds height="16384" width="16389" x="-8165" y="-8160" bottomLeftOrigin="true"></sliceSourceBounds></sfw></metadata><g><g><path d="M54.555,31.167l-36-24c-0.307-0.206-0.703-0.224-1.026-0.05C17.203,7.292,17,7.631,17,8v48    c0,0.369,0.203,0.708,0.528,0.882C17.676,56.961,17.838,57,18,57c0.194,0,0.387-0.057,0.555-0.168l36-24    C54.833,32.646,55,32.334,55,32S54.833,31.353,54.555,31.167z M19,54.132V9.869L52.197,32L19,54.132z"></path><path d="M10,7C9.448,7,9,7.448,9,8v48c0,0.553,0.448,1,1,1s1-0.447,1-1V8C11,7.448,10.552,7,10,7z"></path></g></g></svg>