<svg height="100px" width="100px"  fill="#0080FF" xmlns="http://www.w3.org/2000/svg"  version="1.1" x="0px" y="0px" viewBox="0 0 100 100" enable-background="new 0 0 100 100" xml:space="preserve">
<title>noun_Box_43537.svg</title>
<path d="M94.816,73.35c0.003-0.059,0.018-0.115,0.018-0.176V25.079c0-0.02-0.005-0.038-0.006-0.057c0-0.035,0.003-0.07,0.002-0.105  c-0.002-0.092-0.021-0.183-0.032-0.275c-0.013-0.102-0.02-0.204-0.042-0.303c-0.019-0.081-0.051-0.159-0.076-0.239  c-0.035-0.109-0.066-0.218-0.113-0.323c-0.007-0.016-0.01-0.033-0.017-0.048c-0.03-0.064-0.073-0.119-0.107-0.18  c-0.054-0.097-0.105-0.193-0.169-0.283c-0.057-0.08-0.122-0.15-0.185-0.223c-0.064-0.074-0.126-0.149-0.198-0.217  c-0.075-0.071-0.157-0.131-0.238-0.193c-0.073-0.056-0.144-0.114-0.223-0.164c-0.095-0.06-0.197-0.107-0.298-0.156  c-0.062-0.03-0.117-0.069-0.182-0.095L50.639,5.246c-0.06-0.024-0.122-0.033-0.183-0.053c-0.12-0.039-0.238-0.08-0.362-0.104  c-0.089-0.018-0.177-0.021-0.267-0.03c-0.105-0.011-0.208-0.026-0.315-0.025c-0.099,0-0.196,0.015-0.294,0.025  c-0.096,0.01-0.191,0.014-0.287,0.033c-0.112,0.022-0.219,0.061-0.328,0.096c-0.071,0.023-0.143,0.034-0.213,0.062l-17.973,7.316  c-0.121,0.039-0.235,0.089-0.35,0.143L6.702,22.223c-0.005,0.002-0.01,0.006-0.015,0.008c-0.074,0.031-0.141,0.074-0.212,0.11  c-0.085,0.043-0.17,0.084-0.251,0.135c-0.021,0.013-0.044,0.022-0.065,0.036c-0.059,0.04-0.107,0.091-0.163,0.134  c-0.079,0.061-0.158,0.12-0.23,0.189c-0.073,0.07-0.137,0.147-0.202,0.224c-0.061,0.07-0.123,0.138-0.177,0.215  c-0.013,0.019-0.03,0.034-0.043,0.053c-0.043,0.064-0.073,0.137-0.111,0.204c-0.007,0.014-0.015,0.027-0.022,0.041  c-0.032,0.059-0.073,0.11-0.101,0.171c-0.006,0.014-0.008,0.028-0.014,0.041c-0.036,0.081-0.061,0.167-0.09,0.251  c-0.009,0.028-0.018,0.056-0.026,0.084c-0.024,0.078-0.056,0.155-0.073,0.233c-0.003,0.013-0.008,0.025-0.011,0.038  c-0.009,0.042-0.008,0.088-0.015,0.131c-0.007,0.046-0.01,0.093-0.016,0.14c-0.01,0.09-0.028,0.18-0.03,0.27  c0,0.019-0.001,0.037-0.001,0.055c0,0.005-0.001,0.01-0.001,0.015v48.172c0,0.027,0.007,0.052,0.008,0.078  c-0.044,1.196,0.628,2.354,1.792,2.861L48.944,94.59c0.02,0.008,0.04,0.011,0.059,0.019c0.149,0.061,0.302,0.109,0.458,0.146  c0.049,0.012,0.097,0.023,0.146,0.032c0.174,0.032,0.351,0.054,0.529,0.055c0.002,0,0.004,0,0.007,0c0,0,0.001,0,0.001,0  s0.001,0,0.001,0c0.002,0,0.004,0,0.007,0c0.035,0,0.069-0.006,0.104-0.008c0.026,0.001,0.05,0.008,0.077,0.008  c0.659,0,1.262-0.218,1.757-0.578L93.039,76.3C94.229,75.778,94.899,74.576,94.816,73.35z M31.275,18.698l33.613,15.626  l-14.753,6.918L15.362,25.176L31.275,18.698z M49.531,11.266l34.779,13.95l-12.336,5.785l-33.11-15.392L49.531,11.266z   M10.833,29.692l36.5,16.864v40.782L10.833,71.4V29.692z M53.333,46.37l35.5-16.647v41.871l-35.5,15.573V46.37z"></path></svg>