<svg  fill="#2196f3" xmlns="http://www.w3.org/2000/svg"  version="1.1" viewBox="0 0 847 847" x="0px" y="0px" fill-rule="evenodd" clip-rule="evenodd"><g><path  d="M482 136c12,2 23,5 34,9l14 -24c44,-76 146,-17 102,58l-14 25c9,8 17,16 25,25l24 -14c76,-44 134,58 59,101l-24 14c3,12 6,23 9,35l28 0c87,0 87,117 0,117l-28 0c-3,12 -6,23 -9,34l24 14c75,44 17,146 -59,102l-24 -14c-8,9 -16,17 -25,25l14 24c44,76 -58,134 -102,59l-14 -24c-11,3 -22,6 -34,9l0 28c0,87 -117,87 -117,0l0 -28c-12,-3 -23,-6 -35,-9l-14 24c-43,75 -145,17 -101,-59l14 -24c-9,-8 -17,-16 -25,-25l-25 14c-75,44 -134,-58 -58,-102l24 -14c-4,-11 -7,-22 -9,-34l-28 0c-87,0 -87,-117 0,-117l28 0c2,-12 5,-23 9,-35l-24 -14c-76,-43 -17,-145 58,-101l25 14c8,-9 16,-17 25,-25l-14 -25c-44,-75 58,-134 101,-58l14 24c12,-4 23,-7 35,-9l0 -28c0,-87 117,-87 117,0l0 28zm-25 21c25,3 48,10 70,19l25 -43c27,-46 85,-13 58,34l-25 43c20,14 37,32 52,51l43 -24c47,-27 80,31 33,58l-42 24c9,22 15,46 18,71l50 0c54,0 54,67 0,67l-50 0c-3,25 -9,48 -18,70l42 25c47,27 14,85 -33,58l-43 -25c-15,20 -32,37 -52,52l25 43c27,47 -31,80 -58,33l-25 -42c-22,9 -45,15 -70,18l0 50c0,54 -67,54 -67,0l0 -50c-25,-3 -49,-9 -71,-18l-24 42c-27,47 -85,14 -58,-33l24 -43c-19,-15 -37,-32 -51,-52l-43 25c-47,27 -80,-31 -34,-58l43 -25c-9,-22 -16,-45 -19,-70l-49 0c-54,0 -54,-67 0,-67l49 0c3,-25 10,-49 19,-71l-43 -24c-46,-27 -13,-85 34,-58l43 24c14,-19 32,-37 51,-51l-24 -43c-27,-47 31,-80 58,-34l24 43c22,-9 46,-16 71,-19l0 -49c0,-54 67,-54 67,0l0 49zm-34 119c82,0 147,66 147,147 0,82 -65,147 -147,147 -81,0 -147,-65 -147,-147 0,-81 66,-147 147,-147zm0 26c-67,0 -121,54 -121,121 0,68 54,122 121,122 68,0 122,-54 122,-122 0,-67 -54,-121 -122,-121z"></path></g></svg>