<svg xmlns="http://www.w3.org/2000/svg" viewBox="0 0 99.22 99.21"><defs><style>.cls-1{fill:#848484;}</style></defs><g id="Calque_2" data-name="Calque 2"><g id="Calque_1-2" data-name="Calque 1"><path class="cls-1" d="M46.41,28.61V65.43c0,1.7,0,3.4,0,5.1v.08a3.2,3.2,0,0,0,6.39,0V33.8c0-1.71,0-3.41,0-5.11v-.08a3.2,3.2,0,0,0-6.39,0Z"/><path class="cls-1" d="M28.61,52.8H65.43c1.7,0,3.4,0,5.1,0h.08a3.2,3.2,0,0,0,0-6.39H33.8c-1.71,0-3.41,0-5.11,0h-.08a3.2,3.2,0,0,0,0,6.39Z"/><path class="cls-1" d="M92.83,49.61a45.9,45.9,0,0,1-.41,6.2c0-.29.07-.57.12-.85A46.87,46.87,0,0,1,89.3,66.82l.32-.77a47.24,47.24,0,0,1-3.21,6.25c-.61,1-1.26,2-2,2.9-.16.23-.33.45-.5.67a1.68,1.68,0,0,1-.25.33l.24-.31c-.37.47-.76.94-1.14,1.4a45.83,45.83,0,0,1-4.87,5c-.42.37-.84.72-1.28,1.07-.21.18-.43.35-.65.52l-.22.18.1-.08C75,84.66,74,85.32,73,86a46,46,0,0,1-6.94,3.66l.76-.32A47.1,47.1,0,0,1,55,92.53l.85-.12a47.74,47.74,0,0,1-12.41,0l.86.12a46.83,46.83,0,0,1-11.87-3.24l.77.32a47.24,47.24,0,0,1-6.25-3.21c-1-.61-1.95-1.26-2.9-2l-.67-.5a1.4,1.4,0,0,1-.33-.26l.32.25c-.48-.37-1-.76-1.41-1.14a44.17,44.17,0,0,1-5-4.86c-.37-.42-.72-.84-1.07-1.28-.18-.21-.35-.43-.52-.65l-.17-.22c.69.87.22.29.07.1-.7-.93-1.36-1.89-2-2.87A46.9,46.9,0,0,1,9.6,66.08l.32.76A47.08,47.08,0,0,1,6.69,55c0,.29.07.56.11.85a47.74,47.74,0,0,1,0-12.41c0,.29-.07.57-.11.86A46.81,46.81,0,0,1,9.92,32.41l-.32.77a47.3,47.3,0,0,1,3.22-6.25c.6-1,1.25-1.95,1.94-2.9l.5-.67a1.72,1.72,0,0,1,.26-.33s-.53.69-.25.32.76-1,1.14-1.41a46.46,46.46,0,0,1,4.87-5c.42-.38.84-.73,1.28-1.08.21-.18.44-.35.65-.52l.22-.17c-.87.69-.28.22-.09.07.92-.7,1.88-1.36,2.86-2a47.46,47.46,0,0,1,7-3.66l-.77.32A47.08,47.08,0,0,1,44.24,6.73l-.85.12a46.88,46.88,0,0,1,12.41,0L55,6.73A46.85,46.85,0,0,1,66.81,10L66,9.64a47.3,47.3,0,0,1,6.25,3.22c1,.6,2,1.25,2.9,1.94.23.16.45.33.67.5a1.72,1.72,0,0,1,.33.26s-.69-.53-.32-.24.95.75,1.41,1.13a44.83,44.83,0,0,1,5,4.88c.37.41.72.84,1.07,1.27l.52.65c.06.08.12.15.17.23-.69-.88-.22-.29-.07-.1.7.93,1.36,1.88,2,2.86a46.52,46.52,0,0,1,3.66,7l-.32-.77a46.62,46.62,0,0,1,3.23,11.87c0-.29-.07-.57-.11-.85a40.74,40.74,0,0,1,.45,6.17,3.2,3.2,0,0,0,6.39,0,50,50,0,0,0-2.37-15.2,49.08,49.08,0,0,0-6.68-13.34A51.49,51.49,0,0,0,79.49,10,49.62,49.62,0,0,0,36.05,1.88,48.67,48.67,0,0,0,22.51,8.06a49.2,49.2,0,0,0-11,9.78,51.28,51.28,0,0,0-8,13.32A48.81,48.81,0,0,0,.14,46,49.63,49.63,0,0,0,28.9,94.69,51.11,51.11,0,0,0,44.14,98.9a49.61,49.61,0,0,0,15.61-.73,48.41,48.41,0,0,0,14-5.23A49.72,49.72,0,0,0,94,71.84a48.58,48.58,0,0,0,4.61-14.32,52.53,52.53,0,0,0,.65-7.91,3.2,3.2,0,1,0-6.39,0Z"/></g></g></svg>