<svg xmlns="http://www.w3.org/2000/svg" viewBox="0 0 99.04 99.01"><defs><style>.cls-1{fill:#848484;}</style></defs><g id="Calque_2" data-name="Calque 2"><g id="Calque_1-2" data-name="Calque 1"><path class="cls-1" d="M69.12,64.48,65.69,61l-8.2-8.2-9.92-9.91L39,34.32c-1.39-1.39-2.76-2.81-4.17-4.17l-.07-.06a3.05,3.05,0,0,0-4.32,4.32l3.44,3.44,8.2,8.2L52,56l8.61,8.61C62,66,63.32,67.38,64.74,68.74l.06.06a3.05,3.05,0,1,0,4.32-4.32Z"/><path class="cls-1" d="M64.79,30.09l-3.44,3.44-8.2,8.2q-4.95,5-9.91,9.91c-2.87,2.86-5.74,5.74-8.61,8.61-1.38,1.38-2.81,2.75-4.17,4.17l-.06.06a3.05,3.05,0,0,0,4.32,4.32l3.44-3.44,8.2-8.19,9.91-9.92,8.61-8.6c1.39-1.39,2.81-2.76,4.17-4.18l.06-.06a3.05,3.05,0,0,0-4.32-4.32Z"/><path class="cls-1" d="M80.21,18.81a48.18,48.18,0,0,1,4.11,4.7c-.17-.22-.34-.43-.5-.65a46.66,46.66,0,0,1,6.07,10.6l-.31-.73a45.84,45.84,0,0,1,2.14,6.67c.27,1.13.5,2.27.69,3.43,0,.25.08.53.11.79s0,.27,0,.4.05.38,0-.12,0-.09,0,0c.06.55.12,1.1.17,1.66a44.67,44.67,0,0,1,.06,6.94c0,.59-.08,1.16-.14,1.74,0,.28-.06.58-.1.87a1.62,1.62,0,0,1,0,.2,3.43,3.43,0,0,1,.06-.45,1.89,1.89,0,0,1-.06.47c-.17,1.14-.38,2.29-.62,3.44a45.84,45.84,0,0,1-2.35,7.52l.31-.73a46.66,46.66,0,0,1-6.07,10.6c.16-.22.33-.42.5-.65a47.52,47.52,0,0,1-8.82,8.82l.65-.5A46.52,46.52,0,0,1,65.5,89.91l.74-.3a47.5,47.5,0,0,1-6.67,2.14c-1.14.26-2.28.5-3.43.68l-.8.11-.39,0c-.12,0-.38,0,.12,0s.09,0,0,0c-.55.06-1.1.13-1.66.18a47.42,47.42,0,0,1-6.95.06c-.58,0-1.15-.08-1.73-.14l-.87-.11-.2,0a3.43,3.43,0,0,1,.45.06,1.84,1.84,0,0,1-.47-.06c-1.15-.16-2.3-.37-3.44-.62a46.22,46.22,0,0,1-7.53-2.34l.74.3A46.73,46.73,0,0,1,22.79,83.8l.65.5a47.52,47.52,0,0,1-8.82-8.82c.17.23.34.43.5.65a47,47,0,0,1-6.07-10.6l.31.73a45.45,45.45,0,0,1-2.14-6.67c-.27-1.13-.5-2.27-.68-3.42,0-.26-.09-.53-.12-.8s0-.26,0-.4,0-.37,0,.12,0,.1,0,0c-.06-.55-.12-1.1-.17-1.66a47.29,47.29,0,0,1-.06-6.94c0-.58.08-1.15.14-1.74,0-.28.06-.58.1-.86a1.77,1.77,0,0,1,0-.21,3.23,3.23,0,0,1-.06.45,2,2,0,0,1,.06-.47c.17-1.14.38-2.29.63-3.43A45.26,45.26,0,0,1,9.4,32.69l-.3.73a47,47,0,0,1,6.06-10.6c-.16.22-.33.43-.5.65a47.58,47.58,0,0,1,8.83-8.82c-.23.16-.43.34-.66.5A47,47,0,0,1,33.44,9.08l-.74.31a47.55,47.55,0,0,1,6.67-2.15c1.14-.26,2.28-.49,3.43-.68l.8-.11.39,0c.12,0,.38-.05-.12,0s-.09,0,0,0l1.66-.17a46.07,46.07,0,0,1,7-.07c.58,0,1.15.09,1.73.15l.87.1.2,0a3.19,3.19,0,0,1-.44-.06,1.82,1.82,0,0,1,.46.06c1.15.16,2.3.38,3.44.62a45.3,45.3,0,0,1,7.53,2.35l-.74-.31a46.52,46.52,0,0,1,10.61,6.07c-.23-.16-.43-.34-.65-.5a45,45,0,0,1,4.71,4.12,3.05,3.05,0,1,0,4.32-4.32A50,50,0,0,0,72.1,5.41,49.24,49.24,0,0,0,58,.71,51.56,51.56,0,0,0,42.67.45a49,49,0,0,0-14.22,4.2A49.88,49.88,0,0,0,6.27,25.33,49.58,49.58,0,0,0,.21,54,51.26,51.26,0,0,0,4,68.92a49.69,49.69,0,0,0,19.88,23,48.59,48.59,0,0,0,13.8,5.71,49.61,49.61,0,0,0,29-1.65,51.24,51.24,0,0,0,13.73-7.78A49.58,49.58,0,0,0,96.53,33.9a48.83,48.83,0,0,0-6.88-13.39,50.72,50.72,0,0,0-5.12-6,3.07,3.07,0,0,0-4.32,0A3.11,3.11,0,0,0,80.21,18.81Z"/></g></g></svg>