<svg xmlns="http://www.w3.org/2000/svg" viewBox="0 0 99.21 99.21"><defs><style>.cls-1{fill:#848484;}</style></defs><g id="Calque_2" data-name="Calque 2"><g id="Calque_1-2" data-name="Calque 1"><path class="cls-1" d="M97.15,33.07H59.94v-31A2.07,2.07,0,0,0,57.87,0H2.07A2.07,2.07,0,0,0,0,2.07v62a2.07,2.07,0,0,0,2.07,2.07h37.2v31a2.07,2.07,0,0,0,2.07,2.06H97.15a2.06,2.06,0,0,0,2.06-2.06v-62A2.07,2.07,0,0,0,97.15,33.07ZM4.13,62V4.13H55.81V33.07H41.34a2.07,2.07,0,0,0-2.07,2.07V62Zm91,33.07H43.41V37.2H95.08Z"/></g></g></svg>