<svg xmlns="http://www.w3.org/2000/svg" viewBox="0 0 99.18 99.18"><defs><style>.cls-1{fill:#848484;}</style></defs><g id="Calque_2" data-name="Calque 2"><g id="Calque_1-2" data-name="Calque 1"><path class="cls-1" d="M57.27,51.15l3.79,3.79,9.1,9.1,11,11,9.53,9.53c1.55,1.55,3.05,3.16,4.65,4.65l.06.07V86.18l-8.1,8.11-1.14,1.13h3.13l-3.79-3.78-9.1-9.1-11-11L55.87,62c-1.55-1.55-3.06-3.14-4.65-4.65l-.07-.07a2.24,2.24,0,0,0-3.12,0l-3.79,3.79-9.1,9.1-11,11-9.53,9.53c-1.54,1.55-3.16,3.05-4.65,4.65l-.06.06H13l-8.1-8.1L3.76,86.18v3.13l3.79-3.79,9.1-9.1,11-11,9.53-9.53c1.54-1.55,3.13-3.06,4.65-4.65l.06-.07a2.24,2.24,0,0,0,0-3.12l-3.79-3.79L29,35.14l-11-11L8.47,14.59c-1.54-1.54-3-3.16-4.65-4.65l-.06-.06V13l8.1-8.1L13,3.76H9.88l3.78,3.79,9.1,9.1,11,11,9.53,9.53c1.55,1.54,3.06,3.13,4.65,4.65l.07.06a2.24,2.24,0,0,0,3.12,0l3.79-3.79Q59.5,33.58,64,29l11-11,9.53-9.53c1.55-1.54,3.16-3,4.65-4.65l.07-.06H86.18l8.11,8.1L95.42,13V9.88l-3.78,3.78-9.1,9.1-11,11L62,43.31c-1.55,1.55-3.14,3.06-4.65,4.65l-.07.07a2.21,2.21,0,1,0,3.13,3.12l3.78-3.78,9.1-9.1,11-11,9.53-9.53c1.55-1.55,3.14-3.06,4.65-4.65l.07-.07a2.24,2.24,0,0,0,0-3.12L90.44,1.77,89.31.63a2.25,2.25,0,0,0-3.13,0L82.39,4.42l-9.1,9.1-11,11-9.53,9.53c-1.54,1.55-3.15,3-4.64,4.65l-.07.07h3.12L47.37,35l-9.1-9.1-11-11L17.72,5.35C16.17,3.8,14.66,2.21,13.07.7L13,.63a2.24,2.24,0,0,0-3.12,0L1.77,8.74.63,9.88A2.24,2.24,0,0,0,.63,13l3.79,3.79,9.1,9.1,11,11,9.53,9.53c1.55,1.54,3,3.16,4.65,4.65l.07.06V48L35,51.82l-9.1,9.1-11,11L5.35,81.47C3.8,83,2.21,84.53.7,86.12l-.07.06a2.25,2.25,0,0,0,0,3.13l8.11,8.1,1.14,1.14a2.24,2.24,0,0,0,3.12,0l3.79-3.79q4.56-4.55,9.1-9.1c3.68-3.67,7.34-7.34,11-11l9.53-9.53c1.54-1.54,3.16-3,4.65-4.65l.06-.06H48l3.79,3.78,9.1,9.1,11,11,9.53,9.53C83,95.38,84.53,97,86.12,98.48l.06.07a2.25,2.25,0,0,0,3.13,0l8.1-8.11,1.14-1.13a2.25,2.25,0,0,0,0-3.13l-3.79-3.79-9.1-9.1-11-11-9.53-9.53c-1.54-1.54-3.06-3.13-4.65-4.64L60.4,48a2.21,2.21,0,0,0-3.13,3.12Z"/></g></g></svg>