<svg xmlns="http://www.w3.org/2000/svg" viewBox="0 0 99.18 99.18"><defs><style>.cls-1{fill:#848484;}</style></defs><g id="Calque_2" data-name="Calque 2"><g id="Calque_1-2" data-name="Calque 1"><path class="cls-1" d="M49.59,0A49.59,49.59,0,1,0,99.18,49.59,49.59,49.59,0,0,0,49.59,0ZM73.67,65.17l-8.5,8.5a1.54,1.54,0,0,1-1.09.45,1.56,1.56,0,0,1-1.1-.45L49.23,59.92l-13,13A1.56,1.56,0,0,1,34,73l-8.49-8.49a1.54,1.54,0,0,1,0-2.19l13-13-13-13a1.54,1.54,0,0,1,0-2.19L34,25.52a1.6,1.6,0,0,1,2.19,0l13,13,13-13a1.55,1.55,0,0,1,1.09-.46,1.57,1.57,0,0,1,1.1.46L73,34a1.56,1.56,0,0,1,0,2.19l-13,13L73.67,63A1.56,1.56,0,0,1,73.67,65.17Z"/></g></g></svg>