<svg xmlns="http://www.w3.org/2000/svg" viewBox="0 0 97.8 98.56"><defs><style>.cls-1{fill:#848484;}</style></defs><g id="Calque_2" data-name="Calque 2"><g id="Calque_1-2" data-name="Calque 1"><path class="cls-1" d="M9.77,46.62h2A1.75,1.75,0,0,0,13.5,44.9a1.77,1.77,0,0,0-1.72-1.72c-.22,0-.43,0-.64,0s-.08,0,0,0l-.31-.06a4,4,0,0,1-.59-.16l-.29-.1c-.45-.14.27.15-.15-.06a9.11,9.11,0,0,1-1-.61c-.06,0-.25-.2,0,0L8.5,42c-.17-.15-.33-.31-.48-.47s-.13-.15-.2-.23.15.21,0,0-.23-.33-.33-.51l-.29-.52s-.15-.34-.07-.14,0-.18-.08-.22a5.72,5.72,0,0,1-.17-.59c0-.08-.11-.68-.08-.31a6.85,6.85,0,0,1,0-1.28c0-.1,0-.2,0-.31,0,.08-.06.32,0,0s.09-.4.14-.59.13-.39.19-.59c-.12.32.14-.26.18-.34l.26-.46c0-.07.39-.53.17-.25a7.11,7.11,0,0,1,.95-1c-.26.21.19-.13.26-.18l.51-.31c.1,0,.59-.26.28-.13.21-.08.43-.16.65-.22s.4-.09.61-.14-.27,0,0,0l.32,0h3.73a1.72,1.72,0,1,0,0-3.44,4.73,4.73,0,0,1-.65,0c-.34,0-.08,0,0,0l-.31-.05-.59-.16-.29-.11c-.45-.14.26.15-.15-.06a8.25,8.25,0,0,1-1-.6c-.06,0-.25-.21,0,0l-.23-.2c-.17-.15-.32-.31-.48-.47s-.13-.15-.2-.23.15.21,0,0a5.39,5.39,0,0,1-.33-.5c-.11-.17-.2-.36-.29-.53s-.15-.33-.07-.14-.06-.18-.08-.22a5.72,5.72,0,0,1-.17-.59c0-.08-.12-.68-.08-.31a7.74,7.74,0,0,1,0-1.27c0-.11,0-.21,0-.31,0,.08-.06.32,0,0s.09-.41.14-.6.12-.39.19-.59c-.12.33.14-.26.18-.34l.26-.46c0-.07.39-.53.17-.25a8.52,8.52,0,0,1,1-1c-.26.22.19-.13.25-.17s.35-.21.52-.31.59-.27.28-.14c.21-.08.43-.16.65-.22s.4-.09.61-.14-.27,0,0,0l.32,0h3.72a1.72,1.72,0,0,0,0-3.44,5.32,5.32,0,0,1-.79-.05c.37.05-.23,0-.31-.08-.23-.05-.44-.12-.66-.19s-.39-.16-.08,0l-.34-.16a4.83,4.83,0,0,1-.59-.35l-.25-.17c-.39-.26.15.14-.07-.06l-.49-.46-.21-.21s-.33-.42-.11-.12a6.5,6.5,0,0,1-.7-1.16s-.12-.29,0,0c0-.09-.06-.19-.1-.28a6.37,6.37,0,0,1-.2-.75s-.1-.49-.05-.23,0-.25,0-.24c0-.16,0-.32,0-.48s0-.48,0-.72-.09.39,0-.08a2.87,2.87,0,0,0,.08-.38c.06-.23.13-.44.21-.67s0-.08,0,0a2.6,2.6,0,0,1,.16-.34,5.66,5.66,0,0,1,.34-.59l.18-.25c.25-.38-.22.21.1-.12.14-.15.26-.3.41-.44l.28-.25c0-.06.32-.27,0-.06a9.16,9.16,0,0,1,1.16-.7c.43-.22-.19.07.08,0a2.6,2.6,0,0,1,.36-.13l.59-.16a2.84,2.84,0,0,0,.31-.06c-.34.06,0,0,.09,0l.57,0h41a19,19,0,0,1,6.39,1.12c1.1.39,2.18.85,3.27,1.28l1,.4c-.42-.55-.84-1.1-1.26-1.67V46.84c0,1.8-.1,3.65,0,5.45v.08l1.72-1.72c-1.9,0-3.8-.07-5.49,1a7.37,7.37,0,0,0-2.65,3c-1,2-1.93,3.88-2.89,5.83C56.93,65.65,54.38,70.84,51.81,76a21.13,21.13,0,0,0-.94,2,12.64,12.64,0,0,0-.61,4.53v8.86c0,.32,0,.65,0,1a1.49,1.49,0,0,1,.2-.73c-.08.14-.14.3-.22.43a6.25,6.25,0,0,1-.38.61s-.14.16-.15.2c0-.15.25-.3.1-.14s-.28.34-.44.5l-.38.37c-.1.09-.57.41-.18.16a14.47,14.47,0,0,1-1.31.77c-.38.18.22,0,0,0a1.58,1.58,0,0,0-.34.13,5.9,5.9,0,0,1-.8.21c-.13,0-.27,0-.39.08-.52.11.33,0-.21,0-.26,0-.53,0-.79,0l-.55,0a1.84,1.84,0,0,1-.33,0c.46.15.15,0,0,0a9.76,9.76,0,0,1-1.18-.31l-.32-.12c-.38-.12.34.17,0,0L42,94.37a11.38,11.38,0,0,1-1.1-.7c-.34-.24.29.24,0,0l-.29-.24L40.16,93l-.45-.46a3.47,3.47,0,0,1-.25-.29c-.05-.06-.4-.53-.15-.18a13.92,13.92,0,0,1-1.54-2.67c.13.32,0,0,0-.07L37.61,89c-.11-.27-.19-.54-.28-.8a18.6,18.6,0,0,1-.45-1.82c-.05-.27-.1-.55-.13-.83,0,.35,0-.22,0-.23,0-.17,0-.36,0-.53a19.48,19.48,0,0,1-.07-2c0-1.19.14-2.37.26-3.55s.28-2.49.44-3.74c0-.28.07-.57.11-.86s0-.34.07-.52c0,.08,0,.28,0-.07.09-.71.2-1.43.3-2.14.36-2.51.75-5,1.15-7.5.17-1.05.33-2.09.51-3.13A1.74,1.74,0,0,0,37.8,59H9.55a5.79,5.79,0,0,1-.72,0l-.24,0s.26.05.07,0l-.53-.11c-.32-.08-.64-.19-1-.3s0,0,.06,0L7,58.5l-.47-.24c-.26-.15-.51-.31-.76-.48s.12.11-.12-.11-.26-.22-.39-.35-.41-.44-.61-.65.15.2,0,0l-.14-.19c-.1-.15-.19-.28-.28-.43a9,9,0,0,1-.43-.81c-.08-.18,0,0,0,.06s0-.14-.08-.22-.11-.33-.17-.5a7,7,0,0,1-.2-.91c-.06-.33,0,.18,0-.17l0-.64c0-.32,0-.64,0-1,0,.3,0-.06,0-.16s.08-.36.12-.53.09-.3.14-.45.16-.44.11-.3.1-.21.13-.27.16-.31.26-.47l.24-.38.17-.25s.16-.22,0-.07.16-.18.21-.23a4.4,4.4,0,0,1,.37-.38l.33-.31c.08-.07.34-.28.11-.11a8.27,8.27,0,0,1,.82-.54,3.78,3.78,0,0,1,.4-.22l.27-.14c-.14.07.23-.08.3-.11s.39-.13.59-.18a3.43,3.43,0,0,1,.46-.11l.31,0,.32,0a3,3,0,0,0,.66,0,1.73,1.73,0,0,0,1.72-1.72,1.76,1.76,0,0,0-1.72-1.72,10,10,0,0,0-8,4.1A9.57,9.57,0,0,0,.54,56a9.81,9.81,0,0,0,6.4,6.07,11.93,11.93,0,0,0,3.52.39H31c2.27,0,4.57.12,6.83,0h.1l-1.66-2.18C35.39,65.39,34.6,70.46,34,75.55a62.89,62.89,0,0,0-.7,7.38,19.63,19.63,0,0,0,1.41,7.65c1.66,4,4.93,7.38,9.37,7.92a9.38,9.38,0,0,0,9.39-4.9,4.82,4.82,0,0,0,.34-2.35V81.52a6.85,6.85,0,0,1,.64-2.88c2.16-4.45,4.39-8.86,6.58-13.28,1.25-2.54,2.51-5.07,3.76-7.6.28-.56.54-1.11.82-1.66l0-.06a6.44,6.44,0,0,1,.42-.72c-.19.28.14-.13.15-.16s.23-.23.36-.33c.34-.32-.24.12.16-.12l.41-.26c.09,0,.2-.1.29-.13-.32.13.17,0,.19-.06l.47-.12c.47-.11-.28,0,.2,0h2.31a1.75,1.75,0,0,0,1.72-1.72V12.94c0-1.81.08-3.63,0-5.44V7.42A1.78,1.78,0,0,0,71,5.76l-3-1.2A24.49,24.49,0,0,0,62.18,3a32.49,32.49,0,0,0-4.3-.19H18.54A8.55,8.55,0,0,0,10.61,8,8.48,8.48,0,0,0,14.94,19a8.74,8.74,0,0,0,3.45.75V16.28H15.24A8.75,8.75,0,0,0,9.71,18.2a8.44,8.44,0,0,0,5.36,15V29.71H11.91a8.71,8.71,0,0,0-5.52,1.93,8.43,8.43,0,0,0,5.35,15V43.15h-2A1.73,1.73,0,0,0,8,44.87,1.81,1.81,0,0,0,9.77,46.62Z"/><path class="cls-1" d="M73.4,3.44H92.81c.17,0,.33,0,.47,0,.44,0-.25-.12.17,0,0,0,.45.15.22.06s.2.11.2.11c.35.17-.14-.2.11.09,0,0,.33.42.12.11a2.46,2.46,0,0,1,.22.39c-.16-.35,0,.1,0,.16.11.41,0-.28,0,.16-.06.93,0,1.89,0,2.82V52.4c0,.92-.06,1.85,0,2.76,0,.44.12-.25,0,.16,0,.06-.18.51,0,.17a2.88,2.88,0,0,1-.22.38c.21-.3-.07.06-.12.11-.19.22-.06.06,0,0a2.46,2.46,0,0,1-.39.22c.35-.16-.1,0-.16,0-.41.13.29,0-.16,0-.17,0-.34,0-.51,0H79.25c-2,0-3.93-.11-5.88,0-.43,0,.25.12-.16,0-.06,0-.5-.18-.16,0a3,3,0,0,1-.39-.22c.31.21-.06-.07-.1-.12-.32-.28.08.17,0,0s-.12-.21-.18-.32c.16.34,0-.11,0-.16-.13-.42,0,.28,0-.16V16.75c0-4,0-8,0-12V4.52c0-.44-.11.25,0-.16a2.45,2.45,0,0,1,.08-.29c-.12.36,0-.07.08-.13.17-.35-.21.14.09-.11,0-.05.41-.32.1-.12a2.1,2.1,0,0,1,.39-.21c-.34.16.1,0,.16,0,.47-.16-.28,0,.19,0a1.73,1.73,0,0,0,1.71-1.72A1.74,1.74,0,0,0,73.4,0a4.57,4.57,0,0,0-4.5,4.56c0,.4,0,.81,0,1.21V51.11c0,1.3,0,2.62,0,3.93a4.55,4.55,0,0,0,3.43,4.48,11.15,11.15,0,0,0,2.58.13h18A4.73,4.73,0,0,0,97.3,57.2a5.62,5.62,0,0,0,.5-2.55V5.1a6.4,6.4,0,0,0-.17-1.8A4.66,4.66,0,0,0,93,0H73.4a1.73,1.73,0,0,0-1.72,1.72A1.74,1.74,0,0,0,73.4,3.44Z"/><path class="cls-1" d="M70.62,54.12h.49a1.29,1.29,0,0,0,.67-.15,1.18,1.18,0,0,0,.55-.35,1.26,1.26,0,0,0,.35-.55,1.29,1.29,0,0,0,.15-.67,1.7,1.7,0,0,0-.5-1.21,1.78,1.78,0,0,0-1.22-.51h-.49a1.34,1.34,0,0,0-.66.15,1.09,1.09,0,0,0-.55.36,1.23,1.23,0,0,0-.36.55,1.34,1.34,0,0,0-.15.66,1.69,1.69,0,0,0,.51,1.22,1.74,1.74,0,0,0,1.21.5Z"/></g></g></svg>