<svg xmlns="http://www.w3.org/2000/svg" viewBox="0 0 99.18 99.19"><defs><style>.cls-1{fill:#848484;}</style></defs><g id="Calque_2" data-name="Calque 2"><g id="Calque_1-2" data-name="Calque 1"><path class="cls-1" d="M94.88,30.83V63.41c0,1.62,0,3.22,0,4.83v.12h0c0,.08,0,.46,0,.51s.1-.42,0-.15c0,.1,0,.21-.07.32s-.18.55-.09.3-.11.19-.15.27-.29.49-.15.27,0,0,0,0a2.83,2.83,0,0,1-.24.25l0,0-1.13,1.13-5.5,5.5-7.49,7.49L73.26,91c-1,1-2,2.06-3.08,3.08a.27.27,0,0,1-.08.07l-.18.17s-.26.18,0,0,0,0-.06,0l-.36.22s-.19.12-.23.11.38-.12.13-.07a4.34,4.34,0,0,1-.48.14s-.24.07-.25.06.42,0,.15,0l-.42,0H30.62l-.26,0c-.26,0,.17,0,.15,0a3.91,3.91,0,0,1-.57-.14s-.22-.06-.23-.09.35.18.13,0l-.44-.23c-.08,0-.14-.1-.22-.14s.28.25.1.07A2.13,2.13,0,0,1,29,94.1l-.06,0c-.14-.13-.27-.27-.41-.41l-4.59-4.59-7.26-7.26L9.52,74.65,5.3,70.44,5,70.17,4.85,70l-.16-.19s.19.3.08.1-.2-.34-.29-.51c-.19-.35.08.28,0-.11l-.13-.48c-.11-.4,0,.31,0-.1,0-.11,0-.22,0-.34V30.79c0-.12,0-.24,0-.35,0-.42-.09.3,0-.1.05-.18.12-.37.16-.55s-.06.14-.06.12.08-.18.1-.22.19-.28.26-.43-.06.06-.08.1l.16-.2L5,29l.06-.07c1.17-1.18,2.35-2.34,3.52-3.51l6.88-6.88,7.45-7.45L28.09,5.9,29,5l.33-.29c.17-.16-.08.07-.1.08s.14-.1.22-.14.39-.29.51-.28-.37.12-.13.06L30,4.4a3.48,3.48,0,0,1,.49-.12s-.41,0-.15,0l.26,0H68.36l.43,0c.27,0-.16,0-.15,0a1.38,1.38,0,0,1,.25,0c.08,0,.52.1.56.18l-.06,0,.23.12c.06.05.49.29.27.15s0,0,0,0a1.45,1.45,0,0,1,.18.17l.07.06a.5.5,0,0,0,.07.08l.43.43,1.83,1.83,6.33,6.32q3.76,3.78,7.54,7.54l6,6,1.48,1.49a3.44,3.44,0,0,1,.27.27l.08.07a1.54,1.54,0,0,0,.17.19s.18.25,0,0,.12.2.15.27.24.51.15.27.07.21.09.3.14.58.07.29,0,0,0,.05,0,.28,0,.39a2.15,2.15,0,0,0,4.3,0A7.22,7.22,0,0,0,97,25.76l-1.48-1.48-6-6-7.61-7.61L75.46,4.27c-1.44-1.44-2.77-3-4.7-3.8C69.14-.17,67.12,0,65.4,0H31.05A7.22,7.22,0,0,0,26,2c-.28.27-.55.55-.81.82L19.93,8.07l-7.5,7.49L5.49,22.5,2.06,25.93a7.14,7.14,0,0,0-2.05,5V67.45c0,.43,0,.86,0,1.28a7.38,7.38,0,0,0,2.24,4.76l4.18,4.19,7.23,7.23L21,92.22l4.56,4.56a8.17,8.17,0,0,0,3.2,2.09,8.63,8.63,0,0,0,2.72.32H68.15a7.22,7.22,0,0,0,5.08-2c1-1,2-2,3-3L83,87.41l7.59-7.59,5.48-5.48,1.06-1.06a7.12,7.12,0,0,0,2.05-5c0-1.59,0-3.19,0-4.78V30.83a2.15,2.15,0,0,0-4.3,0Z"/><path class="cls-1" d="M54.46,54.61H44.7l2.15,2.15v-35L44.7,23.92h9.76l-2.15-2.15v35a2.15,2.15,0,1,0,4.3,0v-35a2.19,2.19,0,0,0-2.15-2.15H44.7a2.19,2.19,0,0,0-2.15,2.15v35a2.19,2.19,0,0,0,2.15,2.16h9.76a2.16,2.16,0,0,0,0-4.31Z"/><path class="cls-1" d="M53.13,71.76a3.4,3.4,0,0,1,0,.45c0,.51.12-.47,0,0a5.68,5.68,0,0,1-.18.71s0,.09,0,.14-.07.19,0,0,0-.08,0-.13a2.06,2.06,0,0,1-.12.26,5.83,5.83,0,0,1-.43.73c-.25.41.33-.34,0,0l-.19.21a4.11,4.11,0,0,1-.3.29,1,1,0,0,0-.11.1c-.18.15-.14.11.11-.08,0,.11-.51.33-.59.39L51,75c-.47.26.33-.09-.07,0l-.7.2-.14,0c-.24,0-.19,0,.13,0-.08,0-.22,0-.3,0s-.85.07-.91,0,.56.1.13,0c-.19,0-.37-.08-.57-.14a2.29,2.29,0,0,0-.28-.09c-.47-.13.42.23,0,0-.21-.11-.42-.21-.62-.34s-.35-.19-.36-.24.34.29.11.08-.42-.47-.64-.66.28.43,0,0c-.08-.12-.16-.23-.23-.35s-.35-.5-.32-.64a2.72,2.72,0,0,0,.11.25c0-.09-.07-.18-.1-.27s0-.18-.09-.28-.06-.28-.09-.43c-.11-.45,0,.42,0,0a7.66,7.66,0,0,1,0-.83c0-.43-.09,0,0,.06s.07-.39.08-.43.14-.68.22-.69a1.89,1.89,0,0,0-.11.25,2.06,2.06,0,0,1,.12-.26c.06-.13.13-.25.2-.38l.23-.35c.22-.35-.08.1-.08.09s.52-.55.58-.61.2-.19.22-.18l-.22.16.23-.16a6.72,6.72,0,0,1,.74-.42c.42-.22-.34.1,0,0,.12,0,.22-.08.34-.12s.65-.23.71-.16l-.28,0,.3,0H50c.23,0,.19,0-.13,0l.29,0c.11,0,.82.15.83.25s-.41-.2-.12,0,.33.17.5.27l.3.19c.46.28-.23-.24.07,0l.6.6c.34.36-.25-.39,0,0,.08.11.16.23.23.35s.14.25.2.38l.1.19c.06.15,0,.09-.08-.18.1,0,.23.72.25.83l0,.14c0,.23,0,.19,0-.13.08,0,.05.53.05.61a2.17,2.17,0,0,0,2.15,2.15,2.19,2.19,0,0,0,2.15-2.15,8,8,0,0,0-5.26-7.4,7.81,7.81,0,0,0-8.51,2.27,7.83,7.83,0,1,0,13.76,5.12,2.17,2.17,0,0,0-2.15-2.15A2.21,2.21,0,0,0,53.13,71.76Z"/></g></g></svg>