<svg xmlns="http://www.w3.org/2000/svg" viewBox="0 0 98.43 99.19"><defs><style>.cls-1{fill:#848484;}</style></defs><g id="Calque_2" data-name="Calque 2"><g id="Calque_1-2" data-name="Calque 1"><path class="cls-1" d="M88.59,52.27h-2a1.73,1.73,0,1,0,0,3.46,4.73,4.73,0,0,1,.65,0c.35,0,.08,0,0,0l.31,0,.6.16.29.11c.45.14-.26-.15.15.06a8.44,8.44,0,0,1,1,.61c.06,0,.26.21,0,0l.23.19a5.58,5.58,0,0,1,.49.48,2.11,2.11,0,0,1,.19.23c.18.19-.15-.21,0,0s.23.33.33.51.2.35.29.53.15.33.07.14.06.18.08.21a4.5,4.5,0,0,1,.17.6c0,.09.12.69.08.32a7.79,7.79,0,0,1,0,1.28,1.76,1.76,0,0,1,0,.31c0-.08.06-.32,0,0s-.09.4-.14.6-.12.39-.19.59c.12-.32-.14.26-.18.34s-.17.32-.26.47-.39.53-.17.25a7.91,7.91,0,0,1-1,1c.26-.22-.19.12-.26.17a5.48,5.48,0,0,1-.52.31c-.1,0-.58.27-.27.14-.22.08-.44.16-.66.22s-.4.09-.61.14.26,0,0,0l-.33,0H83.27a1.73,1.73,0,1,0,0,3.46c.22,0,.43,0,.65,0s.08,0,0,0a2.84,2.84,0,0,1,.31.06,3.77,3.77,0,0,1,.6.16l.29.1c.45.14-.26-.15.15.06a8.44,8.44,0,0,1,1,.61c.06,0,.26.21,0,0l.23.2c.18.15.33.31.49.47a2.11,2.11,0,0,1,.19.23c.18.2-.15-.21,0,0s.23.34.33.51.2.36.29.53.15.33.07.14.06.18.08.22a3.78,3.78,0,0,1,.17.6c0,.08.12.68.08.31a7.83,7.83,0,0,1,0,1.28,1.65,1.65,0,0,1,0,.31c0-.08.06-.32,0,0s-.09.41-.14.6a5.8,5.8,0,0,1-.19.59c.12-.32-.14.27-.18.35l-.26.46c-.05.07-.39.53-.17.25a7.91,7.91,0,0,1-1,1c.26-.22-.19.13-.26.17a5.48,5.48,0,0,1-.52.31c-.1,0-.58.27-.27.14-.22.08-.44.16-.66.22s-.4.09-.61.14.26,0,0,0l-.33,0a5.43,5.43,0,0,1-.57,0H80a1.75,1.75,0,0,0-1.73,1.73A1.78,1.78,0,0,0,80,82.8a7,7,0,0,1,.8,0c-.37,0,.23.06.31.08l.67.2c.08,0,.39.16.08,0l.35.16a5.73,5.73,0,0,1,.59.35,2.2,2.2,0,0,0,.25.17c.39.27-.15-.14.07.06l.5.46.2.22s.34.42.12.12a7.3,7.3,0,0,1,.7,1.16c0,.06.12.3,0,0,0,.1.07.2.11.29s.15.5.21.75c0,0,.09.5,0,.23s0,.26,0,.25c0,.16,0,.32,0,.48a6.06,6.06,0,0,1,0,.73c0,.3.09-.4,0,.08a2.33,2.33,0,0,0-.08.38c-.06.23-.13.44-.21.67s0,.08,0,0c0,.11-.1.23-.16.34a3.82,3.82,0,0,1-.35.59l-.17.26c-.25.38.22-.21-.1.12-.14.15-.27.3-.42.44a3.45,3.45,0,0,1-.28.26s-.32.26,0,0a8.29,8.29,0,0,1-1.17.71c-.43.22.2-.07-.08,0l-.36.13-.6.16-.31.06c.35-.06,0,0-.09,0l-.57,0H79.8c-3.1,0-6.21,0-9.31,0H38.66a19,19,0,0,1-6.44-1.13c-1.1-.39-2.19-.85-3.29-1.28l-1-.4,1.27,1.67V52.05c0-1.81.1-3.67,0-5.48v-.08l-1.73,1.73c1.91,0,3.82.07,5.52-1a7.41,7.41,0,0,0,2.67-3l2.91-5.87c2.58-5.2,5.15-10.42,7.74-15.62a21.48,21.48,0,0,0,.94-2.07,12.55,12.55,0,0,0,.61-4.55V7.16a8,8,0,0,0,0-1,1.54,1.54,0,0,1-.19.74c.08-.14.14-.3.22-.44a4.78,4.78,0,0,1,.38-.61s.14-.16.15-.2c0,.15-.26.3-.11.14s.29-.35.45-.51l.38-.37c.11-.09.58-.41.19-.16A14.47,14.47,0,0,1,50.62,4c.39-.19-.21,0,0,0A3,3,0,0,0,51,3.86a7.94,7.94,0,0,1,.8-.22l.4-.08c.51-.1-.34,0,.2,0a7.16,7.16,0,0,1,.8,0l.55,0a1.32,1.32,0,0,1,.34,0c-.46-.15-.15,0,0,0a8,8,0,0,1,1.19.31c.11,0,.21.08.33.11.38.13-.35-.17,0,0l.52.26a10.27,10.27,0,0,1,1.1.7c.35.24-.28-.24,0,0l.29.24.46.43.45.46a2.48,2.48,0,0,1,.25.3c.06.05.41.53.15.17a14.17,14.17,0,0,1,1.56,2.69c-.14-.33,0,0,0,.07s.09.24.14.35c.1.27.19.55.28.81a18.1,18.1,0,0,1,.45,1.83c.06.27.1.55.14.84-.05-.36,0,.22,0,.23,0,.17,0,.36.05.53a19.66,19.66,0,0,1,.06,2c0,1.2-.13,2.39-.26,3.58S61,22,60.88,23.28c0,.29-.07.57-.11.86s-.05.35-.07.53c0-.08,0-.29,0,.07-.09.72-.19,1.43-.3,2.15-.35,2.52-.74,5-1.15,7.55-.17,1.05-.33,2.1-.52,3.15a1.77,1.77,0,0,0,1.67,2.2H88.81c.24,0,.49,0,.73,0l.24,0s-.26,0-.07,0,.36.07.53.12a7.65,7.65,0,0,1,1,.3c.19.07,0,0-.06,0l.21.1.47.24a8.18,8.18,0,0,1,.76.48c.27.19-.11-.11.13.11a4.38,4.38,0,0,1,.39.36c.22.2.42.43.62.65s-.15-.2,0,0l.14.19.28.44a6.89,6.89,0,0,1,.43.8c.08.19,0,0,0-.05s.06.13.08.22l.17.5a9.24,9.24,0,0,1,.21.91c.06.34,0-.17,0,.18s0,.42,0,.64a7.78,7.78,0,0,1,0,1c0-.3,0,.06,0,.16s-.08.36-.13.53-.08.3-.14.45-.16.45-.1.3-.11.22-.14.28-.16.31-.26.47l-.24.39-.17.25,0,.07-.2.23-.37.38-.34.31c-.08.07-.34.29-.11.12-.27.19-.55.38-.82.54s-.27.15-.41.22l-.27.14c.15-.07-.23.08-.3.11l-.59.19a3.41,3.41,0,0,1-.46.1c-.07,0-.49.08-.31.06s-.26,0-.33,0a5.2,5.2,0,0,0-.67,0,1.73,1.73,0,0,0,0,3.46,10.06,10.06,0,0,0,8-4.12,9.6,9.6,0,0,0,1.27-8.81,9.87,9.87,0,0,0-6.44-6.12,12.38,12.38,0,0,0-3.54-.39H67.27c-2.28,0-4.6-.11-6.87,0h-.11c.56.73,1.11,1.47,1.68,2.19.84-5.1,1.63-10.2,2.28-15.32a63.94,63.94,0,0,0,.7-7.43A19.45,19.45,0,0,0,63.53,8c-1.67-4-5-7.43-9.42-8A9.42,9.42,0,0,0,44.66,5a4.9,4.9,0,0,0-.35,2.37v9.79a6.94,6.94,0,0,1-.64,2.9C41.5,24.52,39.25,29,37.05,33.42l-3.79,7.65c-.28.55-.54,1.1-.82,1.66l0,.07a7.45,7.45,0,0,1-.43.71c.2-.27-.14.14-.15.16a2.9,2.9,0,0,1-.36.34c-.34.32.25-.12-.16.13l-.41.25-.29.14c.32-.14-.18,0-.2.06l-.47.11c-.47.12.29,0-.2,0l-.46,0H27.41a1.76,1.76,0,0,0-1.73,1.73v39.7c0,1.82-.08,3.65,0,5.48v.08A1.81,1.81,0,0,0,27,93.4L30,94.6a24.16,24.16,0,0,0,5.85,1.54,32.87,32.87,0,0,0,4.32.19H70.05c3.24,0,6.48,0,9.72,0a8.49,8.49,0,1,0,.15-17v3.46h3.17a8.77,8.77,0,0,0,5.56-1.94,8.48,8.48,0,0,0-5.39-15v3.46h3.18A8.79,8.79,0,0,0,92,67.35a8.5,8.5,0,0,0-5.39-15v3.47h2A1.76,1.76,0,0,0,90.36,54,1.82,1.82,0,0,0,88.59,52.27Z"/><path class="cls-1" d="M24.56,95.73H5c-.16,0-.32,0-.47,0-.44,0,.25.11-.17,0,0,0-.46-.15-.23-.06S4,95.55,4,95.55c-.36-.18.14.2-.12-.1,0,0-.32-.41-.11-.1A2.16,2.16,0,0,1,3.51,95c.16.34,0-.11,0-.16-.11-.42,0,.27,0-.17.06-.93,0-1.9,0-2.83V46.45c0-.92.06-1.85,0-2.78,0-.43-.11.26,0-.16,0,0,.19-.5,0-.16A2.16,2.16,0,0,1,3.73,43c-.21.31.07-.06.11-.1.2-.22.07-.06,0,0a3.84,3.84,0,0,1,.39-.22c-.34.17.11,0,.17,0,.41-.13-.29,0,.16,0H18.67c2,0,3.95.12,5.92,0,.43,0-.26-.12.16,0,.05,0,.5.19.16,0a3,3,0,0,1,.39.22c-.31-.2.06.07.1.12.33.29-.08-.16.05.06a2.46,2.46,0,0,1,.19.32c-.17-.35,0,.1,0,.16.13.42,0-.29,0,.16V82.34c0,4,0,8.07,0,12.12v.19c0,.43.12-.26,0,.16,0,.09-.06.19-.08.29.11-.36,0,.06-.08.12-.18.36.2-.14-.1.12,0,0-.41.32-.1.11a3,3,0,0,1-.39.22c.34-.16-.11,0-.16,0-.48.17.29,0-.19,0a1.75,1.75,0,0,0-1.73,1.73,1.77,1.77,0,0,0,1.73,1.73,4.59,4.59,0,0,0,4.52-4.59c0-.4,0-.81,0-1.21V47.76c0-1.32,0-2.64,0-4a4.58,4.58,0,0,0-3.44-4.51,11.35,11.35,0,0,0-2.6-.13H5A4.74,4.74,0,0,0,.51,41.62,5.61,5.61,0,0,0,0,44.19V94.06a6.47,6.47,0,0,0,.17,1.81,4.68,4.68,0,0,0,4.7,3.3H24.56a1.72,1.72,0,1,0,0-3.44Z"/><path class="cls-1" d="M27.35,44.72h-.49a1.4,1.4,0,0,0-.67.15,1.2,1.2,0,0,0-.55.36,1.26,1.26,0,0,0-.36.56,1.24,1.24,0,0,0-.15.66,1.72,1.72,0,0,0,.51,1.23,1.78,1.78,0,0,0,1.22.51h.49A1.35,1.35,0,0,0,28,48a1.52,1.52,0,0,0,.91-.92,1.17,1.17,0,0,0,.15-.67,1.72,1.72,0,0,0-.5-1.22,1.8,1.8,0,0,0-1.23-.51Z"/></g></g></svg>