<svg xmlns="http://www.w3.org/2000/svg" viewBox="0 0 98.21 98.21"><defs><style>.cls-1{fill:#848484;}</style></defs><g id="Calque_2" data-name="Calque 2"><g id="Calque_1-2" data-name="Calque 1"><path class="cls-1" d="M73.43,46.21H31.14c-1.95,0-3.91,0-5.86,0H25.2a3,3,0,0,0,0,6.07H67.49c2,0,3.9,0,5.86,0h.08a3,3,0,0,0,0-6.07Z"/><path class="cls-1" d="M92.15,49.11a47.06,47.06,0,0,1-.42,6.18c0-.27.07-.54.11-.81a46.45,46.45,0,0,1-3.18,11.69l.3-.73a44.51,44.51,0,0,1-3.18,6.18q-.9,1.47-1.92,2.88c-.15.22-.31.43-.47.64l-.24.31c-.08.1-.24.31.07-.1s.06-.07,0,0c-.35.44-.69.86-1,1.29a44.7,44.7,0,0,1-4.82,4.91c-.43.39-.87.75-1.31,1.11-.23.19-.45.37-.68.54l-.16.12c-.25.19.39-.32.35-.27a1.72,1.72,0,0,1-.37.28c-.92.69-1.87,1.35-2.84,2a45.14,45.14,0,0,1-6.92,3.63l.73-.3a46.59,46.59,0,0,1-11.69,3.19l.81-.11a47.43,47.43,0,0,1-12.37,0l.81.11A46.47,46.47,0,0,1,32,88.64l.73.3a45.57,45.57,0,0,1-6.18-3.17c-1-.61-1.94-1.24-2.88-1.92-.22-.15-.43-.32-.64-.48l-.32-.24c-.09-.07-.3-.23.11.07s.07.06,0,0c-.44-.34-.86-.69-1.29-1a46.58,46.58,0,0,1-4.91-4.82c-.39-.44-.75-.87-1.12-1.32-.18-.22-.36-.44-.53-.68l-.12-.16c-.19-.24.32.4.27.36a2.07,2.07,0,0,1-.28-.38c-.69-.92-1.35-1.87-2-2.84a44.68,44.68,0,0,1-3.63-6.92l.3.73A46.47,46.47,0,0,1,6.35,54.43c0,.27.07.54.11.81a47.43,47.43,0,0,1,0-12.37c0,.28-.07.54-.11.81A46.59,46.59,0,0,1,9.54,32l-.3.73a45,45,0,0,1,3.17-6.18c.61-1,1.24-1.94,1.92-2.88.15-.21.32-.43.48-.64l.24-.31c.07-.09.23-.3-.07.1s-.06.07,0,0c.34-.43.69-.86,1-1.28a46.66,46.66,0,0,1,4.82-4.92c.44-.38.87-.75,1.32-1.11.22-.18.44-.37.68-.54l.16-.12a3.56,3.56,0,0,1-.36.27,1.78,1.78,0,0,1,.38-.28c.92-.69,1.87-1.34,2.84-2a44.68,44.68,0,0,1,6.92-3.63l-.73.3A46.45,46.45,0,0,1,43.75,6.34l-.81.11a46.57,46.57,0,0,1,12.37,0l-.81-.11A46.57,46.57,0,0,1,66.19,9.52l-.73-.3a46.16,46.16,0,0,1,6.18,3.17c1,.61,1.94,1.25,2.88,1.93l.64.47.31.24c.09.07.3.24-.1-.07s-.07-.06,0,0l1.28,1a46.75,46.75,0,0,1,4.92,4.83c.38.43.75.87,1.11,1.31l.54.68.12.16c.19.25-.33-.39-.28-.35a1.48,1.48,0,0,1,.29.37c.69.92,1.34,1.87,2,2.84A45.14,45.14,0,0,1,89,32.77l-.3-.73a46.57,46.57,0,0,1,3.18,11.69c0-.27-.07-.53-.11-.81a45.87,45.87,0,0,1,.42,6.19,3,3,0,1,0,6.06,0A49.84,49.84,0,0,0,95.86,34a48.82,48.82,0,0,0-6.59-13.17A51,51,0,0,0,78.7,9.93a48.36,48.36,0,0,0-12.92-7A49.1,49.1,0,0,0,11.4,17.67,50.77,50.77,0,0,0,3.55,30.81a49.24,49.24,0,0,0-2.14,30A48,48,0,0,0,7.08,74.52,49.2,49.2,0,0,0,28.6,93.72a50.41,50.41,0,0,0,15.09,4.17A49.11,49.11,0,0,0,93,71.14a48.23,48.23,0,0,0,4.58-14.21,52.52,52.52,0,0,0,.63-7.82,3,3,0,1,0-6.06,0Z"/></g></g></svg>