<svg xmlns="http://www.w3.org/2000/svg" viewBox="0 0 99.18 91.05"><defs><style>.cls-1{fill:#848484;}</style></defs><g id="Calque_2" data-name="Calque 2"><g id="Calque_1-2" data-name="Calque 1"><path class="cls-1" d="M31.84,3.31,27.22,5.09,37.89,32.82l4.62-1.77a19,19,0,0,1,14.17,0l4.62,1.77L72,5.09,67.34,3.31A49.28,49.28,0,0,0,31.84,3.31Z"/><path class="cls-1" d="M30.12,52.54l-.76-4.89L0,52.28l.76,4.89A49.36,49.36,0,0,0,18.49,87.93l3.85,3.12L41.06,67.89l-3.84-3.12A19.7,19.7,0,0,1,30.12,52.54Z"/><path class="cls-1" d="M69.06,52.54A19.64,19.64,0,0,1,62,64.77l-3.85,3.11L76.85,91.05l3.85-3.12A49.34,49.34,0,0,0,98.42,57.16l.76-4.88L69.82,47.65Z"/><circle class="cls-1" cx="49.59" cy="49.46" r="14.84"/></g></g></svg>