<svg xmlns="http://www.w3.org/2000/svg" viewBox="0 0 98.43 77.37"><defs><style>.cls-1{fill:#848484;}</style></defs><g id="Calque_2" data-name="Calque 2"><g id="Calque_1-2" data-name="Calque 1"><path class="cls-1" d="M86.19,5.16l6.73,6.72.34.35,0,0,.12.13c.22.21-.06.08-.05-.08,0,.06.22.33.26.39a1.57,1.57,0,0,1,.15.29s-.16-.45,0-.11a4.42,4.42,0,0,1,.14.52c.13.56,0-.32,0,.09a5,5,0,0,0,0,.55c0,.24,0-.2,0-.22a1.72,1.72,0,0,0-.08.38,1.32,1.32,0,0,1-.17.53s.22-.41.07-.19-.11.2-.16.28-.36.43-.15.23-.1.09-.15.13l-.5.51-3.54,3.54-6.18,6.17-8,8-9,9L57,51.44l-8.39,8.4-6.82,6.81L37.42,71l-1,1-.17.17-.07.07c-.06,0-.31.32-.08.09s0,0,0,0a3,3,0,0,0-.56.32s.53-.18.12,0l-.23.07a3.27,3.27,0,0,0-.54.13s.47,0,.22,0l-.23,0a1.6,1.6,0,0,0-.31,0c-.32,0,0,0,.15,0a5.11,5.11,0,0,0-.53-.13l-.3-.1c-.25-.08.19.07.18.08s-.4-.22-.49-.27a1,1,0,0,0-.19-.14c.22.17.27.21.14.1l-.12-.11-.12-.12c-.16-.14-.3-.3-.45-.45l-2.13-2.13L23.12,62.1l-9-9.05L7,46l-1.7-1.7-.16-.16L5,44c.2.2,0,0,0,0l-.17-.27a1.43,1.43,0,0,0-.12-.21c-.17-.26.13.4,0,.11s-.11-.34-.16-.52a1.89,1.89,0,0,0,0-.23c-.06-.27,0,.56,0,.07v-.47c0-.41-.11.43,0-.09a3.51,3.51,0,0,1,.15-.53c0-.1.15-.22,0,0l.1-.15c.06-.1.4-.51.18-.29l.15-.14.07-.07.47-.47,1.8-1.8,4.09-4.09.53-.53.1-.1h0l.24-.23s-.39.25-.07.06c.16-.1.33-.18.48-.29s-.16.07-.18.07a2.11,2.11,0,0,0,.3-.1c.17-.06.35-.08.52-.13s-.23.05-.22,0a1.67,1.67,0,0,1,.39,0h.23c.23,0,.21.12-.15,0a3.78,3.78,0,0,0,.46.1l.3.1c.1,0,.22.14,0,0s0,0,0,0,.23.12.34.2a1.05,1.05,0,0,0,.2.14c-.16,0-.3-.26-.08,0a.63.63,0,0,0,.12.11l.05,0,.21.21.93.93L24,43l7.82,7.83,1.29,1.29a2.32,2.32,0,0,0,3.23,0l5.05-5q6-6,12-12,7-7,14.09-14.09Q73.2,15.25,79,9.5l3.33-3.34.78-.77.15-.15h0s.3-.3.13-.12c.37-.39-.4.23,0,0l.28-.17.13-.08c.23-.12.19-.11-.11,0,.19-.21.65-.15.9-.25-.47.18-.25,0,0,0H85c.32,0-.56-.13-.07,0,.15,0,.31.07.46.12s.44.23.17,0,.11.07.15.11a1.31,1.31,0,0,1,.4.26c-.32-.5,0-.09.09,0a2.32,2.32,0,0,0,3.23,0,2.32,2.32,0,0,0,0-3.23,6.67,6.67,0,0,0-8.55-.69,9.77,9.77,0,0,0-1.13,1L77.18,4.79,66.46,15.52,52.23,29.74,39.56,42.41c-2.1,2.1-4.28,4.13-6.3,6.3,0,0-.06.06-.09.09H36.4l-5-5-9-9-3.19-3.18a9.49,9.49,0,0,0-3.43-2.46,6.58,6.58,0,0,0-5.66.66,10.57,10.57,0,0,0-1.71,1.48L4.33,35.51A24.77,24.77,0,0,0,1,39.06a6.72,6.72,0,0,0,1,8.29c1.45,1.47,2.91,2.92,4.38,4.38l8.49,8.49,9,9,5.69,5.69a8.07,8.07,0,0,0,3.32,2.2,6.73,6.73,0,0,0,6.69-1.75l2.64-2.63,5.65-5.66,7.78-7.77,9-9L74,40.92l8.74-8.73L90,24.93c1.63-1.64,3.27-3.27,4.9-4.9a15.13,15.13,0,0,0,2.73-3.09,6.77,6.77,0,0,0,.17-6.15,7.43,7.43,0,0,0-1.62-2.15l-4-4L89.42,1.91a2.32,2.32,0,0,0-3.23,0A2.34,2.34,0,0,0,86.19,5.16Z"/></g></g></svg>