<svg xmlns="http://www.w3.org/2000/svg" viewBox="0 0 98.21 91.53"><defs><style>.cls-1{fill:#848484;}</style></defs><g id="Calque_2" data-name="Calque 2"><g id="Calque_1-2" data-name="Calque 1"><path class="cls-1" d="M92.73,72.75l-.61.49c-.32.26.83-.64.48-.37l-.19.14-.41.3-1,.74a64.22,64.22,0,0,1-6.69,4.08q-2.64,1.38-5.39,2.55l.77-.32a64,64,0,0,1-12,3.74c-1.29.26-2.58.48-3.88.66l.85-.12a55.68,55.68,0,0,1-14.76,0l.86.12a57.44,57.44,0,0,1-14.4-4l.77.32a62.84,62.84,0,0,1-7.84-4c-1.34-.79-2.66-1.65-3.94-2.53-.69-.47-1.36-1-2-1.45l-.93-.7-.24-.18.26.2c-.18-.15-.36-.29-.55-.42-1.58-1.26-3.13-2.58-4.63-3.94a3.25,3.25,0,0,0-4.51,0Q7.58,73.21,2.45,78.35L1,79.8l5.45,2.25V45.21c0-1.69,0-3.41,0-5.1V40L3.26,43.23H40.1c1.69,0,3.41.05,5.1,0h.07L43,37.78,32.77,48l-1.44,1.44a3.22,3.22,0,0,0,0,4.51A119.59,119.59,0,0,0,51.77,69.6a77.69,77.69,0,0,0,17.4,7.75,56.88,56.88,0,0,0,13.77,2.34A41.55,41.55,0,0,0,92.32,79a20.27,20.27,0,0,0,3.5-.92l0,0a3.54,3.54,0,0,0,1.91-1.47,3.18,3.18,0,0,0,.31-2.45,3.13,3.13,0,0,0-1.46-1.91,3.09,3.09,0,0,0-2.46-.32,16.61,16.61,0,0,1-3.18.86c-.66.13-1.32.24-2,.33l.86-.11a41.37,41.37,0,0,1-8.4.21c-1-.08-2-.18-3-.31l.85.12a58.73,58.73,0,0,1-11.6-2.87c-1.25-.44-2.5-.93-3.73-1.44l.76.31a82.06,82.06,0,0,1-10.63-5.47c-2-1.18-3.85-2.43-5.72-3.75-1-.71-2-1.43-3-2.17l-.73-.55c.82.61-.05,0-.23-.18-.53-.42-1-.82-1.56-1.25q-3.64-3-7.08-6.18V54L46.08,43.74l1.44-1.44a3.21,3.21,0,0,0-2.26-5.45H8.42c-1.7,0-3.4,0-5.1,0H3.25a3.24,3.24,0,0,0-3.2,3.2V76.89c0,1.69,0,3.41,0,5.1v.07A3.21,3.21,0,0,0,5.5,84.32L15.77,74.06l1.44-1.45H12.7a75.48,75.48,0,0,0,25,15.5,57.41,57.41,0,0,0,22.23,3.35,62.7,62.7,0,0,0,18.55-3.77,71.51,71.51,0,0,0,13-6.26,45.28,45.28,0,0,0,5.8-4.1s0,0,.07-.06A3.22,3.22,0,0,0,98.21,75a3.21,3.21,0,0,0-5.48-2.27Z"/><path class="cls-1" d="M5.48,18.78l.61-.49c.32-.26-.83.64-.48.37l.19-.14.42-.31,1-.73a64.22,64.22,0,0,1,6.69-4.08q2.64-1.38,5.39-2.55l-.77.32a64,64,0,0,1,12-3.74c1.29-.26,2.59-.48,3.89-.66l-.86.12a55.68,55.68,0,0,1,14.76,0l-.85-.12a57,57,0,0,1,14.39,4l-.77-.32a62.75,62.75,0,0,1,7.84,4q2,1.2,3.95,2.54c.68.47,1.35.95,2,1.45l.94.7.23.18c.28.21-.27-.21-.25-.2l.54.42c1.58,1.26,3.13,2.58,4.63,3.94a3.25,3.25,0,0,0,4.51,0L95.76,13.18l1.45-1.45L91.76,9.48V46.32c0,1.69-.05,3.4,0,5.1v.07L95,48.3H58.11c-1.69,0-3.4-.06-5.1,0h-.07c.75,1.82,1.5,3.63,2.26,5.45L65.45,43.5l1.43-1.44a3.21,3.21,0,0,0,0-4.51A119.59,119.59,0,0,0,46.44,21.93,77.69,77.69,0,0,0,29,14.18a56.89,56.89,0,0,0-13.76-2.34,41.51,41.51,0,0,0-9.38.67,20.93,20.93,0,0,0-3.5.91l0,0a3.51,3.51,0,0,0-1.9,1.46,3.17,3.17,0,0,0-.32,2.46A3.11,3.11,0,0,0,1.6,19.28a3.08,3.08,0,0,0,2.46.32,16.51,16.51,0,0,1,3.17-.86c.66-.13,1.32-.24,2-.33l-.85.11a41.37,41.37,0,0,1,8.4-.21c1,.08,2,.18,3,.31l-.85-.12A58,58,0,0,1,30.5,21.37c1.25.44,2.5.93,3.73,1.44l-.76-.32A82.73,82.73,0,0,1,44.1,28q2.92,1.77,5.72,3.75c1,.71,2,1.43,3,2.16.24.19.48.38.73.56l.24.18c.52.41,1,.82,1.55,1.24q3.64,3,7.08,6.19V37.54L52.13,47.79l-1.44,1.43A3.21,3.21,0,0,0,53,54.67H89.79c1.71,0,3.4,0,5.1,0H95a3.23,3.23,0,0,0,3.19-3.19V14.64c0-1.69,0-3.41,0-5.1V9.46a3.21,3.21,0,0,0-5.45-2.25L82.45,17.47,81,18.92h4.51a75.22,75.22,0,0,0-25-15.5A57.61,57.61,0,0,0,38.33.06,63,63,0,0,0,19.78,3.84a71.83,71.83,0,0,0-13,6.26A45.28,45.28,0,0,0,1,14.2l-.06.05a3.19,3.19,0,0,0,0,4.52A3.28,3.28,0,0,0,5.48,18.78Z"/></g></g></svg>