<svg xmlns="http://www.w3.org/2000/svg" viewBox="0 0 98.47 87.15"><defs><style>.cls-1{fill:#848484;}</style></defs><g id="Calque_2" data-name="Calque 2"><g id="Calque_1-2" data-name="Calque 1"><path class="cls-1" d="M46.06,29.47V58a3.16,3.16,0,1,0,6.32,0V29.47a3.16,3.16,0,1,0-6.32,0Z"/><path class="cls-1" d="M46.06,67.06v1.4a3.14,3.14,0,0,0,3.16,3.16,3.17,3.17,0,0,0,2.24-.92,3.31,3.31,0,0,0,.92-2.24v-1.4a3.16,3.16,0,0,0-3.16-3.17,3.18,3.18,0,0,0-2.24.93,3.28,3.28,0,0,0-.92,2.24Z"/><path class="cls-1" d="M89.7,80.82H8.84a7.11,7.11,0,0,1-.92-.06c.29,0,.56.07.84.12a6,6,0,0,1-1.39-.4l.76.32a6,6,0,0,1-.9-.48c-.61-.42.51.45.14.11L7,80.09c-.11-.11-.22-.25-.33-.36.7.73.29.4.12.13A4.83,4.83,0,0,1,6.33,79l.31.76a6.64,6.64,0,0,1-.4-1.45c0,.29.08.56.12.85a6.52,6.52,0,0,1,0-1.53c0,.28-.07.55-.12.84a6.07,6.07,0,0,1,.4-1.4l-.31.76a24,24,0,0,1,1.36-2.43l3-5.18,4.51-7.75C17,59.31,18.85,56.18,20.67,53l6-10.33,6-10.36c1.85-3.17,3.68-6.33,5.53-9.49L42.82,15c1-1.79,2.08-3.57,3.11-5.35.39-.68.78-1.36,1.18-2L47.49,7s-.47.55-.28.38l.12-.15c.12-.12.24-.25.37-.37l.3-.24c-.75.68-.43.32-.18.17a5.34,5.34,0,0,1,.82-.43l-.76.31a6.2,6.2,0,0,1,1.4-.39l-.84.12a6.87,6.87,0,0,1,1.57,0l-.84-.12a6.2,6.2,0,0,1,1.4.39l-.76-.31a5.13,5.13,0,0,1,.77.4c.13.07.58.42.1,0s0,0,.11.12l.32.32a.64.64,0,0,0,.13.15c.25.27-.45-.63-.26-.33s.23.34.34.52a1.19,1.19,0,0,1,.08.16l.61,1,2.69,4.62L59,20.77c1.78,3.06,3.55,6.11,5.34,9.17q3,5.11,6,10.24c2,3.47,4,6.94,6,10.41L82,60.29l4.8,8.25c1.14,2,2.28,3.92,3.42,5.88.53.91,1.06,1.8,1.57,2.71a4.73,4.73,0,0,1,.36.71l-.31-.76a6.79,6.79,0,0,1,.4,1.4c0-.28-.08-.56-.12-.84a6,6,0,0,1,0,1.53c0-.29.07-.56.12-.85a6.64,6.64,0,0,1-.4,1.45L92.1,79a5.56,5.56,0,0,1-.46.87c-.17.27-.58.6.12-.13-.11.11-.22.25-.33.37l-.37.33c-.37.34.75-.52.14-.11a5.57,5.57,0,0,1-.9.48l.76-.31a6.42,6.42,0,0,1-1.39.39c.28-.05.55-.08.84-.12-.26,0-.54,0-.81,0a3.17,3.17,0,1,0,0,6.33,8.92,8.92,0,0,0,7.35-4A8.62,8.62,0,0,0,98,75.47a20,20,0,0,0-1.31-2.57c-1.66-2.84-3.3-5.68-5-8.52q-4.11-7.06-8.22-14.13L73.88,33.76q-4.44-7.65-8.9-15.3L58.64,7.56,57.08,4.87l-.29-.49a8.77,8.77,0,0,0-15.22.09l-1.11,1.9c-1.88,3.25-3.78,6.51-5.67,9.75q-4.29,7.4-8.59,14.77-4.8,8.28-9.62,16.54Q12.29,54.83,8,62.2C6.11,65.45,4.21,68.71,2.32,72l-1.11,1.9a8.84,8.84,0,0,0,1.66,11,8.94,8.94,0,0,0,5.89,2.25H89.69a3.16,3.16,0,0,0,0-6.31Z"/></g></g></svg>