<svg   fill="#2196f3" xmlns="http://www.w3.org/2000/svg" xmlns:xlink="http://www.w3.org/1999/xlink" version="1.1" x="0px" y="0px" viewBox="0 0 1024 1024" style="enable-background:new 0 0 1024 1024;" xml:space="preserve"><style type="text/css">
	.st0{display:none;}
	.st1{display:inline;}
</style><g class="st0"><g class="st1"><path d="M886.8,838.3c0,1.2-0.1,2.4-0.2,3.6c-0.1,2.8,0.5-1.8-0.1,0.9c-0.6,2.4-1.2,4.7-2,7    c-0.8,2.6,0.8-1.3-0.4,1.1c-0.6,1.1-1.1,2.3-1.8,3.4c-1.3,2.4-2.8,4.6-4.4,6.8c1.5-2-0.6,0.7-1.1,1.3c-0.9,1-1.8,2-2.7,3    c-2,2.2-4.2,4.2-6.4,6.2c-1.2,1.1-2.5,2.2-3.8,3.2c-0.4,0.4-0.9,0.7-1.3,1.1c-2.2,1.8,1.6-1.2-0.7,0.5c-2.9,2.1-5.8,4.2-8.9,6.2    c-29.3,18.9-62.3,29.7-96.1,38.7c-46.3,12.2-93.8,19.4-141.5,23.5c-55.2,4.8-110.7,5.6-166,2.7c-50.3-2.6-100.5-8.3-149.7-18.9    c-37.1-8-75-18.4-108.2-35.3c-6.8-3.4-13.4-7.1-19.7-11.3c-2.6-1.7-5.2-3.5-7.7-5.4c-0.4-0.3-1.9-1.5-0.4-0.3    c-0.7-0.5-1.3-1-2-1.6c-1.3-1-2.5-2.1-3.8-3.2c-2.1-1.9-4.2-3.9-6.2-5.9c-0.9-1-1.8-2-2.7-3c-0.4-0.5-0.8-0.9-1.2-1.4    c-1.8-2.2,0.4,0.6-0.6-0.8c-1.4-2-2.8-4.1-4-6.2c-0.5-0.9-1-1.9-1.5-2.9c-0.3-0.6-0.5-1.2-0.8-1.7c1.2,2.7,0.2,0.4,0-0.2    c-0.7-2-1.2-4.1-1.7-6.2c-0.1-0.6-0.2-1.2-0.3-1.8c0.6,2.9,0.1,1.1,0.1,0.3c-0.1-1.2-0.2-2.4-0.2-3.6c0-1.2,0-2.5,0-3.7    c0-8.2,0-16.5,0-24.7c-0.1-49.5-0.1-99.1-0.2-148.6c0-1.1,0-2.2,0-3.4c0-12.9-20-12.9-20,0c0,8-0.3,16.1,2,23.9    c2.5,8.4,7.1,15.8,12.7,22.4c13.2,15.7,32.3,26.3,50.7,34.6c58.8,26.3,124.7,36.5,188.2,43.1c83.4,8.7,168.1,9.3,251.7,2.7    c37.3-3,74.6-7.5,111.4-14.6c29.6-5.7,59-12.8,87.2-23.5c33.6-12.7,82.5-35.2,84-77.3c0.1-3.7,0-7.5,0-11.2c-6.7,0-13.3,0-20,0    c0,20.2,0.1,40.5,0.1,60.7c0,32.5,0.1,64.9,0.1,97.4C886.8,823.4,886.8,830.9,886.8,838.3c0,12.9,20,12.9,20,0    c0-20.2-0.1-40.5-0.1-60.7c0-32.5-0.1-64.9-0.1-97.4c0-7.4,0-14.8,0-22.3c0-12.9-20-12.9-20,0c0,3.7,0.1,7.5,0,11.2    c0,0.8-0.1,1.6-0.1,2.4c-0.1,2.5,0.3-1,0,0.3c-0.5,1.6-0.7,3.3-1.2,4.9c-0.2,0.8-0.5,1.5-0.8,2.3c-0.1,0.4-0.3,0.8-0.4,1.1    c-0.5,1.2,0.9-1.9,0.3-0.7c-0.8,1.7-1.7,3.4-2.6,5c-0.9,1.5-1.9,2.9-2.9,4.4c-1.4,2,1.1-1.2-0.5,0.7c-0.7,0.8-1.4,1.6-2.1,2.4    c-2.8,3.2-6,6.1-9.3,8.8c-0.5,0.4-2.9,2.3-1.1,0.9c-0.9,0.7-1.8,1.3-2.7,2c-2,1.4-4,2.8-6,4.1c-9.1,5.9-18.9,10.8-28.9,15.1    c-23.4,10.2-52,18-78.3,23.8c-33.6,7.4-67.8,12.4-102,15.8c-80.6,8.1-162.4,8.6-243.2,2.4c-64.6-5-130.8-13.7-192-35.9    c-11.3-4.1-20.4-7.9-31.3-13.6c-4.6-2.4-9.2-5-13.6-7.9c-1.9-1.2-3.8-2.5-5.7-3.9c-0.9-0.6-1.8-1.3-2.7-2c1.8,1.3-1-0.8-1.4-1.2    c-3.2-2.6-6.2-5.5-9-8.5c-0.6-0.7-1.2-1.4-1.8-2.1c-1.8-2.1,0.4,0.7-0.6-0.7c-1.2-1.6-2.3-3.2-3.3-4.9c-0.9-1.5-1.6-3-2.4-4.5    c-0.6-1.2,0.6,1.9-0.2-0.4c-0.3-1-0.7-1.9-1-2.9c-0.5-1.5-0.7-3.1-1.1-4.7c-0.4-1.6,0.1,2.4,0-0.3c0-0.9-0.1-1.8-0.2-2.7    c-0.1-3.6,0-7.3,0-10.9c-6.7,0-13.3,0-20,0c0.1,46.1,0.1,92.2,0.2,138.2c0,10.7,0,21.3,0,32c0,5-0.2,10,0.3,14.9    c2.9,25.9,24.1,44.7,45,57.8c30.9,19.5,66.9,31.3,102,40.4c48.3,12.5,97.9,19.7,147.6,23.8c57,4.8,114.5,5.4,171.6,1.9    c51.4-3.1,102.9-9.4,153.3-20.7c37.8-8.5,76-19.8,110.3-38.1c22.6-12,46.8-29,55.4-54.3c1.7-5,2.5-10.4,2.6-15.7    C907,825.4,887,825.4,886.8,838.3z"></path></g></g><g><g><g><path d="M856.9,176c0,1.2-0.2,2.4-0.2,3.6c0,1.4,0.5-2.2-0.1,0.3c-0.2,0.8-0.3,1.6-0.5,2.4     c-0.3,1.4-0.8,2.7-1.3,4.1c-0.6,1.9,0,0.1-0.1,0.2c-0.4,0.9-0.8,1.7-1.2,2.6c-0.7,1.4-1.5,2.7-2.3,4c-0.4,0.7-0.9,1.3-1.3,2     c-0.3,0.4-1.9,2.5-1.1,1.5c0.9-1.2-0.8,0.9-1,1.2c-0.6,0.7-1.1,1.3-1.7,1.9c-1.4,1.5-2.8,3-4.3,4.4c-1.4,1.3-2.8,2.5-4.2,3.7     c-0.7,0.6-1.5,1.2-2.2,1.8c-0.4,0.4-0.9,0.7-1.3,1c0.8-0.6,0.7-0.5,0,0c-3.7,2.7-7.5,5.3-11.4,7.6c-8.7,5.3-17.9,9.9-27.3,14     c-22,9.6-47.7,17.2-71.9,23c-29.9,7.1-60.3,12.2-90.9,15.7c-71.4,8.2-143.9,8.9-215.5,2.7c-58.7-5.1-118.3-14.6-173.7-35.1     c-18.6-6.9-37.1-15.6-53.8-27.7c-1.8-1.3,0.2,0.2-1-0.8c-0.8-0.6-1.5-1.2-2.3-1.8c-1.5-1.3-3.1-2.6-4.5-4     c-2.7-2.6-5.2-5.3-7.6-8.2c1.2,1.5,0.2,0.3-0.3-0.5c-0.5-0.7-0.9-1.3-1.4-2c-1-1.5-1.9-3-2.7-4.6c-0.3-0.7-0.6-1.3-1-2     c-1-2,0.4,1.4-0.1-0.2c-0.5-1.5-1-2.9-1.4-4.4c-0.2-0.8-0.9-4.6-0.7-3.1c0.2,1.8,0-0.6-0.1-1c0-0.7-0.1-1.5-0.1-2.2     c0-1.4,0.1-2.7,0.2-4c0-0.2-0.4,2.1,0,0c0.2-0.8,0.3-1.6,0.5-2.4c0.4-1.5,0.9-2.9,1.4-4.4c0.7-2.2-0.7,1.3,0.1-0.2     c0.4-0.8,0.7-1.5,1.1-2.3c0.7-1.4,1.5-2.7,2.3-4c0.4-0.7,0.9-1.3,1.3-2c0.3-0.5,2.4-3.2,0.7-1.1c2.3-2.8,4.7-5.5,7.3-7.9     c1.5-1.4,3-2.7,4.5-4c0.7-0.6,1.5-1.2,2.3-1.8c1.7-1.4-0.5,0.3,1.4-1c7.6-5.5,15.7-10.4,24-14.7c20.8-10.7,43.1-18.2,66.2-24.6     c28.7-7.9,58-13.6,87.5-17.8c70.2-10.1,142-11.9,212.7-7.5c61.5,3.8,123.6,12.2,182.4,31.1c21.4,6.9,40.9,14.5,60.2,26.2     c3.8,2.3,7.4,4.8,11,7.4c1.9,1.4-0.3-0.3,1,0.8c0.9,0.7,1.7,1.4,2.6,2.1c1.5,1.3,3,2.6,4.5,4c2.6,2.5,5.1,5.1,7.3,7.9     c-1.7-2.1,0.2,0.3,0.5,0.8c0.5,0.6,0.9,1.3,1.3,2c0.9,1.4,1.7,2.8,2.5,4.3c0.3,0.7,0.6,1.3,1,2c1.1,2.2-0.5-1.4,0.1,0.2     c0.5,1.4,1,2.7,1.3,4.1c0.2,0.8,0.4,1.6,0.6,2.4c0.1,0.4,0.5,2.9,0.2,1c-0.2-1.7,0,0.6,0.1,1C856.9,174.4,856.9,175.2,856.9,176     c0.1,12.9,20.1,12.9,20,0c-0.3-36.6-39.7-59.4-68.8-72.6C753.9,79,693.9,68.1,635.2,61.2c-73.9-8.6-149.1-9.3-223.2-2.5     c-60.9,5.6-123.3,15.4-180.5,37.9c-20.3,8-40.1,17.6-57.2,31.3c-11.9,9.5-23.1,22.4-26.4,37.7c-7.7,35.5,25.5,61.2,53.1,75.9     c49.3,26.2,106.4,38.1,161.2,45.9c73.6,10.5,148.4,12.8,222.6,8c63.9-4.2,129-13.1,189.9-33.7c21.7-7.3,43.4-16.2,62.6-28.8     c13.8-9,27.8-20.6,34.8-36c3-6.6,4.9-13.6,4.9-20.9C876.9,163.1,856.9,163.1,856.9,176z"></path></g></g><g><g><path d="M856.9,624.3c0,1.2-0.2,2.4-0.2,3.6c0,2.1,0.6-2.3,0-0.3c-0.1,0.6-0.2,1.2-0.3,1.8c-0.2,1-0.5,2-0.8,2.9     c-0.3,0.9-2,5.1-0.7,2.3c-1,2.2-2.1,4.3-3.3,6.3c-0.6,1-1.2,1.9-1.9,2.8c-0.4,0.6-0.8,1.1-1.2,1.7c1.7-2.2-0.3,0.3-0.7,0.8     c-3.9,4.6-8.3,8.7-13,12.4c-2.2,1.8,1.6-1.2-0.7,0.5c-0.7,0.5-1.4,1-2.1,1.6c-1.2,0.9-2.5,1.7-3.7,2.6c-3.3,2.2-6.7,4.3-10.1,6.2     c-33.1,19-71.2,29.5-108.8,37.6c-50.7,10.9-102.6,16.3-154.4,18.3c-56.4,2.1-113.2,0.3-169.3-6.4c-45.3-5.4-90.8-14-134-28.9     c-16.3-5.6-30.9-11.6-46-20.2c-3.2-1.8-6.3-3.7-9.4-5.7c-1.4-0.9-2.8-1.8-4.1-2.8c-0.7-0.5-1.4-1-2.2-1.5c-0.5-0.3-0.9-0.7-1.4-1     c0.9,0.7,0.9,0.7,0,0c-4.7-3.7-9.2-7.8-13.1-12.4c-0.5-0.5-0.9-1.1-1.4-1.7c1.5,1.8,0.6,0.8,0.3,0.4c-0.8-1.1-1.6-2.2-2.3-3.4     c-1.4-2.2-2.6-4.5-3.7-6.9c1.3,2.9-0.3-0.9-0.5-1.7c-0.3-1-0.6-1.9-0.8-2.9c-0.2-0.9-0.6-4.8-0.4-1.5c-0.1-1.2-0.2-2.4-0.2-3.6     c-0.1-3.9,0-7.8,0-11.6c0-23.4,0-46.8,0-70.2c0-49.1,0-98.2,0-147.2c0-1,0-1.9,0-2.9c0-12.9-20-12.9-20,0     c0,36.5,39.8,59.5,68.7,72.5c53.9,24.3,113.5,35.3,171.9,42.2c73.9,8.7,149.1,9.4,223.2,2.7c60.9-5.5,123.2-15.3,180.4-37.6     c20.3-7.9,40.2-17.4,57.4-30.9c12.2-9.6,23.7-22.4,27.3-37.9c0.8-3.6,1.3-7.3,1.3-11c0-12.9-20-12.9-20,0c0,26.1,0,52.3,0,78.4     c0,41.5,0,82.9,0,124.4C856.9,605.2,856.9,614.8,856.9,624.3c0,12.9,20,12.9,20,0c0-26.1,0-52.3,0-78.4c0-41.5,0-82.9,0-124.4     c0-9.5,0-19.1,0-28.6c0-12.9-20-12.9-20,0c0,1.4-0.2,2.8-0.2,4.2c0.2-3.1,0.1-0.5-0.1,0.3c-0.2,0.8-0.3,1.6-0.5,2.4     c-0.4,1.4-0.9,2.7-1.3,4.1c-0.5,1.6,0.9-1.8-0.1,0.2c-0.4,0.8-0.7,1.5-1.1,2.3c-0.8,1.5-1.6,2.9-2.5,4.3     c-0.4,0.6-0.8,1.1-1.2,1.7c-0.3,0.4-0.5,0.7-0.8,1.1c-1.1,1.5,0.9-1,0.1-0.1c-2.3,2.8-4.8,5.4-7.4,7.9c-1.5,1.4-3,2.7-4.5,4     c-0.7,0.6-1.5,1.2-2.3,1.8c-0.1,0.1-1.2,0.9-0.3,0.3c1-0.8-0.9,0.6-1.1,0.8c-3.7,2.7-7.5,5.2-11.5,7.6c-8.8,5.3-18.1,9.9-27.5,14     c-9.5,4.1-21.6,8.5-32.4,11.9c-12.9,4.1-26,7.7-39.2,10.8c-29.9,7.1-60.4,12.1-91,15.6c-71.4,8.1-143.9,8.8-215.5,2.5     c-58.4-5.1-117.7-14.6-172.9-35.1c-18.4-6.8-36.9-15.4-53.5-27.4c-0.5-0.3-0.9-0.7-1.4-1c0.3,0.2,1.5,1.2,0,0     c-0.7-0.5-1.3-1-2-1.6c-1.7-1.4-3.3-2.8-4.8-4.3c-2.7-2.6-5.3-5.3-7.6-8.2c1.6,2-1.2-1.7-1.7-2.5c-0.9-1.4-1.8-2.8-2.5-4.3     c-0.3-0.7-0.7-1.3-1-2c-0.9-1.8-0.1-0.1-0.1-0.2c-0.5-1.6-1.1-3.1-1.5-4.7c-0.2-0.7-0.3-1.4-0.5-2.1c-0.1-0.4-0.4-2.9-0.2-1     c0.2,1.7,0-0.6-0.1-1c0-0.8-0.1-1.6-0.1-2.4c0-12.9-20-12.9-20,0c0,44.2,0,88.4,0,132.6c0,26.7,0,53.3,0,80c0,14.8-1,29,6.3,42.6     c14.1,26.2,44.8,41.5,71.1,52.5c40.7,17.1,84.4,26.8,127.9,33.6c56,8.7,112.8,12.3,169.5,11.9c56.1-0.5,112.4-4.9,167.7-14.7     c42-7.5,84.3-18,123.1-36.3c24.5-11.5,52.3-28.3,62-55.1c1.8-5,2.7-10.4,2.7-15.6C876.9,611.4,856.9,611.4,856.9,624.3z"></path></g></g><g><g><path d="M856.9,176c0,14.8,0,29.6,0,44.4c0,37.3,0,74.6,0,111.9c0,49.6,0,99.2,0,148.7c0,51.6,0,103.2,0,154.8     c0,43.4,0,86.7,0,130.1c0,24.9,0,49.8,0,74.7c0,2.1,0,4.2,0,6.3c0,0.3,0,0.7,0,1c0,1.2-0.2,2.4-0.2,3.6c0,2.1,0.6-2.3,0-0.3     c-0.1,0.4-0.1,0.8-0.2,1.2c-0.3,1.1-0.5,2.2-0.8,3.2c-0.3,0.9-0.6,1.7-0.9,2.6c-0.8,2.6,0.8-1.4-0.4,1.1c-1,1.9-2,3.9-3.2,5.7     c-0.6,1-1.3,1.9-1.9,2.8c-1.6,2.3,0.8-0.8-1,1.3c-1.6,1.9-3.3,3.7-5,5.5c-1.8,1.8-3.6,3.5-5.6,5.1c-1,0.8-1.9,1.6-2.9,2.4     c-2.1,1.7,1-0.7-0.3,0.3c-0.8,0.6-1.6,1.2-2.5,1.8c-4.8,3.5-9.9,6.6-15.1,9.5c-27.5,15.5-57.9,24.9-89,32.6     c-40.8,10.1-82.5,16.1-124.3,19.6c-91.8,7.7-186.1,5-276.7-12.7c-33.6-6.6-68.9-15.6-99.4-29.1c-12.3-5.4-24.3-11.6-35.3-19.4     c-1.1-0.8-2.1-1.5-3.2-2.3c-1.4-1,1.8,1.4-0.4-0.3c-0.4-0.3-0.9-0.7-1.3-1.1c-2.1-1.7-4.1-3.5-6.1-5.3c-1.8-1.7-3.6-3.6-5.2-5.5     c-0.3-0.4-2.4-2.9-1.5-1.8c0.7,0.9-1.2-1.7-1.7-2.4c-1.2-1.7-2.2-3.5-3.2-5.4c-0.4-0.9-0.8-1.7-1.2-2.6c1.3,2.9-0.3-0.9-0.5-1.7     c-0.6-1.7-0.8-3.5-1.3-5.3c-0.5-2,0.2,2,0.1,0.6c0-0.5-0.1-1-0.1-1.5c0-0.8-0.1-1.6-0.1-2.4c0-1.1,0-2.2,0-3.2     c0-7.7,0-15.4,0-23.1c0-32.7,0-65.4,0-98c0-47.7,0-95.4,0-143.1c0-51.9,0-103.8,0-155.7c0-46.5,0-92.9,0-139.4     c0-30.3,0-60.6,0-90.8c0-5.9,0-11.8,0-17.8c0-0.3,0-0.6,0-0.9c0-0.6,0-1.2,0-1.8c0-0.5,0.3-3.4,0.1-1.6c-0.2,1.8,0.2-1.1,0.3-1.6     c0.3-1.2,0.6-2.4,0.9-3.5c0.3-0.9,0.6-1.7,0.9-2.6c-0.3,1-0.5,0.8,0.4-0.8c1.1-2,2.2-4.1,3.4-6c0.6-0.9,1.2-1.7,1.8-2.5     c1.3-1.9-1,1.2-0.1,0.1c0.4-0.5,0.8-0.9,1.1-1.4c1.6-1.9,3.3-3.7,5.1-5.5c1.8-1.8,3.7-3.5,5.6-5.1c1-0.8,1.9-1.6,2.9-2.4     c-1.8,1.4,0.5-0.4,0.7-0.5c0.7-0.5,1.4-1,2.1-1.5c5-3.6,10.3-6.8,15.7-9.8c13.1-7.2,25.3-12.4,39.1-17.3     c35.5-12.8,72.8-20.9,110-26.7c91.8-14.3,186.8-15,279-4.1c39.5,4.7,78.9,11.8,117.1,23.2c27.9,8.3,54.9,18.1,78.8,35.2     c0.6,0.4,3.1,2.3,2.5,1.8c-0.6-0.4,1.7,1.4,2.3,1.8c2.1,1.7,4.1,3.5,6,5.3c1.6,1.6,3.2,3.2,4.7,4.9c0.4,0.4,2.8,3.5,1.1,1.3     c0.7,0.9,1.4,1.8,2,2.8c1.1,1.6,2.1,3.4,3.1,5.1c0.5,0.9,0.9,1.9,1.4,2.9c-1.2-2.7,0,0.1,0.2,0.8c0.6,1.8,1,3.7,1.5,5.6     c0.6,2.7,0-1.9,0.1,0.9C856.8,174,856.9,175,856.9,176c0.1,12.9,20.1,12.9,20,0c-0.2-21.9-15.5-39-32-51.5     c-23.5-17.7-52.2-28.7-80.1-37.4c-38.6-12.1-78.6-19.4-118.7-24.6c-47.7-6.2-95.9-8.6-144-8.3c-47.6,0.4-95.2,3.8-142.4,10.6     c-38.4,5.6-76.7,13.5-113.4,26.2c-26.8,9.3-54,20.9-75.6,39.7c-13.4,11.6-23.9,27.1-24.1,45.4c-0.2,16.9,0,33.8,0,50.7     c0,39.3,0,78.7,0,118c0,51,0,102.1,0,153.1c0,52,0,103.9,0,155.9c0,42.1,0,84.1,0,126.2c0,21.7,0,43.4,0,65     c0,37.9,36.6,60.7,67.3,74.7c32.4,14.8,67,24.4,101.8,31.5c43.8,9,88.4,14.1,133.1,16.6c92.4,5.2,187.2,0.5,277.5-20.6     c32.7-7.7,65.6-17.7,95.5-33.4c19.5-10.2,40.8-24.4,50.3-45.1c7.3-15.8,4.9-35.1,4.9-52c0-34.9,0-69.7,0-104.6     c0-49.2,0-98.3,0-147.5c0-52.7,0-105.5,0-158.2c0-45.5,0-91.1,0-136.6c0-27.6,0-55.2,0-82.8c0-3.7,0-7.4,0-11.2     C876.9,163.1,856.9,163.1,856.9,176z"></path></g></g></g></svg>