<svg  fill="#2196f3" xmlns="http://www.w3.org/2000/svg" version="1.1" x="0px" y="0px" viewBox="0 0 100 100" enable-background="new 0 0 100 100" xml:space="preserve"><path d="M87.75,92.693h-75.5c-1.104,0-2-0.896-2-2V32.577c0-1.104,0.896-2,2-2h17.302c1.104,0,2,0.896,2,2s-0.896,2-2,2H14.25  v54.116h71.5V34.577H71.347c-1.104,0-2-0.896-2-2s0.896-2,2-2H87.75c1.104,0,2,0.896,2,2v58.116  C89.75,91.797,88.854,92.693,87.75,92.693z M50.449,62.876c-1.104,0-2-0.896-2-2V13.952L36.207,25.489  c-0.804,0.757-2.07,0.72-2.827-0.084c-0.758-0.804-0.721-2.07,0.083-2.827L49.09,7.852c0.771-0.726,1.973-0.726,2.744,0  l15.621,14.726c0.804,0.757,0.841,2.023,0.083,2.827s-2.022,0.84-2.827,0.083L52.449,13.929v46.947  C52.449,61.981,51.554,62.876,50.449,62.876z"></path></svg>