<svg height='100px' width='100px'  fill="#000000" xmlns="http://www.w3.org/2000/svg" xmlns:xlink="http://www.w3.org/1999/xlink" version="1.1" x="0px" y="0px" viewBox="0 0 60 60" style="enable-background:new 0 0 60 60;" xml:space="preserve"><path d="M19.3900146,45.6099854c-0.3900146-0.3900146-1.0200195-0.3900146-1.4100342,0  c-0.3899536,0.3900146-0.3899536,1.0200195,0,1.4099731C21.1900024,50.2299805,25.460022,52,30,52  c4.0700073,0,7.9299927-1.4299927,11-4.0499878V51c0,0.5499878,0.4500122,1,1,1s1-0.4500122,1-1v-6c0-0.5499878-0.4500122-1-1-1h-6  c-0.5499878,0-1,0.4500122-1,1s0.4500122,1,1,1h4.2000122C37.4099731,48.5799561,33.8200073,50,30,50  C25.9899902,50,22.2299805,48.4400024,19.3900146,45.6099854z"></path><path d="M48.9799805,21.3399658C48.6300049,13.9299927,42.4799805,8,35,8c-4.2000122,0-8.0999756,1.8399658-10.7700195,5.0799561  C23.7999878,13.0299683,23.4000244,13,23,13c-6.0700073,0-11,4.9299927-11,11v0.2600098C8.5200195,25.1599731,6,28.3299561,6,32  c0,4.4099731,3.5900269,8,8,8h30c5.5100098,0,10-4.4899902,10-10C54,26.3900146,52.0900269,23.1199951,48.9799805,21.3399658z   M42.0205078,33.7070313C41.8251953,33.9023438,41.5693359,34,41.3134766,34s-0.5117188-0.0976563-0.7070313-0.2929688  C37.7734375,30.8740234,34.0068359,29.3134766,30,29.3134766c-3.1045532,0-6.05896,0.9468384-8.5525513,2.6865234h3.2390747  c0.5522461,0,1,0.4477539,1,1s-0.4477539,1-1,1h-6c-0.130249,0-0.2598877-0.0266724-0.3821411-0.0772095  c-0.2444458-0.1013794-0.43927-0.2962036-0.5406494-0.5406494C17.7131958,33.2598877,17.6865234,33.130249,17.6865234,33v-6  c0-0.5522461,0.4477539-1,1-1s1,0.4477539,1,1v3.8191528C22.6362915,28.5552979,26.2190552,27.3134766,30,27.3134766  c4.5410156,0,8.8100586,1.7685547,12.0205078,4.9794922C42.4111328,32.6835938,42.4111328,33.3164063,42.0205078,33.7070313z"></path></svg>