<svg xmlns="http://www.w3.org/2000/svg" viewBox="0 0 76.03 98.55"><defs><style>.cls-1{fill:#848484;}</style></defs><g id="Calque_2" data-name="Calque 2"><g id="Calque_1-2" data-name="Calque 1"><path class="cls-1" d="M54,81a4.45,4.45,0,0,0,3.42-4.32v-.69A4.46,4.46,0,0,0,53,71.49h-.67c.29-5.67,2.57-9.23,6.6-13.56a28.59,28.59,0,0,0-22.76-48A28.83,28.83,0,0,0,9.42,37.33,28.43,28.43,0,0,0,17.13,58c4,4.25,6.23,7.78,6.52,13.48H23a4.46,4.46,0,0,0-4.46,4.45v.69A4.46,4.46,0,0,0,21.94,81v6.1a4.37,4.37,0,0,0,4.36,4.36h.19V93a5.6,5.6,0,0,0,5.59,5.59H43.89A5.6,5.6,0,0,0,49.48,93V91.41h.19A4.36,4.36,0,0,0,54,87.05ZM18.92,56.32a26,26,0,0,1-7-18.89,26.34,26.34,0,0,1,24.44-25A26.12,26.12,0,0,1,57.11,56.25c-4.35,4.68-7,8.79-7.25,15.24H26.14C25.86,65,23.25,60.94,18.92,56.32ZM21,76.63v-.69a2,2,0,0,1,2-2H53a2,2,0,0,1,2,2v.69a2,2,0,0,1-2,2H23A2,2,0,0,1,21,76.63ZM47,93a3.12,3.12,0,0,1-3.12,3.12H32.08A3.12,3.12,0,0,1,29,93V91.41H47Zm2.66-4H26.3a1.9,1.9,0,0,1-1.9-1.9v-6H51.57v6A1.9,1.9,0,0,1,49.67,89Z"/><path class="cls-1" d="M38,28.52a9.5,9.5,0,1,0,9.5,9.5A9.51,9.51,0,0,0,38,28.52Zm0,16.54a7,7,0,1,1,7-7A7,7,0,0,1,38,45.06Z"/><path class="cls-1" d="M49.34,53.31a2.82,2.82,0,0,1,4-4,1.22,1.22,0,0,0,1.8-.29,20,20,0,0,0,2.8-6.74,1.22,1.22,0,0,0-.21-1,1.21,1.21,0,0,0-.87-.5,2.82,2.82,0,0,1,0-5.61,1.25,1.25,0,0,0,1.08-1.49A20,20,0,0,0,55.11,27a1.25,1.25,0,0,0-.84-.55,1.23,1.23,0,0,0-1,.26,2.82,2.82,0,0,1-4-4,1.2,1.2,0,0,0,.25-1,1.23,1.23,0,0,0-.54-.84,20.11,20.11,0,0,0-6.74-2.79,1.24,1.24,0,0,0-1,.2,1.28,1.28,0,0,0-.5.87,2.82,2.82,0,0,1-5.61,0,1.28,1.28,0,0,0-.5-.87,1.27,1.27,0,0,0-1-.2A20.16,20.16,0,0,0,27,20.92a1.23,1.23,0,0,0-.54.84,1.2,1.2,0,0,0,.25,1,2.82,2.82,0,0,1-4,4,1.23,1.23,0,0,0-1-.26,1.25,1.25,0,0,0-.84.55,20.25,20.25,0,0,0-2.8,6.74,1.25,1.25,0,0,0,1.08,1.49,2.82,2.82,0,0,1,0,5.61,1.21,1.21,0,0,0-.87.5,1.22,1.22,0,0,0-.21,1,20.25,20.25,0,0,0,2.8,6.74,1.22,1.22,0,0,0,1.8.29,2.82,2.82,0,0,1,4,4A1.25,1.25,0,0,0,27,55.12a20.22,20.22,0,0,0,6.75,2.8,1.23,1.23,0,0,0,1.48-1.08,2.82,2.82,0,0,1,5.61,0,1.24,1.24,0,0,0,.5.87,1.29,1.29,0,0,0,.73.23,1.18,1.18,0,0,0,.26,0,20.25,20.25,0,0,0,6.74-2.8,1.25,1.25,0,0,0,.29-1.81Zm-2.65.35a17.08,17.08,0,0,1-3.75,1.56,5.29,5.29,0,0,0-9.85,0,17.08,17.08,0,0,1-3.75-1.56,5.29,5.29,0,0,0-7-7A17.76,17.76,0,0,1,20.82,43a5.29,5.29,0,0,0,0-9.85,17.55,17.55,0,0,1,1.55-3.75,5.3,5.3,0,0,0,7-7,18.11,18.11,0,0,1,3.75-1.56,5.28,5.28,0,0,0,9.85,0,18.11,18.11,0,0,1,3.75,1.56,5.3,5.3,0,0,0,7,7,17.55,17.55,0,0,1,1.55,3.75,5.29,5.29,0,0,0,0,9.85,17.76,17.76,0,0,1-1.55,3.75,5.29,5.29,0,0,0-7,7Z"/><path class="cls-1" d="M62.1,64.17c-.57.53-1.18,1-1.8,1.55a1.24,1.24,0,0,0,.78,2.2,1.2,1.2,0,0,0,.77-.28c.66-.53,1.31-1.09,1.92-1.66a1.23,1.23,0,0,0-1.67-1.81Z"/><path class="cls-1" d="M16.83,9.18A1.2,1.2,0,0,0,17.54,9,35.14,35.14,0,0,1,21.7,6.43a1.23,1.23,0,0,0-1.14-2.19,38.09,38.09,0,0,0-4.44,2.7,1.23,1.23,0,0,0,.71,2.24Z"/><path class="cls-1" d="M25.75,4.57a1.53,1.53,0,0,0,.41-.07,36.09,36.09,0,0,1,4.68-1.31,1.22,1.22,0,0,0,1-1.45,1.22,1.22,0,0,0-1.45-1,39.56,39.56,0,0,0-5,1.39,1.24,1.24,0,0,0,.41,2.4Z"/><path class="cls-1" d="M35.66,2.55c.78,0,1.57-.08,2.36-.08h0c.82,0,1.66,0,2.49.09h.08A1.23,1.23,0,0,0,40.7.1C39.82,0,38.92,0,38,0A23.86,23.86,0,0,0,35.5.09a1.23,1.23,0,1,0,.16,2.46Z"/><path class="cls-1" d="M9.49,16a1.23,1.23,0,0,0,.95-.45A35,35,0,0,1,13.77,12a1.24,1.24,0,0,0,.06-1.74,1.25,1.25,0,0,0-1.75-.06A38.66,38.66,0,0,0,8.53,14a1.23,1.23,0,0,0,.18,1.73A1.21,1.21,0,0,0,9.49,16Z"/><path class="cls-1" d="M8.58,62.08a1.23,1.23,0,0,0,1.91-1.56,34.38,34.38,0,0,1-2.82-4,1.23,1.23,0,0,0-2.1,1.29A37,37,0,0,0,8.58,62.08Z"/><path class="cls-1" d="M72.8,53.38a37.07,37.07,0,0,0,1.77-4.89,1.23,1.23,0,0,0-2.37-.67,34.93,34.93,0,0,1-1.65,4.56A1.23,1.23,0,0,0,71.18,54a1.21,1.21,0,0,0,1.62-.63Z"/><path class="cls-1" d="M1.4,34.25h.17A1.23,1.23,0,0,0,2.79,33.2a36.19,36.19,0,0,1,1-4.76,1.23,1.23,0,1,0-2.37-.67,36.91,36.91,0,0,0-1,5.1A1.23,1.23,0,0,0,1.4,34.25Z"/><path class="cls-1" d="M1.57,44.3h.17A1.23,1.23,0,0,0,2.8,42.9a35.49,35.49,0,0,1-.34-4.85,1.23,1.23,0,0,0-1.23-1.23h0A1.23,1.23,0,0,0,0,38.05a37.4,37.4,0,0,0,.36,5.19A1.22,1.22,0,0,0,1.57,44.3Z"/><path class="cls-1" d="M74.81,37h0a1.23,1.23,0,0,0-1.23,1.23,35.5,35.5,0,0,1-.36,4.85,1.24,1.24,0,0,0,1.05,1.39h.17a1.22,1.22,0,0,0,1.22-1.05A39,39,0,0,0,76,38.22,1.24,1.24,0,0,0,74.81,37Z"/><path class="cls-1" d="M3.78,24.49a1.21,1.21,0,0,0,.49.11,1.24,1.24,0,0,0,1.13-.74,34.63,34.63,0,0,1,2.24-4.32,1.23,1.23,0,0,0-.41-1.69,1.25,1.25,0,0,0-1.7.41,38.71,38.71,0,0,0-2.39,4.61A1.23,1.23,0,0,0,3.78,24.49Z"/><path class="cls-1" d="M3.79,47.66a1.24,1.24,0,0,0-2.38.67,39.16,39.16,0,0,0,1.75,4.9A1.24,1.24,0,0,0,4.29,54a1.21,1.21,0,0,0,.49-.11,1.23,1.23,0,0,0,.64-1.62A33.7,33.7,0,0,1,3.79,47.66Z"/><path class="cls-1" d="M65.68,15.69a1.23,1.23,0,0,0,1,.46,1.2,1.2,0,0,0,.77-.28,1.24,1.24,0,0,0,.19-1.73,37.57,37.57,0,0,0-3.54-3.81,1.23,1.23,0,0,0-1.69,1.8A34.88,34.88,0,0,1,65.68,15.69Z"/><path class="cls-1" d="M54.47,6.5A35.87,35.87,0,0,1,58.61,9a1.21,1.21,0,0,0,.72.23A1.23,1.23,0,0,0,60,7a38.59,38.59,0,0,0-4.43-2.71A1.23,1.23,0,0,0,54.47,6.5Z"/><path class="cls-1" d="M45.34,3.23A34.61,34.61,0,0,1,50,4.55a1.23,1.23,0,1,0,.83-2.32,37.94,37.94,0,0,0-5-1.42,1.24,1.24,0,0,0-.51,2.42Z"/><path class="cls-1" d="M70.69,24a1.25,1.25,0,0,0,1.14.75,1.2,1.2,0,0,0,.48-.11A1.22,1.22,0,0,0,73,23a36.78,36.78,0,0,0-2.38-4.63,1.23,1.23,0,0,0-2.11,1.27A34.67,34.67,0,0,1,70.69,24Z"/><path class="cls-1" d="M72.3,28.59a35.2,35.2,0,0,1,1,4.76,1.24,1.24,0,0,0,1.22,1.08h.16A1.23,1.23,0,0,0,75.7,33a37,37,0,0,0-1-5.09,1.23,1.23,0,0,0-2.38.65Z"/><path class="cls-1" d="M65.61,62.37a1.24,1.24,0,0,0,.79.29,1.26,1.26,0,0,0,.95-.45,39.25,39.25,0,0,0,3-4.23,1.23,1.23,0,0,0-2.1-1.29,36.44,36.44,0,0,1-2.83,4A1.22,1.22,0,0,0,65.61,62.37Z"/><path class="cls-1" d="M15.69,65.69c-.62-.49-1.22-1-1.8-1.55A1.23,1.23,0,1,0,12.22,66c.62.57,1.27,1.13,1.92,1.66a1.21,1.21,0,0,0,.78.27,1.23,1.23,0,0,0,.77-2.19Z"/></g></g></svg>