<svg xmlns="http://www.w3.org/2000/svg" viewBox="0 0 98.12 97.92"><defs><style>.cls-1{fill:#848484;}</style></defs><g id="Calque_2" data-name="Calque 2"><g id="Calque_1-2" data-name="Calque 1"><path class="cls-1" d="M49.17,97.92a49,49,0,1,1,49-49A48.9,48.9,0,0,1,49.17,97.92Zm0-94a45,45,0,1,0,45,45A45.08,45.08,0,0,0,49.17,4Zm0,67.08A22.09,22.09,0,1,1,71.25,49,22.09,22.09,0,0,1,49.17,71Zm0-40A17.92,17.92,0,1,0,67.08,49,17.92,17.92,0,0,0,49.17,31Z"/><path class="cls-1" d="M49.17,31A2.09,2.09,0,0,1,47.08,29V2.71a2.09,2.09,0,1,1,4.17,0V29A2.24,2.24,0,0,1,49.17,31Z"/><path class="cls-1" d="M64.17,37.92a1.89,1.89,0,0,1-1.67-.84,2.23,2.23,0,0,1,.42-2.91L84.58,18.75a2.23,2.23,0,0,1,2.92.42,2.23,2.23,0,0,1-.42,2.91L65.42,37.5A3,3,0,0,1,64.17,37.92Z"/><path class="cls-1" d="M72.71,91.67A1.89,1.89,0,0,1,71,90.83L55.62,68.33A2.11,2.11,0,0,1,59.17,66l15.41,22.5A2.09,2.09,0,0,1,74,91.46C73.54,91.46,73.12,91.67,72.71,91.67Z"/><path class="cls-1" d="M29.17,51H2.08a2.09,2.09,0,0,1,0-4.17H29.17A2.09,2.09,0,0,1,31.25,49,2.24,2.24,0,0,1,29.17,51Z"/></g></g></svg>