<svg xmlns="http://www.w3.org/2000/svg" viewBox="0 0 97.6 60.4"><defs><style>.cls-1{fill:#848484;}</style></defs><g id="Calque_2" data-name="Calque 2"><g id="Calque_1-2" data-name="Calque 1"><path class="cls-1" d="M0,59A1.42,1.42,0,0,0,1.41,60.4h26.2A1.43,1.43,0,0,0,29,59h0V45.44A1.42,1.42,0,0,0,27.61,44H17.14v-5.1H48V44H35.7a1.41,1.41,0,0,0-1.41,1.41h0V59A1.42,1.42,0,0,0,35.7,60.4H61.9A1.42,1.42,0,0,0,63.31,59h0V45.44A1.41,1.41,0,0,0,61.9,44H50.82v-5.1H81.67V44H70a1.42,1.42,0,0,0-1.42,1.41h0V59A1.43,1.43,0,0,0,70,60.4H96.18A1.42,1.42,0,0,0,97.6,59h0V45.44A1.41,1.41,0,0,0,96.19,44H84.5V37.52a1.42,1.42,0,0,0-1.41-1.42H50.82V28.37h18.4A1.42,1.42,0,0,0,70.63,27h0V1.42A1.41,1.41,0,0,0,69.22,0H29.59a1.41,1.41,0,0,0-1.41,1.41h0V27a1.42,1.42,0,0,0,1.41,1.42H48V36.1H15.72a1.42,1.42,0,0,0-1.41,1.42h0V44H1.42A1.41,1.41,0,0,0,0,45.44H0Zm60.48-1.41H37.12V46.86H60.48Zm34.29,0H71.4V46.86H94.77ZM31,2.83H67.8V25.54H31Zm-28.18,44H26.2V57.57H2.83Z"/></g></g></svg>