<svg xmlns="http://www.w3.org/2000/svg" viewBox="0 0 99.21 62.3"><defs><style>.cls-1{fill:#848484;}</style></defs><g id="Calque_2" data-name="Calque 2"><g id="Calque_1-2" data-name="Calque 1"><path class="cls-1" d="M49.61,0A53.86,53.86,0,0,0,.1,32.7a1.14,1.14,0,0,0,.57,1.51L16.4,41.42a1.15,1.15,0,0,0,1.51-.61h0a34.32,34.32,0,0,1,63.39,0,1.16,1.16,0,0,0,1.51.63l0,0,15.69-7.21a1.14,1.14,0,0,0,.57-1.51A53.87,53.87,0,0,0,49.61,0Zm-2,2.34c.26,0,.53,0,.79,0V8.08a1.16,1.16,0,0,0,2.31,0V2.34a51.08,51.08,0,0,1,27.8,8.91l-3.32,4.18a1.16,1.16,0,0,0,1.81,1.44h0l3.39-4.25a52,52,0,0,1,16.08,20L82.89,38.86a36.5,36.5,0,0,0-66.57,0L2.69,32.63a51.86,51.86,0,0,1,16.09-20l3.39,4.25A1.15,1.15,0,0,0,24,15.43l-3.32-4.18A51.14,51.14,0,0,1,47.66,2.34ZM64.53,32.27a1.13,1.13,0,0,0-.86.5L53.25,47.05a8,8,0,1,0,1.91,1.33L65.54,34.1a1.15,1.15,0,0,0-.23-1.61,1.21,1.21,0,0,0-.78-.22ZM49.61,48.45a5.77,5.77,0,1,1-5.77,5.77,5.75,5.75,0,0,1,5.77-5.77Z"/></g></g></svg>