<svg xmlns="http://www.w3.org/2000/svg" viewBox="0 0 97.94 97.94"><defs><style>.cls-1{fill:#848484;}</style></defs><g id="Calque_2" data-name="Calque 2"><g id="Calque_1-2" data-name="Calque 1"><path class="cls-1" d="M49,68.56a19.58,19.58,0,1,1,10.85-3.29A19.58,19.58,0,0,1,49,68.56ZM49,33.3a15.67,15.67,0,0,0-9.79,27.84A16,16,0,0,0,57.73,62a15.68,15.68,0,0,0,.8-25.47A15.44,15.44,0,0,0,49,33.3Z"/><path class="cls-1" d="M80.31,15.67a7.84,7.84,0,1,1,7.84-7.83A7.84,7.84,0,0,1,80.31,15.67Zm0-11.75a3.92,3.92,0,1,0,3.92,3.92A3.91,3.91,0,0,0,80.31,3.92Z"/><path class="cls-1" d="M90.11,56.81A7.84,7.84,0,1,1,97.94,49,7.84,7.84,0,0,1,90.11,56.81Zm0-11.76A3.92,3.92,0,1,0,94,49,3.92,3.92,0,0,0,90.11,45.05Z"/><path class="cls-1" d="M72.48,92.07a7.84,7.84,0,1,1,7.83-7.84A7.84,7.84,0,0,1,72.48,92.07Zm0-11.76a3.92,3.92,0,1,0,3.92,3.92A3.92,3.92,0,0,0,72.48,80.31Z"/><path class="cls-1" d="M15.67,97.94a7.84,7.84,0,1,1,7.84-7.83A7.83,7.83,0,0,1,15.67,97.94Zm0-11.75a3.92,3.92,0,1,0,3.92,3.92A3.92,3.92,0,0,0,15.67,86.19Z"/><path class="cls-1" d="M7.84,35.26a7.84,7.84,0,1,1,7.83-7.84A7.84,7.84,0,0,1,7.84,35.26Zm0-11.75a3.92,3.92,0,1,0,3.91,3.91A3.91,3.91,0,0,0,7.84,23.51Z"/><path class="cls-1" d="M90.11,50.93H66.6a2,2,0,1,1,0-3.92H90.11a2,2,0,0,1,0,3.92Z"/><path class="cls-1" d="M59.65,36.92a2,2,0,0,1-1.55-3.15L78.77,6.64A2,2,0,1,1,82,8.87a.71.71,0,0,1-.1.14L61.21,36.16A1.91,1.91,0,0,1,59.65,36.92Z"/><path class="cls-1" d="M15.67,92.07a2,2,0,0,1-2-2,1.93,1.93,0,0,1,.43-1.24L36.36,61.45a2,2,0,0,1,3,2.47L17.18,91.34A2,2,0,0,1,15.67,92.07Z"/><path class="cls-1" d="M72.48,86.19a2,2,0,0,1-1.63-.86L57.12,64.64a2,2,0,0,1,3.25-2.17L74.08,83.06a2,2,0,0,1-1.6,3.13Z"/><path class="cls-1" d="M33.3,42.76a2,2,0,0,1-.9-.21L6.93,29.17a2,2,0,0,1,1.74-3.51l.09,0L34.22,39.08a2,2,0,0,1-.92,3.68Z"/></g></g></svg>