<svg xmlns="http://www.w3.org/2000/svg" viewBox="0 0 67.58 96.97"><defs><style>.cls-1{fill:#848484;fill-rule:evenodd;}</style></defs><g id="Calque_2" data-name="Calque 2"><g id="Calque_1-2" data-name="Calque 1"><path class="cls-1" d="M1.47,0H13.22a1.47,1.47,0,0,1,1.47,1.47V13.22a1.47,1.47,0,0,1-1.47,1.47H1.47A1.47,1.47,0,0,1,0,13.22V1.47A1.47,1.47,0,0,1,1.47,0ZM2.94,2.94v8.81h8.81V2.94Zm25,23.51H39.67a1.47,1.47,0,0,1,1.47,1.47V39.67a1.47,1.47,0,0,1-1.47,1.47H27.92a1.47,1.47,0,0,1-1.47-1.47V27.92A1.46,1.46,0,0,1,27.92,26.45Zm1.46,2.93V38.2H38.2V29.38Zm25,23.51H66.12a1.46,1.46,0,0,1,1.46,1.47V66.12a1.46,1.46,0,0,1-1.46,1.46H54.36a1.46,1.46,0,0,1-1.47-1.46V54.36A1.47,1.47,0,0,1,54.36,52.89Zm1.47,2.94v8.82h8.82V55.83ZM54.36,79.34H66.12a1.46,1.46,0,0,1,1.46,1.47V92.56A1.46,1.46,0,0,1,66.12,94H54.36a1.47,1.47,0,0,1-1.47-1.47V80.81A1.47,1.47,0,0,1,54.36,79.34Zm1.47,2.94v8.81h8.82V82.28Zm-22,5.87a1.46,1.46,0,0,1-1.47-1.46V48.48a1.47,1.47,0,0,1,2.94,0V58.77H45.55a1.47,1.47,0,1,1,0,2.94H35.26V85.22H45.55a1.47,1.47,0,1,1,0,2.93Zm-25-55.83H19.1a1.47,1.47,0,0,1,0,2.94H8.82V95.5a1.47,1.47,0,0,1-2.94,0V22a1.47,1.47,0,0,1,2.94,0Z"/></g></g></svg>