<svg xmlns="http://www.w3.org/2000/svg" viewBox="0 0 97.82 91.67"><defs><style>.cls-1{fill:#848484;}</style></defs><g id="Calque_2" data-name="Calque 2"><g id="Calque_1-2" data-name="Calque 1"><path class="cls-1" d="M43.11,91.67h0A43.23,43.23,0,0,1,1,57.5,42.63,42.63,0,0,1,6.86,25,43.37,43.37,0,0,1,34,6.25L36,5.83,45,47.5,70.41,81.87l-1.67,1.25a41.66,41.66,0,0,1-16.67,7.5A41.77,41.77,0,0,1,43.11,91.67ZM32.91,10.83a38.3,38.3,0,0,0-22.5,16.46A39,39,0,0,0,43.11,87.5h0A38.2,38.2,0,0,0,64.78,81L41.24,49.37Z"/><path class="cls-1" d="M48.32,46.67,38.74,1.46,40.82,1a42.31,42.31,0,0,1,42.5,15l1.25,1.67ZM43.53,4.58,51,39.37,79,17.29A38.31,38.31,0,0,0,49.78,4.17,62.44,62.44,0,0,0,43.53,4.58Z"/><path class="cls-1" d="M78.74,85.62,51.86,49.37,87.07,21.25l1.25,1.67a43.14,43.14,0,0,1-7.91,61.66ZM57.49,50,79.57,80A39,39,0,0,0,92.91,41.67a40.22,40.22,0,0,0-6.46-14.59Z"/></g></g></svg>