<svg   fill="#2196f3" xmlns="http://www.w3.org/2000/svg" xmlns:xlink="http://www.w3.org/1999/xlink" version="1.1" x="0px" y="0px" viewBox="0 0 100 100" enable-background="new 0 0 100 100" xml:space="preserve"><path fill="#2196f3" d="M50,5L11.029,27.5v44.999L50,95l38.971-22.5v-45L50,5z M50,71.349L31.896,60.9l18.105-10.383l18.089,10.377  L50,71.349z M31.013,39.036l0.002,0.003h-0.004L31.013,39.036z M31.513,39.325l17.989-10.356v20.683L31.513,59.968L31.513,39.325z   M50.501,49.651v-20.72L68.49,39.326l-0.001,20.645L50.501,49.651z M68.929,38.424l-17.9-10.334l18.509-10.655L87.41,27.753  L68.929,38.424z M31.013,38.458L12.588,27.754l17.945-10.36l18.476,10.676L31.013,38.458z M30.513,39.323l0.001,20.779  L12.029,49.436V28.585L30.513,39.323z M49.5,72.214v21.343L31.514,83.172l0-21.342L49.5,72.214z M50.5,72.214l17.989-10.386  l-0.001,21.343L50.5,93.557V72.214z M69.49,39.326l18.48-10.741v20.822l-18.481,10.68L69.49,39.326z M68.483,16.826l-18.482,10.67  L31.518,16.825L50,6.155L68.483,16.826z M12.029,50.581l18.484,10.672l0,21.342L12.029,71.921V50.581z M69.488,82.594l0.001-21.343  l18.481-10.67v21.342L69.488,82.594z"></path></svg>