<svg  fill="#2196f3" xmlns="http://www.w3.org/2000/svg" version="1.1" viewBox="0 0 34 34" x="0px" y="0px"><path d="M25.792 1.83c0.625 0 1.247 0.237 1.725 0.715l3.941 3.941c0.953 0.953 0.953 2.493 0 3.447l-7.414 7.416 0.246 0.248c0.018 0.018 0.084 0.083 0.229 0.227s0.351 0.35 0.598 0.596c0.493 0.492 1.15 1.147 1.807 1.803 1.314 1.311 2.625 2.621 2.625 2.621 0.097 0.097 0.050 0.015 0.090 0.107s0.121 0.348 0.27 0.896c0.298 1.097 0.887 3.39 2.178 8.268 0.117 0.444-0.265 0.831-0.715 0.709-4.921-1.335-7.217-1.943-8.305-2.246-0.544-0.152-0.793-0.231-0.877-0.268s0.011 0.021-0.088-0.078v-0.002l-5.471-5.467-7.438 7.436c-0.953 0.953-2.495 0.953-3.447 0l-3.941-3.941c-0.957-0.957-0.957-2.491 0-3.447l0.102-0.104v-0.002l7.334-7.334-6.578-6.58c-2.046-2.046-2.046-5.346 0-7.393 2.038-2.038 5.346-2.041 7.387-0.006 0.343 0.343 6.082 6.064 6.35 6.33l0.246 0.246 7.426-7.424c0.478-0.478 1.098-0.715 1.723-0.715zM25.79 2.99c-0.326 0-0.655 0.126-0.902 0.373l-7.424 7.424 5.754 5.738 1.783-1.783-2.871-2.873c-0.23-0.23-0.23-0.59 0-0.82s0.59-0.23 0.82 0l2.873 2.871 3.074-3.074-1.559-1.561c-0.231-0.231-0.231-0.59 0-0.82s0.592-0.23 0.822 0l1.561 1.559 0.914-0.912c0.495-0.495 0.495-1.311 0-1.807l-3.941-3.941c-0.248-0.248-0.578-0.373-0.904-0.373zM6.354 3.031c-1.040 0.001-2.082 0.397-2.873 1.188-1.586 1.586-1.586 4.166 0 5.752l2.434 2.432 5.754-5.752-2.439-2.436c-0.792-0.79-1.835-1.184-2.875-1.184zM12.491 7.471l-5.752 5.754 15.801 15.803 5.775-5.773-15.578-15.537zM10.063 18.195l-7.439 7.436c-0.496 0.496-0.494 1.309 0 1.805v0.002l3.941 3.939c0.495 0.495 1.31 0.495 1.805 0l0.912-0.914-1.557-1.561c-0.231-0.231-0.231-0.59 0-0.82s0.59-0.231 0.82 0l1.561 1.559 3.074-3.074-2.871-2.873c-0.23-0.23-0.23-0.592 0-0.822s0.59-0.23 0.82 0l2.873 2.873 1.805-1.805-5.496-5.498zM28.835 24.379l-5.158 5.154 7.025 1.904-1.713-6.471z"></path></svg>