<?xml version="1.0" encoding="UTF-8"?><svg id="Calque_1" xmlns="http://www.w3.org/2000/svg" viewBox="0 0 100.09 100.52"><g id="AppServerVect"><g><path d="M53.55,25.45c.55-.03,.96-.07,1.36-.07,10.18,0,20.36,.01,30.54-.03,1.12,0,1.49,.27,1.47,1.44-.07,4.32-.02,8.64-.03,12.96,0,3.65-2.08,5.74-5.7,5.74-7.35,0-14.71,0-22.06,0-3.52,0-5.57-2.06-5.58-5.56,0-4.78,0-9.55,0-14.49Z"/><path d="M53.61,22.27c0-2.09-.18-4.05,.05-5.96,.29-2.41,2.42-4.12,4.88-4.13,7.76-.03,15.53-.04,23.29,0,2.91,.01,4.93,2.16,5.05,5.23,.05,1.2-.05,2.41,.03,3.61,.06,.97-.24,1.29-1.25,1.27-3.74-.06-7.47-.02-11.21-.02-6.48,0-12.95,0-19.43,0-.44,0-.89,0-1.41,0Zm9.83-4.9h-3.11v3.05h3.11v-3.05Zm3.62-.02v3.15c.86,0,1.64,.05,2.4-.03,.25-.03,.64-.38,.66-.62,.08-.8,.03-1.62,.03-2.5h-3.1Z"/></g><g><path d="M45.77,28.09v6.18H19.87v12.03h1.43c9.47,0,18.95,.01,28.42-.02,.87,0,1.4,.3,2,.91,1.79,1.83,3.71,3.54,5.55,5.27H19.89v12h48.39v-8.32h6.28v1.24c0,9.27,0,18.53,0,27.8,0,2.9-.99,3.92-3.86,3.93-17.74,0-35.49,0-53.23,.01-2.54,0-3.87-1.09-3.86-3.82,.07-17.87,.03-35.74,.03-53.6,0-2.63,.97-3.6,3.6-3.6,9.02,0,18.03,0,27.05,0h1.49Zm22.48,42.78H19.89v11.88h48.37v-11.88Z"/><path d="M33.44,61.67c-2.58,0-5.15,.03-7.73-.01-1.38-.02-2.4-.76-2.8-1.9-.45-1.29-.19-2.8,.81-3.52,.57-.4,1.35-.7,2.03-.71,5.11-.06,10.22-.04,15.33-.03,1.89,0,3.02,1.15,3.04,3.02,.02,1.86-1.1,3.1-2.96,3.13-2.57,.05-5.15,.01-7.73,.01Z"/><path d="M33.59,37.22c2.41,0,4.82-.02,7.23,0,2.06,.02,3.23,1.07,3.31,2.9,.08,1.95-.98,3.26-3.06,3.3-5.07,.09-10.13,.08-15.2,0-2.02-.03-3.26-1.44-3.17-3.25,.09-1.86,1.32-2.95,3.43-2.96,2.49-.02,4.98,0,7.48,0Z"/><path d="M59.27,58.55c0-1.79,1.26-3.04,3.05-3.05,1.74,0,3.1,1.3,3.12,3.01,.03,1.75-1.4,3.18-3.15,3.16-1.7-.02-3.03-1.39-3.02-3.12Z"/><path d="M33.46,73.72c2.49,0,4.99,0,7.48,0,1.99,0,3.15,1.12,3.19,3.03,.03,1.95-1.15,3.16-3.19,3.16-5.03,.02-10.06,.02-15.08,0-1.9,0-3.18-1.29-3.18-3.1,0-1.84,1.26-3.08,3.18-3.09,2.53-.02,5.07,0,7.6,0Z"/><path d="M59.27,76.81c0-1.75,1.3-3.08,3.03-3.09,1.78,0,3.17,1.39,3.14,3.15-.03,1.69-1.45,3.06-3.14,3.04-1.72-.02-3.03-1.36-3.03-3.11Z"/></g></g></svg>