<?xml version="1.0" encoding="UTF-8"?><svg id="Calque_1" xmlns="http://www.w3.org/2000/svg" viewBox="0 0 100.09 100.52"><g id="CloudServerVect"><path d="M57.2,24.46c.29-5.58,4.02-10.39,9.7-11.2,9.24-1.32,13.82,3.65,15.06,12.41q.74-.54,.28-4.04c.47,.09,.9,.13,1.31,.25,5.39,1.51,9.1,7.02,8.32,12.33-.87,5.94-5.57,10.13-11.39,10.14-7.93,0-15.86,0-23.8,0-4.83,0-9-3.77-9.36-8.42-.39-4.98,2.92-9.36,7.78-10.14,2.09-.34,4.13-.03,6.03,.99,.31,.16,.72,.12,1.08,.18-.23-.33-.39-.84-.7-.96-1.41-.56-2.86-1.02-4.32-1.53Z"/><g><path d="M41.13,26.01v6.34H14.89v12.23h1.51c9.56,0,19.12,.01,28.67-.02,.97,0,1.55,.35,2.21,1.03,1.79,1.82,3.72,3.5,5.62,5.27H14.89v12.16H63.96v-8.54h6.28v1.23c0,9.56,0,19.12,0,28.67,0,2.37-1.04,3.41-3.4,3.41-18.24,0-36.49,0-54.73,0-2.59,0-3.53-.94-3.53-3.52,0-18.04,.04-36.07-.04-54.11-.01-3.28,1.35-4.17,4.15-4.16,8.98,.02,17.95,0,26.93,0h1.51Zm22.83,43.39H14.91v12.09H63.96v-12.09Z"/><path d="M28.53,41.64c-2.49,0-4.99,.04-7.48-.01-2.26-.04-3.44-1.42-3.22-3.63,.15-1.53,1.13-2.6,2.66-2.61,5.4-.05,10.8-.05,16.2,0,1.67,.02,2.8,1.35,2.82,3.05,.02,1.81-1.2,3.13-3.12,3.18-2.62,.07-5.24,.02-7.85,.02h0Z"/><path d="M28.47,60.09c-2.45,0-4.9,0-7.36,0-2.1,0-3.27-1.09-3.32-3.04-.05-2.01,1.09-3.22,3.24-3.24,5.07-.04,10.14-.04,15.21,0,2.06,.02,3.27,1.27,3.25,3.15-.02,1.91-1.33,3.11-3.42,3.12-2.54,0-5.07,0-7.61,0Z"/><path d="M54.78,56.94c0-1.79,1.36-3.14,3.15-3.12,1.72,.02,3.06,1.36,3.08,3.08,.02,1.77-1.34,3.18-3.1,3.19-1.76,.02-3.13-1.36-3.12-3.15Z"/><path d="M28.67,72.33c2.53,0,5.07,0,7.6,0,1.93,0,3.18,1.19,3.22,3.03,.05,1.87-1.24,3.18-3.21,3.19-5.11,.02-10.22,.02-15.33,0-2.03,0-3.19-1.2-3.16-3.18,.03-1.94,1.15-3.04,3.14-3.04,2.58-.01,5.15,0,7.73,0Z"/><path d="M54.78,75.38c.02-1.8,1.36-3.08,3.2-3.04,1.74,.03,3.03,1.35,3.03,3.1,0,1.77-1.38,3.14-3.15,3.13-1.79-.01-3.09-1.37-3.07-3.19Z"/></g></g></svg>