<?xml version="1.0" encoding="UTF-8"?><svg id="Calque_1" xmlns="http://www.w3.org/2000/svg" viewBox="0 0 100.09 100.52"><g id="DatabaseVect"><path d="M22.01,63.03c7.22,3.27,14.8,3.62,22.36,4.03,7.19,.38,14.35,.09,21.48-.83,4.09-.53,8.2-1.15,12.09-3.35v2.25c0,3.28-.06,6.57,.03,9.85,.04,1.46-.55,2.51-1.79,2.97-2.31,.86-4.66,1.78-7.08,2.2-9.82,1.72-19.72,2.03-29.63,1.05-4.27-.42-8.5-1.3-12.74-2.01-.6-.1-1.18-.38-1.75-.62-2.57-1.08-2.96-1.68-2.96-4.48,0-3.65,0-7.31,0-11.06Z"/><path d="M77.94,28.87c0,1.32,0,2.76,0,4.2,0,2.54-.07,5.07,.03,7.61,.06,1.46-.56,2.49-1.79,2.98-2.03,.81-4.09,1.65-6.22,2.06-9.47,1.82-19.05,1.95-28.65,1.39-4.77-.28-9.51-.77-14.13-2.05-.36-.1-.72-.19-1.07-.31-3.61-1.22-4.1-1.9-4.1-5.71,0-3.41,0-6.81,0-10.17,2.01,.67,3.95,1.47,5.97,1.95,6.41,1.53,12.95,1.96,19.51,2.04,8.23,.11,16.44-.16,24.5-2.05,1.99-.47,3.91-1.27,5.95-1.94Z"/><path d="M77.94,45.91v3.3c0,2.83-.08,5.66,.03,8.48,.06,1.62-.62,2.75-2,3.23-2.57,.89-5.18,1.8-7.84,2.27-7.92,1.4-15.94,1.55-23.96,1.23-5.92-.24-11.84-.68-17.57-2.41-.51-.16-1.03-.33-1.52-.53-2.67-1.1-3.06-1.7-3.06-4.55,0-3.66,0-7.31,0-11.12,.82,.38,1.52,.84,2.28,1.02,3.66,.86,7.3,1.89,11.02,2.39,6.67,.9,13.41,1.04,20.14,.73,6.09-.28,12.18-.7,18.08-2.39,1.46-.42,2.85-1.05,4.41-1.64Z"/><path d="M53.47,19.1c4.18,.04,11.76,.36,19.17,2.26,1.27,.33,2.54,.79,3.69,1.41,.64,.35,1.47,1.19,1.43,1.76-.04,.67-.8,1.61-1.47,1.86-2.31,.86-4.68,1.71-7.1,2.14-9.98,1.78-20.04,1.9-30.13,1.08-4.51-.36-8.99-.88-13.31-2.3-.93-.31-1.87-.72-2.69-1.25-1.46-.96-1.5-2.23,.05-2.97,1.96-.93,4.04-1.73,6.16-2.19,6.84-1.49,13.8-1.83,24.19-1.79Z"/></g></svg>