<?xml version="1.0" encoding="UTF-8"?><svg id="Calque_1" xmlns="http://www.w3.org/2000/svg" viewBox="0 0 100.09 100.52"><g id="LaptopVect"><path d="M50.02,79.92c-13.88,0-27.77,0-41.65,0-2.94,0-4.16-1.47-3.55-4.35,.06-.28,.31-.56,.54-.77,3.32-3.08,6.6-6.21,10-9.19,.74-.65,1.93-1.12,2.92-1.12,21.16-.06,42.32-.06,63.48,0,1.01,0,2.22,.53,3,1.21,3.32,2.89,6.48,5.97,9.76,8.9,1.27,1.14,.88,2.41,.53,3.65-.35,1.23-1.35,1.68-2.61,1.68-4.41-.02-8.81,0-13.22,0-9.73,0-19.46,0-29.18,0Zm13.53-5.84c-.28-.48-.49-.78-.63-1.11-.55-1.38-1.53-1.73-3.01-1.7-6.6,.09-13.21,.04-19.81,.04-2.12,0-2.83,.58-3.42,2.78h26.87Zm-7.43,1.42h-12.35c-.18,1.11,.19,1.63,1.3,1.62,3.28-.02,6.55-.03,9.83,0,1.14,.01,1.51-.44,1.22-1.63Z"/><path d="M49.92,20.22c10.39,0,20.78,0,31.17,0,2.44,0,3.33,.88,3.33,3.42,.02,7.86,0,15.71,0,23.57,0,4.28-.04,8.56,.02,12.84,.03,2.43-1.01,3.62-3.56,3.61-20.65-.06-41.31-.04-61.96-.04-2.36,0-3.34-.95-3.34-3.29,0-12.26,0-24.53,0-36.79,0-2.37,.96-3.33,3.31-3.33,10.35,0,20.7,0,31.04,0Zm30.69,3.8H19.41V59.8h61.21V24.01Z"/></g></svg>