<?xml version="1.0" encoding="UTF-8"?><svg id="Calque_1" xmlns="http://www.w3.org/2000/svg" viewBox="0 0 100.09 100.52"><g id="FirewallVect"><path d="M21.29,31.18c-3.24,0-6.48,0-9.72,0-1.83,0-2.58-.7-2.61-2.54-.04-2.7-.04-5.4,0-8.1,.03-1.71,.86-2.51,2.56-2.51,6.52-.02,13.04-.01,19.57,0,1.78,0,2.59,.84,2.6,2.59,0,2.7,.01,5.4,0,8.1,0,1.66-.79,2.45-2.43,2.46-3.32,.01-6.65,0-9.97,0Z"/><path d="M35.6,48.37c-3.2,0-6.4,0-9.59,0-1.81,0-2.58-.75-2.59-2.55-.02-2.66-.02-5.32,0-7.97,.01-1.85,.8-2.64,2.67-2.65,6.44-.01,12.88-.01,19.31,0,1.94,0,2.75,.82,2.75,2.71,0,2.62,.01,5.23,0,7.85,0,1.76-.84,2.61-2.58,2.61-3.32,.01-6.65,0-9.97,0Z"/><path d="M50.17,31.18c-3.28,0-6.57,0-9.85,0-1.75,0-2.47-.79-2.46-2.51,.03-2.7,0-5.4,.02-8.1,.01-1.72,.79-2.52,2.51-2.53,6.52-.02,13.05-.02,19.57,0,1.81,0,2.64,.86,2.65,2.7,.02,2.62,.02,5.24,0,7.85-.02,1.8-.83,2.58-2.59,2.59-3.28,0-6.57,0-9.85,0Z"/><path d="M21.38,65.58c-3.2,0-6.4,0-9.59,0-2.03,0-2.81-.73-2.83-2.74-.03-2.57-.03-5.15,0-7.73,.02-1.96,.8-2.71,2.73-2.71,6.44,0,12.88,0,19.31,0,1.93,0,2.69,.78,2.69,2.73,0,2.62,0,5.23,0,7.85,0,1.76-.82,2.59-2.58,2.6-3.24,.02-6.48,0-9.72,0Z"/><path d="M50.17,52.4c3.2,0,6.4,0,9.6,0,2.02,0,2.83,.77,2.85,2.75,.02,2.58,.02,5.15,0,7.73-.01,1.84-.85,2.69-2.66,2.69-6.53,.01-13.05,.01-19.58,0-1.79,0-2.53-.84-2.52-2.61,.02-2.66,0-5.32,.01-7.98,0-1.83,.74-2.57,2.57-2.58,3.24-.01,6.48,0,9.73,0Z"/><path d="M35.83,69.59c3.24,0,6.48,0,9.72,0,1.77,0,2.59,.81,2.6,2.58,.01,2.66,.01,5.32,0,7.97,0,1.76-.82,2.59-2.6,2.59-6.52,.01-13.04,.01-19.56,0-1.75,0-2.55-.78-2.57-2.47-.03-2.74-.03-5.48,0-8.22,.02-1.71,.8-2.44,2.57-2.45,3.28,0,6.56,0,9.84,0Z"/><path d="M79.1,31.18c-3.32,0-6.64,0-9.96,0-1.7,0-2.5-.81-2.5-2.51,0-2.7-.01-5.4,0-8.1,0-1.69,.81-2.53,2.52-2.53,6.56-.02,13.12-.02,19.68,0,1.7,0,2.48,.84,2.48,2.55,0,2.74,.01,5.48,0,8.22,0,1.58-.78,2.36-2.37,2.37-3.28,.01-6.56,0-9.84,0Z"/><path d="M64.57,48.37c-3.24,0-6.48,0-9.72,0-1.91,0-2.67-.74-2.67-2.61,0-2.66,0-5.32,0-7.97,0-1.7,.8-2.58,2.48-2.58,6.56-.03,13.12-.02,19.68,0,1.7,0,2.53,.82,2.56,2.53,.04,2.7,.04,5.4,0,8.1-.03,1.81-.81,2.54-2.63,2.54-3.24,0-6.48,0-9.72,0Z"/><path d="M78.92,65.58c-3.2,0-6.4,0-9.59,0-1.93,0-2.7-.79-2.7-2.73,0-2.66,0-5.32,0-7.97,0-1.64,.81-2.47,2.43-2.47,6.6-.01,13.21-.01,19.81,0,1.63,0,2.43,.82,2.43,2.46,0,2.74,0,5.48,0,8.22,0,1.67-.82,2.48-2.54,2.49-3.28,.02-6.56,0-9.84,0Z"/><path d="M64.49,82.74c-3.2,0-6.4,0-9.59,0-1.94,0-2.71-.78-2.71-2.71,0-2.66-.01-5.32,0-7.97,0-1.62,.83-2.46,2.46-2.46,6.6-.01,13.21-.01,19.81,0,1.61,0,2.42,.72,2.45,2.31,.06,2.82,.06,5.65,0,8.47-.03,1.61-.89,2.35-2.57,2.36-3.28,.02-6.56,0-9.84,0Z"/><path d="M91.28,35.21v13.12c-2.88,0-5.73,.08-8.57-.05-.94-.04-1.6-.86-1.61-1.93-.01-3.03-.02-6.07,0-9.1,.01-1.14,.86-1.99,2.11-2.02,2.65-.06,5.3-.02,8.07-.02Z"/><path d="M9.03,48.37v-13.14c2.81,0,5.54-.06,8.26,.03,1.25,.04,1.94,.98,1.95,2.29,.02,2.86,.02,5.73,0,8.59,0,1.28-.8,2.19-2.02,2.22-2.69,.05-5.38,.02-8.19,.02Z"/><path d="M9.01,82.74v-13.15c.48,0,.95,0,1.43,0,2.11,0,4.23-.01,6.34,0,1.66,.01,2.45,.79,2.46,2.41,.01,2.78,.01,5.55,0,8.33,0,1.44-.76,2.35-2.13,2.38-2.64,.06-5.29,.02-8.1,.02Z"/><path d="M91.25,82.74c-2.79,0-5.44,.04-8.09-.02-1.26-.03-2.05-.93-2.06-2.19-.02-2.95-.02-5.89,0-8.84,0-1.14,.79-2.05,1.89-2.07,2.73-.06,5.46-.02,8.25-.02v13.14Z"/></g></svg>