<?xml version="1.0" encoding="UTF-8"?><svg id="Calque_1" xmlns="http://www.w3.org/2000/svg" viewBox="0 0 100.09 100.52"><g id="GatewayVect"><path d="M50.34,18.2c5.82,0,11.64-.21,17.45,.05,7.32,.33,13.64,6.32,14.79,13.58,.16,.98,.24,1.98,.24,2.97,.02,10.56,.01,21.11,.01,31.67,0,9.56-7.3,16.83-16.89,16.83-10.51,0-21.03,0-31.54,0-9.43,0-16.73-7.3-16.73-16.71,0-10.6,0-21.19,0-31.79,0-9.24,7.44-16.65,16.71-16.65,5.32,0,10.64,0,15.96,0v.06Zm-9.62,38.5l-.13-.36c.87-.83,1.76-1.64,2.61-2.49,1.29-1.31,1.34-2.8,.17-3.93-1.15-1.11-2.56-1.04-3.84,.23-2.42,2.39-4.83,4.8-7.22,7.22-1.33,1.34-1.36,2.68-.04,4.03,2.41,2.46,4.85,4.89,7.31,7.31,1.26,1.23,2.73,1.24,3.84,.1,1.13-1.15,1.06-2.55-.2-3.83-.89-.9-1.82-1.76-2.73-2.64l.16-.3c.44,0,.88,0,1.32,0,3.03,0,6.06,.02,9.09-.01,1.57-.02,2.55-.97,2.62-2.41,.08-1.61-.69-2.63-2.31-2.8-1.23-.13-2.48-.1-3.72-.11-2.31-.01-4.61,0-6.92,0Zm19.06-12.03l.25,.4c-.94,.87-1.91,1.7-2.82,2.61-1.16,1.16-1.2,2.69-.16,3.76,1.06,1.09,2.58,1.14,3.77-.01,2.53-2.46,5.03-4.96,7.49-7.49,1.22-1.26,1.19-2.57-.03-3.85-1.26-1.32-2.57-2.59-3.87-3.89-1.23-1.23-2.44-2.5-3.72-3.68-.97-.9-2.19-.95-3.2-.27-.96,.65-1.46,1.89-1.05,2.94,.22,.55,.65,1.04,1.07,1.49,.79,.85,1.63,1.65,2.69,2.72-.84,0-1.25,0-1.66,0-3.03,0-6.06-.01-9.1,0-1.32,0-2.21,.67-2.53,1.79-.53,1.88,.61,3.45,2.57,3.47,3.43,.03,6.87,0,10.3,0Z"/></g></svg>