<?xml version="1.0" encoding="UTF-8"?><svg id="Calque_1" xmlns="http://www.w3.org/2000/svg" viewBox="0 0 100.09 100.52"><g id="HubVect"><path d="M18.07,70.55c-.13,1.65-.23,2.94,1.08,4.12,1.47,1.34,1.15,3.9-.33,5.25-1.57,1.44-3.9,1.4-5.4-.07-1.5-1.48-1.66-3.96-.12-5.35,.87-.79,1.02-1.58,.99-2.6-.04-1.54,0-3.07,0-4.61,0-.08,.05-.15,.11-.37h15.37c0-1.41,0-2.68,0-3.95,0-2.62,.04-5.24-.03-7.85-.01-.52-.31-1.17-.69-1.53-1.89-1.72-1.9-4.53,.03-6.25,.29-.25,.66-.62,.66-.94,.04-4.1,.03-8.21,.03-12.44H14.27c0-1.94-.03-3.76,.01-5.57,.02-.72-.17-1.2-.74-1.69-1.67-1.42-1.77-3.97-.31-5.57,1.41-1.53,3.95-1.65,5.51-.24,1.58,1.43,1.84,4.01,.24,5.44-1.33,1.18-.94,2.46-.96,3.91h15.43c0,.54,0,.98,0,1.41,0,4.74-.02,9.47,.03,14.21,0,.48,.3,1.1,.66,1.41,2,1.74,2.01,4.55,.03,6.33-.38,.34-.68,1-.68,1.52-.05,5.1-.03,10.21-.03,15.45h-15.39Z"/><path d="M70.62,66.85h15.54c0,1.84,.02,3.61-.01,5.37-.02,.82,.13,1.42,.85,2.02,1.61,1.34,1.64,3.91,.22,5.47-1.4,1.55-3.89,1.67-5.5,.26-1.56-1.37-1.87-4.08-.29-5.45,1.35-1.17,1.05-2.42,1.05-3.9h-15.54v-1.43c0-4.65,0-9.31,0-13.96,0-.73-.12-1.26-.77-1.8-1.83-1.5-1.87-4.32-.08-5.92,.67-.6,.86-1.19,.85-2.03-.03-4.7,0-9.39-.04-14.09,0-.94,.28-1.2,1.21-1.19,4.69,.04,9.38,.02,14.25,.02-.09-1.41,.45-2.71-.92-3.89-1.58-1.37-1.42-3.86,.08-5.35,1.49-1.48,4.03-1.49,5.51-.01,1.48,1.48,1.59,4.11,.01,5.47-.83,.72-.92,1.45-.91,2.38,.02,1.65,0,3.3,0,5.07h-15.54v8.05c0,.96,.05,1.91-.01,2.87-.07,1.15,.12,2.02,1.11,2.89,1.74,1.54,1.45,4.24-.35,5.84-.33,.29-.71,.76-.71,1.15-.05,3.98-.03,7.97-.03,12.13Z"/><path d="M50.2,20.46c1.73,0,3.08,.89,3.68,2.44,.59,1.52,.23,3.25-1.05,4.3-.59,.49-.75,.98-.75,1.69,.02,5.61,0,11.21,.04,16.82,0,.56,.31,1.27,.72,1.66,1.87,1.82,1.83,4.5-.13,6.25-.32,.28-.59,.8-.59,1.22-.04,5.81-.04,11.63,0,17.44,0,.44,.31,.99,.65,1.31,1.69,1.61,1.85,4.04,.31,5.67-1.56,1.65-4.09,1.67-5.66,.05-1.56-1.61-1.37-4.15,.35-5.77,.34-.32,.62-.88,.62-1.33,.04-5.73,.04-11.46,0-17.2,0-.48-.32-1.08-.69-1.41-2.04-1.86-2-4.62,.1-6.39,.32-.27,.59-.79,.59-1.2,.04-5.77,.04-11.55,0-17.32,0-.47-.36-1.04-.72-1.39-1.21-1.17-1.66-2.91-1.05-4.44,.61-1.53,1.9-2.39,3.57-2.4Z"/><path d="M76.47,58.29h-3.83c.11-1.64-.47-3.16,.95-4.63,1.65-1.71,1.72-4.51,.12-6.28-1.32-1.46-1.09-2.96-1.07-4.65,.37-.03,.69-.06,1.01-.07,4.61,0,9.22,0,13.83,0,1.93,0,3.28,.99,3.38,2.89,.16,3.22,.17,6.47,0,9.69-.1,1.97-1.44,2.98-3.42,3.05-.79,.03-1.58,0-2.37,0-.78,0-1.57,0-2.4,0-.4,1.7-1.27,2.85-3.12,2.86-1.52,.01-2.38-.79-3.09-2.88Z"/><path d="M27.91,42.76c0,.94,.06,1.78-.02,2.6-.04,.4-.25,.86-.53,1.16-2.21,2.34-2.13,5.21-.19,7.77,.71,.94,.6,2.51,.91,4.03-1.37,0-2.36-.07-3.33,.04-.36,.04-.85,.4-1,.74-.59,1.35-1.56,2.09-2.94,2.07-1.32-.02-2.27-.78-2.82-2.07-.14-.34-.62-.72-.97-.74-1.24-.09-2.49-.02-3.74-.04-2.48-.04-3.76-1.33-3.76-3.77,0-2.87-.02-5.74,0-8.6,.01-1.85,1.29-3.24,3.06-3.26,4.9-.03,9.81-.01,14.71,0,.16,0,.32,.05,.62,.09Z"/><path d="M53.78,42.72h11.14c-.1,1.56,.42,3.04-.91,4.5-1.81,1.98-1.49,4.97,.41,7.01,.52,.56,.95,3.1,.58,3.73-.1,.17-.39,.32-.59,.32-3.24,.02-6.48,.02-9.72,0-.22,0-.51-.11-.63-.27-.34-.44,0-3.24,.39-3.69,2.32-2.65,2.19-5.12,.02-7.92-.66-.86-.47-2.37-.69-3.69Z"/><path d="M35.46,58.21c0-.9-.08-1.69,.03-2.47,.08-.56,.29-1.19,.65-1.6,1.69-1.94,1.92-4.67,.48-6.78-1.31-1.92-1.32-1.95-1.06-4.63h10.86c-.06,1.62,.33,3.14-1.06,4.6-1.56,1.64-1.6,4.43-.08,6.08,1.38,1.49,1.15,3.04,1.12,4.79h-10.93Z"/></g></svg>