<?xml version="1.0" encoding="UTF-8"?><svg id="Calque_1" xmlns="http://www.w3.org/2000/svg" viewBox="0 0 100.09 100.52"><g id="_0_-_Prestataire"><path d="M51.73,88.1c-10.69-.08-19.53-.87-28.03-3.66-1.95-.64-3.83-1.51-5.67-2.4-4.15-2-5.63-5.14-4.93-9.44,1.62-10.02,9.48-18.15,20.21-20.51,.98-.21,2.3,.02,3.19,.49,9.02,4.74,17.98,4.78,27.02,.04,.91-.47,2.2-.76,3.2-.57,11.07,2.04,20.01,12.04,20.42,22.47,.11,2.84-1.01,4.86-3.38,6.47-4.52,3.07-9.78,4.4-15.14,5.43-2.6,.5-5.23,.9-7.87,1.13-3.57,.32-7.17,.43-9.02,.54Z"/><path d="M69.93,32.58c-.6,6.67-4.24,13.13-11.99,17.24-5.13,2.72-10.42,2.63-15.64,.11-11.42-5.51-15.68-19.99-8.7-29.48,4.95-6.73,14.12-9.63,22.62-7.15,8.26,2.41,13.93,9.79,13.71,19.27Z"/></g></svg>