<?xml version="1.0" encoding="UTF-8"?><svg id="Calque_1" xmlns="http://www.w3.org/2000/svg" viewBox="0 0 100.09 100.52"><g id="LinuxVect"><g><path d="M77.1,39.39c-1.12,.78-2.21,1.6-3.36,2.32-.77,.48-1.24,1.02-1.17,1.99,.03,.44-.1,.91-.19,1.35-.58,2.97,.45,5.4,2.54,7.42,1.73,1.67,3.57,3.24,5.32,4.88,1.73,1.62,3.54,3.24,3.87,5.77,.13,1-.13,2.06-.22,3.2-1.57-1.18-2.92-2.12-4.19-3.15-1.27-1.03-2.47-2.15-3.77-3.29,.05,4.71-1.69,8.97-4.6,13.07,.89,.2,1.58,.37,2.27,.51,.66,.13,1.32,.22,2.29,.37-1.36,1.42-2.86,1.52-4.23,1.79-1.21,.24-2.47,.23-3.71,.32-1.26,.09-2.39-.23-3.33-1.1-.62-.58-1.31-.62-2.16-.57-1.96,.13-3.94,.04-6.15,.04l4.47-2.56c-2.57-4.55-1.98-9.43-2.18-14.45-.73,.8-1.47,1.58-2.17,2.41-.91,1.08-1.67,2.31-2.69,3.25-.83,.76-1.97,1.19-3.26,1.93,.19-3.9,1.64-6.7,4.11-8.97,1.41-1.29,2.9-2.49,4.46-3.59,2.58-1.83,4.05-4.2,4.12-7.4,.02-.87,.17-1.73,.3-2.59,.49-3.28,3.11-5.14,6.39-4.43,1.2,.26,2.31,.94,3.52,1.14,1.2,.2,2.46,.04,3.69,.04l.07,.3Zm-2.93,21.67c-.25-4.36-.7-7.56-2.77-10.34-.56-.74-.89-1.75-1.04-2.68-.3-1.82-1.07-2.86-2.83-3.35-1.8-.5-2.79,.2-2.93,2.06-.02,.33-.08,.66-.14,.98-.39,2.03-1.03,4.05-1.11,6.09-.14,3.42-.67,6.64-2.54,9.59-.38,.6-.45,1.53-.37,2.28,.3,2.77,2.99,5.32,5.94,5.75,2.61,.39,5.17-1.07,6.19-3.95,.84-2.39,1.25-4.94,1.61-6.43Zm-2.59-16.85c-.09-.9-.09-1.56-.22-2.18-.45-2.2-2.74-3.24-4.73-2.18-1.2,.64-1.34,2.21-.22,2.96,.32,.22,.77,.22,1.17,.33,1.25,.33,2.51,.67,4,1.07Z"/><path d="M60.96,81.66l1.75,.99c.07-.05,.37-.33,.72-.53,2-1.18,4.44,0,4.63,2.33,.15,1.93,.03,3.89,.03,5.9h-1.55c0-.95,0-1.89,0-2.83,0-.79,.04-1.58-.03-2.37-.11-1.4-.86-2.23-1.9-2.2-1.15,.02-2.08,1-2.13,2.34-.05,1.65-.01,3.31-.01,5.07l-1.51,.07v-8.76Z"/><path d="M76.15,81.99h1.49v8.31c-.67,.22-1.36,.39-1.41-.87-.41,.3-.72,.56-1.07,.77-1.86,1.12-4.04,.23-4.48-1.85-.11-.52-.13-1.07-.13-1.61-.02-1.57,0-3.13,0-4.75h1.58c0,1.32,0,2.59,0,3.87,0,.46-.03,.92,.02,1.37,.17,1.47,.86,2.23,1.92,2.16,1.18-.08,2.02-1.03,2.05-2.4,.03-1.37,0-2.74,0-4.11,0-.28,.02-.56,.04-.89Z"/><path d="M79.39,90.32l2.91-4.24-2.72-3.98c1.01-.34,1.76-.28,2.28,.74,.37,.73,.88,1.39,1.32,2.07,1.36-.82,1.16-3.5,3.75-2.89-.67,.96-1.22,1.94-1.95,2.76-.83,.93-.7,1.67,.02,2.57,.72,.9,1.31,1.9,2.01,2.94-2.72,.63-2.48-2.13-3.9-2.95-1.27,.76-1.01,3.55-3.73,2.98Z"/><path d="M48.73,90.32v-11.56h1.51v10.41h5.02v1.15h-6.53Z"/><path d="M58.37,90.37h-1.38v-8.37l1.38-.07v8.44Z"/><path d="M57.63,81.07c-.44-.7-.9-1.11-.88-1.49,.02-.31,.66-.87,.93-.82,.37,.07,.83,.59,.89,.98,.05,.3-.46,.69-.94,1.33Z"/><path d="M67.89,42.73l-1.16-1.72c.5-.32,.99-.85,1.52-.89,.34-.03,1.1,.77,1.02,1.01-.15,.51-.72,.89-1.38,1.61Z"/></g><g><path d="M70.38,31.89c-.37-.21-.73-.62-1.1-.62-16.46-.03-32.92-.02-49.37,0-.08,0-.16,.04-.32,.08v12.37h29.65c-.58,.75-1.02,1.27-1.4,1.83-.81,1.2-1.66,2.39-2.36,3.66-.42,.77-.91,1.01-1.76,1.01-7.52-.03-15.04-.02-22.57-.02-.49,0-.99,0-1.57,0v12.5h21.53v6.49h-1.17c-7.73,0-15.46,0-23.19,0-2.52,0-3.67-1.13-3.67-3.64,0-18.74,0-37.49,0-56.23,0-2.4,1.12-3.53,3.49-3.53,18.83,0,37.65,0,56.48,0,2.38,0,3.49,1.12,3.49,3.52,0,7.15-.01,14.3,.02,21.45,0,.97-.19,1.24-1.26,1.18-1.64-.09-3.31,.13-4.96,.22l.03-.28Zm-50.85-7.24h50.5V12.28H19.53v12.37Z"/><path d="M33.78,34.3c2.65,0,5.31,0,7.96,0,1.81,0,2.95,1.05,3.14,2.84,.18,1.73-.79,3.07-2.5,3.45-.24,.05-.49,.11-.73,.11-5.27,0-10.53,.04-15.8,0-2.41-.02-3.75-1.95-3.11-4.26,.37-1.34,1.38-2.13,2.83-2.14,2.74-.02,5.47,0,8.21,0Z"/><path d="M43.28,53.51l-1.74,6.21c-1.94,0-3.88,0-5.83,0-3.23,0-6.47,.02-9.7,0-2.13-.01-3.46-1.29-3.45-3.25,0-1.96,1.33-3.2,3.46-3.2,5.14,0,10.28-.01,15.42,0,.59,0,1.18,.15,1.84,.24Z"/><path d="M33.68,21.66c-2.58,0-5.15,.01-7.73,0-2.13-.01-3.36-1.16-3.4-3.13-.04-1.92,1.24-3.23,3.3-3.24,5.28-.03,10.55-.04,15.83,0,2.44,.02,3.88,2.27,2.94,4.53-.54,1.3-1.58,1.85-2.97,1.84-2.66-.02-5.32,0-7.98,0Z"/><path d="M63.75,21.65c-1.87-.03-3.18-1.4-3.14-3.27,.04-1.77,1.42-3.11,3.2-3.11,1.83,0,3.28,1.45,3.26,3.23-.03,1.79-1.49,3.18-3.31,3.15Z"/></g></g></svg>