<?xml version="1.0" encoding="UTF-8"?><svg id="Calque_1" xmlns="http://www.w3.org/2000/svg" viewBox="0 0 100.09 100.52"><g id="NetworkDevVect"><path d="M16.36,59.91h7.05v-4.66h-7.06v-19.31H83.58v19.28h-7.14c0,1.44-.05,2.76,.04,4.07,.02,.23,.61,.57,.94,.59,1.62,.06,3.24,.02,4.86,.03,.41,0,.81,.03,1.29,.06v19.18h-4.7v4.75h-4.96v-4.62H26.01v4.63h-4.92v-4.66h-4.73v-19.35Zm12.11,0h1.4c13.41,0,26.82,0,40.22,0,.29,0,.6,.06,.86-.03,.22-.08,.53-.33,.53-.51,.05-1.35,.02-2.71,.02-4.03H28.48v4.58Zm-2.4,7.33v4.63h4.54v-4.63h-4.54Zm4.58-23.93h-4.62v4.44h4.62v-4.44Zm9.53,23.98h-4.46v4.57h4.46v-4.57Zm-.02-19.52v-4.45h-4.45v4.45h4.45Z"/><path d="M35.7,27.65l-3.27-3.5c7.7-9.11,24.88-10.92,35.25,.06l-3.52,3.41c-3.87-3.86-8.6-6.04-14.22-6.03-5.59,0-10.28,2.19-14.24,6.06Z"/><path d="M61.66,30.54l-3.4,3.38c-2.29-2.18-5-3.42-8.23-3.43-3.23-.01-5.97,1.15-8.37,3.46l-3.43-3.27c5.01-6.46,17.08-7.46,23.43-.14Z"/></g></svg>