<svg fill="#1A1A1A" xmlns="http://www.w3.org/2000/svg" xmlns:xlink="http://www.w3.org/1999/xlink" viewBox="0 0 100 100" version="1.1" x="0px" y="0px"><title>8.2</title><desc>Created with Sketch.</desc><g stroke="none" stroke-width="1" fill="none" fill-rule="evenodd"><g fill-rule="nonzero" fill="#1A1A1A"><path d="M88.2549323,38.2124296 L79.5592801,78.2124296 L79.5592801,78.2124296 C79.4593478,78.6721181 79.052529,79 78.5821037,79 L12,79 L12,79 C11.4477153,79 11,78.5522847 11,78 L11,22 L11,22 C11,21.4477153 11.4477153,21 12,21 L27.9138502,21 L27.9138502,21 C28.1477867,21 28.3743196,21.0820162 28.5540346,21.2317787 L33.9977657,25.7682213 L33.9977657,25.7682213 C34.1774807,25.9179838 34.4040136,26 34.6379501,26 L78,26 L78,26 C78.5522847,26 79,26.4477153 79,27 L79,34 L79,34 C79,34.5522847 78.5522847,35 78,35 L20,35 L20,35 C19.4477153,35 19,35.4477153 19,36 L19,36 L19,36 C19,36.5522847 19.4477153,37 20,37 L87.2777559,37 L87.2777559,37 C87.8300407,37 88.2777559,37.4477153 88.2777559,38 C88.2777559,38.0714218 88.2701044,38.142638 88.2549323,38.2124296 Z"></path></g></g></svg>