<svg fill="#1A1A1A" xmlns="http://www.w3.org/2000/svg" xmlns:xlink="http://www.w3.org/1999/xlink" version="1.1" x="0px" y="0px" viewBox="0 0 100 100" enable-background="new 0 0 100 100" xml:space="preserve"><g><path d="M50.4,44.2c-2.4-5.8,0.4-12.4,6.1-14.8c5.8-2.4,12.4,0.4,14.8,6.1c2.4,5.8-0.4,12.4-6.1,14.8   C59.5,52.7,52.8,49.9,50.4,44.2z M51.4,62.3c3.9,0.6,6.9,4,6.9,8.1c2.8,0.2,5.7,0.1,8.5-0.5l2.2,5.3c0.5,1.3,2,1.9,3.3,1.4l6.4-2.6   c1.3-0.5,1.9-2,1.4-3.3l-2.2-5.3c3.4-2.3,6.3-5.2,8.5-8.5l5.3,2.2c1.3,0.5,2.8-0.1,3.3-1.4l2.6-6.4c0.5-1.3-0.1-2.8-1.4-3.3   L91,45.8c0.8-3.9,0.8-8,0-12l5.3-2.2c1.3-0.5,1.9-2,1.4-3.3L95,21.9c-0.5-1.3-2-1.9-3.3-1.4l-5.3,2.2c-2.3-3.4-5.2-6.3-8.5-8.5   L80.1,9c0.5-1.3-0.1-2.8-1.4-3.3l-6.4-2.6c-1.3-0.5-2.8,0.1-3.3,1.4l-2.2,5.3c-3.9-0.8-8-0.8-12,0l-2.2-5.3c-0.5-1.3-2-1.9-3.3-1.4   L43,5.7c-1.3,0.5-1.9,2-1.4,3.3l2.2,5.3c-3.4,2.3-6.3,5.2-8.5,8.5l-5.3-2.2c-1.3-0.5-2.8,0.1-3.3,1.4l-2.6,6.4   c-0.5,1.3,0.1,2.8,1.4,3.3l5.3,2.2c-0.5,2.3-0.7,4.8-0.6,7.2c3.6,0.5,6.5,3.3,7,6.9c0.1,0,0.1,0.1,0.2,0.1c1.4-1,3.1-1.6,4.8-1.6   c0.7,0,1.5,0.1,2.1,0.3c0,0,0-0.1,0-0.1c-3.8-9.1,0.6-19.6,9.6-23.3c9.1-3.8,19.6,0.6,23.3,9.7c3.8,9.1-0.6,19.6-9.7,23.3   c-5,2.1-10.4,1.7-14.9-0.6c0.4,2.2-0.1,4.5-1.5,6.4C51.4,62.2,51.4,62.2,51.4,62.3z M38.3,88.8c-2.2,1.5-4.7,2.5-7.2,2.9l0,3.3   c0,1.2-1,2.1-2.1,2.1l-3.6,0c-1.2,0-2.1-1-2.1-2.1l0-3.3c-2.5-0.5-5-1.5-7.2-3L13.7,91c-0.8,0.8-2.2,0.8-3,0l-2.5-2.5   c-0.8-0.8-0.8-2.2,0-3l2.3-2.3c-1.5-2.2-2.5-4.7-2.9-7.2l-3.3,0c-1.2,0-2.1-1-2.1-2.1l0-3.6c0-1.2,1-2.1,2.1-2.1l3.3,0   c0.5-2.5,1.5-5,3-7.2l-2.3-2.3c-0.8-0.8-0.8-2.2,0-3l2.5-2.5c0.8-0.8,2.2-0.8,3,0l2.3,2.3c2.2-1.5,4.7-2.5,7.2-2.9l0-3.3   c0-1.2,1-2.1,2.1-2.1l3.6,0c1.2,0,2.1,1,2.1,2.1l0,3.3c2.5,0.5,5,1.5,7.2,3l2.3-2.3c0.8-0.8,2.2-0.8,3,0l2.5,2.5   c0.8,0.8,0.8,2.2,0,3L44,61c1.5,2.2,2.5,4.7,2.9,7.2l3.3,0c1.2,0,2.1,1,2.1,2.1l0,3.6c0,1.2-1,2.1-2.1,2.1l-3.3,0   c-0.5,2.5-1.5,5-3,7.2l2.3,2.3c0.8,0.8,0.8,2.2,0,3l-2.5,2.5c-0.8,0.8-2.2,0.8-3,0L38.3,88.8z M34,65.3c-3.7-3.7-9.7-3.8-13.5-0.1   c-3.7,3.7-3.8,9.7-0.1,13.5s9.7,3.8,13.5,0.1S37.7,69.1,34,65.3z"></path></g></svg>