<svg fill="#1A1A1A" xmlns="http://www.w3.org/2000/svg" xmlns:xlink="http://www.w3.org/1999/xlink" version="1.1" x="0px" y="0px" viewBox="0 0 89.984 89.984" enable-background="new 0 0 89.984 89.984" xml:space="preserve"><path d="M89.984,44.992l-0.041-0.042C89.943,20.103,69.842,0,44.992,0C20.145,0,0,20.144,0,44.991  c0,24.85,20.145,44.993,44.992,44.993c24.84,0,44.978-20.128,44.992-44.967C89.984,45.147,89.984,44.992,89.984,44.992z   M56.294,16.45h-3.159l-4.082,4.108h-2.685v-3.605l1.582-1.576v-2.977h-2.185v-1.58h1.708l1.737-1.867h9.9l2.336,2.343L56.294,16.45  z M59.427,17.111v1.741h-3.763v-1.741H59.427z M28.854,72.909v-7.056l-3.339-3.338v-1.123l-2.703-2.703v-4.313h1.014v-3.265  l-9.83-9.829V34.9h-0.901v3.267h-1.124v-7.054l2.362-2.364v-1.762l2.138-2.141v-6.562h-3.827v-0.898l3.342-3.342h17.217l2.14-2.139  l1.6,0.067l-1.896,2.01l1.108,1.103l0.946-0.948l0.949,0.948l-2.499,2.5h-3.003l-3.133,3.126l2.657,2.66l5.028-4.68l4.711,4.551  l-5.975,5.977l-3.448,0.63l-6.419,6.421V38.8h-1.583v-2.369h-4.707l-3.923,3.921l2.527,2.531l1.081-1.079l-0.823-0.821h2.399v2.054  l-1.261,1.265h2.022v3.288h0.998l1.528,1.533l1.922-1.92h3.94l3.796,3.794h0.896l7.576,7.58h1.352v1.911l-2.363,2.365v4.128  l-2.665,2.664v2.362l-3.562,3.563v8.295h-0.901l-4.017-4.017v-5.588L28.854,72.909z M38.366,13.663v-0.316h4.238v3.289l-2.496,2.501  l-2.028-2.026l1.867-1.868L38.366,13.663z M43.235,11.769h-2.972l1.55-1.551h1.58l0.633-0.632h-1.264l1.105-1.109h2.656  L43.235,11.769z M79.019,39.132v5.724l5.613,5.154h2.808v3.5l-5.379,5.38v5.964l-3.274,3.273v2.81l-4.675,4.678H68.85v-4.562  l-3.044-3.04V55.971l-2.685-2.687h-6.782l-3.748-3.748v-6.429l8.421-8.421h5.026l2.568,2.547H79.37V34.11h-4.33l2.228-2.227h5.612  l-2.575-2.572h-3.042l-3.858,3.857l-3.974-3.969l-0.581,0.583l2.218,2.219l-0.935,0.932l-2.92-2.918h-2.926l-2.45,2.454v1.519  h-2.693l-0.933-0.935V30.72h2.217l1.992-1.997l-0.701-0.698v-0.819h1.85l2.004-2.001h4.561l3.382-3.38l-1.629-1.629l1.405-1.407  v-1.393l-2.796,2.799l1.394,1.396l-1.756,1.757l-1.985-1.986h-1.994v-1.283h1.178l4.907-4.912h3.628l1.755,1.751h0.56  c0.243,0.288,0.485,0.577,0.724,0.871v0.297H76.45l1.519,1.52h2.321c4.324,5.977,7.173,13.091,7.996,20.815h-0.38l-1.756-1.756  h-1.283v1.161l2.104,2.106h1.44c0.074,1.041,0.125,2.087,0.125,3.146c0,0.749-0.019,1.494-0.057,2.234l-1.391,1.523h-2.573  l-4.327-4.328v-5.376H79.019z"></path></svg>