<svg fill="#1A1A1A" xmlns="http://www.w3.org/2000/svg" xmlns:xlink="http://www.w3.org/1999/xlink" version="1.1" x="0px" y="0px" viewBox="0 0 512 512" enable-background="new 0 0 512 512" xml:space="preserve"><path d="M288,416v-42.656h160l21.328-256.008H448V74.664H234.656L213.328,32h-128v42.664H64v42.672H42.656  L64,373.344h160V416H0v64h512v-64H288z M85.328,96h21.328V74.664V53.336h93.484l15.438,30.875L221.484,96h13.172h192v21.336H85.328  V96z M65.844,138.664h380.297L428.359,352H83.625L65.844,138.664z M21.328,437.344h149.328v21.313H21.328V437.344z M192,458.656  v-21.313h53.328v-64h21.328v64H320v21.313H192z M490.656,458.656H341.328v-21.313h149.328V458.656z"></path></svg>