<svg fill="#1A1A1A" xmlns="http://www.w3.org/2000/svg" xmlns:xlink="http://www.w3.org/1999/xlink" xml:space="preserve" version="1.1" style="shape-rendering:geometricPrecision;text-rendering:geometricPrecision;image-rendering:optimizeQuality;" viewBox="0 0 289 203" x="0px" y="0px" fill-rule="evenodd" clip-rule="evenodd"><defs><style type="text/css">
   
    .fil0 {fill:#1A1A1A}
   
  </style></defs><g><path class="fil0" d="M273 57l-257 0 0 129 257 0 0 -129zm-102 -37c7,0 12,5 12,12 0,6 -5,11 -12,11 -6,0 -11,-5 -11,-11 0,-7 5,-12 11,-12zm39 0c7,0 12,5 12,12 0,6 -5,11 -12,11 -6,0 -11,-5 -11,-11 0,-7 5,-12 11,-12zm39 0c7,0 12,5 12,12 0,6 -5,11 -12,11 -6,0 -11,-5 -11,-11 0,-7 5,-12 11,-12zm-249 37l0 -48c0,-5 4,-9 9,-9l271 0c5,0 9,4 9,9l0 48 0 136c0,5 -4,10 -9,10l-271 0c-5,0 -9,-5 -9,-10l0 -136z"></path></g></svg>