<svg fill="#1A1A1A" xmlns="http://www.w3.org/2000/svg" xmlns:xlink="http://www.w3.org/1999/xlink" version="1.1" x="0px" y="0px" viewBox="0 0 100 100" enable-background="new 0 0 100 100" xml:space="preserve"><rect x="5" y="5" fill="none" width="90" height="90"></rect><g><path d="M5.578,67.64l6.03-34.204h22.177c0.025,0,0.051-0.004,0.075-0.011l21.122-6.553h29.934c0.143,0,0.258-0.114,0.258-0.256   v-3.693c0-0.141-0.115-0.256-0.258-0.256h-40.17l-5.441-6.472c-0.048-0.058-0.12-0.092-0.197-0.092H5.325   c-0.142,0-0.257,0.114-0.257,0.256v51.237c0,0.133,0.102,0.242,0.234,0.254c0.007,0,0.015,0.002,0.023,0.002   C5.448,67.852,5.555,67.762,5.578,67.64z"></path><path d="M94.873,29.527c-0.051-0.059-0.123-0.091-0.197-0.091H55.41c-0.027,0-0.053,0.004-0.076,0.011L34.212,36H13.974   c-0.125,0-0.231,0.089-0.252,0.211L5.366,83.599c-0.013,0.074,0.008,0.149,0.056,0.207c0.049,0.059,0.121,0.093,0.196,0.093h79.545   c0.123,0,0.23-0.091,0.252-0.212l9.514-53.95C94.941,29.662,94.922,29.585,94.873,29.527z"></path></g></svg>