<svg fill="#1A1A1A" xmlns="http://www.w3.org/2000/svg" xmlns:xlink="http://www.w3.org/1999/xlink" version="1.1" x="0px" y="0px" viewBox="0 0 100 100" enable-background="new 0 0 100 100" xml:space="preserve"><g><path d="M86,36.7c0.1,0,0.3-0.1,0.4-0.1V13.7C86.4,4.1,53.4,4,52,4s-34.4,0.1-34.4,9.7v22.8c0.2,0,0.3,0.1,0.4,0.2   C19.5,37.2,52.9,48.4,86,36.7z M22.1,13.4c0.2-0.2,0.5-0.4,0.9-0.6c0.3-0.2,0.6-0.3,1-0.5c0.3-0.2,0.7-0.3,1.2-0.5   c2.8-1,11.1-3.5,26.8-3.5c15.1,0,23.3,2.3,26.2,3.2c3,1,3.9,1.9,3.9,2.1c0,0-0.1,0.1-0.3,0.3c-0.1,0.1-0.3,0.2-0.4,0.3l-0.1,0.1   c-0.2,0.1-0.4,0.2-0.7,0.4l-0.2,0.1c-0.2,0.1-0.5,0.2-0.8,0.3l-0.3,0.1c-0.3,0.1-0.6,0.2-1,0.4l-0.3,0.1c-0.4,0.1-0.7,0.2-1.1,0.4   l-0.5,0.1c-0.4,0.1-0.8,0.2-1.3,0.3l-0.6,0.1c-0.5,0.1-1,0.2-1.5,0.3c-0.3,0.1-0.7,0.1-1.1,0.2l-1,0.2c-0.3,0.1-0.7,0.1-1,0.2   l-0.2,0c-0.4,0.1-0.7,0.1-1.1,0.2c-0.4,0.1-0.8,0.1-1.3,0.2c-0.4,0.1-0.9,0.1-1.3,0.2c-0.4,0-0.9,0.1-1.3,0.1   c-0.5,0.1-1,0.1-1.5,0.1c-0.4,0-0.9,0.1-1.3,0.1c-0.6,0-1.2,0.1-1.8,0.1l-1.3,0.1c-0.7,0-1.4,0.1-2.1,0.1l-1.1,0   c-1.1,0-2.3,0-3.5,0c-1.2,0-2.3,0-3.4,0l-1.1,0c-0.7,0-1.4,0-2.1-0.1l-1.3-0.1c-0.6,0-1.2-0.1-1.8-0.1c-0.4,0-0.9-0.1-1.3-0.1   c-0.5,0-1-0.1-1.5-0.1c-0.4,0-0.9-0.1-1.3-0.1c-0.5-0.1-0.9-0.1-1.3-0.2c-0.4-0.1-0.9-0.1-1.3-0.2c-0.4-0.1-0.7-0.1-1.1-0.2   L34,17.7c-0.3,0-0.6-0.1-0.9-0.1l-1-0.2c-0.4-0.1-0.8-0.1-1.1-0.2c-0.5-0.1-1-0.2-1.5-0.3l-0.6-0.1c-0.5-0.1-0.9-0.2-1.3-0.3   l-0.5-0.2c-0.4-0.1-0.8-0.2-1.1-0.4l-0.4-0.1c-0.3-0.1-0.6-0.2-0.9-0.3l-0.3-0.1c-0.3-0.1-0.5-0.2-0.8-0.4l-0.1-0.1   c-0.2-0.1-0.5-0.2-0.7-0.4c0,0-0.1-0.1-0.1-0.1c-0.2-0.1-0.3-0.2-0.5-0.4c-0.1-0.1-0.2-0.2-0.2-0.2C21.8,13.7,21.9,13.6,22.1,13.4z   "></path><path d="M86.2,61.9c0.1,0,0.2,0,0.3-0.1V41.1c-11.4,3.8-22.9,5.2-33.2,5.2c-17,0-30.8-3.6-35.6-5.2v21   C23.9,64.2,55.7,73.7,86.2,61.9z"></path><path d="M17.6,66.5v17.8c0,9.6,33,9.7,34.4,9.7s34.4-0.1,34.4-9.7V66.4c-11.5,4.2-22.9,5.7-33.2,5.7C36.9,72.1,23.5,68.5,17.6,66.5   z"></path></g></svg>