<svg fill="#1A1A1A" xmlns="http://www.w3.org/2000/svg" xmlns:xlink="http://www.w3.org/1999/xlink" version="1.1" x="0px" y="0px" viewBox="0 0 100 100" style="enable-background:new 0 0 100 100;" xml:space="preserve"><g><path d="M81,57.2C81,57.2,81,57.1,81,57.2c-0.4-2.6-2.1-4.8-4.5-5.7c-2.6-1-5.3-1.9-7.7-3.3L63,45c-1.3,0-2.4,0.9-2.7,2.1   l-7.2,15.8l-1-10c1.1-0.4,1.9-1.4,1.9-2.6V49c0-0.6-0.2-1.2-0.6-1.7c-1.1,0.3-2.3,0.5-3.4,0.5c-1.1,0-2.3-0.2-3.4-0.5   c-0.4,0.5-0.6,1-0.6,1.7v1.3c0,1.2,0.8,2.2,1.9,2.6l-1,10l-7.2-15.8C39.4,45.9,38.3,45,37,45l-5.8,3.2c-2.4,1.4-5.1,2.3-7.7,3.3   c-2.4,0.9-4.2,3.1-4.6,5.6c0,0,0,0,0,0c-0.6,4-0.8,8-0.5,12c0.4,6.9,1.4,16.1,3.3,16.8c9.2,3.5,17.8,5.4,28.2,5.4   c10.4,0,19.2-1.9,28.4-5.5c1.9-0.7,2.8-9.8,3.2-16.6C81.8,65.2,81.6,61.2,81,57.2z"></path><path d="M35.9,30.5C37,40.3,44.1,45.8,50,45.8c5.9,0,13-5.5,14.1-15.2c0.9,0,1.3-1.7,1.3-3.6c0-1.7,0.4-4.1-0.4-4.8   c-0.3-0.2-0.6-0.2-1.1-0.1C62.6,13.9,58.4,8.7,50,8.7c-8.4,0-12.6,5.2-13.9,13.4c-0.5-0.2-0.9-0.1-1.1,0.1c-0.8,0.7-0.4,3-0.4,4.8   C34.5,28.8,34.9,30.5,35.9,30.5z"></path></g></svg>