<svg fill="#1A1A1A" xmlns="http://www.w3.org/2000/svg" data-name="Layer 1" viewBox="0 0 100 100" x="0px" y="0px"><title>aaa</title><path d="M51.64219,9.548c4.11743,0,7.57885,3.60222,8.57373,8.4617a21.5681,21.5681,0,0,1,4.79875,1.77779C64.544,11.54245,58.73415,5,51.64219,5c-7.39853,0-13.41844,7.11517-13.41844,15.86123,0,7.959,4.99039,14.54884,11.46333,15.67374l.34909-.39523a3.16347,3.16347,0,0,0,.36775-.5121,3.07922,3.07922,0,0,0-.4508-3.66423c-4.08523-1.00948-7.18135-5.60086-7.18135-11.10218C42.77177,14.62324,46.75129,9.548,51.64219,9.548Z"></path><path d="M89.1938,85.67559,69.00507,50.70768A18.162,18.162,0,0,0,55.75384,20.86139a21.93342,21.93342,0,0,1,2.377,36.07678c.03608-.00611.07239-.00855.10848-.01488L78.428,91.89121a6.21563,6.21563,0,0,0,10.7658-6.21562ZM69.65307,64.26131a2.76257,2.76257,0,1,1,1.01109-3.77372A2.76256,2.76256,0,0,1,69.65307,64.26131ZM78.916,80.3053a2.5209,2.5209,0,0,1-3.44355-.92271l-3.453-5.981a2.5208,2.5208,0,0,1,4.36615-2.52079l3.453,5.981A2.52067,2.52067,0,0,1,78.916,80.3053Zm5.80994,10.063a2.52081,2.52081,0,1,1,.92271-3.44339A2.52077,2.52077,0,0,1,84.72594,90.3683Z"></path><path d="M53.64972,23.82849a18.25989,18.25989,0,0,0-7.403-2.36034A8.78981,8.78981,0,0,0,49.009,27.67243a6.54306,6.54306,0,1,1-7.418,8.68938,20.13673,20.13673,0,0,1-6.59419-12.35516,18.33277,18.33277,0,0,0-4.761,27.28563L10.39554,85.6565a3.15852,3.15852,0,0,0-.28136,2.51468l1.67064,5.38612A2.04933,2.04933,0,0,0,14.19518,94.949L19.695,93.70264a3.15811,3.15811,0,0,0,2.03706-1.501l1.22373-2.11951-2.65642-5.95434,6.48459-.67638L25.12087,78.0712l5.49116-1.25,1.914-3.31541-.87029-6.29423,5.88611-2.39331,4.03049-6.98087A18.34733,18.34733,0,0,0,53.64972,23.82849Z"></path></svg>