<svg fill="#1A1A1A" xmlns="http://www.w3.org/2000/svg" xmlns:xlink="http://www.w3.org/1999/xlink" xml:space="preserve" version="1.1" style="shape-rendering:geometricPrecision;text-rendering:geometricPrecision;image-rendering:optimizeQuality;" viewBox="0 0 847 847" x="0px" y="0px" fill-rule="evenodd" clip-rule="evenodd"><defs><style type="text/css">
   
    .fil0 {fill:#1A1A1A}
   
  </style></defs><g><path class="fil0" d="M423 10c228,0 413,185 413,413 0,228 -185,413 -413,413 -228,0 -413,-185 -413,-413 0,-228 185,-413 413,-413zm277 233c-14,-14 -29,-29 -43,-43 -10,-10 -26,-10 -36,0 -102,102 -204,205 -307,307 -29,-29 -59,-59 -89,-89 -9,-10 -25,-10 -35,0 -15,15 -29,29 -43,43 -10,10 -10,26 0,36 50,50 100,100 149,150 10,9 26,9 36,0 123,-123 245,-246 368,-368 10,-10 10,-26 0,-36z"></path></g></svg>