<svg fill="#1A1A1A" xmlns="http://www.w3.org/2000/svg" xmlns:xlink="http://www.w3.org/1999/xlink" version="1.1" x="0px" y="0px" viewBox="0 0 24 24" style="enable-background:new 0 0 24 24;" xml:space="preserve"><style type="text/css">
	.st0{fill:none;}
</style><path d="M17,10H9V6.8569336C9,5.2817383,10.3457031,4,12,4s3,1.2817383,3,2.8569336V7h2V6.8569336C17,4.1787109,14.7568359,2,12,2  S7,4.1787109,7,6.8569336V10c-1.1045532,0-2,0.8953857-2,2v8c0,1.1045532,0.8954468,2,2,2h10c1.1045532,0,2-0.8954468,2-2v-8  C19,10.8953857,18.1045532,10,17,10z M12,18c-1.1045532,0-2-0.8954468-2-2c0-1.1046143,0.8954468-2,2-2s2,0.8953857,2,2  C14,17.1045532,13.1045532,18,12,18z"></path></svg>