<?xml version="1.0" encoding="UTF-8"?><svg id="Calque_1" xmlns="http://www.w3.org/2000/svg" viewBox="0 0 100.09 100.52"><g id="PrinterVect"><path d="M50.16,82.88c-11.59,0-23.19-.08-34.78,.05-3.95,.04-5.93-2.86-5.89-5.84,.12-9.64,.04-19.28,.05-28.92,0-3.5,2.07-5.59,5.55-5.59,23.39,0,46.79,0,70.18,0,3.7,0,5.97,2.24,5.98,5.96,.02,9.52,.01,19.03,0,28.55,0,3.67-2.15,5.78-5.81,5.79-11.76,0-23.52,0-35.28,0Zm.25-19.84c-8.77,0-17.54,0-26.3,0-1.87,0-2.13,.26-2.13,2.18,0,2.83,0,5.65,0,8.48,0,1.72,.4,2.12,2.13,2.12,3.99,0,7.98,0,11.97,0,13.42,0,26.84,0,40.26,0,1.89,0,2.25-.37,2.25-2.25,0-2.78,0-5.57,0-8.35,0-1.92-.25-2.18-2.13-2.18-8.68,0-17.37,0-26.05,0Zm-33.19-9.49c0,2.58,2.06,4.76,4.56,4.81,2.64,.05,4.92-2.12,4.95-4.72,.03-2.69-2.09-4.82-4.78-4.81-2.65,.01-4.73,2.09-4.73,4.72Z"/><path d="M32.64,40.03c0-1.71,0-3.29,0-4.86,0-5.15,0-10.3,0-15.45,0-1.63,.32-1.94,1.99-1.94,10.38,0,20.76,0,31.14,0,1.66,0,2.05,.39,2.05,2.05,0,6.35-.01,12.71,.02,19.06,0,.88-.18,1.24-1.16,1.23-11-.03-22.01-.02-33.01-.02-.28,0-.57-.04-1.03-.07Zm17.64-8.83c3.36,0,6.73-.01,10.09,0,.94,0,1.74-.22,1.75-1.28,.02-1.03-.8-1.24-1.66-1.24-6.81,0-13.62,0-20.43,0-.92,0-1.7,.23-1.66,1.36,.04,1.09,.83,1.16,1.69,1.16,3.4-.01,6.81,0,10.21,0Zm-.03,4.2c-3.41,0-6.82,0-10.22,0-.88,0-1.63,.15-1.63,1.22,0,1.04,.77,1.29,1.63,1.29,6.82,0,13.63,0,20.45,0,.87,0,1.64-.3,1.65-1.29,0-1.03-.76-1.23-1.65-1.23-3.41,.02-6.82,0-10.22,0Zm-.05-13.26c-3.49,0-6.98,0-10.47,0-.77,0-1.45,.29-1.29,1.1,.1,.5,.73,.91,1.16,1.33,.09,.09,.32,.05,.48,.05,6.77,0,13.55,0,20.32,0,.89,0,1.74-.27,1.73-1.35,0-1.11-.88-1.12-1.71-1.12-3.41,0-6.82,0-10.22,0Z"/></g></svg>