<?xml version="1.0" encoding="UTF-8"?><svg id="Calque_1" xmlns="http://www.w3.org/2000/svg" viewBox="0 0 100.09 100.52"><g id="RouterVect"><path d="M71.7,38.67c2.94,0,5.64,.03,8.34-.01,1.41-.02,2.37,.53,3,1.78,3.02,6.04,6.07,12.07,9.07,18.13,.28,.57,.37,1.28,.37,1.92,.02,7.44,0,14.88,.02,22.32,0,2.12-1,3.78-3.83,3.78-25.64-.06-51.28-.04-76.92-.04-2.63,0-3.72-1.07-3.72-3.66,0-7.69-.02-15.38,.03-23.06,0-.83,.22-1.74,.59-2.49,2.76-5.62,5.6-11.21,8.36-16.83,.71-1.45,1.79-2.08,3.36-2.07,2.62,.02,5.23,0,8.02,0-.19-.51-.32-.93-.48-1.32-2.54-6.03-5.1-12.05-7.63-18.09-.94-2.24-.02-4.21,2.13-4.65,1.44-.3,2.79,.52,3.49,2.15,2.6,6.1,5.19,12.2,7.79,18.3,.5,1.18,.75,2.78,1.65,3.39,.9,.6,2.48,.22,3.76,.22,8.23,0,16.46-.01,24.68,.03,.89,0,1.29-.28,1.64-1.09,2.92-6.86,5.9-13.69,8.84-20.55,.54-1.25,1.3-2.1,2.74-2.16,2.49-.11,3.98,2.01,3,4.38-1.67,4.02-3.4,8.01-5.1,12.01-1.05,2.47-2.08,4.94-3.21,7.63Zm14.34,41.87v-17.85H14.09v17.85H86.04Z"/><path d="M27.48,74.76c-1.37,0-2.74,.04-4.11-.01-2.22-.09-3.43-1.3-3.37-3.29,.05-1.59,1.23-2.84,2.84-2.86,3.11-.04,6.23-.03,9.35,0,1.56,.01,2.79,1.24,2.94,2.83,.13,1.37-.88,2.92-2.31,3.12-1.76,.24-3.55,.21-5.33,.3v-.09Z"/><path d="M42.64,68.59c.5,0,.99-.01,1.49,0,1.58,.04,2.86,1.21,3.01,2.74,.15,1.53-.86,3.03-2.43,3.24-1.38,.18-2.81,.19-4.19,.02-1.61-.19-2.67-1.66-2.55-3.16,.13-1.65,1.43-2.81,3.17-2.84,.5,0,.99,0,1.49,0Z"/><path d="M75.77,68.6c.54,0,1.08-.02,1.62,0,1.49,.07,2.71,1.25,2.87,2.76,.15,1.39-.81,2.99-2.22,3.16-1.58,.2-3.22,.19-4.79-.02-1.41-.19-2.26-1.71-2.12-3.21,.13-1.44,1.34-2.61,2.78-2.69,.62-.03,1.24,0,1.86,0Z"/></g></svg>