<?xml version="1.0" encoding="UTF-8"?><svg id="Calque_1" xmlns="http://www.w3.org/2000/svg" viewBox="0 0 100.09 100.52"><g id="SafeVect"><path d="M49.98,12.47c9.95,0,19.9-.03,29.85,.03,1.47,0,3.05,.21,4.38,.78,2.97,1.27,3.71,3.92,3.69,6.91-.06,13.52-.13,27.05-.15,40.57,0,6.59,.07,13.18,.14,19.77,.05,4.38-2.72,7.24-7.07,7.46-3.87,.19-7.05-.73-8.99-4.45-.25-.47-1.16-.84-1.77-.85-13.41-.05-26.83-.05-40.24,.01-.62,0-1.53,.53-1.8,1.07-2.5,4.95-8.39,4.77-11.88,3.54-2.59-.91-3.94-3.18-3.95-6.2,0-18.61,0-37.23,0-55.84,0-2.01-.02-4.02,0-6.04,.05-3.83,2.46-6.58,6.28-6.65,7.82-.15,15.65-.08,23.47-.1,2.68,0,5.36,0,8.04,0v-.03Zm-.39,55.17c4.4-.03,7.66-.82,11.42-2.78,12.49-6.54,14.7-22.44,4.44-32.1-8.09-7.63-21.9-8.05-30.44-.93-8.77,7.3-10.16,18.81-3.15,27.58,4.5,5.62,10.6,8.12,17.73,8.24Z"/><g><path d="M66.79,47.38c-.32,1.52-.62,3.03-.96,4.54-.3,1.32-1.22,1.57-2.28,1.04-2.78-1.41-5.53-2.88-8.25-4.4-.33-.18-.58-.76-.6-1.18-.14-2-1.03-3.45-2.76-4.49-.46-.27-.88-1.01-.89-1.55-.09-2.62-.05-5.25-.03-7.87,0-1.3,.42-1.89,1.95-1.55,6.84,1.53,11.51,5.33,13.37,12.25,.09,.32,.14,.65,.17,.99,.06,.72,.09,1.45,.13,2.17l.17,.04Z"/><path d="M36.02,56.15c3.1-1.66,6.07-3.27,9.09-4.81,.34-.17,.97,0,1.38,.2,1.83,.89,3.6,.86,5.47,.04,.56-.24,1.43-.24,1.97,.03,2.45,1.2,4.84,2.51,7.23,3.83,1.91,1.05,1.94,1.45,.37,2.87-7.31,6.63-19.79,5.69-25.51-2.17Z"/><path d="M34.26,53.33c-2.96-5.85-1.25-13.12,3.89-17.48,2.21-1.87,4.74-3.09,7.55-3.78,1.19-.29,1.79,.04,1.77,1.37-.04,2.68,.04,5.36-.05,8.04-.02,.53-.49,1.22-.96,1.52-1.46,.93-2.47,2.08-2.54,3.87-.04,1.13-.64,1.76-1.63,2.26-2.68,1.34-5.3,2.78-8.04,4.22Z"/><path d="M48.6,45.4c1.85,0,2.67,.64,2.67,1.87,0,1.13-.78,1.83-1.95,1.85-1.24,.02-2.17-.72-2.05-1.88,.08-.76,1.01-1.42,1.34-1.84Z"/></g></g></svg>