<?xml version="1.0" encoding="UTF-8"?><svg xmlns="http://www.w3.org/2000/svg" viewBox="0 0 55 48"><defs><style>.e{fill:#3c3c3b;}</style></defs><g id="a"/><g id="b"><g id="c"><g id="d"><path class="e" d="M54.2,17.21c-4.37-6.13-8.03-10.29-13.52-15.28-1.5-1.34-3.71-1.28-5.18,.21-4.05,4.06-7.39,8.21-10.06,12.56-1.01,1.57-.89,3.69,.22,5.11,.36,.45,2.22,2.97,2.53,3.33,.13,.18,0,0-1.56-2.09l1.56,2.09c-.26,.26-.23-.27,0,0l-1.64,2.39c.13,.18,.11-.17,0,0l-14.97,15.82c-.26,.26-.38,.69-.31,1.05l.67,4.38c.1,.5,.47,.89,.96,.9l3.63,.31c.3,.02,.63-.07,.83-.35l2.72-2.86c.17-.15,.22-.34,.22-.54l-.29-2.78c0-.4-.34,3.26,.07,3.32l2.77-3.85c.41,.06,.7-.32,.7-.73l1.83-4.2c0-.4-3.31,.99-2.9,1.05l-2.4,7.73c.19,0,7.01-7.52,7.1-7.63l7.14-6.92c.17-.15-1.8,1.58-1.65,1.69l2.53-2.59c.23,.27-.26,.26,0,0l-.87,.9c.17-.15,1.73,1.59,1.88,1.71,.32,.37,.71,.69,1.09,1.08,1.28,1.27,3.25,1.41,4.78,.33,4.37-3.09,8.31-6.58,11.77-10.48,1.43-1.57,1.54-4.03,.37-5.67Zm-5.8,1.3l-2.11,2.24c-.18,.21-.56,.23-.72-.02l-8.39-9.46c-.19-.19-.19-.6,.05-.79l2.11-2.24c.18-.21,.56-.23,.72,.02l8.39,9.46c.19,.19,.14,.58-.05,.79Z"/><path class="e" d="M23.35,5.63l-3.13,2.56c-1.83,1.51-4.35,.67-5.27-1.72L12.57,.38c-.21-.5-.81-.5-.98,0l-2.32,6.05c-.95,2.48-3.55,3.28-5.37,1.68L.87,5.47c-.42-.38-1.02,.13-.84,.76l3.16,12.82c.04,.13,.14,.17,.21,.17H20.85c.11,0,.18-.08,.21-.17l3.13-12.57c.18-.67-.42-1.22-.84-.84Z"/></g></g></g></svg>