<?xml version="1.0" encoding="UTF-8"?><svg id="Calque_1" xmlns="http://www.w3.org/2000/svg" viewBox="0 0 100.09 100.52"><g id="ServerVect"><path d="M18.87,50.38c0-9.31,0-18.62,0-27.93,0-2.3,1.05-3.37,3.32-3.37,18.58,0,37.16,0,55.75,0,2.42,0,3.49,1.17,3.49,3.8,0,12.68,0,25.35,0,38.03,0,5.61,0,11.22,0,16.83,0,2.84-1.09,3.93-3.91,3.93-18.25,0-36.5,0-54.75,0-2.93,0-3.9-.96-3.9-3.85,0-9.14,0-18.29,0-27.43Zm56.11-24.88c-.24-.06-.36-.11-.47-.11-16.13,0-32.26,0-48.38-.03-.82,0-.96,.35-.95,1.05,.02,3.53,0,7.06,.02,10.6,0,.24,.08,.47,.12,.7h49.67v-12.21ZM25.26,75.16h49.7v-12.18H25.26v12.18Zm-.02-18.75h49.71v-12.11H25.24v12.11Z"/><path d="M39.21,34.78c-2.57,0-5.15,.01-7.72,0-1.99-.01-3.2-1.11-3.33-2.94-.12-1.84,.93-3.1,2.87-3.39,.33-.05,.66-.09,.99-.09,4.82,0,9.63-.03,14.45,0,2.44,.02,3.67,1.15,3.66,3.25,0,1.92-1.14,3.13-3.07,3.15-2.61,.03-5.23,0-7.85,0Z"/><path d="M72.01,31.6c0,1.77-1.37,3.16-3.13,3.18-1.84,.02-3.2-1.37-3.18-3.23,.02-1.77,1.44-3.18,3.16-3.15,1.74,.03,3.14,1.46,3.14,3.2Z"/><path d="M39.2,72.2c-2.61,0-5.23,0-7.84,0-1.95,0-3.13-1.13-3.2-3.02-.06-1.85,1.08-3.2,3-3.23,4.4-.08,8.8-.05,13.2-.05,1.08,0,2.16-.02,3.23,.09,1.7,.18,2.65,1.49,2.54,3.36-.1,1.69-1.19,2.83-2.83,2.85-2.7,.03-5.39,0-8.09,0Z"/><path d="M68.88,72.2c-1.86,.01-3.14-1.23-3.17-3.06-.03-1.87,1.33-3.25,3.17-3.23,1.76,.02,3.14,1.41,3.14,3.17,0,1.79-1.33,3.12-3.14,3.13Z"/><path d="M39.2,53.49c-2.62,0-5.24,.01-7.86,0-1.91-.01-3.15-1.23-3.18-3.07-.04-1.86,1.15-3.2,3.05-3.21,5.32-.04,10.65-.04,15.97,0,1.91,.02,3,1.32,2.95,3.26-.05,1.87-1.18,3.01-3.07,3.02-2.62,.02-5.24,0-7.86,0Z"/><path d="M68.85,53.49c-1.83,0-3.13-1.28-3.15-3.11-.01-1.89,1.31-3.22,3.19-3.2,1.77,.02,3.13,1.4,3.12,3.17-.01,1.78-1.36,3.12-3.16,3.13Z"/></g></svg>