<?xml version="1.0" encoding="UTF-8"?><svg id="Calque_1" xmlns="http://www.w3.org/2000/svg" viewBox="0 0 100.09 100.52"><g id="SwitchVect"><path d="M5.26,44.35c2.99-1.75,5.84-3.41,8.7-5.07,11.73-6.81,23.46-13.62,35.17-20.45,.71-.41,1.25-.5,2-.06,14.42,8.36,28.86,16.7,43.3,25.04,.27,.16,.53,.34,.95,.61-1.77,1.04-3.4,1.99-5.04,2.95-12.95,7.52-25.9,15.03-38.83,22.58-.73,.43-1.25,.49-2.01,.05-14.42-8.36-28.87-16.69-43.3-25.03-.28-.16-.53-.35-.94-.61ZM56.21,27.76h-13.47v7.86c1.18-.69,2.2-1.32,3.26-1.87,.35-.18,.91-.29,1.23-.14,1.19,.57,2.31,1.27,3.53,1.96-.96,1.87-1.83,3.71-2.84,5.46-.28,.48-.93,.94-1.48,1.05-2.76,.57-5.54,1.03-8.32,1.49-.63,.11-1.38,.26-1.92,.03-1.24-.54-2.39-1.3-3.69-2.04l3.8-2.32h-13.41v7.86c1.07-.62,2.02-1.13,2.91-1.72,.7-.46,1.27-.53,2.02-.04,1.24,.82,2.66,1.4,3.84,2.29,1.79,1.35,3.62,1.41,5.71,.9,2.32-.56,4.7-.84,7.31-1.29l-3.1,5.99,7.34,4.25-3.81,2.32h13.48v-7.88c-1.17,.68-2.18,1.31-3.24,1.85-.35,.18-.91,.31-1.23,.16-1.18-.57-2.31-1.27-3.54-1.98,.95-1.85,1.89-3.6,2.74-5.39,.34-.73,.84-1.04,1.58-1.17,2.29-.39,4.56-.84,6.85-1.2,1.08-.17,2.28-.52,3.26-.24,1.27,.36,2.39,1.27,3.71,2.01l-3.82,2.31h13.46v-7.87c-1.02,.59-1.96,1.04-2.79,1.65-.88,.64-1.59,.57-2.45-.02-1.13-.76-2.44-1.28-3.53-2.1-1.78-1.33-3.6-1.47-5.71-.94-2.31,.58-4.69,.84-7.27,1.29l3.11-5.98-7.36-4.27,3.81-2.29Z"/><path d="M49.29,82.54c-1.63-.93-3.06-1.74-4.49-2.56-13.03-7.53-26.06-15.07-39.11-22.57-.77-.44-1.01-.91-.99-1.75,.04-2.89,.02-5.78,.02-8.95,.69,.35,1.05,.52,1.39,.71,14.03,8.11,28.06,16.24,42.11,24.33,.84,.49,1.11,1,1.09,1.94-.06,2.86-.02,5.73-.02,8.85Z"/><path d="M51.61,82.5c0-3.35-.03-6.5,.04-9.64,0-.32,.48-.73,.84-.94,8.63-5.05,17.27-10.07,25.91-15.1,5.56-3.23,11.11-6.47,16.67-9.7,.14-.08,.29-.14,.58-.28,.04,.43,.11,.77,.11,1.11,0,2.62-.02,5.24,.02,7.85,.01,.74-.19,1.19-.87,1.58-14.03,8.14-28.04,16.31-42.06,24.47-.34,.2-.7,.37-1.23,.64Z"/></g></svg>