<?xml version="1.0" encoding="UTF-8"?><svg id="Calque_1" xmlns="http://www.w3.org/2000/svg" viewBox="0 0 100.09 100.52"><g id="UnixVect"><g><path d="M60.87,77.11v-1q2.02-.49,2.02-2.56c0-1.5,.02-2.99,0-4.49-.03-1.54-.72-2.5-1.88-2.73-1.26-.24-2.85,.41-3.07,1.74-.38,2.3-.43,4.68-.39,7.02,0,.39,1.15,.77,1.99,1.29,0,0,.02,.31,.04,.72h-8.07l-.06-1.09c.27-.03,.47-.06,.66-.07,1.13-.01,1.63-.51,1.59-1.7-.07-2.03-.02-4.07-.02-6.11,0-2-.02-2.03-1.98-2.52-.32-.87-.03-1.31,.92-1.34,.5-.01,1-.04,1.49-.08q2.75-.25,3.4,2.3c.56-.5,1.08-1.03,1.66-1.47,1.54-1.15,3.28-1.47,5.05-.73,1.86,.78,2.31,2.5,2.37,4.32,.05,1.7,.01,3.41,.01,5.11q0,1.93,1.93,2.33v1.04h-7.67Z"/><path d="M32.27,65.68v-1.25c1.9-.17,3.8-.34,5.87-.52,0,2.4,0,4.63,0,6.86,0,.75,0,1.49,0,2.24,0,1.01,.41,1.8,1.35,2.18,1.02,.41,2.1,.25,2.72-.61,.59-.83,1.02-1.89,1.19-2.9,.2-1.17,.05-2.4,.05-3.6,0-1.95-.1-2.07-2.06-2.43-.37-.86-.08-1.29,.87-1.35,1.6-.1,3.19-.23,4.92-.36,0,3.38,.03,6.61-.02,9.83-.02,1.22,.3,1.99,1.63,2.19,.28,.04,.48,.59,.71,.91l-.22,.31c-1.61,0-3.22,.03-4.82-.03-.25,0-.58-.38-.7-.65-.16-.4-.16-.86-.25-1.46-.45,.43-.77,.72-1.09,1.03-1.36,1.37-3.03,1.82-4.9,1.58-1.49-.19-2.83-1.53-3.02-3.36-.21-2.05-.19-4.14-.23-6.21-.04-1.95-.01-1.95-2.01-2.42Z"/><path d="M89.73,70.08c2.22,1.92,3.07,5.02,6.24,6.03,0,.02,.05,.21,.07,.4,.01,.16-.01,.33-.03,.59h-8.1v-1.03l1.7-.43-2.26-2.99c-.66,.62-1.29,1.13-1.83,1.73-.67,.76-.52,1.17,.47,1.5q.76,.25,.68,1.24h-6.09v-1.07c2.73-.45,3.83-2.97,5.9-4.53-1.98-1.96-3.05-4.62-5.8-6.1l-.08-.85h7.58c.63,1.25-.6,1.09-1.34,1.56l2.19,2.91c.45-.54,.78-.96,1.14-1.36,1.2-1.33,1.11-1.6-.75-2.02l-.07-1.11h5.92v1.15c-2.53,.5-3.61,2.77-5.53,4.38Z"/><path d="M70.92,65.6v-1.19c1.87-.16,3.7-.32,5.68-.49v8.21c0,.54,0,1.08,0,1.62q0,1.96,1.94,2.32v1.04h-7.6v-1.03q1.98-.39,1.98-2.38c0-1.87,0-3.74,0-5.6,0-1.99-.03-2.03-2.01-2.49Z"/><path d="M74.46,61.23c-1.33,0-2.29-.84-2.33-2.05-.04-1.27,.93-2.19,2.31-2.18,1.36,0,2.22,.82,2.22,2.11,0,1.29-.86,2.12-2.21,2.12Z"/></g><g><path d="M9.6,66.51H28.05l-.32,5.87c-.33,.02-.69,.06-1.05,.06-6.53,0-13.05,0-19.58,0-2.45,0-3.51-1.04-3.51-3.47,0-16.96,0-33.91,0-50.87,0-2.47,1.02-3.48,3.48-3.48,16.96,0,33.91,0,50.87,0,2.54,0,3.44,.9,3.44,3.45,0,6.94,0,13.88,0,20.82v1.3h-5.73l-.15-2.34H9.61v11.39h26.9c-1.41,1.9-2.7,3.71-4.08,5.44-.24,.3-.87,.38-1.32,.38-6.65,.02-13.3,.02-19.95,.02h-1.56v11.43Zm-.01-45.9v11.19H55.51v-11.19H9.59Z"/><path d="M22.42,46.5c-2.24,0-4.48,.01-6.72,0-2.27-.01-3.44-1.06-3.42-3.03,.02-1.89,1.21-2.92,3.39-2.92,4.6,0,9.21-.02,13.81,0,2.31,.01,3.59,1.74,2.97,3.91-.37,1.3-1.39,2-3.07,2.02-2.32,.03-4.64,0-6.97,0Z"/><path d="M30.53,58.06l-1.95,5.67c-2.37,0-4.81,0-7.25,0-2.08,0-4.16,.02-6.23,0-1.7-.02-2.79-1.13-2.82-2.81-.03-1.73,.98-2.95,2.66-2.96,5.03-.04,10.05-.01,15.08,0,.15,0,.31,.07,.51,.13Z"/><path d="M22.52,23.33c2.41,0,4.82-.01,7.23,0,1.72,.01,2.78,1.05,2.86,2.78,.08,1.64-.99,2.96-2.65,2.98-4.99,.06-9.97,.06-14.96,.01-1.74-.02-2.79-1.29-2.72-3.04,.07-1.7,1.13-2.73,2.88-2.74,2.45-.01,4.9,0,7.35,0Z"/><path d="M49.84,23.33c1.72,0,2.88,1.16,2.9,2.87,.01,1.73-1.25,2.97-2.98,2.93-1.65-.03-2.84-1.28-2.83-2.96,.02-1.69,1.2-2.85,2.91-2.84Z"/></g></g></svg>