<?xml version="1.0" encoding="UTF-8"?><svg id="Calque_2" xmlns="http://www.w3.org/2000/svg" viewBox="0 0 52 52"><defs><style>.cls-1{fill:#3c3c3b;}</style></defs><g id="Calque_1-2"><g id="_.2-Comptes_standards"><path class="cls-1" d="M51.05,17.96c-5.19-6.77-9.55-11.37-16.07-16.9-1.78-1.48-4.41-1.42-6.16,.24-4.81,4.49-8.78,9.07-11.96,13.89-1.2,1.74-1.06,4.08,.26,5.65,.42,.49,2.63,3.28,3.01,3.69,.16,.19,0,0-1.85-2.31l1.85,2.31c-.31,.28-.27-.3,0,0l-1.95,2.64c.16,.19,.13-.19,0,0L.39,44.65c-.31,.28-.46,.76-.36,1.16l.8,4.84c.12,.55,.56,.98,1.14,1l4.31,.35c.35,.03,.75-.08,.99-.38l3.24-3.16c.2-.17,.26-.37,.26-.59l-.34-3.07c0-.45-.4,3.6,.08,3.67l3.29-4.26c.49,.07,.84-.35,.83-.8l2.18-4.64c0-.45-3.93,1.09-3.45,1.16l-2.85,8.54c.22-.01,8.33-8.31,8.44-8.43l8.49-7.65c.2-.17-2.14,1.75-1.97,1.87l3.01-2.86c.27,.3-.31,.28,0,0l-1.04,.99c.2-.17,2.05,1.76,2.23,1.89,.38,.41,.85,.76,1.29,1.19,1.52,1.4,3.86,1.56,5.68,.37,5.2-3.41,9.88-7.27,13.99-11.59,1.7-1.74,1.83-4.46,.44-6.27Zm-6.9,1.44l-2.51,2.47c-.22,.23-.66,.26-.86-.02l-9.98-10.46c-.22-.21-.23-.66,.06-.88l2.51-2.47c.22-.23,.66-.26,.86,.02l9.98,10.46c.22,.21,.16,.64-.06,.88Z"/></g></g></svg>