<?xml version="1.0" encoding="UTF-8"?><svg id="Calque_1" xmlns="http://www.w3.org/2000/svg" viewBox="0 0 100.09 100.52"><defs><style>.cls-1{fill:#3c3c3b;}</style></defs><g id="_.2-Comptes_standards"><path class="cls-1" d="M86.86,38.44c-7.63-9.96-14.03-16.71-23.62-24.83-2.62-2.17-6.48-2.08-9.05,.35-7.07,6.6-12.91,13.33-17.57,20.41-1.76,2.55-1.56,6,.38,8.31,.62,.73,3.87,4.82,4.43,5.42,.23,.28,0,0-2.72-3.4l2.72,3.4c-.45,.42-.39-.44,0,0l-2.87,3.88c.23,.28,.19-.27,0,0l-26.15,25.7c-.45,.42-.67,1.12-.53,1.7l1.18,7.11c.17,.81,.83,1.44,1.67,1.46l6.33,.51c.52,.04,1.1-.12,1.45-.57l4.75-4.64c.29-.24,.38-.55,.38-.87,0,0-1.1,.78-.38,.87h0c.32-.02,12.24-12.22,12.4-12.39l12.47-11.25c.29-.24-3.15,2.57-2.89,2.75l4.42-4.2c.39,.44-.45,.42,0,0l-1.53,1.45c.29-.24,3.01,2.59,3.28,2.78,.56,.6,1.24,1.12,1.9,1.75,2.23,2.06,5.67,2.29,8.34,.54,7.64-5.01,14.52-10.68,20.56-17.03,2.5-2.56,2.69-6.55,.65-9.21Zm-10.13,2.11l-3.69,3.64c-.32,.34-.97,.38-1.27-.04l-14.66-15.37c-.33-.31-.33-.97,.08-1.29l3.69-3.64c.32-.34,.97-.38,1.27,.04l14.66,15.37c.33,.31,.24,.94-.08,1.29Z"/></g></svg>