<?xml version="1.0" encoding="UTF-8"?><svg id="Calque_1" xmlns="http://www.w3.org/2000/svg" viewBox="0 0 100.09 100.52"><g id="VaultVect"><path d="M85.63,91.92h-1.9c-22.43,0-44.86-.02-67.29,.04-1.79,0-2.15-.51-2.15-2.2,.06-20.77,.06-41.55,0-62.32,0-1.46,.4-2.18,1.73-2.82,10.5-5.09,20.96-10.25,31.41-15.44,1.47-.73,2.65-.88,4.25-.11,11,5.36,22.07,10.58,33.09,15.9,.47,.23,1.01,.96,1.01,1.46,.04,21.63,.03,43.26,.02,64.89,0,.11-.06,.22-.16,.61Zm-12.76-36.64c-.04-4.08-.8-7.19-2.42-10.08-7.06-12.62-25.14-15.52-36.03-5.79-9.86,8.81-9.29,23.34,1.23,31.27,7.84,5.92,19.17,6.39,27.42,1.03,6.19-4.02,9.57-9.73,9.8-16.43Z"/><g><path d="M67.56,54.54c-.32,1.6-.62,3.21-.98,4.81-.3,1.35-1.26,1.6-2.34,1.06-2.84-1.43-5.66-2.93-8.43-4.48-.38-.21-.67-.9-.68-1.38-.06-1.96-1.03-3.26-2.6-4.34-.58-.4-1.11-1.27-1.15-1.96-.13-2.5-.07-5.01-.04-7.52,.02-1.19,.29-2.09,1.9-1.83,8.29,1.36,14.38,8.47,14.31,15.64Z"/><path d="M36.12,63.66c3.16-1.68,6.2-3.33,9.29-4.9,.35-.18,.98-.03,1.38,.17,1.92,.98,3.79,.93,5.73,.01,.47-.22,1.23-.25,1.68-.03,2.59,1.3,5.15,2.67,7.69,4.07,1.77,.98,1.8,1.5,.3,2.87-7.37,6.78-20.27,5.82-26.07-2.2Z"/><path d="M47.81,44.5c0,.63-.05,1.26,0,1.88,.17,1.93,.04,3.54-2.01,4.69-.88,.49-1.37,2.04-1.6,3.2-.2,1.02-.56,1.61-1.45,2.07-2.28,1.16-4.52,2.4-6.78,3.59-1.79,.95-1.94,.87-2.53-1.12-2.11-7.22,1.33-14.72,8.4-18.19,1.21-.6,2.52-1.02,3.83-1.39,1.97-.56,2.11-.41,2.13,1.69,0,1.2,0,2.39,0,3.59Z"/></g></g></svg>