<?xml version="1.0" encoding="UTF-8"?><svg id="Calque_1" xmlns="http://www.w3.org/2000/svg" viewBox="0 0 100.09 100.52"><g id="WebServerVect"><g><path d="M60.81,40.38l-.72-6.84h15.44l-.59,6.85c-4.78-1.38-9.35-1.4-14.12,0Z"/><path d="M75.56,30.94h-15.53l.6-6.9c4.81,1.28,9.46,1.5,14.29-.01l.64,6.92Z"/><path d="M74.42,21.47c-4.39,1.42-8.54,1.52-12.9,.07,.9-3.06,1.79-6.03,4.23-8.17,1.5-1.32,3.03-1.31,4.43,.13,.99,1.02,1.81,2.26,2.48,3.53,.72,1.37,1.16,2.88,1.76,4.44Z"/><path d="M61.54,42.88c4.33-1.42,8.45-1.38,12.75,0-.86,3.13-1.82,6.13-4.39,8.27-1.38,1.16-2.97,1.03-4.36-.31-2.23-2.15-3.18-4.95-4-7.97Z"/><path d="M57.43,30.85h-9.27c.23-4.42,1.94-8.14,4.6-11.39,1.82,1.14,3.55,2.19,5.22,3.31,.25,.17,.41,.7,.37,1.03-.26,2.3-.59,4.59-.92,7.05Z"/><path d="M77.32,41.26c.29-2.47,.6-5.01,.91-7.67h9.33c-.37,4.35-1.98,8.13-4.65,11.38-1.94-1.29-3.76-2.5-5.59-3.72Z"/><path d="M48.25,33.56h9.34c.18,1.89,.36,3.73,.54,5.58,.04,.37,.08,.74,.19,1.1,.23,.79,0,1.23-.76,1.67-1.57,.9-3.05,1.97-4.65,3.03-2.74-3.13-4.32-6.89-4.65-11.38Z"/><path d="M78.22,30.85c-.36-2.49-.72-4.9-1.03-7.31-.03-.24,.16-.64,.38-.77,1.69-1.1,3.41-2.16,5.24-3.3,2.67,3.23,4.38,6.94,4.6,11.38h-9.19Z"/><path d="M73.53,13.33c2.78,.74,5.19,2.18,7.59,4.27l-4.3,2.96-3.29-7.23Z"/><path d="M54.6,46.73l4.21-2.87c1.12,2.48,2.17,4.8,3.27,7.23-2.77-.84-5.25-2.14-7.48-4.36Z"/><path d="M54.56,17.63c2.27-2.12,4.69-3.49,7.47-4.29l-3.15,7.21-4.32-2.92Z"/><path d="M76.79,43.89l4.17,2.77c-1.28,1.76-4.91,3.86-7.27,4.33,.98-2.25,1.98-4.54,3.1-7.09Z"/></g><g><path d="M54.16,53.85H18.89v11.23h45.52v-7.82h5.89v1.33c0,8.69,0,17.37,0,26.06,0,2.54-.98,3.57-3.53,3.57-16.75,.01-33.5,.01-50.25,0-2.55,0-3.5-1.02-3.5-3.59,0-16.75,0-33.5,0-50.25,0-2.59,.85-3.45,3.41-3.45,8.44,0,16.87,0,25.31,0h1.48v5.67H18.82c0,.58,0,1.02,0,1.46,0,2.78,0,5.57,0,8.35q0,1.65,1.71,1.65c8.73,0,17.46,.01,26.18-.02,.99,0,1.63,.29,2.34,1.03,1.58,1.66,3.35,3.15,5.11,4.78Zm10.21,28.43v-11.2H18.93v11.2h45.43Z"/><path d="M31.53,45.34c-2.16,0-4.32,0-6.48,0-2.23,0-3.52-1.12-3.49-3,.03-1.85,1.27-2.9,3.44-2.91,4.53,0,9.05-.02,13.58,0,2.1,0,3.19,1.16,3.11,3.17-.07,1.68-1.15,2.69-3.06,2.72-2.37,.04-4.73,0-7.1,.01Z"/><path d="M31.64,62.43c-2.28,0-4.57,.02-6.85,0-2.07-.02-3.29-1.14-3.24-2.94,.05-1.86,1.2-2.85,3.32-2.86,4.65,0,9.3-.02,13.95,0,2.28,.01,3.57,2.12,2.64,4.2-.52,1.17-1.49,1.6-2.71,1.6-2.37,0-4.73,0-7.1,0Z"/><path d="M61.71,59.58c-.02,1.64-1.3,2.88-2.95,2.85-1.64-.03-2.88-1.31-2.85-2.95,.03-1.64,1.3-2.87,2.95-2.85,1.63,.02,2.86,1.3,2.85,2.95Z"/><path d="M31.66,79.56c-2.37,0-4.73,.01-7.1,0-1.81-.01-2.94-1.08-3-2.79-.06-1.69,1.02-2.95,2.81-2.97,4.9-.06,9.8-.06,14.69,.01,1.78,.03,2.69,1.22,2.62,3.08-.06,1.62-1.12,2.65-2.8,2.67-2.41,.02-4.82,0-7.22,0Z"/><path d="M61.71,76.73c-.02,1.65-1.27,2.84-2.95,2.83-1.64-.02-2.87-1.29-2.85-2.94,.02-1.64,1.3-2.88,2.95-2.85,1.62,.03,2.87,1.32,2.85,2.96Z"/></g></g></svg>