<?xml version="1.0" encoding="UTF-8"?><svg id="Calque_1" xmlns="http://www.w3.org/2000/svg" viewBox="0 0 100.09 100.52"><g id="WindowsVect"><g><path d="M77.72,75.51c-2.76-.38-5.42-.74-8.07-1.12-3.28-.47-6.56-.94-9.83-1.47-.32-.05-.82-.48-.83-.74-.05-4.44-.04-8.87-.04-13.41h18.77v16.74Z"/><path d="M77.72,40.53v16.63h-18.67c-.04-.27-.09-.5-.1-.74,0-4.07,0-8.14-.02-12.21,0-.77,.22-1.07,1.02-1.19,5.5-.78,10.99-1.61,16.48-2.42,.4-.06,.81-.05,1.28-.08Z"/><path d="M57.53,58.74v13.77c-1.69-.22-3.31-.43-4.92-.65-2.7-.38-5.4-.8-8.11-1.15-.85-.11-1.32-.3-1.29-1.34,.08-3.19,.03-6.39,.03-9.58,0-.32,.04-.64,.06-1.04h14.23Z"/><path d="M43.34,45.56l14.17-2.09v13.68h-14.17v-11.59Z"/><path d="M31.07,77.74h1.6c.67,2.85,1.34,5.7,2.01,8.55l.25,.06,2.31-8.6h1.61c.7,2.95,1.39,5.89,2.13,9.02l2.36-9.01h1.55c-1.04,3.62-2.01,7.16-3.11,10.67-.11,.34-.94,.45-1.59,.73l-2.22-9.2-2.44,8.92h-1.59l-2.86-11.13Z"/><path d="M82.59,82.66c-.6,1.86-1.14,3.64-1.77,5.38-.13,.36-.61,.79-.94,.81-.31,.01-.82-.43-.93-.77-.78-2.4-1.48-4.82-2.21-7.26,1.04-.31,1.64-.18,1.86,1.04,.3,1.66,.82,3.27,1.46,4.96,.5-1.58,.99-3.17,1.48-4.75,.07-.24,.08-.53,.23-.7,.24-.27,.56-.62,.86-.62,.28,0,.72,.33,.82,.62,.61,1.79,1.14,3.6,1.79,5.74,.55-1.94,1-3.57,1.46-5.2q.35-1.24,1.81-1.11c-.84,2.61-1.63,5.2-2.54,7.74-.1,.29-.87,.34-1.41,.53-.69-2.24-1.32-4.28-1.98-6.41Z"/><path d="M64.78,81.33v-4.31h1.42v11.8c-.64,.11-1.39,.47-1.33-.46-1.1,.26-2.22,.75-3.31,.69-.72-.04-1.57-.77-2.04-1.42-1.47-2.02-.85-5.48,1.06-6.69,1.21-.77,2.43-.68,4.19,.39Zm-.03,3.36c0-.12,0-.25,0-.37-.02-1.56-.69-2.53-1.84-2.69-1.25-.17-2.14,.59-2.5,2.19-.08,.36-.14,.73-.14,1.1,.02,1.8,.95,3.01,2.27,3.02,1.38,.01,2.2-1.1,2.21-3,0-.08,0-.17,0-.25Z"/><path d="M75.98,84.72c0,2.53-1.43,4.3-3.59,4.43-1.6,.1-2.88-.5-3.6-1.95-.87-1.76-.82-3.56,.28-5.21,.93-1.38,2.36-1.79,3.95-1.49,1.81,.34,2.95,2.02,2.95,4.21Zm-1.39,.13c-.17-.65-.26-1.22-.46-1.75-.33-.86-.92-1.45-1.93-1.48-1.06-.03-1.7,.54-2.08,1.45-.52,1.25-.59,2.55,.16,3.68,.38,.57,1.2,1.15,1.82,1.16,.63,0,1.4-.59,1.84-1.14,.41-.5,.46-1.29,.65-1.91Z"/><path d="M56.97,88.86h-1.44c0-1.35,0-2.71,0-4.06,0-.37,.02-.75-.03-1.12-.16-1.33-.88-2.05-1.95-1.99-1.06,.06-1.97,.98-2.01,2.17-.05,1.65-.01,3.3-.01,5h-1.42v-8.12c.59-.01,1.33-.42,1.29,.89,.41-.31,.66-.52,.93-.68,2.03-1.27,4.4-.21,4.63,2.17,.15,1.52,.05,3.07,.05,4.6,0,.37-.03,.73-.05,1.14Z"/><path d="M89.2,88.96l.37-1.32c.17,0,.28-.01,.39,0,.76,.1,1.53,.31,2.28,.27,.33-.02,.84-.51,.88-.84,.05-.4-.19-.97-.5-1.25-.41-.37-1.02-.52-1.53-.78-1.21-.61-1.81-1.64-1.56-2.68,.27-1.13,1.25-1.88,2.58-1.92,.45-.01,.91,.03,1.36,.11,.85,.15,1.15,.56,.56,1.3-.68-.08-1.35-.27-1.97-.18-.39,.06-.9,.49-1.03,.86-.1,.28,.24,.86,.55,1.09,.52,.39,1.19,.57,1.77,.89,1.02,.55,1.47,1.42,1.32,2.58-.16,1.15-.92,1.81-1.97,1.93-1.07,.12-2.17-.03-3.49-.06Z"/><path d="M47.5,80.74v8.1h-1.38v-8.1h1.38Z"/><path d="M47.99,78.61c-.57,.41-.94,.88-1.21,.83-.36-.07-.65-.54-.96-.84,.32-.3,.61-.76,.97-.83,.27-.05,.63,.42,1.2,.84Z"/></g><g><path d="M66.17,34.16h-6.12v-2.29H11.66v11.96h28.94c-1.5,2.07-2.88,4.02-4.34,5.9-.2,.26-.82,.27-1.25,.27-7.31,.02-14.63,.01-21.94,.01-.45,0-.89,0-1.41,0v12.02H31.81l-.3,6.13c-.43,.02-.83,.05-1.23,.05-7.19,0-14.38,0-21.57,0-2.33,0-3.3-.99-3.3-3.35,0-18.04,0-36.07,0-54.11,0-2.24,1.11-3.36,3.37-3.37,17.99,0,35.99,0,53.98,0,2.32,0,3.47,1.14,3.47,3.42,0,7.36,0,14.71,0,22.07,0,.36-.03,.73-.06,1.29ZM11.64,25.55H59.96V13.7H11.64v11.84Z"/><path d="M25.18,34.8c2.49,0,4.98,0,7.46,0,2.05,0,3.16,1.05,3.18,2.96,.02,1.97-1.1,3.17-3.14,3.19-3.07,.04-6.14,.01-9.21,.01-1.87,0-3.73,.01-5.6,0-2.15-.02-3.41-1.16-3.44-3.09-.03-1.92,1.24-3.07,3.39-3.07,2.45,0,4.89,0,7.34,0Z"/><path d="M34.33,53.2c-.63,1.92-1.15,3.62-1.76,5.28-.11,.3-.61,.66-.93,.67-4.73,.04-9.46,.06-14.19,.01-1.82-.02-3.03-1.36-3.01-3.12,.02-1.86,1.23-3.02,3.19-3.03,5.02,0,10.04,0,15.06,0,.52,0,1.04,.11,1.64,.18Z"/><path d="M25.22,16.54c2.53,0,5.06-.06,7.59,.02,2.06,.06,3.08,1.25,3.02,3.28-.05,1.67-1.13,2.87-2.94,2.89-5.14,.07-10.28,.08-15.42,0-1.89-.03-3.02-1.36-3.01-3.12,0-1.81,1.19-3.01,3.19-3.06,2.53-.06,5.06-.01,7.59-.01h0Z"/><path d="M50.97,19.5c.06-1.75,1.39-3,3.15-2.95,1.74,.05,3.02,1.4,2.98,3.15-.04,1.7-1.46,3.1-3.11,3.06-1.73-.04-3.07-1.49-3.02-3.26Z"/></g></g></svg>