<?xml version="1.0" encoding="UTF-8"?>
<svg version="1.1" viewBox="0 0 100 100" xmlns="http://www.w3.org/2000/svg" fill="#000000">
 <g>
  <path d="m50 4.168c-25.312 0-45.832 20.52-45.832 45.832s20.52 45.832 45.832 45.832 45.832-20.52 45.832-45.832-20.52-45.832-45.832-45.832zm0 83.332c-20.73 0-37.5-16.77-37.5-37.5s16.77-37.5 37.5-37.5 37.5 16.77 37.5 37.5-16.77 37.5-37.5 37.5z"/>
  <path d="m69.168 32.293-26.562 26.562-11.773-11.773c-1.668-1.668-4.2695-1.668-5.9375 0s-1.668 4.2695 0 5.9375l14.793 14.688c0.83203 0.83203 1.875 1.25 2.918 1.25s2.082-0.41797 2.918-1.25l29.477-29.477c1.668-1.668 1.668-4.2695 0-5.9375-1.5625-1.5625-4.2695-1.5625-5.832 0z"/>
 </g>
</svg>
