<?xml version="1.0" encoding="UTF-8"?>
<svg version="1.1" viewBox="0 0 100 100" xmlns="http://www.w3.org/2000/svg" fill="#000000">
 <g>
  <path d="m50 90.625c10.773 0 21.109-4.2812 28.727-11.898 7.6172-7.6172 11.898-17.953 11.898-28.727s-4.2812-21.109-11.898-28.727c-7.6172-7.6172-17.953-11.898-28.727-11.898s-21.109 4.2812-28.727 11.898c-7.6172 7.6172-11.898 17.953-11.898 28.727 0.011719 10.77 4.2969 21.098 11.914 28.711 7.6133 7.6172 17.941 11.902 28.711 11.914zm0-75c9.1172 0 17.859 3.6211 24.309 10.066 6.4453 6.4492 10.066 15.191 10.066 24.309s-3.6211 17.859-10.066 24.309c-6.4492 6.4453-15.191 10.066-24.309 10.066s-17.859-3.6211-24.309-10.066c-6.4453-6.4492-10.066-15.191-10.066-24.309 0.011719-9.1133 3.6328-17.852 10.078-24.297s15.184-10.066 24.297-10.078z"/>
  <path d="m60.293 64.707c1.2305 1.1484 3.1484 1.1133 4.3398-0.074219 1.1875-1.1914 1.2227-3.1094 0.074219-4.3398l-11.582-11.586v-15.375c0-1.7227-1.3984-3.125-3.125-3.125s-3.125 1.4023-3.125 3.125v16.668c0 0.82812 0.32812 1.625 0.91797 2.207z"/>
 </g>
</svg>
