<svg xmlns="http://www.w3.org/2000/svg" viewBox="0 0 98.21 81.29"><defs><style>.cls-1{fill:#848484;}</style></defs><g id="Calque_2" data-name="Calque 2"><g id="Calque_1-2" data-name="Calque 1"><path class="cls-1" d="M48.57,0a3.27,3.27,0,0,0-1,.33L1.74,23.28a3.13,3.13,0,0,0,0,5.57L47.6,51.78a3.13,3.13,0,0,0,2.8,0L96.26,28.85a3.13,3.13,0,0,0,0-5.57L50.4.35A3.21,3.21,0,0,0,48.57,0ZM49,6.6,87.89,26.08,49,45.49,10.11,26.08ZM94.63,37.45a3.09,3.09,0,0,0-1.18.42L49,60.08,4.54,37.87A3.13,3.13,0,0,0,3,37.51a3.13,3.13,0,0,0-1.3,5.93L47.6,66.37a3.13,3.13,0,0,0,2.8,0L96.26,43.44a3.13,3.13,0,0,0-1.63-6Zm0,14.59a3.09,3.09,0,0,0-1.18.42L49,74.67,4.54,52.46A3.25,3.25,0,0,0,3,52.1,3.13,3.13,0,0,0,1.74,58L47.6,81a3.13,3.13,0,0,0,2.8,0L96.26,58a3.13,3.13,0,0,0-1.63-6Z"/></g></g></svg>