<svg xmlns="http://www.w3.org/2000/svg" viewBox="0 0 87.53 99.21"><defs><style>.cls-1{fill:#848484;}</style></defs><g id="Calque_2" data-name="Calque 2"><g id="Calque_1-2" data-name="Calque 1"><path class="cls-1" d="M43.76,36.29A13.31,13.31,0,1,0,57.07,49.6,13.3,13.3,0,0,0,43.76,36.29Zm0,24.2A10.89,10.89,0,1,1,54.65,49.6,10.89,10.89,0,0,1,43.76,60.49Z"/><path class="cls-1" d="M86.2,23.93c-2.88-4.77-10.09-6.44-20.29-4.67-1.85.33-3.77.75-5.74,1.28C56.55,8,50.61,0,43.76,0S31,8,27.36,20.57c-2-.54-3.9-1-5.75-1.29-.7-.12-1.38-.21-2-.31a6.05,6.05,0,1,0-12.1.39v.13a10.51,10.51,0,0,0-6.12,4.44c-2.89,4.78-1,11.94,5.27,20.14a69.67,69.67,0,0,0,4.76,5.53A67.9,67.9,0,0,0,6.6,55.13C.31,63.33-1.57,70.49,1.33,75.27c1.93,3.22,5.85,5,11.31,5.3a6,6,0,0,0,11.77-1.21c1-.21,2-.45,2.95-.71C31,91.17,36.92,99.21,43.76,99.21s12.79-8,16.41-20.56c2,.53,3.89.95,5.74,1.28a43.14,43.14,0,0,0,7.35.69c6.31,0,10.81-1.83,12.94-5.36,2.89-4.84,1-11.94-5.27-20.14-.39-.51-.8-1-1.21-1.52a6,6,0,0,0,0-8c.41-.49.82-1,1.21-1.51C87.22,35.87,89.09,28.71,86.2,23.93ZM66.33,21.64A40.79,40.79,0,0,1,73.22,21c5.41,0,9.26,1.44,10.89,4.19C86.42,29,84.54,35.35,79,42.6c-.39.5-.8,1-1.21,1.52a6.24,6.24,0,0,0-2.55-.57A6,6,0,0,0,71.35,45a100.29,100.29,0,0,0-7.92-6.4,99.66,99.66,0,0,0-2.58-15.64A51,51,0,0,1,66.33,21.64Zm12.52,28A3.63,3.63,0,1,1,75.22,46,3.64,3.64,0,0,1,78.85,49.6ZM52.92,64.75c-3,1.84-6.05,3.49-9.16,5-3-1.51-6.12-3.16-9.15-5-2.85-1.72-5.56-3.52-8.15-5.37-.26-3.17-.39-6.44-.39-9.78s.13-6.61.39-9.77c2.59-1.86,5.3-3.63,8.15-5.38,3-1.83,6-3.49,9.15-5,3.05,1.51,6.13,3.17,9.16,5q4.26,2.58,8.14,5.38c.27,3.16.4,6.43.4,9.77s-.13,6.61-.4,9.78C58.47,61.23,55.76,63,52.92,64.75Zm7.78-2.19a96.68,96.68,0,0,1-2.32,13.07,91.37,91.37,0,0,1-11.89-4.56q3.81-1.95,7.64-4.25h0C56.44,65.45,58.63,64,60.7,62.56ZM41,71a95.07,95.07,0,0,1-11.9,4.56,95.85,95.85,0,0,1-2.22-13c2.11,1.46,4.3,2.89,6.57,4.26h0c2.5,1.53,5,3,7.59,4.25ZM23.89,57.45a93.86,93.86,0,0,1-9.16-7.85,94.46,94.46,0,0,1,9.11-7.85c-.16,2.55-.24,5.16-.24,7.85S23.69,54.9,23.89,57.45Zm2.94-20.81a96.68,96.68,0,0,1,2.32-13.07A93.41,93.41,0,0,1,41,28.13q-3.82,1.95-7.64,4.26C31.09,33.75,28.9,35.18,26.83,36.64Zm19.75-8.46a94,94,0,0,1,11.89-4.57,95.88,95.88,0,0,1,2.23,13c-2.12-1.46-4.31-2.89-6.57-4.25-2.51-1.55-5-3-7.6-4.26ZM63.64,41.75q3.27,2.49,6.16,5.08a5.79,5.79,0,0,0,0,5.54c-1.92,1.73-4,3.43-6.16,5.08.15-2.55.23-5.16.24-7.85S63.81,44.3,63.64,41.75ZM43.76,2.42c5.64,0,10.76,7.46,14,18.8a98.62,98.62,0,0,0-14,5.53,97.69,97.69,0,0,0-14-5.53C33,9.88,38.13,2.42,43.76,2.42ZM9.89,19.36A3.63,3.63,0,1,1,13.52,23,3.63,3.63,0,0,1,9.89,19.36ZM8.56,42.6C3,35.34,1.12,29,3.43,25.19A8.06,8.06,0,0,1,8,21.87a6,6,0,0,0,11.25-.52l2,.29c1.78.32,3.63.75,5.51,1.21a99.86,99.86,0,0,0-2.58,15.64,102.57,102.57,0,0,0-11.05,9.34,67.19,67.19,0,0,1-4.6-5.23Zm13.5,36A3.63,3.63,0,1,1,18.43,75,3.62,3.62,0,0,1,22.06,78.63ZM24.2,76.9a6,6,0,0,0-11.83,1.21c-4.39-.3-7.52-1.7-9-4.11C1.08,70.19,3,63.84,8.52,56.59a67.42,67.42,0,0,1,4.56-5.28,102.57,102.57,0,0,0,11,9.34,99.88,99.88,0,0,0,2.59,15.64c-.85.24-1.7.46-2.52.65ZM43.76,96.78c-5.63,0-10.75-7.46-14-18.8a97.69,97.69,0,0,0,14-5.53,98.62,98.62,0,0,0,14,5.53C54.52,89.32,49.4,96.78,43.76,96.78ZM84.13,74c-2.29,3.81-8.79,5.11-17.8,3.55-1.78-.32-3.63-.75-5.52-1.21A101.06,101.06,0,0,0,63.4,60.71c2.82-2.07,5.48-4.21,7.91-6.4a6.18,6.18,0,0,0,6.52.73c.41.51.82,1,1.21,1.53C84.57,63.85,86.44,70.17,84.13,74Z"/></g></g></svg>