<svg xmlns="http://www.w3.org/2000/svg" viewBox="0 0 98.82 98.82"><defs><style>.cls-1{fill:#848484;}</style></defs><g id="Calque_2" data-name="Calque 2"><g id="Calque_1-2" data-name="Calque 1"><path class="cls-1" d="M53.21,19.54V3.8a3.8,3.8,0,0,0-7.6,0V19.54a15.13,15.13,0,0,0,0,29.33V95a3.8,3.8,0,0,0,7.6,0V48.87a15.13,15.13,0,0,0,0-29.33Zm-3.8,22.27a7.6,7.6,0,1,1,7.6-7.6A7.61,7.61,0,0,1,49.41,41.81Z"/><path class="cls-1" d="M98.82,64.61a15.18,15.18,0,0,0-11.5-14.69,4.18,4.18,0,0,0,.1-.51V3.8a3.8,3.8,0,1,0-7.6,0V49.41a4.18,4.18,0,0,0,.1.51,15.14,15.14,0,0,0-.1,29.36V95a3.8,3.8,0,1,0,7.6,0V79.28A15.19,15.19,0,0,0,98.82,64.61Zm-15.2,7.61a7.61,7.61,0,1,1,7.6-7.61A7.61,7.61,0,0,1,83.62,72.22Z"/><path class="cls-1" d="M18.9,49.92a4.18,4.18,0,0,0,.1-.51V3.8a3.8,3.8,0,0,0-7.6,0V49.41a2.89,2.89,0,0,0,.11.51,15.13,15.13,0,0,0-.11,29.36V95A3.8,3.8,0,0,0,19,95V79.28a15.13,15.13,0,0,0-.1-29.36Zm-3.7,22.3a7.61,7.61,0,1,1,7.61-7.61A7.61,7.61,0,0,1,15.2,72.22Z"/></g></g></svg>