<svg xmlns="http://www.w3.org/2000/svg" viewBox="0 0 99.38 99.38"><defs><style>.cls-1{fill:none;stroke:#848484;stroke-miterlimit:20;stroke-width:4px;}</style></defs><g id="Calque_2" data-name="Calque 2"><g id="Calque_1-2" data-name="Calque 1"><path class="cls-1" d="M97.38,55.5A11.43,11.43,0,0,0,87,44.3a13.44,13.44,0,0,0,1.25-7c-.42-7.88-7.26-14.1-15.14-14.31A15.24,15.24,0,0,0,58,34.76a11.17,11.17,0,0,0-9.74-3.94,11.06,11.06,0,0,0-9.33,7.26,10.43,10.43,0,0,0-.21,6.63,11.45,11.45,0,0,0-7.46,10.58c0,6.43,5,10.78,11.61,10.78h.21C44.3,69,48,70,49.9,70c3.52,0,5.39-.62,8.91-3.94A9.89,9.89,0,0,0,67.11,70a11.33,11.33,0,0,0,8.71-3.73C89.71,72.91,97.38,61.92,97.38,55.5Z"/><ellipse class="cls-1" cx="28.96" cy="13.61" rx="26.96" ry="11.61"/><path class="cls-1" d="M38.08,41.19a65.86,65.86,0,0,1-9.12.62C14,41.81,2,36.63,2,30.2"/><path class="cls-1" d="M31.24,58.19H29C14,58.19,2,53,2,46.58"/><path class="cls-1" d="M50.11,70.22c-5,2.49-12.86,4.35-21.15,4.35C14,74.57,2,69.39,2,63"/><line class="cls-1" x1="55.91" y1="33.1" x2="55.91" y2="13.61"/><line class="cls-1" x1="2" y1="62.96" x2="2" y2="13.61"/><line class="cls-1" x1="28.96" y1="74.57" x2="28.96" y2="84.94"/><circle class="cls-1" cx="28.96" cy="91.16" r="6.22"/><line class="cls-1" x1="35.18" y1="91.16" x2="53.84" y2="91.16"/><line class="cls-1" x1="4.07" y1="91.16" x2="22.73" y2="91.16"/></g></g></svg>