<?xml version="1.0" encoding="UTF-8"?><svg id="Calque_1" xmlns="http://www.w3.org/2000/svg" viewBox="0 0 75 75"><defs><style>.cls-1{fill:#858585;}</style></defs><g id="Calque_2-2"><g id="Calque_1-2"><path class="cls-1" d="M72.15,40.71c0-.07,0-.14,0-.2,0-.31,0-.62,0-.93,0-.31,0-.62,0-.93,0,.06,0-.38,0-.38,0,0,0,0,0,0,0-.27,0-.54,0-.8,0-.09,0-.18,0-.27,0-.04,0-.08,0-.11,0,0,0,0,0,0,0-.06,0-.12,0-.18,0-.31,0-.62,0-.93,0,.06,0-.38,0-.38h0c0-.59,0-1.23,0-1.42h-.01v-9.97c0-1.83-1.41-3.32-3.15-3.32v-6.63c0-1.83-1.41-3.32-3.15-3.33h-24.46l-1.42-1.99c-.59-.83-1.51-1.32-2.49-1.33H5.95c-1.74,0-3.15,1.49-3.15,3.32v53.15c0,1.83,1.41,3.32,3.15,3.32H15.41s.32,0,.36,0c.29,0,.59,0,.88,0,.29,0,.59,0,.88,0,.08,0,.16,0,.24,0,0,0,0,0,0-.01,0-.02,1.66-.02,2.27,0,.62,0,2.25,0,2.25,0,0,0,0,0,0,0h46.72c1.74,0,3.15-1.49,3.15-3.32v-23.18s0,0,0,0c0-.06,0-.12,0-.18Zm-9.42-23.14v3.32h-14.19l-2.36-3.32h16.56Zm3.16,43.15H9.11V14.25h26.81l8.52,11.96c0,.05,.11,.07,.15,.12,.21,.25,.45,.47,.72,.64,.1,.09,.2,.17,.32,.24,.42,.21,.87,.32,1.34,.33h18.93V60.72Z"/></g></g><path class="cls-1" d="M45.06,38.3h-12.1v-5.01c0-2.51,2.04-4.55,4.54-4.55s4.54,2.04,4.54,4.55v.23h3.03v-.23c0-4.27-3.39-7.74-7.57-7.74s-7.57,3.47-7.57,7.74v5.01c-1.67,0-3.03,1.43-3.03,3.19v12.74c0,1.76,1.35,3.19,3.03,3.19h15.13c1.67,0,3.03-1.43,3.03-3.19v-12.74c0-1.76-1.35-3.19-3.03-3.19Zm-7.57,12.74c-1.67,0-3.03-1.43-3.03-3.19s1.35-3.19,3.03-3.19,3.03,1.43,3.03,3.19-1.35,3.19-3.03,3.19Z"/></svg>