<svg xmlns="http://www.w3.org/2000/svg" viewBox="0 0 98.87 83.66"><defs><style>.cls-1{fill:#848484;}</style></defs><g id="Calque_2" data-name="Calque 2"><g id="Calque_1-2" data-name="Calque 1"><path class="cls-1" d="M95.07,30.42H83.66V19a3.8,3.8,0,0,0-3.8-3.8V7.61a3.81,3.81,0,0,0-3.8-3.81H46.58L44.87,1.52a3.79,3.79,0,0,0-3-1.52H3.8A3.8,3.8,0,0,0,0,3.8V64.65a3.8,3.8,0,0,0,3.8,3.8H15.21V79.86a3.8,3.8,0,0,0,3.8,3.8H95.07a3.8,3.8,0,0,0,3.8-3.8V34.23A3.8,3.8,0,0,0,95.07,30.42Zm-22.82-19v3.8H55.14l-2.85-3.8ZM7.61,7.61H39.93L50.2,21.3c0,.06.13.08.18.14a3.59,3.59,0,0,0,.87.73,2.6,2.6,0,0,0,.38.27,3.88,3.88,0,0,0,1.61.38H76.06v38H7.61ZM91.27,76.06H22.82V68.45h57a3.8,3.8,0,0,0,3.8-3.8V38h7.61Z"/></g></g></svg>