<svg xmlns="http://www.w3.org/2000/svg" viewBox="0 0 99.23 99.23"><defs><style>.cls-1{fill:#848484;}</style></defs><g id="Calque_2" data-name="Calque 2"><g id="Calque_1-2" data-name="Calque 1"><path class="cls-1" d="M49.62,99.23a49.38,49.38,0,0,1-6.2-.39,5.52,5.52,0,0,1-4.83-5.47v-6a1.06,1.06,0,0,0-.77-1A38.2,38.2,0,0,1,32,83.94a1.08,1.08,0,0,0-1.29.21l-4.21,4.21A5.49,5.49,0,0,1,22.57,90a5.59,5.59,0,0,1-3.39-1.17,50.43,50.43,0,0,1-8.76-8.76,5.54,5.54,0,0,1,.46-7.29l4.21-4.21a1.06,1.06,0,0,0,.2-1.28,38.86,38.86,0,0,1-2.42-5.86,1.07,1.07,0,0,0-1.06-.77H5.86A5.52,5.52,0,0,1,.39,55.81a49.4,49.4,0,0,1,0-12.39,5.52,5.52,0,0,1,5.47-4.83h6a1.06,1.06,0,0,0,1-.77A38.37,38.37,0,0,1,15.29,32a1.07,1.07,0,0,0-.21-1.29l-4.2-4.21a5.53,5.53,0,0,1-.46-7.29,50.43,50.43,0,0,1,8.76-8.76,5.56,5.56,0,0,1,3.39-1.16,5.47,5.47,0,0,1,3.9,1.62l4.21,4.21a1.06,1.06,0,0,0,1.28.2,38.9,38.9,0,0,1,5.86-2.43,1.06,1.06,0,0,0,.77-1V5.86A5.53,5.53,0,0,1,43.42.38a50.36,50.36,0,0,1,12.39,0,5.53,5.53,0,0,1,4.83,5.48v6a1.06,1.06,0,0,0,.77,1,37.89,37.89,0,0,1,5.86,2.43,1.07,1.07,0,0,0,1.28-.21l4.21-4.21a5.51,5.51,0,0,1,3.9-1.62,5.57,5.57,0,0,1,3.39,1.17,49.75,49.75,0,0,1,8.76,8.76,5.53,5.53,0,0,1-.46,7.29l-4.2,4.21A1.05,1.05,0,0,0,83.94,32a38.48,38.48,0,0,1,2.43,5.86,1.06,1.06,0,0,0,1,.77h6a5.53,5.53,0,0,1,5.48,4.83,50.36,50.36,0,0,1,0,12.39,5.53,5.53,0,0,1-5.48,4.83h-6a1.06,1.06,0,0,0-1,.77A39.18,39.18,0,0,1,84,67.26a1.06,1.06,0,0,0,.2,1.29l4.21,4.21a5.54,5.54,0,0,1,.45,7.29,50.09,50.09,0,0,1-8.76,8.76A5.56,5.56,0,0,1,76.66,90a5.47,5.47,0,0,1-3.9-1.62l-4.2-4.2a1.07,1.07,0,0,0-1.29-.21,38.9,38.9,0,0,1-5.86,2.43,1.05,1.05,0,0,0-.77,1v6a5.51,5.51,0,0,1-4.83,5.47A49.23,49.23,0,0,1,49.62,99.23ZM31.45,79.4A5.63,5.63,0,0,1,34,80a34,34,0,0,0,5.19,2.15A5.49,5.49,0,0,1,43,87.42v6a1.1,1.1,0,0,0,1,1.1,45.38,45.38,0,0,0,11.29,0,1.09,1.09,0,0,0,1-1.1v-6a5.49,5.49,0,0,1,3.84-5.25A33.88,33.88,0,0,0,65.25,80a5.56,5.56,0,0,1,6.42,1l4.21,4.21a1.1,1.1,0,0,0,.78.32,1.12,1.12,0,0,0,.68-.23,45.77,45.77,0,0,0,8-8,1.1,1.1,0,0,0-.09-1.46L81,71.67a5.5,5.5,0,0,1-1-6.42,34.3,34.3,0,0,0,2.15-5.18,5.49,5.49,0,0,1,5.25-3.84h6a1.1,1.1,0,0,0,1.1-1,45.38,45.38,0,0,0,0-11.29,1.1,1.1,0,0,0-1.1-1h-6a5.49,5.49,0,0,1-5.25-3.83A33.17,33.17,0,0,0,80,34a5.5,5.5,0,0,1,1-6.42l4.21-4.21a1.1,1.1,0,0,0,.09-1.46,45.77,45.77,0,0,0-8-8,1.12,1.12,0,0,0-.68-.23,1.1,1.1,0,0,0-.78.32L71.67,18.2a5.56,5.56,0,0,1-6.42,1,33.47,33.47,0,0,0-5.18-2.15,5.49,5.49,0,0,1-3.84-5.25V5.86a1.09,1.09,0,0,0-1-1.1A45.86,45.86,0,0,0,44,4.76a1.1,1.1,0,0,0-1,1.1v6a5.49,5.49,0,0,1-3.83,5.25A34.59,34.59,0,0,0,34,19.21a5.57,5.57,0,0,1-6.42-1L23.35,14a1.1,1.1,0,0,0-.78-.32,1.12,1.12,0,0,0-.68.23,45.77,45.77,0,0,0-8,8A1.1,1.1,0,0,0,14,23.35l4.21,4.21a5.5,5.5,0,0,1,1,6.42,33.88,33.88,0,0,0-2.15,5.18A5.49,5.49,0,0,1,11.81,43H5.86a1.1,1.1,0,0,0-1.1,1,45.38,45.38,0,0,0,0,11.29,1.1,1.1,0,0,0,1.1,1h6a5.51,5.51,0,0,1,5.26,3.83,34.12,34.12,0,0,0,2.14,5.19,5.5,5.5,0,0,1-1,6.42L14,75.88a1.1,1.1,0,0,0-.1,1.46,45.77,45.77,0,0,0,8,8,1.12,1.12,0,0,0,.68.23,1.07,1.07,0,0,0,.78-.33L27.56,81A5.47,5.47,0,0,1,31.45,79.4Zm18.17-11a18.74,18.74,0,1,1,13.25-5.49A18.63,18.63,0,0,1,49.62,68.36Zm0-33.08a14.34,14.34,0,1,0,10.13,4.2A14.24,14.24,0,0,0,49.62,35.28Z"/></g></g></svg>