<svg xmlns="http://www.w3.org/2000/svg" viewBox="0 0 99.11 84.38"><defs><style>.cls-1{fill:#848484;}</style></defs><g id="Calque_2" data-name="Calque 2"><g id="Calque_1-2" data-name="Calque 1"><path class="cls-1" d="M24.21,42.69c8,0,13,7.74,13,15A19.45,19.45,0,0,1,35,66.15c8,1.5,13,9.24,13.73,17.23a1.08,1.08,0,0,1-1,1h-2a.66.66,0,0,1-.75-.75c-.74-7-5.49-14-13-14a11.86,11.86,0,0,1-7.74,3,11.2,11.2,0,0,1-7.48-3c-7.74,0-12.49,7-13,14a.79.79,0,0,1-.74.75H1a1.08,1.08,0,0,1-1-1c.5-8,5.74-15.73,13.73-17.23a16.55,16.55,0,0,1-2.25-8.48C11.48,50.43,16.48,42.69,24.21,42.69Zm0,3.74c-5.49,0-9,6-9,11.24s3.49,11.23,9,11.23c5.75,0,9.24-6,9.24-11.23S30,46.43,24.21,46.43Z"/><path class="cls-1" d="M74.64,42.69c8,0,12.73,7.74,12.73,15a16.64,16.64,0,0,1-2.24,8.48c8.23,1.5,13.23,9.24,14,17.23a1.08,1.08,0,0,1-1,1h-2c-.5,0-.75-.25-1-.75-.5-7-5.24-14-12.73-14a12.42,12.42,0,0,1-7.74,3,11.25,11.25,0,0,1-7.49-3c-7.74,0-12.48,7-13,14,0,.5-.5.75-1,.75h-2c-.5,0-.75-.5-.75-1,.5-8,5.49-15.73,13.73-17.23a16.55,16.55,0,0,1-2.25-8.48C61.91,50.43,66.9,42.69,74.64,42.69Zm0,3.74c-5.74,0-9,6-9,11.24s3.25,11.23,9,11.23,9-6,9-11.23S80.38,46.43,74.64,46.43Z"/><path class="cls-1" d="M49.43,0c8,0,13,7.74,13,15a16.85,16.85,0,0,1-2.5,8.49c8.24,1.49,13.23,9.23,14,17.22a1.08,1.08,0,0,1-1,1h-2c-.5,0-.75-.5-.75-1-.75-7-5.49-13.73-13-13.73a11.72,11.72,0,0,1-7.74,2.75A11,11,0,0,1,41.94,27C34.2,27,29.46,33.7,29,40.69a1.08,1.08,0,0,1-1,1H26c-.5,0-.75-.5-.75-1,.5-8,5.75-15.73,13.73-17.22A16.71,16.71,0,0,1,36.7,15C36.7,7.74,41.69,0,49.43,0Zm0,3.74c-5.74,0-9,6-9,11.24,0,5,3.25,11,9,11s9-6,9-11C58.42,9.74,55.17,3.74,49.43,3.74Z"/></g></g></svg>