<svg xmlns="http://www.w3.org/2000/svg" viewBox="0 0 99.21 99.2"><defs><style>.cls-1{fill:#848484;}</style></defs><g id="Calque_2" data-name="Calque 2"><g id="Calque_1-2" data-name="Calque 1"><path class="cls-1" d="M46.13,67.37,50.8,72a5.29,5.29,0,0,0,3.92,1.62h5.52v4.66a6.32,6.32,0,0,0,6.33,6.33h4.66v5.51A5.57,5.57,0,0,0,72.83,94l3.66,3.66a5.1,5.1,0,0,0,3.65,1.5H94.68a4.53,4.53,0,0,0,4.53-4.53h0V80.13a5.11,5.11,0,0,0-1.52-3.67L67.37,46.13A34.66,34.66,0,1,0,46.13,67.37ZM14.64,14.62A28.33,28.33,0,0,1,60.77,45.69a3.15,3.15,0,0,0,.67,3.47L92.87,80.6V92.87H80.6l-3.09-3.09V82.32a4.07,4.07,0,0,0-4.07-4.07H66.57V71.4a4.07,4.07,0,0,0-4.07-4.07H55.05l-5.89-5.89a3.15,3.15,0,0,0-3.47-.67A28.33,28.33,0,0,1,14.63,14.64ZM27.89,39.51A11.61,11.61,0,1,0,16.29,27.9,11.61,11.61,0,0,0,27.89,39.51Zm0-16.8A5.28,5.28,0,1,1,22.62,28a5.28,5.28,0,0,1,5.27-5.28h0Z"/></g></g></svg>