<svg xmlns="http://www.w3.org/2000/svg" viewBox="0 0 98.8 98.81"><defs><style>.cls-1{fill:#848484;}</style></defs><g id="Calque_2" data-name="Calque 2"><g id="Calque_1-2" data-name="Calque 1"><path class="cls-1" d="M32.42,53.78V65.62a1.55,1.55,0,1,0,3.09,0V53.78c0-5.77-5-10.85-10.9-11.27a9.26,9.26,0,1,0-13.71,0C5,42.93,0,48,0,53.78V65.62a1.55,1.55,0,1,0,3.09,0V53.78c0-4.3,4.09-8.22,8.59-8.22H23.83C28.32,45.56,32.42,49.48,32.42,53.78ZM17.75,30.12a6.18,6.18,0,1,1-6.17,6.17A6.18,6.18,0,0,1,17.75,30.12Z"/><path class="cls-1" d="M24.7,62.54v3.08a1.55,1.55,0,1,0,3.09,0V62.54a1.55,1.55,0,1,0-3.09,0Z"/><path class="cls-1" d="M10.81,65.62V62.54a1.55,1.55,0,1,0-3.09,0v3.08a1.55,1.55,0,1,0,3.09,0Z"/><path class="cls-1" d="M87.9,42.51a9.26,9.26,0,1,0-13.71,0c-5.89.42-10.9,5.5-10.9,11.27V65.62a1.55,1.55,0,1,0,3.09,0V53.78c0-4.3,4.1-8.22,8.59-8.22H87.12c4.5,0,8.59,3.92,8.59,8.22V65.62a1.55,1.55,0,1,0,3.09,0V53.78C98.8,48,93.79,42.93,87.9,42.51ZM81.05,30.12a6.18,6.18,0,1,1-6.18,6.17A6.17,6.17,0,0,1,81.05,30.12Z"/><path class="cls-1" d="M91.08,65.62V62.54a1.55,1.55,0,1,0-3.09,0v3.08a1.55,1.55,0,1,0,3.09,0Z"/><path class="cls-1" d="M74.1,65.62V62.54a1.55,1.55,0,1,0-3.09,0v3.08a1.55,1.55,0,1,0,3.09,0Z"/><path class="cls-1" d="M33.19,40.15a1.54,1.54,0,0,0,1.54-1.54V26.77c0-4.31,4.1-8.23,8.6-8.23H55.47c4.5,0,8.6,3.92,8.6,8.23V38.61a1.54,1.54,0,1,0,3.08,0V26.77c0-5.78-5-10.86-10.9-11.28a9.26,9.26,0,1,0-13.7,0c-5.89.42-10.9,5.5-10.9,11.28V38.61A1.54,1.54,0,0,0,33.19,40.15ZM49.4,3.1a6.18,6.18,0,1,1-6.18,6.18A6.18,6.18,0,0,1,49.4,3.1Z"/><path class="cls-1" d="M56.35,35.52v3.09a1.54,1.54,0,0,0,3.08,0V35.52a1.54,1.54,0,1,0-3.08,0Z"/><path class="cls-1" d="M39.37,35.52v3.09a1.54,1.54,0,0,0,3.08,0V35.52a1.54,1.54,0,0,0-3.08,0Z"/><circle class="cls-1" cx="60.98" cy="90.32" r="1.54"/><circle class="cls-1" cx="67.15" cy="90.32" r="1.54"/><path class="cls-1" d="M70.24,81.83H28.56a4.64,4.64,0,0,0-4.63,4.63v7.72a4.63,4.63,0,0,0,4.63,4.63H70.24a4.63,4.63,0,0,0,4.63-4.63V86.46A4.64,4.64,0,0,0,70.24,81.83Zm1.54,12.35a1.54,1.54,0,0,1-1.54,1.55H28.56A1.54,1.54,0,0,1,27,94.18V86.46a1.54,1.54,0,0,1,1.54-1.54H70.24a1.54,1.54,0,0,1,1.54,1.54Z"/><path class="cls-1" d="M19.3,89.55H10V78.92a1.54,1.54,0,0,0,2.1-2.13L9.81,72.93A1.54,1.54,0,0,0,7.7,72.4a1.68,1.68,0,0,0-.53.53L4.85,76.79a1.54,1.54,0,0,0,.52,2.12,1.57,1.57,0,0,0,1.58,0v11.4a2.31,2.31,0,0,0,2.31,2.32h10a1.55,1.55,0,0,0,0-3.09Z"/><path class="cls-1" d="M91.63,72.93a1.55,1.55,0,0,0-2.12-.53,1.75,1.75,0,0,0-.52.53l-2.32,3.86a1.54,1.54,0,0,0,2.09,2.13V89.55H79.5a1.55,1.55,0,0,0,0,3.09h10a2.31,2.31,0,0,0,2.31-2.32V78.92A1.54,1.54,0,0,0,94,76.79Z"/><path class="cls-1" d="M49.4,78.75a1.55,1.55,0,0,0,1.54-1.55V58.47a1.55,1.55,0,0,0,2.16-2l-2.32-4.63a1.54,1.54,0,0,0-2.76,0L45.7,56.44a1.55,1.55,0,0,0,2.16,2V77.2A1.55,1.55,0,0,0,49.4,78.75Z"/></g></g></svg>