<svg xmlns="http://www.w3.org/2000/svg" viewBox="0 0 77.96 99.22"><defs><style>.cls-1{fill:#848484;}</style></defs><g id="Calque_2" data-name="Calque 2"><g id="Calque_1-2" data-name="Calque 1"><path class="cls-1" d="M39,0A24.83,24.83,0,0,0,14.17,24.8V39H0V99.22H78V39H63.78V24.8A24.82,24.82,0,0,0,39,0Zm0,7.09A17.6,17.6,0,0,1,56.69,24.8V39H21.26V24.8A17.6,17.6,0,0,1,39,7.09Zm-31.89,39H70.87V92.13H7.09ZM39,53.15a10.6,10.6,0,0,0-3.55,20.6V85h7.09V73.75A10.6,10.6,0,0,0,39,53.15Zm0,7.09a3.55,3.55,0,1,1-3.55,3.54A3.48,3.48,0,0,1,39,60.24Z"/></g></g></svg>