<svg xmlns="http://www.w3.org/2000/svg" viewBox="0 0 99.22 96.95"><defs><style>.cls-1{fill:#848484;}</style></defs><g id="Calque_2" data-name="Calque 2"><g id="Calque_1-2" data-name="Calque 1"><path class="cls-1" d="M13.32,97A13.32,13.32,0,1,0,0,83.63H0A13.34,13.34,0,0,0,13.32,97Zm0-23.35a10,10,0,1,1-10,10h0a10,10,0,0,1,10-10Z"/><path class="cls-1" d="M62.93,83.63A13.32,13.32,0,1,0,49.61,97,13.32,13.32,0,0,0,62.93,83.63Zm-13.32,10a10,10,0,1,1,10-10h0A10,10,0,0,1,49.61,93.66Z"/><path class="cls-1" d="M99.22,83.63A13.32,13.32,0,1,0,85.9,97,13.32,13.32,0,0,0,99.22,83.63Zm-13.32,10a10,10,0,1,1,10-10h0A10.05,10.05,0,0,1,85.9,93.66Z"/><path class="cls-1" d="M87.27,53V63.13a1.65,1.65,0,1,0,3.29,0V53a9.19,9.19,0,0,0-9.17-9.17H51.26V29.66a1.65,1.65,0,0,0-3.3,0V43.84H17.83A9.18,9.18,0,0,0,8.66,53V63.13a1.65,1.65,0,1,0,3.29,0V53a5.87,5.87,0,0,1,5.88-5.87H48v16a1.65,1.65,0,0,0,3.3,0v-16H81.39A5.89,5.89,0,0,1,87.27,53Z"/><path class="cls-1" d="M32.49,0a4.11,4.11,0,0,0-4.11,4.12V19.41a4.12,4.12,0,0,0,4.11,4.12H66.73a4.12,4.12,0,0,0,4.11-4.12V4.12A4.11,4.11,0,0,0,66.73,0ZM67.55,4.12V19.41a.83.83,0,0,1-.82.83H32.49a.83.83,0,0,1-.82-.83V4.12a.83.83,0,0,1,.82-.83H66.73A.83.83,0,0,1,67.55,4.12Z"/></g></g></svg>