<svg xmlns="http://www.w3.org/2000/svg" viewBox="0 0 88.83 97.71"><defs><style>.cls-1{fill:#848484;}</style></defs><g id="Calque_2" data-name="Calque 2"><g id="Calque_1-2" data-name="Calque 1"><path class="cls-1" d="M88.57,15.12C86.51,7.5,71.2,0,44.42,0S2.31,7.5.26,15.12A1.74,1.74,0,0,0,0,16V81.72a1.74,1.74,0,0,0,.21.81c2.1,8.69,20.87,15.18,44.21,15.18s42-6.46,44.19-15.13a1.74,1.74,0,0,0,.22-.86V16A1.74,1.74,0,0,0,88.57,15.12ZM85.14,60.38a4,4,0,0,1-.21.64c-.07.18-.16.35-.25.53s-.26.44-.41.66-.25.33-.39.49-.41.46-.65.69a6.2,6.2,0,0,1-.46.42c-.29.26-.59.51-.93.76l-.46.32c-.4.28-.82.55-1.28.82-.12.08-.25.15-.38.22-.53.3-1.08.59-1.68.88l-.23.11c-.67.31-1.36.62-2.11.92l-.06,0a68.61,68.61,0,0,1-15.21,3.86h-.09c-1.17.17-2.37.33-3.6.46l-.62.06c-1.07.11-2.16.21-3.28.3l-1.57.08c-.84.05-1.67.11-2.54.14-1.41,0-2.85.07-4.31.07s-2.91,0-4.33-.08c-.86,0-1.69-.08-2.53-.13-.52,0-1.06,0-1.57-.09-1.12-.08-2.21-.18-3.28-.3l-.62,0c-1.23-.14-2.43-.29-3.6-.46l-.09,0a68.65,68.65,0,0,1-15.21-3.85l-.06,0c-.75-.29-1.45-.6-2.11-.92l-.23-.11c-.6-.28-1.15-.58-1.68-.88l-.38-.21c-.46-.27-.88-.55-1.28-.82L7,64.57c-.34-.25-.64-.51-.93-.76s-.32-.28-.46-.42a8.43,8.43,0,0,1-.65-.7,6,6,0,0,1-.39-.49c-.15-.22-.29-.44-.41-.65S4,61.19,3.9,61a4.09,4.09,0,0,1-.21-.65,4.19,4.19,0,0,1-.14-.85,4.07,4.07,0,0,1,.06-.6,1.75,1.75,0,0,0-.06-.79V44.94l.17.13c.38.34.78.68,1.22,1,6.7,5.06,20.08,9,39.48,9s32.66-3.91,39.38-8.94a18.36,18.36,0,0,0,1.48-1.2h0V58.13a1.75,1.75,0,0,0-.06.79,3.05,3.05,0,0,1,.06.6A4.4,4.4,0,0,1,85.14,60.38Zm.14-36.76V36.81a1.75,1.75,0,0,0-.06.79,3.05,3.05,0,0,1,.06.6,4.4,4.4,0,0,1-.14.86,4,4,0,0,1-.21.64,5.12,5.12,0,0,1-.25.53c-.12.22-.26.44-.41.66s-.25.33-.39.49-.41.46-.65.7-.3.27-.46.41-.59.51-.93.76l-.46.32c-.4.28-.82.55-1.28.82-.12.08-.25.15-.38.22-.53.3-1.08.59-1.68.88l-.23.11c-.67.31-1.36.62-2.11.92l-.06,0A69.2,69.2,0,0,1,60.43,50.4h-.09c-1.17.18-2.37.33-3.6.46l-.62.06c-1.07.11-2.16.22-3.28.3l-1.57.08c-.84,0-1.67.11-2.54.14-1.41,0-2.85.07-4.31.07s-2.91,0-4.33-.08c-.86,0-1.69-.08-2.53-.13-.52,0-1.06-.05-1.57-.09-1.12-.08-2.21-.18-3.28-.3l-.62-.05c-1.23-.14-2.43-.29-3.6-.46H28.4a69.16,69.16,0,0,1-15.21-3.86l-.06,0c-.75-.3-1.45-.61-2.11-.93l-.23-.11c-.6-.28-1.15-.58-1.68-.88l-.38-.21c-.46-.27-.88-.55-1.28-.82L7,43.25c-.34-.25-.64-.51-.93-.76s-.32-.28-.46-.42a8.43,8.43,0,0,1-.65-.7,6,6,0,0,1-.39-.49c-.15-.22-.29-.44-.41-.65S4,39.87,3.9,39.7a4.09,4.09,0,0,1-.21-.65,4.19,4.19,0,0,1-.14-.85,4.07,4.07,0,0,1,.06-.6,1.75,1.75,0,0,0-.06-.79V23.62l.69.57.38.32c.54.42,1.11.84,1.73,1.24l.42.25c.52.32,1.07.64,1.65.95l.65.35c.65.33,1.33.65,2,1l.34.15c.83.36,1.72.69,2.64,1l.78.27c.73.24,1.49.48,2.27.71.29.08.56.17.85.24,1,.29,2.11.57,3.24.82l.48.1c1,.21,2,.41,3.08.6l1.09.19c1,.16,2.05.31,3.11.45l.81.11c1.32.16,2.69.3,4.1.41l1.06.08c1.12.08,2.27.15,3.45.2l1.29.06c1.53,0,3.09.09,4.71.09s3.17,0,4.7-.09l1.29-.06c1.18,0,2.33-.12,3.46-.2l1.05-.08c1.41-.11,2.78-.25,4.1-.41l.81-.11c1.07-.14,2.1-.29,3.11-.45L64,32.17c1.06-.19,2.09-.39,3.08-.6l.48-.1c1.13-.25,2.2-.53,3.24-.82l.85-.24c.78-.23,1.54-.47,2.27-.71l.78-.27c.92-.33,1.81-.66,2.64-1l.34-.15c.72-.31,1.4-.63,2.05-1l.65-.35c.58-.31,1.13-.63,1.66-.95.13-.09.28-.17.41-.25.62-.4,1.19-.82,1.73-1.24l.38-.32ZM44.42,3.55c24.08,0,40.86,7,40.86,13.33S68.5,30.2,44.42,30.2s-40.87-7-40.87-13.32S20.33,3.55,44.42,3.55ZM85.28,81.2a.84.84,0,0,0-.06.24c-1,6.14-17.64,12.72-40.8,12.72S4.62,87.58,3.61,81.44a1.05,1.05,0,0,0-.06-.24V66.26l.17.13c.38.34.78.68,1.22,1,6.7,5.06,20.08,9,39.48,9s32.66-3.9,39.38-8.93a18.36,18.36,0,0,0,1.48-1.2h0Z"/></g></g></svg>