<svg xmlns="http://www.w3.org/2000/svg" viewBox="0 0 86.69 99.21"><defs><style>.cls-1{fill:#848484;}</style></defs><g id="Calque_2" data-name="Calque 2"><g id="Calque_1-2" data-name="Calque 1"><path class="cls-1" d="M6.36,57.86A6.28,6.28,0,0,0,0,64.22V75.35a6.28,6.28,0,0,0,6.36,6.37h35v3.77a7.19,7.19,0,0,0-4.78,4.78h-33a2,2,0,1,0,0,4h33a6.87,6.87,0,0,0,6.76,5,7.28,7.28,0,0,0,6.76-5h33a2,2,0,1,0,0-4h-33a7.15,7.15,0,0,0-4.77-4.78V81.72h35a6.29,6.29,0,0,0,6.37-6.37V64.42a6.28,6.28,0,0,0-6.37-6.36H70.78V52.69h9.54a6.29,6.29,0,0,0,6.37-6.36V35.39A6.28,6.28,0,0,0,80.32,29H70.78V23.66h9.54a6.28,6.28,0,0,0,6.37-6.36V6.36A6.28,6.28,0,0,0,80.32,0h-74A6.28,6.28,0,0,0,0,6.36V17.3a6.28,6.28,0,0,0,6.36,6.36h9.55V29H6.36A6.28,6.28,0,0,0,0,35.39V46.33a6.28,6.28,0,0,0,6.36,6.36h9.55v5.37H6.36Zm40,34.39a3,3,0,1,1-3-3A2.93,2.93,0,0,1,46.33,92.25Zm36.38-28V75.35a2.29,2.29,0,0,1-2.39,2.39h-74A2.29,2.29,0,0,1,4,75.35V64.42A2.3,2.3,0,0,1,6.36,62h74A2.15,2.15,0,0,1,82.71,64.22ZM4,17.1V6.16A2.29,2.29,0,0,1,6.36,3.78h74a2.29,2.29,0,0,1,2.39,2.38V17.1a2.29,2.29,0,0,1-2.39,2.38h-74A2.19,2.19,0,0,1,4,17.1Zm15.9,6.56H66.8V29H19.88ZM4,46.33V35.39A2.3,2.3,0,0,1,6.36,33h74a2.3,2.3,0,0,1,2.39,2.39V46.33a2.29,2.29,0,0,1-2.39,2.38h-74A2.41,2.41,0,0,1,4,46.33Zm15.9,6.36H66.8v5.37H19.88Z"/><path class="cls-1" d="M14.32,10.34a1.92,1.92,0,0,0-2.79,0c-.2.2-.4.4-.4.6a1.21,1.21,0,0,0-.19.79,1.25,1.25,0,0,0,.19.8c0,.19.2.39.4.59a.2.2,0,0,0,.2.2c.2,0,.2.2.4.2s.2,0,.4.2h.39a1.82,1.82,0,0,0,1.4-.6c.19-.2.39-.4.39-.59s.2-.6.2-.8a1.16,1.16,0,0,0-.2-.79C14.71,10.74,14.51,10.54,14.32,10.34Z"/><path class="cls-1" d="M21.67,9.74c-.2,0-.4.2-.59.4s-.4.4-.4.6-.2.59-.2.79a1.78,1.78,0,0,0,.6,1.39c.19.2.39.4.59.4s.6.2.8.2a1.81,1.81,0,0,0,1.39-.6,1.78,1.78,0,0,0,.6-1.39,1.81,1.81,0,0,0-.6-1.39A2.75,2.75,0,0,0,21.67,9.74Z"/><path class="cls-1" d="M73.76,9.74H32a1.88,1.88,0,0,0-2,2,1.88,1.88,0,0,0,2,2H73.76a1.88,1.88,0,0,0,2-2A2,2,0,0,0,73.76,9.74Z"/><path class="cls-1" d="M14.32,39.37a2.78,2.78,0,0,0-1.79-.6c-.2,0-.2,0-.4.2-.2,0-.2.2-.4.2a.2.2,0,0,0-.2.2c-.2.2-.4.39-.4.59a1.25,1.25,0,0,0-.19.8,1.79,1.79,0,0,0,.59,1.39l.2.2c.2,0,.2.2.4.2s.2,0,.4.2h.39a2,2,0,0,0,2-2,1.2,1.2,0,0,0-.2-.8C14.71,39.76,14.51,39.57,14.32,39.37Z"/><path class="cls-1" d="M21.67,42.55a1.2,1.2,0,0,0,.8.2,2.05,2.05,0,0,0,2-2,1.2,1.2,0,0,0-.2-.8c-.2-.2-.2-.39-.4-.59a1.81,1.81,0,0,0-2.19-.4c-.2.2-.4.2-.59.4s-.4.39-.4.59-.2.6-.2.8a1.79,1.79,0,0,0,.6,1.39C21.27,42.35,21.47,42.55,21.67,42.55Z"/><path class="cls-1" d="M32,42.75H73.76a2,2,0,0,0,0-4H32a1.88,1.88,0,0,0-2,2A2,2,0,0,0,32,42.75Z"/><path class="cls-1" d="M14.71,69c0-.2-.2-.2-.2-.4l-.19-.19a2.78,2.78,0,0,0-1.79-.6c-.2,0-.2,0-.4.2-.2,0-.2.2-.4.2a.2.2,0,0,0-.2.2.19.19,0,0,1-.2.19c0,.2-.2.2-.2.4s-.19.2-.19.4v.4a1.22,1.22,0,0,0,.19.79c0,.2.2.4.4.6l.2.2c.2,0,.2.2.4.2s.2,0,.4.2h.39a1.82,1.82,0,0,0,1.4-.6c.19-.2.39-.4.39-.6s.2-.59.2-.79v-.4C14.91,69.19,14.91,69.19,14.71,69Z"/><path class="cls-1" d="M24.26,69c0-.2-.2-.2-.2-.4l-.2-.19a1.81,1.81,0,0,0-2.19-.4c-.2,0-.4.2-.59.4a.19.19,0,0,1-.2.19c0,.2-.2.2-.2.4s0,.2-.2.4v.79c0,.2,0,.2.2.4,0,.2.2.2.2.4a.2.2,0,0,0,.2.2c.19.2.39.4.59.4a1.2,1.2,0,0,0,.8.2,1.81,1.81,0,0,0,1.39-.6l.2-.2c0-.2.2-.2.2-.4s0-.2.2-.4v-.79C24.46,69.19,24.46,69.19,24.26,69Z"/><path class="cls-1" d="M32,67.8a2,2,0,0,0,0,4H73.76a2,2,0,0,0,0-4Z"/></g></g></svg>