<svg xmlns="http://www.w3.org/2000/svg" viewBox="0 0 85.7 98.69"><defs><style>.cls-1{fill:#848484;}</style></defs><g id="Calque_2" data-name="Calque 2"><g id="Calque_1-2" data-name="Calque 1"><path class="cls-1" d="M70.12,0A15.62,15.62,0,0,0,54.54,15.58a15.79,15.79,0,0,0,1.09,5.81L26,37.82a15.57,15.57,0,1,0,0,23L55.67,77.3a15.38,15.38,0,0,0-1.13,5.81,15.63,15.63,0,1,0,3.85-10.23L29.3,56.73A15.59,15.59,0,0,0,29.3,42L58.39,25.81A15.57,15.57,0,1,0,70.12,0Zm0,5.19A10.39,10.39,0,1,1,59.73,15.58,10.35,10.35,0,0,1,70.12,5.19ZM15.58,39A10.39,10.39,0,1,1,5.19,49.34,10.35,10.35,0,0,1,15.58,39ZM70.12,72.72A10.39,10.39,0,1,1,59.73,83.11,10.35,10.35,0,0,1,70.12,72.72Z"/></g></g></svg>