<svg xmlns="http://www.w3.org/2000/svg" viewBox="0 0 99.25 95.05"><defs><style>.cls-1{fill:gray;}</style></defs><g id="Calque_2" data-name="Calque 2"><g id="Calque_1-2" data-name="Calque 1"><path class="cls-1" d="M96.44,34H62.91L52.46,2A2.88,2.88,0,0,0,47,2L36.54,34H3A3,3,0,0,0,.57,35.15a3,3,0,0,0,.6,4.13l27.26,19.9L18,91a3.21,3.21,0,0,0,.35,2.68,2.93,2.93,0,0,0,4.08.7L49.72,74.6,77,94.5a3,3,0,0,0,1.7.55,2.92,2.92,0,0,0,2.53-1.5,2.87,2.87,0,0,0,0-2.43L70.82,59.23l27.26-19.9a3,3,0,0,0,.59-4.13A3,3,0,0,0,96.44,34ZM65.89,55.6a3,3,0,0,0-1,3.23l8.3,25.72L51.41,68.63a2.68,2.68,0,0,0-3.38,0L26.29,84.55,34.8,58.83a3,3,0,0,0-1-3.23L11.82,39.78H38.68a3,3,0,0,0,2.74-2l8.3-25.47L58,37.79a2.94,2.94,0,0,0,2.74,2H87.63Z"/></g></g></svg>