<svg xmlns="http://www.w3.org/2000/svg" viewBox="0 0 65.31 99.21"><defs><style>.cls-1{fill:#848484;}</style></defs><g id="Calque_2" data-name="Calque 2"><g id="Calque_1-2" data-name="Calque 1"><path class="cls-1" d="M32.74,5A11.58,11.58,0,1,0,44.31,16.54,11.5,11.5,0,0,0,32.74,5Zm0,21a9.59,9.59,0,1,1,9.59-9.59A9.49,9.49,0,0,1,32.74,26Zm0,5.79A11.58,11.58,0,1,0,44.31,43.32,11.49,11.49,0,0,0,32.74,31.75Zm0,21.16a9.59,9.59,0,1,1,9.59-9.59A9.6,9.6,0,0,1,32.74,52.91Zm0,5.79A11.58,11.58,0,1,0,44.31,70.28,11.5,11.5,0,0,0,32.74,58.7Zm0,21a9.59,9.59,0,1,1,9.59-9.59A9.6,9.6,0,0,1,32.74,79.7ZM65.31,11.41v-5a1.06,1.06,0,0,0-1-1H48.61A11.8,11.8,0,0,0,38.69,0H26.62A11.81,11.81,0,0,0,16.7,5.46H1a1.06,1.06,0,0,0-1,1v5A15.77,15.77,0,0,0,14.88,27.12v5.29H1a1.07,1.07,0,0,0-1,1v5A15.76,15.76,0,0,0,14.88,54.07v5.46H1a1.06,1.06,0,0,0-1,1v5A15.66,15.66,0,0,0,15.54,81.19,12,12,0,0,0,25.13,89V99.21H40.18V89a11.69,11.69,0,0,0,9.59-7.77A15.77,15.77,0,0,0,65.31,65.48v-5a1.06,1.06,0,0,0-1-1H50.43V54.24A15.77,15.77,0,0,0,65.31,38.53v-5a1.07,1.07,0,0,0-1-1H50.43V27.28A15.9,15.9,0,0,0,65.31,11.41ZM2.15,38.53v-4H14.88V52.09A13.7,13.7,0,0,1,2.15,38.53Zm0,27v-4H14.88V77.22A6.06,6.06,0,0,0,15.05,79,13.5,13.5,0,0,1,2.15,65.48ZM14.88,11.74V25.13A13.72,13.72,0,0,1,2.15,11.41v-4H15.71A12.32,12.32,0,0,0,14.88,11.74ZM38.2,97.23H27.28v-8.1H38.2ZM48.45,77.39a9.77,9.77,0,0,1-9.76,9.75H26.62a9.77,9.77,0,0,1-9.75-9.75V11.74A9.78,9.78,0,0,1,26.62,2H38.69a9.78,9.78,0,0,1,9.76,9.76ZM63.33,61.68v4a13.88,13.88,0,0,1-12.9,13.72,7.21,7.21,0,0,0,.17-1.82V61.84H63.33Zm0-27.12v4A13.73,13.73,0,0,1,50.6,52.25V34.56ZM49.77,7.44H63.33v4A13.72,13.72,0,0,1,50.6,25.13V11.74A12.32,12.32,0,0,0,49.77,7.44Z"/></g></g></svg>