<svg xmlns="http://www.w3.org/2000/svg" viewBox="0 0 97.58 98.47"><defs><style>.cls-1{fill:#848484;}</style></defs><g id="Calque_2" data-name="Calque 2"><g id="Calque_1-2" data-name="Calque 1"><path class="cls-1" d="M48.79,47.9A24,24,0,1,0,24.84,24,23.84,23.84,0,0,0,48.79,47.9Zm0-39A15,15,0,0,1,63.87,24a15.08,15.08,0,1,1-30.16,0A15,15,0,0,1,48.79,8.87Z"/><path class="cls-1" d="M58.55,55H39A39.09,39.09,0,0,0,0,94a4.19,4.19,0,0,0,4.44,4.44A4.19,4.19,0,0,0,8.87,94,30.19,30.19,0,0,1,39,63.87H58.55A30.19,30.19,0,0,1,88.71,94a4.44,4.44,0,1,0,8.87,0A39.38,39.38,0,0,0,58.55,55Z"/></g></g></svg>