<svg xmlns="http://www.w3.org/2000/svg" viewBox="0 0 99.06 99.06"><defs><style>.cls-1{fill:#848484;}</style></defs><g id="Calque_2" data-name="Calque 2"><g id="Calque_1-2" data-name="Calque 1"><path class="cls-1" d="M62.74,89.16H54.49v-3.3a3.32,3.32,0,0,0-3.31-3.31v-5H66a4.87,4.87,0,0,0,5-4.95v-5a4.87,4.87,0,0,0-5-4.95H51.18V61.09H66a4.81,4.81,0,0,0,4.63-3.3H82.55c9.08,0,16.51-8.26,16.51-17.34,0-8.58-6.6-16.51-15-17.34A13.06,13.06,0,0,0,71,11.56a10.48,10.48,0,0,0-2.15.16A24.64,24.64,0,0,0,24.44,17a22.09,22.09,0,0,0-4.63-.5C8.92,16.51,0,26.25,0,37.15S8.92,57.79,19.81,57.79H28.4A4.8,4.8,0,0,0,33,61.09H47.88v1.65H33a4.86,4.86,0,0,0-5,4.95v5a4.86,4.86,0,0,0,5,4.95H47.88v5a3.31,3.31,0,0,0-3.3,3.31v3.3H36.32a3.31,3.31,0,0,0-3.3,3.3H0v3.3H33a3.31,3.31,0,0,0,3.3,3.3H62.74a3.3,3.3,0,0,0,3.3-3.3h33v-3.3H66A3.3,3.3,0,0,0,62.74,89.16ZM3.3,37.15c0-9.41,7.6-17.34,16.51-17.34a16,16,0,0,1,3.8.5l3,.66,1-2.81A21.41,21.41,0,0,1,47.88,3.3,21.18,21.18,0,0,1,66,13.54l1.16,1.81L69.34,15A6.47,6.47,0,0,1,71,14.86a10.11,10.11,0,0,1,9.9,8.75l.33,2.64,2.64.17c6.61.66,11.89,6.93,11.89,14,0,7.43-6.11,14-13.21,14H71V51.18a4.87,4.87,0,0,0-5-5H51.18V44.58H66a4.87,4.87,0,0,0,5-4.95v-5a4.87,4.87,0,0,0-5-5H33a4.86,4.86,0,0,0-5,5v5a4.86,4.86,0,0,0,5,4.95H47.88v1.65H33a4.86,4.86,0,0,0-5,5v3.31H19.81C10.9,54.49,3.3,46.56,3.3,37.15ZM33,41.28a1.56,1.56,0,0,1-1.65-1.65v-5A1.56,1.56,0,0,1,33,33H66a1.56,1.56,0,0,1,1.65,1.65v5A1.56,1.56,0,0,1,66,41.28Zm0,16.51a1.56,1.56,0,0,1-1.65-1.65v-5A1.56,1.56,0,0,1,33,49.53H66a1.56,1.56,0,0,1,1.65,1.65v5A1.56,1.56,0,0,1,66,57.79ZM33,74.3a1.56,1.56,0,0,1-1.65-1.65v-5A1.56,1.56,0,0,1,33,66H66a1.56,1.56,0,0,1,1.65,1.65v5A1.56,1.56,0,0,1,66,74.3ZM62.74,95.76H36.32v-3.3h9.91a1.56,1.56,0,0,0,1.65-1.65v-5h3.3v5a1.56,1.56,0,0,0,1.65,1.65h9.91Z"/></g></g></svg>