<svg xmlns="http://www.w3.org/2000/svg" viewBox="0 0 99.35 99.35"><defs><style>.cls-1{fill:#848484;}</style></defs><g id="Calque_2" data-name="Calque 2"><g id="Calque_1-2" data-name="Calque 1"><path class="cls-1" d="M49.81,0h-.27a49.68,49.68,0,1,0,.27,0Zm-16,8.26c-4.13,4.79-7.46,11.45-9.59,19.44a46.8,46.8,0,0,1-9.72-4.93A43.52,43.52,0,0,1,33.83,8.26ZM11.45,27.17a53.79,53.79,0,0,0,11.46,5.72A78,78,0,0,0,21.31,47h-16A45.61,45.61,0,0,1,11.45,27.17ZM5.33,52.34h16a88.06,88.06,0,0,0,1.46,13.72,55.05,55.05,0,0,0-11.58,5.72A43.64,43.64,0,0,1,5.33,52.34Zm8.92,24a45.78,45.78,0,0,1,9.86-5.06,51.16,51.16,0,0,0,9.72,19.84A43.19,43.19,0,0,1,14.25,76.31ZM47,93.76C39.29,92,32.63,82.57,29.17,69.65A83.3,83.3,0,0,1,47,67Zm0-32.1a86.42,86.42,0,0,0-19,2.8,71.37,71.37,0,0,1-1.33-12.12H47ZM47,47H26.64A74.63,74.63,0,0,1,28.1,34.49,78.31,78.31,0,0,0,47,37.16Zm0-15.18A74.84,74.84,0,0,1,29.3,29.3C32.76,16.65,39.42,7.32,47,5.59ZM52.34,5.59C59.93,7.32,66.59,16.65,70.05,29.3a74.84,74.84,0,0,1-17.71,2.53Zm0,31.57a85.24,85.24,0,0,0,18.91-2.8,77.36,77.36,0,0,1,1.47,12.52H52.34Zm0,15.18H72.72a70.91,70.91,0,0,1-1.34,12.12,86.42,86.42,0,0,0-19-2.8Zm0,41.42V67a75.36,75.36,0,0,1,17.84,2.66C66.72,82.57,60.06,91.89,52.34,93.76Zm13.18-2.67c4.27-4.92,7.59-11.72,9.73-19.84a42.86,42.86,0,0,1,9.85,5.06A43.19,43.19,0,0,1,65.52,91.09ZM88,71.92a46.59,46.59,0,0,0-11.59-5.73,89.65,89.65,0,0,0,1.47-13.72h16A41.53,41.53,0,0,1,88,71.92ZM94,47H78a80.82,80.82,0,0,0-1.6-14.25A54.26,54.26,0,0,0,87.9,27,46.71,46.71,0,0,1,94,47ZM75.25,27.57A51.28,51.28,0,0,0,65.66,8.12,43.58,43.58,0,0,1,85,22.64,41.61,41.61,0,0,1,75.25,27.57Z"/></g></g></svg>