<?xml version="1.0" encoding="UTF-8"?><svg id="Calque_1" xmlns="http://www.w3.org/2000/svg" viewBox="0 0 75 75"><g id="Review"><path d="M59.01,50.82c0-8.76,.01-17.52,0-26.28,0-4.69-3.42-8.1-8.12-8.1h-1.51s0,2.88,0,2.88l.04,.43h.43c.9-.03,1.82-.06,2.75,.26,1.92,.66,3.07,2.34,3.07,4.52v15.74s0,7.87,0,7.87c0,.83,0,1.66-.01,2.49-.01,1.87-.02,3.81,.03,5.72,.03,1.25-.43,2.44-1.3,3.33-.91,.93-2.15,1.45-3.53,1.45-3.93-.02-7.85-.03-11.78-.03h-14.97c-2.83,.01-4.81-1.96-4.81-4.78,0-10.37,0-20.74,.01-31.1,0-.77,.02-1.59,.25-2.27,.6-1.83,1.86-2.88,3.74-3.09,.52-.06,1.2-.06,1.9-.04h.43s0-3.35,0-3.35h-1.85c-.58,.02-1.13,.08-1.65,.2-3.68,.85-6.15,3.97-6.15,7.76v19.7c0,4.15,0,8.31,.01,12.46,0,.69,.11,1.44,.32,2.22,.73,2.72,3.41,5.65,7.59,5.65h.14c2.06-.04,4.11-.03,6.17-.02,.9,0,1.79,0,2.69,0h1.64s8.04,0,8.04,0c3,0,6.01,0,9.01-.04,3.71-.03,7.05-3.19,7.3-6.9,.12-1.75,.11-3.53,.1-5.26v-1.39Z"/><path d="M47.68,19.41c0,.82-.35,1.17-1.17,1.17H28.52c-1,0-1.3-.31-1.3-1.34,0-.8,0-1.95,0-2.75,0-.71,.37-1.05,1.08-1.09,.76-.03,1.53,.02,2.27-.13,1.29-.26,2.3-1,2.96-2.16,.23-.4,.44-.8,.67-1.19,.51-.87,1.28-1.3,2.28-1.32,.58-.02,1.16,0,1.74,0,1.18-.03,2,.51,2.59,1.51,.45,.75,.9,1.53,1.51,2.14,.94,.93,2.16,1.22,3.48,1.18,1.77-.05,1.88,.09,1.88,1.83,0,.61,0,1.56,0,2.15Z"/><path d="M40.3,31.83v2.79h11.39v-2.79h-11.39Z"/><g><path d="M36.4,28.62c-.13,.21-.28,.42-.41,.63-.35,.51-.69,1.03-1.03,1.56-.42,.63-.83,1.24-1.24,1.87-.37,.56-.74,1.12-1.11,1.67-.21,.3-.41,.62-.62,.92-.26,.36-.82,.63-1.25,.42-.17-.08-.38-.25-.49-.4-.02-.02-.03-.05-.05-.07-.05-.07-.09-.13-.13-.19-.07-.1-.13-.19-.2-.29-.08-.12-.16-.23-.25-.35-.09-.13-.19-.27-.28-.39-.1-.14-.19-.28-.29-.41-.09-.13-.19-.26-.28-.39-.08-.12-.16-.24-.25-.36-.06-.09-.13-.18-.19-.28-.05-.07-.1-.15-.16-.22,0,0-.02-.02-.02-.04-.05-.07-.07-.16-.08-.25-.02-.13,.04-.28,.13-.37,.08-.08,.19-.14,.31-.17,0,0,.15-.05,.39,.1l2.11,1.76c.15-.16,.29-.33,.44-.51,.36-.41,.72-.83,1.08-1.24,.45-.51,.89-1.02,1.32-1.53,.4-.45,.8-.91,1.2-1.37,.23-.28,.46-.55,.73-.8,.21-.19,.46-.1,.64,.08,0,0,.26,.26,0,.61Z"/><path d="M35.42,31.72s0,.01-.01,.02c-.11,.17-.14,.36-.09,.56,.05,.22,.08,.45,.09,.69,.12,2.33-1.59,4.46-3.9,4.81-3.15,.47-5.83-2.26-5.26-5.43,.33-1.83,1.79-3.31,3.62-3.67,1.07-.21,2.1-.05,2.96,.39,.29,.14,.63,.07,.84-.17,0,0,0,0,0-.01,.31-.35,.22-.9-.2-1.11-1.15-.57-2.5-.79-3.9-.51-2.46,.49-4.4,2.52-4.78,5-.63,4.12,2.94,7.63,7.08,6.91,2.6-.46,4.64-2.65,4.93-5.28,.07-.67,.04-1.32-.09-1.93-.13-.63-.95-.8-1.3-.26Z"/></g><path d="M40.3,49.01v2.79h11.39v-2.79h-11.39Z"/><g><path d="M36.4,45.8c-.13,.21-.28,.42-.41,.63-.35,.51-.69,1.03-1.03,1.56-.42,.63-.83,1.24-1.24,1.87-.37,.56-.74,1.12-1.11,1.67-.21,.3-.41,.62-.62,.92-.26,.36-.82,.63-1.25,.42-.17-.08-.38-.25-.49-.4-.02-.02-.03-.05-.05-.07-.05-.07-.09-.13-.13-.19-.07-.1-.13-.19-.2-.29-.08-.12-.16-.23-.25-.35-.09-.13-.19-.27-.28-.39-.1-.14-.19-.28-.29-.41-.09-.13-.19-.26-.28-.39-.08-.12-.16-.24-.25-.36-.06-.09-.13-.18-.19-.28-.05-.07-.1-.15-.16-.22,0,0-.02-.02-.02-.04-.05-.07-.07-.16-.08-.25-.02-.13,.04-.28,.13-.37,.08-.08,.19-.14,.31-.17,0,0,.15-.05,.39,.1l2.11,1.76c.15-.16,.29-.33,.44-.51,.36-.41,.72-.83,1.08-1.24,.45-.51,.89-1.02,1.32-1.53,.4-.45,.8-.91,1.2-1.37,.23-.28,.46-.55,.73-.8,.21-.19,.46-.1,.64,.08,0,0,.26,.26,0,.61Z"/><path d="M35.42,48.91v.02c-.12,.17-.15,.36-.11,.56,.05,.22,.08,.45,.09,.69,.12,2.33-1.59,4.46-3.9,4.81-3.15,.47-5.83-2.26-5.26-5.43,.33-1.83,1.79-3.31,3.62-3.67,1.07-.21,2.1-.05,2.96,.39,.29,.14,.63,.07,.84-.17,0,0,0,0,0-.01,.31-.35,.22-.9-.2-1.11-1.15-.57-2.5-.79-3.9-.51-2.46,.49-4.4,2.52-4.78,5-.63,4.12,2.94,7.63,7.08,6.91,2.6-.46,4.64-2.65,4.93-5.28,.07-.67,.04-1.32-.09-1.93-.13-.63-.95-.8-1.3-.26Z"/></g></g></svg>