<svg id="Calque_1" data-name="Calque 1" xmlns="http://www.w3.org/2000/svg" viewBox="0 0 75 75"><defs><style>.cls-1{font-size:36px;fill:#1d1d1b;font-family:MyriadPro-Regular, Myriad Pro;}.cls-2{letter-spacing:0em;}.cls-3{letter-spacing:-0.01em;}.cls-4{letter-spacing:-0.01em;}.cls-5{letter-spacing:0em;}.cls-6{letter-spacing:-0.01em;}.cls-7,.cls-8{fill:#3c3c3b;}.cls-7{stroke:#3c3c3b;stroke-miterlimit:10;}</style></defs><text class="cls-1" transform="translate(-45.45 -9.6)"><tspan class="cls-2">G</tspan><tspan class="cls-3" x="23.44" y="0">o</tspan><tspan class="cls-4" x="42.95" y="0">v</tspan><tspan x="59.9" y="0">e</tspan><tspan class="cls-5" x="77.94" y="0">r</tspan><tspan x="89.85" y="0">nan</tspan><tspan class="cls-6" x="147.17" y="0">c</tspan><tspan x="163.08" y="0">e</tspan></text><g id="_1-GOV-SecuPolicyCheck" data-name="1-GOV-SecuPolicyCheck"><path class="cls-7" d="M16.94,26.25c.11-1.48.25-3.2.36-4.93,0-.43.28-.45.62-.47,1.54-.06,3.09,0,4.62-.22a24,24,0,0,0,13.07-5.56c.55-.47,1.06-1,1.57-1.5.25-.25.4-.23.66,0a43.38,43.38,0,0,0,3.71,3.09,23.65,23.65,0,0,0,11.24,4c1.44.14,2.89.16,4.33.2.4,0,.58.15.62.54a39.14,39.14,0,0,1,.15,8.45c-.25,2.11-.49,4.24-.94,6.32a37.3,37.3,0,0,1-8.17,16.66A39.63,39.63,0,0,1,38,61.47a.83.83,0,0,1-.93,0,40.31,40.31,0,0,1-8.45-6.16,36.36,36.36,0,0,1-8-11.51,37.61,37.61,0,0,1-2.71-8.63c-.36-2-.54-4.09-.77-6.14C17,28.18,17,27.34,16.94,26.25Zm2-.55h-.06c.05,1,0,1.95.16,2.92.27,2.18.5,4.37.91,6.53a30.93,30.93,0,0,0,2.53,7.74,54.27,54.27,0,0,0,3.14,5.63,30.61,30.61,0,0,0,6.77,7.41c1.52,1.19,3.13,2.26,4.73,3.35a.81.81,0,0,0,.71,0,36.3,36.3,0,0,0,11.06-10,38,38,0,0,0,6.4-15.1,40.27,40.27,0,0,0,.77-10.68c0-.38-.14-.52-.53-.54-.87,0-1.74-.12-2.61-.23a31.46,31.46,0,0,1-7.64-2A26.86,26.86,0,0,1,38,16.53c-.39-.32-.59-.33-1,0a25.28,25.28,0,0,1-5.67,3.56A32.22,32.22,0,0,1,19.58,23c-.5,0-.65.25-.65.68Z"/><path class="cls-8" d="M46.87,27.91l3.47,3L35,48.72c-.38-.33-.73-.63-1.07-.94L26,40.73c-.22-.2-.25-.32,0-.55l2.63-2.92.2-.18,5.73,5.12Z"/></g></svg>