<svg id="Calque_1" data-name="Calque 1" xmlns="http://www.w3.org/2000/svg" viewBox="0 0 75 75"><defs><style>.cls-1{fill:none;stroke:#3c3c3b;stroke-linejoin:round;stroke-width:3px;}</style></defs><g id="_2-GOV-Licence" data-name="2-GOV-Licence"><polygon class="cls-1" points="59.39 24.88 48.13 31.4 37.54 25.3 26.87 31.4 15.61 24.97 37.54 12.26 59.39 24.88"/><polygon class="cls-1" points="59.39 37.16 59.39 50.12 37.54 62.74 37.54 62.74 37.54 62.74 37.54 49.78 37.54 49.78 48.13 43.68 48.13 43.68 59.39 37.16"/><polygon class="cls-1" points="37.54 62.74 15.69 50.2 15.61 24.97 26.87 31.4 26.87 43.68 37.54 49.78 37.54 62.74"/><polygon class="cls-1" points="37.54 25.3 48.13 31.4 48.13 43.68 37.54 37.59 37.54 25.3"/><polygon class="cls-1" points="37.54 25.3 37.54 37.5 26.87 43.68 26.87 31.4 37.54 25.3"/></g></svg>