<svg id="Calque_1" data-name="Calque 1" xmlns="http://www.w3.org/2000/svg" viewBox="0 0 75 75"><defs><style>.cls-1{fill:#3c3c3b;}</style></defs><path class="cls-1" d="M41.53,36.45a1.43,1.43,0,0,0-2.08-2l-2.77,3-1.13-1.19a1.43,1.43,0,1,0-2.08,2l2.2,2.33a1.32,1.32,0,0,0,1.07.44,1.78,1.78,0,0,0,1.07-.44Z"/><path class="cls-1" d="M34.1,52.44a1.06,1.06,0,0,0,1.07,1.07h4.72A1.06,1.06,0,0,0,41,52.44V50a14.59,14.59,0,0,0,2.9-1.19l1.76,1.76a1,1,0,0,0,1.51,0l3.34-3.34a1,1,0,0,0,0-1.51l-1.76-1.76A11.72,11.72,0,0,0,49.9,41h2.46A1.06,1.06,0,0,0,53.43,40V35.25a1.06,1.06,0,0,0-1.07-1.07H49.9a14.59,14.59,0,0,0-1.19-2.9l1.76-1.76a1,1,0,0,0,0-1.51l-3.34-3.34a1,1,0,0,0-1.51,0l-1.76,1.76A11.72,11.72,0,0,0,41,25.24V22.78a1.06,1.06,0,0,0-1.07-1.07H35.17a1.06,1.06,0,0,0-1.07,1.07v2.46a14.84,14.84,0,0,0-2.9,1.19l-1.76-1.76a1,1,0,0,0-1.51,0L24.59,28a1,1,0,0,0,0,1.51l1.77,1.76a11.38,11.38,0,0,0-1.2,2.9H22.7a1.06,1.06,0,0,0-1.07,1.07V40A1.06,1.06,0,0,0,22.7,41h2.46a14,14,0,0,0,1.2,2.9L24.59,45.7a1,1,0,0,0,0,1.51l3.34,3.34a1,1,0,0,0,1.51,0l1.76-1.76A11.88,11.88,0,0,0,34.1,50ZM29.69,37.52a7.81,7.81,0,1,1,7.81,7.8A7.81,7.81,0,0,1,29.69,37.52Z"/><path class="cls-1" d="M14.52,37.52a23,23,0,0,1,23-23h.06l-1.13,1.14a1.52,1.52,0,0,0,0,2.2,1.48,1.48,0,0,0,1.13.44,1.61,1.61,0,0,0,1.14-.44L42.54,14A1.52,1.52,0,0,0,43,12.9a1.85,1.85,0,0,0-.44-1.14L38.7,7.92a1.56,1.56,0,1,0-2.21,2.21l1.14,1.13h-.07A26.42,26.42,0,0,0,11.43,37.52a25.79,25.79,0,0,0,8.19,19,1.78,1.78,0,0,0,1.07.44,1.57,1.57,0,0,0,1.07-2.71A22.78,22.78,0,0,1,14.52,37.52Z"/><path class="cls-1" d="M63.57,37.52a25.8,25.8,0,0,0-8.19-19,1.57,1.57,0,0,0-2.2.06,1.66,1.66,0,0,0,.06,2.27,22.67,22.67,0,0,1,7.24,16.69,23,23,0,0,1-23,23h-.06l1.13-1.14a1.56,1.56,0,0,0-2.2-2.2L32.53,61a1.51,1.51,0,0,0-.44,1.14,1.77,1.77,0,0,0,.44,1.13l3.84,3.84a1.52,1.52,0,0,0,1.13.44,1.62,1.62,0,0,0,1.13-.44,1.52,1.52,0,0,0,0-2.2L37.5,63.77h.06A26.39,26.39,0,0,0,63.57,37.52Z"/></svg>