<svg id="Calque_1" data-name="Calque 1" xmlns="http://www.w3.org/2000/svg" viewBox="0 0 75 75"><defs><style>.cls-1{fill:#3c3c3b;}</style></defs><path class="cls-1" d="M48.47,37.5,38,45.51l-.45,0a4,4,0,1,0,4,4c0-.15,0-.3,0-.45l8-10.52Z"/><path class="cls-1" d="M37.5,17.55a27.94,27.94,0,0,0-25.24,39.9h4.5a23.76,23.76,0,0,1-3.18-11h4v-2h-4A24,24,0,0,1,16.3,34.33l3.43,2,1-1.74-3.43-2a23.76,23.76,0,0,1,3.27-4.06,24.91,24.91,0,0,1,4.12-3.31l2,3.41,1.74-1-2-3.41A23.77,23.77,0,0,1,36.5,21.56v4h2v-4a24.06,24.06,0,0,1,10.07,2.68l-2,3.41,1.73,1,2-3.41a25,25,0,0,1,4.13,3.31,23.89,23.89,0,0,1,3.26,4.06l-3.41,2,1,1.74,3.42-2a23.83,23.83,0,0,1,2.72,10.15h-4v2h4a23.76,23.76,0,0,1-3.18,11h4.5A27.94,27.94,0,0,0,37.5,17.55Z"/></svg>