<svg id="Calque_1" data-name="Calque 1" xmlns="http://www.w3.org/2000/svg" viewBox="0 0 75 75"><defs><style>.cls-1{font-size:36px;fill:#1d1d1b;font-family:MyriadPro-Regular, Myriad Pro;}.cls-2{letter-spacing:0em;}.cls-3{letter-spacing:0em;}.cls-4{fill:#3c3c3b;}</style></defs><text class="cls-1" transform="translate(-39.53 -14.48)">Ope<tspan class="cls-2" x="63.32" y="0">r</tspan><tspan class="cls-3" x="74.92" y="0">a</tspan><tspan x="92.12" y="0">tion</tspan></text><g id="_4-OPE-CPMmonitoring" data-name="4-OPE-CPMmonitoring"><path class="cls-4" d="M24.72,29.77H28L27,33.7l3-2.78,1.53,2.87-4,1,4,1.14L29.76,38.8,26.91,36l1,3.92h-3.2l1-3.92L22.81,38.8,21.07,36l4-1.14-4-1.12,1.74-2.91,2.91,2.91Z"/><path class="cls-4" d="M36.49,29.77h3.32l-1,3.93,2.95-2.78,1.53,2.87-4,1,4,1.14L41.53,38.8,38.68,36l1,3.92h-3.2l1-3.92L34.58,38.8,32.84,36l4-1.14-4-1.12,1.74-2.91L37.5,33.7Z"/><path class="cls-4" d="M49.27,36,49,37.16A4.22,4.22,0,0,1,50,37a4.59,4.59,0,0,1,.76.06L50.46,36l1.35,1.35a3.78,3.78,0,0,1,2,.61L55,36l-4-1.14,4-1L53.5,30.92l-3,2.78,1-3.93H48.26l1,3.93-2.91-2.91L44.62,33.7l4,1.12-4,1.14,1.08,1.76a4,4,0,0,1,1.83-.42l.35,0Z"/><polygon class="cls-4" points="54.42 52.95 52.82 54.21 44.68 44.55 46.28 43.3 54.42 52.95"/><polygon class="cls-4" points="46.71 54.15 45.03 53.01 52.19 43.21 53.87 44.36 46.71 54.15"/><path class="cls-4" d="M60.54,20.63l-3.88,1.05C52.4,15.81,42.38,13.25,32.37,16c-6.25,1.69-11.26,5.09-14.16,9.12a3.66,3.66,0,0,1,1.48,1.28l.43.26a6.73,6.73,0,0,1,1.35,1.24c2-3.8,6.29-7.12,11.91-8.64,7.41-2,14.74-.31,18.31,3.77l-3.58,1c-.73.2-1,.9-.45,1.22l8.41,5.16a1.19,1.19,0,0,0,1.62-.44l4-8.47C61.9,20.89,61.27,20.43,60.54,20.63Z"/><path class="cls-4" d="M39.83,49A10.19,10.19,0,0,1,40,47.84a7,7,0,0,1,.25-1,.91.91,0,0,1-.17.09c-6.58,3.27-13.71,2.82-17.71-.65l3.19-1.58c.65-.32.82-1.08.22-1.3l-8.69-3.73a1.09,1.09,0,0,0-1.44.71l-2.32,9.14c-.14.59.52.94,1.18.61l3.44-1.7c4.61,4.81,13.43,5.86,21.82,2.4A9.45,9.45,0,0,1,39.83,49Z"/><path class="cls-4" d="M49.57,60.12A11.37,11.37,0,1,1,61.21,48.75,11.53,11.53,0,0,1,49.57,60.12Zm0-20.08a8.72,8.72,0,1,0,8.92,8.71A8.83,8.83,0,0,0,49.57,40Z"/></g></svg>