<svg id="Calque_1" data-name="Calque 1" xmlns="http://www.w3.org/2000/svg" viewBox="0 0 75 75"><defs><style>.cls-1,.cls-2{fill:#3c3c3b;}.cls-1{stroke:#3c3c3b;stroke-miterlimit:10;}</style></defs><g id="_5-OPE-FindingsRecom" data-name="5-OPE-FindingsRecom"><path class="cls-1" d="M16.94,26.25c.11-1.48.25-3.2.36-4.93,0-.43.28-.45.62-.47,1.54-.06,3.09,0,4.62-.22a24,24,0,0,0,13.07-5.56c.55-.47,1.06-1,1.57-1.5.25-.25.4-.23.66,0a43.38,43.38,0,0,0,3.71,3.09,23.65,23.65,0,0,0,11.24,4c1.44.14,2.89.16,4.33.2.4,0,.58.15.62.54a39.14,39.14,0,0,1,.15,8.45c-.25,2.11-.49,4.24-.94,6.32a37.3,37.3,0,0,1-8.17,16.66A39.63,39.63,0,0,1,38,61.47a.83.83,0,0,1-.93,0,40.31,40.31,0,0,1-8.45-6.16,36.36,36.36,0,0,1-8-11.51,37.61,37.61,0,0,1-2.71-8.63c-.36-2-.54-4.09-.77-6.14C17,28.18,17,27.34,16.94,26.25Zm2-.55h-.06c.05,1,0,1.95.16,2.92.27,2.18.5,4.37.91,6.53a30.93,30.93,0,0,0,2.53,7.74,54.27,54.27,0,0,0,3.14,5.63,30.61,30.61,0,0,0,6.77,7.41c1.52,1.19,3.13,2.26,4.73,3.35a.81.81,0,0,0,.71,0,36.3,36.3,0,0,0,11.06-10,38,38,0,0,0,6.4-15.1,40.27,40.27,0,0,0,.77-10.68c0-.38-.14-.52-.53-.54-.87,0-1.74-.12-2.61-.23a31.46,31.46,0,0,1-7.64-2A26.86,26.86,0,0,1,38,16.53c-.39-.32-.59-.33-1,0a25.28,25.28,0,0,1-5.67,3.56A32.22,32.22,0,0,1,19.58,23c-.5,0-.65.25-.65.68Z"/><path class="cls-2" d="M42.15,24.33,40,41.1h-4.7l-2-16.77Z"/><circle class="cls-2" cx="37.91" cy="49.21" r="4.69"/></g></svg>