<svg id="Calque_1" data-name="Calque 1" xmlns="http://www.w3.org/2000/svg" viewBox="0 0 75 75"><defs><style>.cls-1{fill:none;stroke:#3c3c3b;stroke-miterlimit:10;stroke-width:3px;}</style></defs><g id="_6-OPE-Inventory" data-name="6-OPE-Inventory"><path class="cls-1" d="M27.6,27.07l9-4.46,12.89,6.53"/><polyline class="cls-1" points="24.23 49.8 21.36 48.14 21.36 30.51 24.23 28.86"/><path class="cls-1" d="M49.61,49.46,36.63,57l-9.12-5.27"/><path class="cls-1" d="M51.89,31.63V46.87"/><polyline class="cls-1" points="36.63 56.95 36.63 39.1 21.36 30.51"/><polyline class="cls-1" points="51.91 30.51 36.63 39.1 36.63 56.95"/><polyline class="cls-1" points="51.91 33.23 51.91 33.54 51.91 30.51 47.91 28.32"/><line class="cls-1" x1="23.4" y1="29.34" x2="28.39" y2="26.68"/><line class="cls-1" x1="23.48" y1="49.36" x2="28.77" y2="52.41"/><polyline class="cls-1" points="48.77 49.95 51.91 48.12 51.91 45.05"/><circle class="cls-1" cx="10.17" cy="12.18" r="6.9"/><circle class="cls-1" cx="61.05" cy="22.21" r="6.51"/><circle class="cls-1" cx="66.39" cy="57.97" r="5.33"/><circle class="cls-1" cx="15.32" cy="61.22" r="8.5"/><line class="cls-1" x1="15.32" y1="17.46" x2="26.13" y2="27.77"/><line class="cls-1" x1="22.3" y1="54.67" x2="25.9" y2="50.89"/><line class="cls-1" x1="62.2" y1="54.67" x2="51.07" y2="48.12"/><line class="cls-1" x1="56.32" y1="26.68" x2="51.07" y2="30.05"/></g></svg>