<svg id="Calque_1" data-name="Calque 1" xmlns="http://www.w3.org/2000/svg" viewBox="0 0 75 75"><defs><style>.cls-1{fill:#3c3c3b;}</style></defs><g id="_8-ONB-PrivAccInventory" data-name="8-ONB-PrivAccInventory"><polygon class="cls-1" points="61.2 61.2 41.95 61.2 41.95 57.7 57.7 57.7 57.7 41.95 61.2 41.95 61.2 61.2"/><polygon class="cls-1" points="33.05 61.2 13.8 61.2 13.8 41.95 17.3 41.95 17.3 57.7 33.05 57.7 33.05 61.2"/><polygon class="cls-1" points="17.3 33.05 13.8 33.05 13.8 13.8 33.05 13.8 33.05 17.3 17.3 17.3 17.3 33.05"/><polygon class="cls-1" points="61.2 33.05 57.7 33.05 57.7 17.3 41.95 17.3 41.95 13.8 61.2 13.8 61.2 33.05"/><path class="cls-1" d="M50.58,31.59,47,34.49c-2.13,1.71-5.07.76-6.14-2L38,25.65a.59.59,0,0,0-1.14,0l-2.7,6.84c-1.11,2.8-4.13,3.71-6.26,1.9l-3.51-3c-.5-.43-1.19.14-1,.85l3.68,14.49a.25.25,0,0,0,.25.19H47.68a.28.28,0,0,0,.25-.19l3.64-14.2C51.77,31.78,51.08,31.16,50.58,31.59Z"/></g></svg>