<svg id="Calque_1" data-name="Calque 1" xmlns="http://www.w3.org/2000/svg" viewBox="0 0 75 75"><defs><style>.cls-1{fill:#3c3c3b;}</style></defs><g id="_9-ONB-Onboarding" data-name="9-ONB-Onboarding"><path class="cls-1" d="M54.39,24.09,48.65,29.6c-3.35,3.25-8,1.44-9.68-3.7L34.59,12.81c-.39-1.08-1.49-1.08-1.81,0l-4.26,13c-1.74,5.32-6.51,7-9.87,3.61l-5.54-5.69c-.78-.81-1.87.27-1.55,1.63l5.8,27.52a.43.43,0,0,0,.39.37H38.2a14,14,0,0,1-.2-6,6.34,6.34,0,0,1-.41-2.92,6,6,0,0,1,.6-3.26c.4-1.56,1.4-2.81,3-2.81a3,3,0,0,1,.43,0,3.15,3.15,0,0,1,.44,0,2.93,2.93,0,0,1,.9.15,5.81,5.81,0,0,1,3.68-.29,2.69,2.69,0,0,1,1.49-.43,27.4,27.4,0,0,1,5.19.42l2.6-12.23C56.26,24.45,55.16,23.28,54.39,24.09Z"/><path class="cls-1" d="M63.5,63H36.88V36.85H63.5ZM39.58,59.93H60.8v-20H39.58Z"/><polygon class="cls-1" points="50.19 41.95 58.33 51.74 42.06 51.74 50.19 41.95 50.19 41.95"/><rect class="cls-1" x="46.3" y="50.48" width="7.79" height="6.58" transform="translate(100.38 107.54) rotate(180)"/></g></svg>