<svg height='100px' width='100px'  fill="#000000" xmlns:dc="http://purl.org/dc/elements/1.1/" xmlns:cc="http://creativecommons.org/ns#" xmlns:rdf="http://www.w3.org/1999/02/22-rdf-syntax-ns#" xmlns:svg="http://www.w3.org/2000/svg" xmlns="http://www.w3.org/2000/svg" xmlns:sodipodi="http://sodipodi.sourceforge.net/DTD/sodipodi-0.dtd" xmlns:inkscape="http://www.inkscape.org/namespaces/inkscape" version="1.1" x="0px" y="0px" viewBox="0 0 100 100"><g transform="translate(0,-952.36218)"><path style="font-size:medium;font-style:normal;font-variant:normal;font-weight:normal;font-stretch:normal;text-indent:0;text-align:start;text-decoration:none;line-height:normal;letter-spacing:normal;word-spacing:normal;text-transform:none;direction:ltr;block-progression:tb;writing-mode:lr-tb;text-anchor:start;baseline-shift:baseline;opacity:1;color:#000000;fill:#000000;fill-opacity:1;stroke:none;stroke-width:4;marker:none;visibility:visible;display:inline;overflow:visible;enable-background:accumulate;font-family:Sans;-inkscape-font-specification:Sans" d="M 10.8125 9 A 2.0002 2.0002 0 0 0 9 11 L 9 45 A 2.0002 2.0002 0 0 0 11 47 L 45 47 A 2.0002 2.0002 0 0 0 47 45 L 47 11 A 2.0002 2.0002 0 0 0 45 9 L 11 9 A 2.0002 2.0002 0 0 0 10.8125 9 z M 55 9 A 2.0002 2.0002 0 0 0 53 11 L 53 45 A 2.0002 2.0002 0 0 0 55 47 L 89 47 A 2.0002 2.0002 0 0 0 91 45 L 91 11 A 2.0002 2.0002 0 0 0 89.1875 9 A 2.0002 2.0002 0 0 0 89 9 L 55 9 z M 13 13 L 43 13 L 43 43 L 13 43 L 13 13 z M 57 13 L 87 13 L 87 43 L 57 43 L 57 13 z M 11 53 A 2.0002 2.0002 0 0 0 9 55 L 9 89 A 2.0002 2.0002 0 0 0 11 91 L 45 91 A 2.0002 2.0002 0 0 0 47 89 L 47 55 A 2.0002 2.0002 0 0 0 45 53 L 11 53 z M 55 53 A 2.0002 2.0002 0 0 0 53 55 L 53 89 A 2.0002 2.0002 0 0 0 55 91 L 89 91 A 2.0002 2.0002 0 0 0 91 89 L 91 55 A 2.0002 2.0002 0 0 0 89 53 L 55 53 z M 13 57 L 43 57 L 43 87 L 13 87 L 13 57 z M 57 57 L 87 57 L 87 87 L 57 87 L 57 57 z M 71.78125 60.96875 A 2.0002 2.0002 0 0 0 70 63 L 70 70 L 63 70 A 2.0002 2.0002 0 0 0 62.8125 70 A 2.0021961 2.0021961 0 1 0 63 74 L 70 74 L 70 81 A 2.0002 2.0002 0 1 0 74 81 L 74 74 L 81 74 A 2.0002 2.0002 0 1 0 81 70 L 74 70 L 74 63 A 2.0002 2.0002 0 0 0 71.78125 60.96875 z " transform="translate(0,952.36218)"></path></g></svg>