<svg height='100px' width='100px'  fill="#000000" xmlns="http://www.w3.org/2000/svg" xmlns:xlink="http://www.w3.org/1999/xlink" version="1.1" x="0px" y="0px" viewBox="0 0 100 100" style="enable-background:new 0 0 100 100;" xml:space="preserve"><title>94all</title><path d="M40.2,12.5H18.5c-3.3,0-6,2.7-6,6v21.7c0,3.3,2.7,6,6,6h21.7c3.3,0,6-2.7,6-6V18.5C46.2,15.2,43.5,12.5,40.2,12.5L40.2,12.5  z M40.2,40.2H18.5V18.5h21.7V40.2z"></path><path d="M81.5,12.5H59.8c-3.3,0-6,2.7-6,6v21.7c0,3.3,2.7,6,6,6h21.7c3.3,0,6-2.7,6-6V18.5C87.5,15.2,84.8,12.5,81.5,12.5z   M81.5,40.2H59.8V18.5h21.7L81.5,40.2z"></path><path d="M40.2,53.8H18.5c-3.3,0-6,2.7-6,6v21.7c0,3.3,2.7,6,6,6h21.7c3.3,0,6-2.7,6-6V59.8C46.2,56.5,43.5,53.8,40.2,53.8z   M40.2,81.5H18.5V59.8h21.7V81.5z"></path><path d="M81.5,53.8H59.8c-3.3,0-6,2.7-6,6v21.7c0,3.3,2.7,6,6,6h21.7c3.3,0,6-2.7,6-6V59.8C87.5,56.5,84.8,53.8,81.5,53.8z"></path></svg>