<svg  fill="#2196f3" xmlns:dc="http://purl.org/dc/elements/1.1/" xmlns:cc="http://creativecommons.org/ns#" xmlns:rdf="http://www.w3.org/1999/02/22-rdf-syntax-ns#" xmlns:svg="http://www.w3.org/2000/svg" xmlns="http://www.w3.org/2000/svg" xmlns:sodipodi="http://sodipodi.sourceforge.net/DTD/sodipodi-0.dtd" xmlns:inkscape="http://www.inkscape.org/namespaces/inkscape" version="1.1" x="0px" y="0px" viewBox="0 0 100 100"><g transform="translate(0,-952.36218)"><path style="text-indent:0;text-transform:none;direction:ltr;block-progression:tb;baseline-shift:baseline;color:#000000;enable-background:accumulate;" d="m 18,957.36217 c -0.6311,0 -0.9924,0.5331 -1,1 l 0,88.00003 c 10e-5,0.5236 0.4764,0.9999 1,1 l 50,0 c 0.2684,0 0.5341,-0.1176 0.7188,-0.3125 l 14,-14 c 0.1763,-0.1823 0.2792,-0.4338 0.2812,-0.6875 l 0,-74.00003 c -1e-4,-0.5236 -0.4764,-0.9999 -1,-1 z m 1,2 62,0 0,72.00003 -13,0 c -0.6416,0.01 -0.9932,0.5191 -1,1 l 0,13 -48,0 z m 7,8 c -0.635,0.01 -1.0041,0.5878 -1,1 l 0,14 c 10e-5,0.5236 0.4764,0.9999 1,1 l 18,0 c 0.5236,-10e-5 0.9999,-0.4764 1,-1 l 0,-14 c -1e-4,-0.5236 -0.4764,-0.9999 -1,-1 z m 1,2 16,0 0,12 -16,0 z m 25,5 c -0.5523,0 -1,0.44771 -1,1 0,0.5523 0.4477,1 1,1 l 22,0 c 0.5523,0 1,-0.4477 1,-1 0,-0.55229 -0.4477,-1 -1,-1 z m -4.0938,14.9688 c -0.28762,0.0325 -0.557674,0.19687 -0.7187,0.4374 L 38.75,1001.956 33.5625,998.51837 c -0.433618,-0.29452 -1.096125,-0.16796 -1.39065,0.26566 -0.294524,0.43362 -0.167968,1.09613 0.26565,1.39067 l 6,4 c 0.427503,0.2885 1.076427,0.1706 1.375,-0.25 l 9,-13.00002 c 0.463164,-0.61896 -0.137555,-1.6753 -0.9063,-1.5937 z M 26,991.36217 c -0.6038,0 -0.9963,0.5214 -1,1 l 0,18.00003 c 10e-5,0.5236 0.4764,0.9999 1,1 l 18,0 c 0.5236,-10e-5 0.9999,-0.4764 1,-1 l 0,-2 c 0.01,-0.5283 -0.4716,-1 -1,-1 -0.5284,0 -1.0075,0.4717 -1,1 l 0,1 -16,0 0,-16.00003 11,0 c 0.5283,0.01 1,-0.4716 1,-1 0,-0.5284 -0.4717,-1.0075 -1,-1 z m 26,9.00003 c -0.5523,0 -1,0.4478 -1,1 0,0.5523 0.4477,1 1,1 l 22,0 c 0.5523,0 1,-0.4477 1,-1 0,-0.5522 -0.4477,-1 -1,-1 z m -26,19 c -0.635,0.01 -1.0041,0.5878 -1,1 l 0,14 c 10e-5,0.5236 0.4764,0.9999 1,1 l 18,0 c 0.5236,-10e-5 0.9999,-0.4764 1,-1 l 0,-14 c -1e-4,-0.5236 -0.4764,-0.9999 -1,-1 z m 1,2 16,0 0,12 -16,0 z m 25,5 c -0.5523,0 -1,0.4477 -1,1 0,0.5523 0.4477,1 1,1 l 22,0 c 0.5523,0 1,-0.4477 1,-1 0,-0.5523 -0.4477,-1 -1,-1 z m 17,7 10.5625,0 L 69,1043.9247 z" fill="#2196f3" fill-opacity="1" stroke="none" marker="none" visibility="visible" display="inline" overflow="visible"></path></g></svg>