<svg height='100px' width='100px'  fill="#000000" xmlns="http://www.w3.org/2000/svg" data-name="Layer 1" viewBox="0 0 100 100" x="0px" y="0px"><title>Artboard 9</title><path d="M22.41,45.12,3,25.72a3.47,3.47,0,0,1,0-4.91L20.81,3a3.47,3.47,0,0,1,4.91,0l19.4,19.4a.83.83,0,0,1,0,1.18l-3.73,3.73a.83.83,0,0,1-1.17,0l-1.92-1.92L34.8,28.9a1.77,1.77,0,0,1-2.7-.23,1.84,1.84,0,0,1,.26-2.34l3.42-3.42-2.5-2.5-3.49,3.49a1.77,1.77,0,0,1-2.7-.23,1.84,1.84,0,0,1,.26-2.34l3.42-3.42-2.5-2.5-3.49,3.49a1.77,1.77,0,0,1-2.7-.23,1.84,1.84,0,0,1,.26-2.34l3.42-3.42-2.5-2.5L10.38,23.26,27.32,40.21a.83.83,0,0,1,0,1.18l-3.73,3.73A.83.83,0,0,1,22.41,45.12Zm55.17,9.77a.83.83,0,0,0-1.18,0l-3.73,3.73a.83.83,0,0,0,0,1.18l1.92,1.92-3.42,3.42a1.84,1.84,0,0,0-.26,2.34,1.77,1.77,0,0,0,2.7.23l3.49-3.49,2.5,2.5-3.42,3.42a1.84,1.84,0,0,0-.26,2.34,1.77,1.77,0,0,0,2.7.23l3.49-3.49,2.5,2.5-3.42,3.42a1.84,1.84,0,0,0-.26,2.34,1.77,1.77,0,0,0,2.7.23l3.49-3.49,2.5,2.5L76.74,89.62,59.79,72.68a.83.83,0,0,0-1.18,0l-3.73,3.73a.83.83,0,0,0,0,1.18L74.28,97a3.47,3.47,0,0,0,4.91,0L97,79.19a3.47,3.47,0,0,0,0-4.91Zm17.8-28.79L36.61,84.87a9.71,9.71,0,0,1-4.17,2.46l-20.5,5.89a4.16,4.16,0,0,1-4.09-1.06h0a4.16,4.16,0,0,1-1.06-4.09l5.89-20.51a9.71,9.71,0,0,1,2.46-4.17L73.91,4.61a8.53,8.53,0,0,1,12,0L95.39,14A8.52,8.52,0,0,1,95.39,26.09Zm-15.12-15a2.76,2.76,0,0,0-3.46.41L19.95,68.39a2.66,2.66,0,0,0-.76,1.66l-2.74,9.55,4,4,10.13-2.91A2.74,2.74,0,0,0,31.7,80l1.49-1.49-.06-.06a30.75,30.75,0,0,1-6.29-5c-.54-.54-1.05-1.09-1.54-1.63a.88.88,0,0,1,0-1.2L80.68,15.27A2.69,2.69,0,0,0,80.26,11.13Z"></path></svg>