<svg  fill="#2196f3" xmlns="http://www.w3.org/2000/svg" xmlns:xlink="http://www.w3.org/1999/xlink" version="1.1" x="0px" y="0px" viewBox="0 0 64 64" style="enable-background:new 0 0 64 64;" xml:space="preserve"><g><path d="M49.8,2H21.9c-0.3,0-0.5,0.1-0.7,0.3L20.5,3h-0.2v0.2L10.5,13c-0.2,0.2-0.3,0.4-0.3,0.7v44.2c0,2.2,1.8,4.1,4.1,4.1h35.5   c2.2,0,4.1-1.8,4.1-4.1V6.1C53.8,3.8,52,2,49.8,2z M20.3,6v5.3c0,1.1-0.9,1.9-1.9,1.9H13L20.3,6z M51.8,57.9c0,1.1-0.9,2.1-2.1,2.1   H14.2c-1.1,0-2.1-0.9-2.1-2.1V15.3h6.2c2.2,0,3.9-1.8,3.9-3.9V4l0,0h27.4c1.1,0,2.1,0.9,2.1,2.1V57.9z"></path><path d="M45.9,25.3H18.1c-0.6,0-1,0.4-1,1s0.4,1,1,1h27.7c0.6,0,1-0.4,1-1S46.4,25.3,45.9,25.3z"></path><path d="M45.9,31.6H18.1c-0.6,0-1,0.4-1,1s0.4,1,1,1h27.7c0.6,0,1-0.4,1-1S46.4,31.6,45.9,31.6z"></path><path d="M45.9,37.9H18.1c-0.6,0-1,0.4-1,1s0.4,1,1,1h27.7c0.6,0,1-0.4,1-1S46.4,37.9,45.9,37.9z"></path><path d="M45.9,44.2H18.1c-0.6,0-1,0.4-1,1s0.4,1,1,1h27.7c0.6,0,1-0.4,1-1S46.4,44.2,45.9,44.2z"></path></g></svg>