<svg  fill="#000000" xmlns="http://www.w3.org/2000/svg" viewBox="0 0 100 100" x="0px" y="0px"><defs><style>.cls-1{fill:none;}</style></defs><title>Asset 67</title><g data-name="Layer 2"><g data-name="Layer 1"><path d="M80.78,100H19.22A13.28,13.28,0,0,1,6,86.74V13.26A13.28,13.28,0,0,1,19.22,0H66.66A11.16,11.16,0,0,1,74.5,3.2h0l16.17,16a11.26,11.26,0,0,1,3.36,8V86.74A13.28,13.28,0,0,1,80.78,100ZM19.22,8A5.22,5.22,0,0,0,14,13.26V86.74A5.22,5.22,0,0,0,19.22,92H80.78A5.22,5.22,0,0,0,86,86.74V27.18a3.2,3.2,0,0,0-1-2.26h0l-16.16-16A3.16,3.16,0,0,0,66.66,8Z"></path><path d="M70.53,33.49H29.47a4,4,0,1,1,0-8H70.53a4,4,0,1,1,0,8.05Z"></path><path d="M70.53,54H29.47a4,4,0,1,1,0-8H70.53a4,4,0,1,1,0,8Z"></path><path d="M70.53,74.56H29.47a4,4,0,1,1,0-8H70.53a4,4,0,1,1,0,8Z"></path><rect class="cls-1" width="100" height="100"></rect></g></g></svg>