<svg height='100px' width='100px'  fill="#000000" xmlns="http://www.w3.org/2000/svg" xmlns:xlink="http://www.w3.org/1999/xlink" xml:space="preserve" version="1.1" style="shape-rendering:geometricPrecision;text-rendering:geometricPrecision;image-rendering:optimizeQuality;" viewBox="0 0 846.66 846.66" x="0px" y="0px" fill-rule="evenodd" clip-rule="evenodd"><defs><style type="text/css">
   
    .fil0 {fill:#000000;fill-rule:nonzero}
   
  </style></defs><g><path class="fil0" d="M316.32 58.96c142.09,0 257.29,115.18 257.29,257.27 0,36.35 -7.54,70.93 -21.14,102.28 69.31,69.32 138.68,138.59 207.99,207.91 84.77,84.77 -48.34,219.42 -133.86,133.95 -0.22,0 -190.23,-190.23 -207.99,-207.99 -31.36,13.6 -65.94,21.14 -102.29,21.14 -142.08,0 -257.27,-115.2 -257.27,-257.29 0,-142.08 115.19,-257.27 257.27,-257.27zm-124.57 215.96l85.7 85.71 150.09 -166.36 40.62 36.56 -188.7 209.19 -126.41 -126.4 38.7 -38.7zm338.17 184.79c-18.58,27.62 -42.49,51.54 -70.12,70.11l198.59 198.68c43.13,42.98 113.4,-26.92 70.16,-70.17l-198.63 -198.62zm-1.46 -143.48c0,-117.16 -94.98,-212.13 -212.14,-212.13 -117.15,0 -212.13,94.98 -212.13,212.13 0,117.16 94.97,212.14 212.13,212.14 116.31,0 212.14,-94.13 212.14,-212.14z"></path></g></svg>